<?xml version="1.0" encoding="UTF-8"?>
<svg width="36px" height="36px" viewBox="0 0 36 36" version="1.1" xmlns="http://www.w3.org/2000/svg" xmlns:xlink="http://www.w3.org/1999/xlink">
    <title>close</title>
    <g id="Page-1" stroke="none" stroke-width="1" fill="none" fill-rule="evenodd">
        <g id="close" transform="translate(0.498535, 0.501953)" fill="#FFFFFF" fill-rule="nonzero">
            <path d="M-0.354221192,-0.354222021 C-0.180326596,-0.52811621 0.0896070403,-0.547437493 0.284843323,-0.41218607 L0.354222021,-0.354221192 L35.354187,34.6458258 C35.549818,34.8414572 35.5498176,35.1586381 35.3541862,35.354269 C35.1802916,35.5281632 34.910358,35.5474845 34.7151217,35.4122331 L34.645743,35.3542682 L-0.354222021,0.354221192 C-0.549852984,0.158589771 -0.549852612,-0.158591059 -0.354221192,-0.354222021 Z" id="Path"></path>
            <path d="M34.645743,-0.354221192 C34.8413739,-0.549852612 35.1585548,-0.549852984 35.3541862,-0.354222021 C35.5280808,-0.180327833 35.5474027,0.0896057577 35.4121517,0.284842358 L35.354187,0.354221192 L0.354222021,35.3542682 C0.158591059,35.5498996 -0.158589771,35.5499 -0.354221192,35.354269 C-0.528115788,35.1803748 -0.547437703,34.9104412 -0.412186738,34.7152046 L-0.354222021,34.6458258 L34.645743,-0.354221192 Z" id="Path"></path>
        </g>
    </g>
</svg>