<?xml version="1.0" encoding="UTF-8"?>
<svg width="195px" height="46px" viewBox="0 0 195 46" version="1.1" xmlns="http://www.w3.org/2000/svg" xmlns:xlink="http://www.w3.org/1999/xlink">
    <title>clutch</title>
    <g id="Page-1" stroke="none" stroke-width="1" fill="none" fill-rule="evenodd">
        <g id="clutch" transform="translate(0.200000, 0.967800)">
            <rect id="Rectangle" x="0" y="0.0322" width="194" height="44"></rect>
            <g transform="translate(1.000000, 18.032200)" fill-rule="nonzero">
                <path d="M22.4,0 L26.3,0 L26.3,24.5 L22.4,24.5 L22.4,0 Z M40,16.6 C40,20.3 36.9,20.6 35.9,20.6 C33.6,20.6 33.1,18.4 33.1,17.1 L33.1,7.8 L29.2,7.8 L29.2,17.1 C29.2,19.4 29.9,21.3 31.2,22.6 C32.3,23.7 34,24.3 35.8,24.3 C37.1,24.3 38.9,23.9 39.9,23 L39.9,24.3 L43.8,24.3 L43.8,7.8 L39.9,7.8 L39.9,16.6 L40,16.6 Z M51.8,1.9 L47.8,1.9 L47.8,7.8 L44.9,7.8 L44.9,11.7 L47.8,11.7 L47.8,24.4 L51.8,24.4 L51.8,11.7 L54.7,11.7 L54.7,7.8 L51.8,7.8 L51.8,1.9 Z M63.8,20.7 C61.1,20.7 59.1,18.7 59.1,16 C59.1,13.3 61,11.3 63.8,11.3 C65,11.3 66.2,11.7 67,12.5 L67.6,13 L70.2,10.4 L69.5,9.8 C67.9,8.4 65.9,7.6 63.7,7.6 C58.8,7.6 55.3,11.1 55.3,16 C55.3,20.8 58.9,24.5 63.7,24.5 C65.9,24.5 68,23.7 69.6,22.3 L70.2,21.7 L67.5,19.1 L66.9,19.6 C66.2,20.2 65,20.7 63.8,20.7 Z M76.2,0 L76.2,8.8 C77.2,7.9 78.6,7.5 79.9,7.5 C81.7,7.5 83.1,8.1 84.2,9.2 C85.5,10.5 86,12.4 86,14.7 L86,14.7 L86,24.4 L82.1,24.4 L82.1,14.3 C82.1,13 82,11.2 79.8,11.2 C78.9,11.2 76.2,11.5 76.2,15.2 L76.2,15.2 L76.2,24.4 L72.3,24.4 L72.3,0 L76.2,0 Z M11.3,0.7 C14.4,0.7 17.4,1.9 19.6,4.1 L19.6,4.1 L20.2,4.7 L17.6,7.3 L17,6.7 C15.5,5.2 13.5,4.4 11.4,4.4 C7,4.4 3.9,7.8 3.9,12.5 C3.9,17.2 7.1,20.6 11.4,20.6 C13.5,20.6 15.6,19.8 17,18.2 L17,18.2 L17.6,17.6 L20.2,20.3 L19.6,20.9 C17.4,23.1 14.5,24.4 11.3,24.4 C4.9,24.4 0,19.3 0,12.5 C0,5.8 4.8,0.7 11.3,0.7 Z" id="Shape" fill="#000000"></path>
                <path d="M66.5,16 C66.5,17.6 65.2,18.8 63.7,18.8 C62.2,18.8 60.8,17.5 60.8,16 C60.8,14.5 62.1,13.2 63.6,13.2 C65.1,13.2 66.5,14.4 66.5,16 Z" id="Path" fill="#FF3D2E"></path>
            </g>
            <text id="REVIEWED-ON" fill="#000000" fill-rule="nonzero" font-family="Helvetica" font-size="11" font-weight="normal">
                <tspan x="1.0121" y="10">REVIEWED ON</tspan>
            </text>
            <text id="12-REVIEWS" fill="#000000" fill-rule="nonzero" font-family="Helvetica" font-size="15" font-weight="normal">
                <tspan x="102.012" y="42">12 REVIEWS</tspan>
            </text>
            <g id="star" transform="translate(104.000000, 1.032200)" fill="#E62415" fill-rule="nonzero">
                <path d="M8.1,13.2 L3.9,15.9 C3.7,16.1 3.4,16 3.1,15.9 C2.9,15.7 2.8,15.4 2.8,15.1 L3.9,10.1 L0.2,6.8 C-2.83106871e-15,6.6 -2.83106871e-15,6.3 -2.83106871e-15,6 C0.1,5.7 0.3,5.5 0.6,5.5 L5.5,5.1 L7.4,0.4 C7.6,0.1 7.8,0 8.1,0 C8.4,0 8.6,0.2 8.7,0.4 L10.6,5.1 L15.5,5.5 C15.8,5.5 16,5.7 16.1,6 C16.2,6.3 16.1,6.6 15.9,6.7 L12.2,10.1 L13.3,15.1 C13.4,15.4 13.3,15.7 13,15.8 C12.8,16 12.5,16 12.3,15.8 L8.1,13.2 Z" id="Path_00000138539130213842342430000008869398740680686210_"></path>
                <path d="M26.5,13.2 L22.3,15.9 C22.1,16.1 21.8,16 21.5,15.9 C21.3,15.7 21.2,15.4 21.2,15.2 L22.3,10.2 L18.6,6.8 C18.4,6.6 18.3,6.3 18.4,6.1 C18.5,5.8 18.7,5.6 19,5.6 L23.9,5.2 L25.8,0.5 C26,0.1 26.3,0 26.5,0 C26.8,0 27,0.2 27.1,0.4 L29,5.1 L33.9,5.5 C34.2,5.5 34.4,5.7 34.5,6 C34.6,6.3 34.5,6.6 34.3,6.7 L30.6,10.1 L31.7,15.1 C31.8,15.4 31.7,15.7 31.4,15.8 C31.2,16 30.9,16 30.7,15.8 L26.5,13.2 Z" id="Path_00000160872420171986694910000006011411520698395813_"></path>
                <path d="M43.9,13.2 L39.7,15.9 C39.5,16.1 39.2,16 38.9,15.9 C38.7,15.7 38.6,15.4 38.6,15.2 L39.7,10.2 L36,6.8 C35.8,6.6 35.7,6.3 35.8,6 C35.9,5.7 36.1,5.5 36.4,5.5 L41.3,5.1 L43.2,0.4 C43.3,0.1 43.6,0 43.9,0 C44.2,0 44.4,0.2 44.5,0.4 L46.4,5.1 L51.3,5.5 C51.6,5.5 51.8,5.7 51.9,6 C52,6.3 51.9,6.6 51.7,6.7 L48,10.1 L49.1,15.1 C49.2,15.4 49.1,15.7 48.8,15.8 C48.6,16 48.3,16 48.1,15.8 L43.9,13.2 Z" id="Path_00000143578238051190138980000004637938899146341309_"></path>
                <path d="M63.5,13.2 L59.3,15.9 C59.1,16.1 58.8,16 58.5,15.9 C58.3,15.7 58.2,15.4 58.2,15.2 L59.3,10.2 L55.6,6.8 C55.4,6.6 55.3,6.3 55.4,6.1 C55.5,5.8 55.7,5.6 56,5.6 L60.9,5.2 L62.8,0.4 C63,0.1 63.2,0 63.5,0 C63.8,0 64,0.2 64.1,0.4 L66,5.1 L70.9,5.5 C71.2,5.5 71.4,5.7 71.5,6 C71.6,6.3 71.5,6.6 71.3,6.7 L67.6,10.1 L68.7,15.1 C68.8,15.4 68.7,15.7 68.4,15.8 C68.2,16 67.9,16 67.7,15.8 L63.5,13.2 Z" id="Path_00000181808381059686210310000011543976633429003145_"></path>
                <path d="M81.9,13.2 L77.7,15.9 C77.5,16.1 77.2,16 76.9,15.9 C76.7,15.7 76.6,15.4 76.6,15.2 L77.7,10.2 L74,6.8 C73.9,6.6 73.8,6.3 73.9,6 C74,5.7 74.2,5.5 74.5,5.5 L79.4,5.1 L81.3,0.4 C81.4,0.1 81.7,0 81.9,0 C82.2,0 82.4,0.2 82.5,0.4 L84.4,5.1 L89.3,5.5 C89.6,5.5 89.8,5.7 89.9,6 C90,6.3 89.9,6.6 89.7,6.7 L86,10.1 L87.1,15.1 C87.2,15.4 87.1,15.7 86.8,15.8 C86.6,16 86.3,16 86.1,15.8 L81.9,13.2 Z" id="Path_00000037666550530516138700000015515743039001834631_"></path>
            </g>
        </g>
    </g>
</svg>