<svg width="93" height="104" viewBox="0 0 93 104" fill="none" xmlns="http://www.w3.org/2000/svg">
<path d="M33.5822 94.8834L32.2963 92.977L38.6688 88.6795L34.1353 81.9594L36.0417 80.6735L41.8602 89.2998L33.5822 94.8834Z" fill="#2FA8C6"/>
<path d="M14.766 26.7064L12.8578 25.4229C22.3028 11.382 39.1386 4.39544 55.7474 7.62385C71.4705 10.6801 83.9099 22.1702 88.2139 37.6094L85.9991 38.2264C81.9311 23.6312 70.1714 12.7699 55.3087 9.88084C39.6081 6.82897 23.6936 13.4334 14.766 26.7064Z" fill="#2FA8C6"/>
<path d="M39.7169 90.0945C24.9571 87.2254 12.7798 76.5893 7.93774 62.3374L10.1146 61.5978C14.6931 75.0705 26.2038 85.1255 40.1556 87.8375L39.7169 90.0945Z" fill="#2FA8C6"/>
</svg>
