<svg width="30" height="30" viewBox="0 0 30 30" fill="none" xmlns="http://www.w3.org/2000/svg">
<mask id="mask0_950_1227" style="mask-type:alpha" maskUnits="userSpaceOnUse" x="0" y="0" width="30" height="30">
<rect width="30" height="30" fill="#D9D9D9"/>
</mask>
<g mask="url(#mask0_950_1227)">
</g>
<g clip-path="url(#clip0_950_1227)">
<path d="M13.7761 23C13.5717 22.9168 13.5083 22.7594 13.5087 22.5408C13.5131 20.2998 13.514 18.059 13.5114 15.8182V15.5994H13.325C12.6963 15.5994 12.0677 15.5994 11.439 15.5994C11.121 15.5994 11.002 15.4827 11.0013 15.1648C10.9996 14.2904 10.9996 13.416 11.0013 12.5416C11.0013 12.2349 11.1263 12.1126 11.4295 12.1119C12.0582 12.1108 12.6869 12.1108 13.3156 12.1119H13.5104C13.5104 12.0376 13.5104 11.9787 13.5104 11.9195C13.5128 11.2445 13.4962 10.5688 13.5219 9.89478C13.5594 8.91947 13.8371 8.02513 14.4796 7.27629C15.0734 6.58411 15.8321 6.17174 16.7148 6.07993C17.5097 5.99721 18.3153 6.02326 19.1163 6.00315C19.2842 5.99896 19.4524 5.99861 19.6203 6.0042C19.8625 6.01242 19.9943 6.14026 19.9956 6.38737C20.0001 7.22831 20.0001 8.06931 19.9956 8.91037C19.9943 9.16605 19.8615 9.28707 19.6039 9.29091C19.0351 9.29931 18.4659 9.29511 17.8977 9.31767C17.5984 9.32956 17.3084 9.4184 17.1611 9.7199C17.0888 9.86907 17.0377 10.045 17.0339 10.2096C17.0194 10.8342 17.0281 11.4594 17.0281 12.1107H17.1994C17.9473 12.1107 18.6954 12.1107 19.4435 12.1107C19.7786 12.1107 19.8944 12.228 19.8946 12.5682C19.8946 13.4309 19.8942 14.2941 19.8935 15.1576C19.8935 15.4798 19.7772 15.5973 19.4617 15.5976C18.7138 15.5986 17.9657 15.5986 17.2176 15.5976H17.0218V15.8058C17.0218 18.0411 17.0225 20.2764 17.0238 22.5117C17.0238 22.7291 16.9713 22.9017 16.766 22.9983L13.7761 23Z" fill="black"/>
</g>
<defs>
<clipPath id="clip0_950_1227">
<rect width="9" height="17" fill="white" transform="translate(11 6)"/>
</clipPath>
</defs>
</svg>
