<svg width="30" height="30" viewBox="0 0 30 30" fill="none" xmlns="http://www.w3.org/2000/svg">
<mask id="mask0_950_1240" style="mask-type:alpha" maskUnits="userSpaceOnUse" x="0" y="0" width="30" height="30">
<rect width="30" height="30" fill="#D9D9D9"/>
</mask>
<g mask="url(#mask0_950_1240)">
</g>
<g clip-path="url(#clip0_950_1240)">
<path d="M24.0003 15.4966C23.9628 17.0048 23.9452 18.5138 23.8803 20.0205C23.8388 20.9814 23.5917 21.8889 22.9371 22.6393C22.2351 23.444 21.3139 23.8141 20.2867 23.8782C18.9486 23.9589 17.6056 23.9761 16.2641 23.9922C14.9138 24.0076 13.5632 24.0014 12.2122 23.9736C11.5556 23.9604 10.8907 23.9286 10.2458 23.8141C8.44732 23.4954 7.36551 22.3759 7.15169 20.5545C7.03013 19.5212 7.00523 18.4722 7.00132 17.4296C6.99351 15.3992 7.02133 13.3669 7.05843 11.3374C7.06978 10.8648 7.13115 10.3947 7.2415 9.93504C7.59495 8.43818 8.54642 7.515 10.0422 7.20809C10.6805 7.08218 11.3293 7.0176 11.9798 7.01523C14.3143 6.9932 16.6493 6.9981 18.9838 7.01523C19.545 7.01797 20.1051 7.06428 20.6592 7.15376C22.4777 7.45332 23.6035 8.60412 23.8178 10.4397C23.9276 11.3761 23.9315 12.3267 23.9584 13.2714C23.9794 14.0135 23.9628 14.756 23.9628 15.4986L24.0003 15.4966ZM15.4928 10.1612C12.6159 10.125 10.1999 12.5107 10.1667 15.4247C10.1623 16.831 10.7124 18.1821 11.6971 19.1835C12.6819 20.185 14.0214 20.7556 15.4239 20.7711C16.8264 20.7866 18.1782 20.2457 19.1847 19.2663C20.1912 18.2868 20.7709 16.9482 20.7974 15.5422C20.8384 12.5959 18.4766 10.2003 15.4928 10.1622V10.1612ZM22.2356 9.96833C22.2387 9.63806 22.1108 9.32009 21.8801 9.08435C21.6494 8.84862 21.3347 8.71443 21.0053 8.71132C20.676 8.7082 20.3588 8.83641 20.1237 9.06774C19.8886 9.29907 19.7548 9.61457 19.7517 9.94483C19.7501 10.1084 19.7807 10.2706 19.8417 10.4223C19.9027 10.5739 19.9929 10.7121 20.1072 10.8288C20.2214 10.9455 20.3574 11.0385 20.5075 11.1026C20.6576 11.1666 20.8188 11.2003 20.9819 11.2018C21.145 11.2034 21.3068 11.1727 21.4581 11.1115C21.6093 11.0504 21.7471 10.96 21.8635 10.8454C21.9799 10.7309 22.0727 10.5945 22.1365 10.444C22.2004 10.2935 22.234 10.1319 22.2356 9.96833Z" fill="black"/>
<path d="M15.4666 18.9482C13.5783 18.9482 12.0308 17.3941 12.0332 15.5052C12.0332 13.5604 13.5676 12.0298 15.5091 12.0352C17.3856 12.0401 18.9347 13.5908 18.9317 15.4616C18.9293 17.4098 17.3969 18.9507 15.4666 18.9482Z" fill="black"/>
</g>
<defs>
<clipPath id="clip0_950_1240">
<rect width="17" height="17" fill="white" transform="translate(7 7)"/>
</clipPath>
</defs>
</svg>
