<svg width="30" height="30" viewBox="0 0 30 30" fill="none" xmlns="http://www.w3.org/2000/svg">
<mask id="mask0_950_1245" style="mask-type:alpha" maskUnits="userSpaceOnUse" x="0" y="0" width="30" height="30">
<rect width="30" height="30" fill="#D9D9D9"/>
</mask>
<g mask="url(#mask0_950_1245)">
<path fill-rule="evenodd" clip-rule="evenodd" d="M4.64062 24.3601H8.87718V11.1877H4.64062V24.3601ZM6.87508 9.18496H6.90545C8.31477 9.18496 9.19271 8.17566 9.19337 6.91222C9.16301 5.61841 8.31477 4.64014 6.92855 4.64014C5.54233 4.64014 4.64128 5.62567 4.64128 6.91222C4.64128 8.17566 5.51923 9.18496 6.87508 9.18496ZM20.1241 24.3601H24.3606L24.3613 16.6646C24.3613 12.7126 22.2575 10.8795 19.4765 10.8795C17.2354 10.8795 16.2723 12.1429 15.6558 13.0208V11.1877H11.4193V24.3601H15.6558V16.8574C15.6558 16.4719 15.6868 16.0943 15.8024 15.817C16.1106 15.0454 16.8037 14.2533 17.9748 14.2533C19.5075 14.2533 20.1241 15.4322 20.1241 17.1577V24.3601Z" fill="black"/>
</g>
</svg>
