<?xml version="1.0" encoding="UTF-8"?>
<svg width="30px" height="23px" viewBox="0 0 30 23" version="1.1" xmlns="http://www.w3.org/2000/svg" xmlns:xlink="http://www.w3.org/1999/xlink">
    <title>mail</title>
    <g id="Page-1" stroke="none" stroke-width="1" fill="none" fill-rule="evenodd">
        <g id="mail" transform="translate(1.000000, 1.000000)" fill="#707070" fill-rule="nonzero">
            <path d="M25.0201,-0.75 L2.66171,-0.75 C0.779788718,-0.75 -0.75,0.758688321 -0.75,2.625 L-0.75,18.375 C-0.75,20.2412767 0.779804054,21.75 2.66171,21.75 L25.0201,21.75 C26.9019909,21.75 28.4318,20.2412718 28.4318,18.375 L28.4318,2.625 C28.4318,0.758693252 26.9020063,-0.75 25.0201,-0.75 Z M2.66171,0.75 L25.0201,0.75 C26.0782068,0.75 26.9318,1.59181961 26.9318,2.625 L26.9318,18.375 C26.9318,19.4081499 26.0781871,20.25 25.0201,20.25 L2.66171,20.25 C1.60360792,20.25 0.75,19.4081548 0.75,18.375 L0.75,2.625 C0.75,1.59181468 1.60358824,0.75 2.66171,0.75 Z" id="Path"></path>
            <path d="M22.9656307,3.6051069 C23.2942916,3.35300588 23.7650921,3.41506988 24.0171931,3.74373072 C24.2463758,4.04251331 24.2159181,4.45876669 23.9615585,4.72138708 L23.8785693,4.7952931 L14.2964693,12.1452931 C14.0571219,12.3288858 13.7347029,12.3492856 13.4768945,12.2064923 L13.3835334,12.1452952 L3.80134342,4.79529517 C3.47268143,4.54319564 3.4106153,4.07239541 3.66271483,3.74373342 C3.89189622,3.4449498 4.30182199,3.36649332 4.62138851,3.5441039 L4.71427658,3.60510483 L13.839,10.605 L22.9656307,3.6051069 Z" id="Path"></path>
        </g>
    </g>
</svg>