<svg width="30" height="30" viewBox="0 0 30 30" fill="none" xmlns="http://www.w3.org/2000/svg">
<mask id="mask0_950_1235" style="mask-type:alpha" maskUnits="userSpaceOnUse" x="0" y="0" width="30" height="30">
<rect width="30" height="30" fill="#D9D9D9"/>
</mask>
<g mask="url(#mask0_950_1235)">
</g>
<g clip-path="url(#clip0_950_1235)">
<path d="M7 14.6804C7.04572 12.1457 7.86936 10.1231 9.53247 8.45472C10.3605 7.62395 11.3291 7.00236 12.4206 6.57639C13.5075 6.15381 14.6695 5.95975 15.8345 6.00627C16.9994 6.05279 18.1423 6.3389 19.1922 6.84682C19.8944 7.18743 20.5469 7.62259 21.1315 8.1402C21.1858 8.1881 21.2382 8.23753 21.1999 8.31864C21.1616 8.39975 21.0967 8.39154 21.0216 8.38181C20.1178 8.26595 19.2053 8.23356 18.2956 8.28505C17.3506 8.33849 16.4184 8.4759 15.513 8.76007C14.5416 9.06543 13.6446 9.51049 12.9034 10.2262C12.1973 10.9077 11.7584 11.7339 11.5948 12.704C11.5017 13.2574 11.5015 13.8093 11.5714 14.3643C11.7356 15.6659 12.3579 16.7093 13.3566 17.5408C14.0071 18.0822 14.7324 18.5048 15.5033 18.843C16.3142 19.1987 17.1382 19.5251 17.9594 19.8568C18.7048 20.1581 19.4564 20.4446 20.1471 20.8637C20.2717 20.9391 20.393 21.0204 20.5121 21.1043C20.6347 21.191 20.6326 21.2692 20.5136 21.3568C19.4953 22.107 18.3627 22.5973 17.1242 22.8433C16.4045 22.9861 15.6691 23.0317 14.9374 22.979C13.2307 22.8569 11.6895 22.2847 10.3302 21.2406C9.32096 20.4693 8.49911 19.479 7.92631 18.3441C7.53316 17.5704 7.25829 16.756 7.12839 15.8986C7.05772 15.4348 7.02895 14.9655 7 14.6804Z" fill="black"/>
<path d="M24.0005 14.4967C23.9918 15.5454 23.7963 16.5841 23.4231 17.5639C23.3824 17.6717 23.3127 17.6999 23.2136 17.6457C22.3717 17.1816 21.4814 16.8278 20.585 16.4854C19.8906 16.2201 19.1944 15.9586 18.506 15.679C17.9953 15.4716 17.502 15.226 17.0605 14.8884C16.7435 14.646 16.47 14.365 16.3273 13.9849C16.0532 13.2495 16.2814 12.4562 16.9993 12.006C17.3715 11.7726 17.7854 11.6624 18.2153 11.604C18.6794 11.5413 19.1459 11.5436 19.6108 11.585C20.3977 11.6567 21.1427 11.8794 21.849 12.2338C22.5898 12.6058 23.2563 13.0877 23.8913 13.6158C23.9262 13.6467 23.9487 13.6893 23.9546 13.7356C23.975 13.9898 23.9864 14.2435 24.0005 14.4967Z" fill="black"/>
</g>
<defs>
<clipPath id="clip0_950_1235">
<rect width="17" height="17" fill="white" transform="translate(7 6)"/>
</clipPath>
</defs>
</svg>
