<svg width="30" height="30" viewBox="0 0 30 30" fill="none" xmlns="http://www.w3.org/2000/svg">
<mask id="mask0_950_1231" style="mask-type:alpha" maskUnits="userSpaceOnUse" x="0" y="0" width="30" height="30">
<rect width="30" height="30" fill="#D9D9D9"/>
</mask>
<g mask="url(#mask0_950_1231)">
</g>
<g clip-path="url(#clip0_950_1231)">
<path d="M7 22.9941C9.24996 20.4479 11.4518 17.9572 13.6683 15.4495L7.00252 6.00588H7.33067C8.76532 6.00588 10.2 6.01122 11.6351 6C11.8463 6 11.9724 6.07108 12.0939 6.24318C13.475 8.19615 14.8592 10.1463 16.2464 12.0935C16.3006 12.17 16.3609 12.2427 16.4257 12.3266C16.96 11.7258 17.4805 11.1432 17.9981 10.5575C19.2867 9.09834 20.5767 7.64012 21.868 6.18279C21.967 6.08375 22.0956 6.02422 22.2316 6.01443C22.5998 5.99252 22.97 6.00641 23.411 6.00641L17.0501 13.2218L23.9995 22.9952H23.6744C22.2139 22.9952 20.7539 22.9893 19.294 23.0011C19.0747 23.0011 18.9425 22.9316 18.8149 22.7493C17.3436 20.6546 15.8688 18.5632 14.3905 16.4751C14.3657 16.4399 14.3398 16.4062 14.2968 16.3501C13.8633 16.8375 13.4359 17.3153 13.012 17.7964C11.5289 19.4782 10.0448 21.1594 8.55972 22.8402C8.47273 22.9279 8.35921 22.9803 8.23917 22.9882C7.85582 23.0048 7.46539 22.9941 7 22.9941ZM9.17247 7.1411C9.25755 7.2667 9.3092 7.3458 9.36389 7.42277C10.0053 8.32532 10.6485 9.22787 11.2933 10.1304C14.0252 13.9612 16.7598 17.7903 19.497 21.6179C19.5369 21.6639 19.585 21.7012 19.6385 21.7276C19.692 21.754 19.75 21.769 19.809 21.7718C20.4167 21.7862 21.0244 21.7793 21.632 21.7787C21.6943 21.7787 21.7571 21.7712 21.8498 21.7654C21.7885 21.6697 21.7485 21.605 21.706 21.5409C19.9545 19.0695 18.2023 16.5984 16.4495 14.1277C14.8432 11.8637 13.2352 9.6011 11.6255 7.33992C11.5627 7.25173 11.4472 7.15233 11.3546 7.15019C10.6451 7.13469 9.93765 7.1411 9.17247 7.1411Z" fill="black"/>
</g>
<defs>
<clipPath id="clip0_950_1231">
<rect width="17" height="17" fill="white" transform="translate(7 6)"/>
</clipPath>
</defs>
</svg>
