<svg width="24" height="17" viewBox="0 0 24 17" fill="none" xmlns="http://www.w3.org/2000/svg">
<g clip-path="url(#clip0_950_1225)">
<path d="M11.7608 17C10.9961 16.98 9.55319 16.9639 8.11185 16.8987C6.81513 16.8401 5.52016 16.7504 4.22694 16.6297C3.63278 16.5715 3.04479 16.4619 2.46956 16.3023C1.43208 16.0204 0.782682 15.3202 0.471902 14.2948C0.259457 13.5946 0.193596 12.8722 0.137006 12.1492C-0.031527 10.0063 -0.0408098 7.86164 0.0770085 5.71633C0.126486 4.81262 0.175039 3.90644 0.381917 3.02033C0.555707 2.27568 0.868651 1.60948 1.50969 1.14342C1.92899 0.839044 2.41439 0.637969 2.9263 0.556596C3.70835 0.429657 4.49443 0.31538 5.28359 0.247741C7.82148 0.0315426 10.3665 -0.0228159 12.9124 0.000657121C15.1955 0.0228947 17.4767 0.0988748 19.7487 0.342253C20.2606 0.401264 20.7687 0.489847 21.2704 0.607558C22.5933 0.907456 23.3574 1.7565 23.6274 3.06975C23.8241 4.0272 23.8915 4.99577 23.9366 5.96774C24.0217 7.82087 24.0294 9.67215 23.9035 11.5222C23.8526 12.3073 23.761 13.0892 23.6292 13.8649C23.3837 15.2825 22.5281 16.1538 21.1108 16.4178C20.3279 16.5636 19.5337 16.6572 18.7384 16.7267C16.6427 16.9117 14.5411 16.9673 11.7608 17ZM9.59278 4.86976V12.1121L15.8588 8.4985L9.59278 4.86976Z" fill="black"/>
</g>
<defs>
<clipPath id="clip0_950_1225">
<rect width="24" height="17" fill="white"/>
</clipPath>
</defs>
</svg>
