<svg width="159" height="37" viewBox="0 0 159 37" fill="none" xmlns="http://www.w3.org/2000/svg">
<g clip-path="url(#clip0_490_751)">
<path d="M54.7815 11.0024C53.4508 11.0024 53.0653 11.591 53.0653 12.8896V15.0447H56.616L56.2593 18.5255H53.0653V29.0892H48.8045V18.5255H45.9336V15.0447H48.8045V12.9486C48.8045 9.43745 50.2232 7.58219 54.1849 7.58219C55.015 7.5806 55.8435 7.63005 56.6672 7.72895V11.0056L54.7799 11.0008L54.7815 11.0024Z" fill="#1877F2"/>
<path d="M56.9121 21.6251C56.9121 17.7008 58.7754 14.7464 62.6812 14.7464C64.8116 14.7464 66.1119 15.8392 66.7341 17.1951V15.0463H70.8157V29.0908H66.7341V26.966C66.1423 28.3235 64.8116 29.386 62.6812 29.386C58.7754 29.386 56.9121 26.4348 56.9121 22.5073V21.6251ZM61.1713 22.5695C61.1713 24.664 61.939 26.0503 63.9223 26.0503C65.6689 26.0503 66.5549 24.7821 66.5549 22.7753V21.3651C66.5549 19.3599 65.6673 18.0901 63.9223 18.0901C61.9406 18.0901 61.1713 19.4763 61.1713 21.5709V22.5679V22.5695Z" fill="#1877F2"/>
<path d="M79.6904 14.7496C81.3458 14.7496 82.9148 15.1053 83.7721 15.694L82.8252 18.7042C81.9375 18.2831 80.9683 18.0613 79.9847 18.0549C77.6767 18.0549 76.6739 19.3822 76.6739 21.6554V22.4801C76.6739 24.7534 77.6799 26.0806 79.9847 26.0806C80.9683 26.0742 81.9375 25.8525 82.8252 25.4313L83.7721 28.44C82.9148 29.0302 81.3474 29.3859 79.6904 29.3859C74.6906 29.3859 72.4131 26.6995 72.4131 22.3924V21.7431C72.4131 17.436 74.6906 14.7496 79.6904 14.7496Z" fill="#1877F2"/>
<path d="M84.334 22.6046V21.3667C84.334 17.3833 86.6115 14.7624 91.2578 14.7624C95.6354 14.7624 97.5595 17.4184 97.5595 21.3124V23.5553H88.5932C88.6828 25.4728 89.5416 26.3294 91.904 26.3294C93.5034 26.3294 95.1891 26.004 96.4319 25.4744L97.2108 28.3841C96.0864 28.9759 93.7785 29.4178 91.7392 29.4178C86.3476 29.4178 84.3356 26.733 84.3356 22.6062L84.334 22.6046ZM88.5932 20.7732H93.7417V20.4191C93.7417 18.8845 93.1211 17.6673 91.2594 17.6673C89.3353 17.6673 88.5948 18.8797 88.5948 20.7668V20.7716L88.5932 20.7732Z" fill="#1877F2"/>
<path d="M113.349 22.5105C113.349 26.4348 111.456 29.3891 107.556 29.3891C105.425 29.3891 103.947 28.3267 103.356 26.9692V29.094H99.333V7.99218L103.592 7.60773V16.9909C104.213 15.753 105.574 14.748 107.557 14.748C111.463 14.748 113.35 17.6992 113.35 21.6267V22.5105H113.349ZM109.089 21.5358C109.089 19.5593 108.322 18.0837 106.279 18.0837C104.533 18.0837 103.586 19.3216 103.586 21.33V22.8056C103.586 24.8108 104.533 26.0519 106.279 26.0519C108.32 26.0519 109.089 24.5763 109.089 22.5998V21.5374V21.5358Z" fill="#1877F2"/>
<path d="M114.773 22.4211V21.7144C114.773 17.6705 117.081 14.7496 121.785 14.7496C126.489 14.7496 128.799 17.6705 128.799 21.7144V22.4211C128.799 26.4635 126.491 29.3859 121.787 29.3859C117.083 29.3859 114.773 26.4635 114.773 22.4211ZM124.538 21.4177C124.538 19.5593 123.768 18.0837 121.779 18.0837C119.789 18.0837 119.026 19.5593 119.026 21.4177V22.7162C119.026 24.5747 119.796 26.0503 121.779 26.0503C123.762 26.0503 124.538 24.5747 124.538 22.7162V21.4177Z" fill="#1877F2"/>
<path d="M130.216 22.4211V21.7144C130.216 17.6705 132.524 14.7496 137.228 14.7496C141.931 14.7496 144.239 17.6705 144.239 21.7144V22.4211C144.239 26.4635 141.931 29.3859 137.228 29.3859C132.524 29.3859 130.216 26.4635 130.216 22.4211ZM139.979 21.4177C139.979 19.5593 139.209 18.0837 137.226 18.0837C135.243 18.0837 134.475 19.5593 134.475 21.4177V22.7162C134.475 24.5747 135.243 26.0503 137.226 26.0503C139.209 26.0503 139.979 24.5747 139.979 22.7162V21.4177Z" fill="#1877F2"/>
<path d="M150.095 21.7432L154.295 15.0463H158.821L154.413 21.9808L158.999 29.0908H154.472L150.095 22.2122V29.0908H145.834V7.99218L150.095 7.60773V21.7432Z" fill="#1877F2"/>
<path d="M0 19.5432V17.6816C0.0431839 17.6528 0.0271899 17.6066 0.0287893 17.5683C0.0943649 16.3639 0.271899 15.1754 0.577385 14.0077C1.58021 10.168 3.59386 6.95198 6.63113 4.39321C9.76117 1.75787 13.3886 0.317372 17.4751 0.0429902C19.5751 -0.0973909 21.6463 0.10999 23.6712 0.687467C28.0919 1.9493 31.5962 4.48733 34.1697 8.28241C35.9258 10.8715 36.9287 13.7413 37.2293 16.8552C37.3717 18.3356 37.3285 19.8128 37.1206 21.282C37.0054 22.0956 36.8263 22.898 36.6024 23.6908C36.0858 25.5285 35.2941 27.2418 34.2433 28.8339C33.4004 30.1117 32.4151 31.2714 31.2828 32.3035C30.5854 32.94 29.8497 33.5239 29.066 34.0503C28.0504 34.7331 26.9772 35.3122 25.848 35.7859C24.8515 36.2039 23.8263 36.5293 22.7739 36.7654C22.3805 36.8532 21.987 36.9345 21.5888 36.9967C21.5856 36.9505 21.5776 36.9042 21.5776 36.8579C21.5776 32.6194 21.5776 28.3808 21.5744 24.1423C21.5744 24.0242 21.6064 23.9955 21.7215 23.9971C22.2285 24.0035 22.7371 24.0003 23.2457 24.0003C24.0806 24.0003 24.9139 23.9971 25.7488 24.0035C25.8848 24.0035 25.9375 23.9684 25.9535 23.8312C25.9839 23.56 26.0335 23.292 26.0751 23.0208C26.1839 22.3125 26.291 21.6059 26.3998 20.8976C26.5085 20.1893 26.6141 19.4826 26.7292 18.7759C26.7516 18.6371 26.7245 18.6052 26.5821 18.6052C24.9651 18.61 23.3481 18.6068 21.7311 18.6116C21.6128 18.6116 21.576 18.5861 21.576 18.46C21.5808 17.3689 21.5808 16.2793 21.5776 15.1882C21.5776 14.9186 21.592 14.6506 21.6431 14.3874C21.8079 13.5355 22.2413 12.8799 23.0522 12.5114C23.4809 12.3168 23.9383 12.229 24.4069 12.2227C25.2002 12.2131 25.9935 12.2147 26.7852 12.2227C26.9324 12.2227 26.9756 12.1891 26.9756 12.0376C26.9692 10.6577 26.9724 9.27784 26.9724 7.89795C26.9724 7.84052 26.9676 7.7831 26.9724 7.72726C26.9804 7.64591 26.9388 7.6156 26.8668 7.60602C26.4733 7.55338 26.0799 7.49276 25.6848 7.44809C24.9603 7.36514 24.2326 7.30931 23.5033 7.27581C22.4588 7.22636 21.424 7.28538 20.4132 7.57252C18.4891 8.12129 17.112 9.29698 16.3411 11.1522C15.9365 12.1269 15.7589 13.1511 15.7445 14.1976C15.7237 15.6141 15.7349 17.0307 15.7413 18.4457C15.7413 18.5877 15.7014 18.6116 15.5686 18.6116C14.102 18.6068 12.6353 18.6116 11.1686 18.6052C11.0263 18.6052 11.0007 18.6451 11.0023 18.7775C11.0071 20.4621 11.0071 22.1482 11.0023 23.8328C11.0023 23.9716 11.0391 24.0035 11.175 24.0035C12.6257 23.9987 14.078 24.0003 15.5286 24.0003C15.6683 24.0003 15.7381 24.0673 15.7381 24.2013C15.7381 28.3984 15.7381 32.5955 15.7381 36.7925C15.7381 36.8181 15.7349 36.8452 15.7381 36.8707C15.7557 36.9776 15.7046 36.9903 15.6134 36.9728C15.2727 36.9058 14.9304 36.8532 14.593 36.775C10.7096 35.8864 7.41804 33.9785 4.76463 31.0178C1.95607 27.8911 0.393454 24.2157 0.0527804 20.0266C0.0399851 19.8654 0.0655756 19.6979 0 19.5432Z" fill="#1977F2"/>
</g>
<defs>
<clipPath id="clip0_490_751">
<rect width="159" height="37" fill="white"/>
</clipPath>
</defs>
</svg>
