<svg width="148" height="37" viewBox="0 0 148 37" fill="none" xmlns="http://www.w3.org/2000/svg">
<g clip-path="url(#clip0_490_745)">
<path d="M17.7982 0C10.3699 0 8.19696 0.00804278 7.77474 0.0450396C6.2498 0.176941 5.30173 0.426267 4.26861 0.961916C3.47211 1.37371 2.84419 1.84984 2.22401 2.519C1.09499 3.73668 0.411395 5.23585 0.163939 7.01813C0.0433047 7.88353 0.00773298 8.06047 0 12.4792C0 13.9526 0 15.8925 0 18.4936C0 26.213 0.00927958 28.4698 0.0448513 28.909C0.168579 30.4516 0.400569 31.4231 0.893933 32.4848C1.83581 34.5164 3.63295 36.0429 5.75179 36.6123C6.48488 36.8086 7.2953 36.9164 8.33461 36.9678C8.77539 36.9871 13.2667 37.0016 17.7596 37.0016C22.2524 37.0016 26.7468 36.9952 27.1768 36.9727C28.3816 36.9131 29.0807 36.8166 29.854 36.6075C31.9852 36.0349 33.7514 34.5325 34.7118 32.4719C35.1943 31.436 35.4403 30.4274 35.5501 28.9653C35.5748 28.6468 35.5841 23.5637 35.5841 18.4871C35.5841 13.4105 35.5733 8.33714 35.5485 8.01865C35.4356 6.53235 35.1913 5.53343 34.6933 4.47822C34.2834 3.61443 33.8302 2.96779 33.1699 2.30828C31.9929 1.13886 30.553 0.427876 28.8378 0.170507C28.0073 0.0450396 27.8418 0.00804278 23.5887 0.00160856H17.7982V0Z" fill="url(#paint0_radial_490_745)"/>
<path d="M17.7982 0C10.3699 0 8.19696 0.00804278 7.77474 0.0450396C6.2498 0.176941 5.30173 0.426267 4.26861 0.961916C3.47211 1.37371 2.84419 1.84984 2.22401 2.519C1.09499 3.73668 0.411395 5.23585 0.163939 7.01813C0.0433047 7.88353 0.00773298 8.06047 0 12.4792C0 13.9526 0 15.8925 0 18.4936C0 26.213 0.00927958 28.4698 0.0448513 28.909C0.168579 30.4516 0.400569 31.4231 0.893933 32.4848C1.83581 34.5164 3.63295 36.0429 5.75179 36.6123C6.48488 36.8086 7.2953 36.9164 8.33461 36.9678C8.77539 36.9871 13.2667 37.0016 17.7596 37.0016C22.2524 37.0016 26.7468 36.9952 27.1768 36.9727C28.3816 36.9131 29.0807 36.8166 29.854 36.6075C31.9852 36.0349 33.7514 34.5325 34.7118 32.4719C35.1943 31.436 35.4403 30.4274 35.5501 28.9653C35.5748 28.6468 35.5841 23.5637 35.5841 18.4871C35.5841 13.4105 35.5733 8.33714 35.5485 8.01865C35.4356 6.53235 35.1913 5.53343 34.6933 4.47822C34.2834 3.61443 33.8302 2.96779 33.1699 2.30828C31.9929 1.13886 30.553 0.427876 28.8378 0.170507C28.0073 0.0450396 27.8418 0.00804278 23.5887 0.00160856H17.7982V0Z" fill="url(#paint1_radial_490_745)"/>
<path d="M17.7907 4.83853C14.2227 4.83853 13.7757 4.85462 12.3745 4.92057C10.9764 4.98652 10.0221 5.21815 9.18542 5.55595C8.32087 5.905 7.58778 6.37149 6.85779 7.13072C6.1278 7.88996 5.67774 8.65242 5.34213 9.54999C5.01579 10.4186 4.79463 11.4127 4.73122 12.8668C4.66781 14.3242 4.65234 14.7907 4.65234 18.5016C4.65234 22.2125 4.66781 22.6758 4.73122 24.1332C4.79618 25.5873 5.01734 26.5798 5.34213 27.45C5.67774 28.3492 6.12625 29.1116 6.85779 29.8709C7.58778 30.6301 8.32087 31.0982 9.18387 31.4473C10.019 31.7851 10.9748 32.0151 12.373 32.0826C13.7742 32.1486 14.2211 32.1647 17.7891 32.1647C21.3571 32.1647 21.8041 32.1486 23.2053 32.0826C24.6034 32.0167 25.5592 31.7851 26.3959 31.4473C27.2589 31.0982 27.992 30.6301 28.722 29.8709C29.452 29.1116 29.9021 28.3492 30.2377 27.4516C30.5609 26.583 30.7821 25.5889 30.8486 24.1348C30.912 22.6774 30.9275 22.2125 30.9275 18.5016C30.9275 14.7907 30.9105 14.3258 30.8486 12.8684C30.7836 11.4143 30.5609 10.4218 30.2377 9.5516C29.9005 8.65242 29.452 7.88996 28.722 7.13072C27.992 6.37149 27.2605 5.9034 26.3959 5.55595C25.5592 5.21815 24.6034 4.98813 23.2053 4.92057C21.8041 4.85462 21.3587 4.83853 17.7891 4.83853H17.7938H17.7907ZM16.6122 7.30123C16.9617 7.30123 17.3514 7.30123 17.7907 7.30123C21.2984 7.30123 21.7144 7.3141 23.0986 7.38005C24.3792 7.44117 25.0751 7.66316 25.5376 7.85136C26.15 8.09907 26.5877 8.39505 27.0471 8.87279C27.5064 9.35053 27.791 9.80575 28.0307 10.4443C28.2101 10.9253 28.4251 11.6492 28.4838 12.981C28.5473 14.4207 28.5612 14.8534 28.5612 18.5C28.5612 22.1466 28.5473 22.5793 28.4838 24.019C28.4251 25.3508 28.2116 26.0747 28.0307 26.5556C27.7925 27.1926 27.5079 27.6479 27.0471 28.1256C26.5877 28.6033 26.15 28.8993 25.5376 29.147C25.0751 29.3352 24.3792 29.5572 23.0986 29.6183C21.7144 29.6843 21.2984 29.6988 17.7907 29.6988C14.283 29.6988 13.867 29.6843 12.4828 29.6183C11.2022 29.5572 10.5062 29.3336 10.0438 29.147C9.43133 28.8993 8.99209 28.6033 8.53275 28.1256C8.07341 27.6479 7.78884 27.1926 7.54912 26.5556C7.36971 26.0747 7.15474 25.3508 7.09597 24.019C7.03256 22.5793 7.02018 22.1466 7.02018 18.4968C7.02018 14.847 7.03256 14.4175 7.09597 12.9778C7.15474 11.6459 7.36817 10.9221 7.54912 10.4411C7.78729 9.80414 8.07187 9.34731 8.53275 8.86957C8.99209 8.39183 9.42978 8.09586 10.0438 7.84653C10.5062 7.65833 11.2022 7.43635 12.4828 7.37522C13.6953 7.31892 14.1639 7.30123 16.6122 7.29801V7.30123ZM24.8029 9.56929C23.9322 9.56929 23.227 10.3028 23.227 11.2084C23.227 12.114 23.9338 12.8475 24.8029 12.8475C25.6721 12.8475 26.3789 12.1124 26.3789 11.2084C26.3789 10.3044 25.6721 9.56929 24.8029 9.56929ZM17.7907 11.4851C14.0649 11.4851 11.0444 14.6266 11.0444 18.5016C11.0444 22.3766 14.0649 25.5165 17.7907 25.5165C21.5164 25.5165 24.5354 22.3766 24.5354 18.5016C24.5354 14.6266 21.5149 11.4851 17.7907 11.4851ZM17.7907 13.9478C20.2096 13.9478 22.1691 15.9874 22.1691 18.5016C22.1691 21.0158 20.208 23.0554 17.7907 23.0554C15.3733 23.0554 13.4123 21.0158 13.4123 18.5016C13.4123 15.9874 15.3733 13.9478 17.7907 13.9478Z" fill="white"/>
<path d="M46.6729 2.84555C44.4907 3.79459 42.0826 6.49053 41.3263 9.86207C40.3612 14.1392 44.37 15.9472 44.6917 15.3505C45.0737 14.654 43.9695 14.4191 43.7437 12.1945C43.456 9.33768 44.7428 6.13504 46.3512 4.73399C46.6466 4.4718 46.6389 4.83372 46.6389 5.51092C46.6389 6.71412 46.5786 17.5011 46.5786 19.7531C46.5786 22.7997 46.4564 23.7584 46.2399 24.7171C46.0218 25.6854 45.6661 26.3353 45.9352 26.5798C46.2306 26.8597 47.5173 26.1905 48.2566 25.1144C49.1428 23.8211 49.4568 22.2753 49.5094 20.5927C49.579 18.5676 49.5697 15.3472 49.579 13.5119C49.579 11.8293 49.6053 6.90232 49.5527 3.93615C49.5357 3.20425 47.5962 2.44341 46.6745 2.84233L46.6729 2.84555ZM124.323 17.107C124.253 18.6898 123.915 19.9284 123.497 20.8051C122.688 22.4957 121.002 23.0201 120.289 20.5879C119.898 19.2673 119.881 17.0523 120.159 15.1976C120.447 13.3172 121.237 11.8872 122.56 12.024C123.864 12.151 124.464 13.8867 124.324 17.1054L124.323 17.107ZM102.439 26.9353C102.422 29.5669 102.021 31.8719 101.169 32.5411C99.9609 33.4901 98.3261 32.7759 98.6648 30.8585C98.9602 29.1583 100.377 27.4227 102.439 25.3058C102.439 25.3058 102.448 25.7852 102.439 26.9337V26.9353ZM102.108 17.0973C102.038 18.5434 101.673 19.9911 101.282 20.8051C100.473 22.4957 98.7777 23.0201 98.074 20.5879C97.5961 18.9247 97.709 16.7724 97.9441 15.4148C98.2488 13.6518 98.9958 12.024 100.344 12.024C101.693 12.024 102.292 13.5167 102.109 17.0973H102.108ZM89.4317 17.07C89.3528 18.5981 89.0667 19.8737 88.6058 20.8051C87.7706 22.4876 86.1281 23.0201 85.3981 20.5879C84.8769 18.8426 85.0501 16.4555 85.2682 15.1623C85.5899 13.2449 86.3988 11.8985 87.6685 12.024C88.9646 12.1591 89.5987 13.8867 89.4332 17.07H89.4317ZM147.528 18.8507C147.206 18.8507 147.067 19.1949 146.945 19.7643C146.527 21.7541 146.093 22.2061 145.528 22.2061C144.902 22.2061 144.337 21.2201 144.189 19.2496C144.076 17.6941 144.093 14.8454 144.241 11.9966C144.268 11.4095 144.119 10.8385 142.607 10.269C141.954 10.0245 141.015 9.6626 140.547 10.8385C139.226 14.1666 138.703 16.8062 138.582 17.8743C138.573 17.929 138.513 17.937 138.496 17.8115C138.417 16.9526 138.244 15.3875 138.227 12.114C138.227 11.4722 138.097 10.9301 137.41 10.4862C136.966 10.1966 135.636 9.68191 135.149 10.2964C134.731 10.7934 134.244 12.1317 133.749 13.7242C133.341 15.0175 133.053 15.8861 133.053 15.8861C133.053 15.8861 133.063 12.4052 133.063 11.0846C133.063 10.5875 132.732 10.4251 132.637 10.3881C132.193 10.2529 131.317 10.0261 130.942 10.0261C130.481 10.0261 130.369 10.298 130.369 10.6856C130.369 10.7403 130.299 15.27 130.299 18.4437V18.8957C130.047 20.3515 129.221 22.3316 128.316 22.3316C127.411 22.3316 126.995 21.5 126.995 17.7295C126.995 15.5226 127.056 14.5639 127.091 12.973C127.108 12.0513 127.144 11.3452 127.144 11.1923C127.135 10.7033 126.318 10.4508 125.944 10.3607C125.562 10.2706 125.231 10.2336 124.969 10.2529C124.604 10.2706 124.343 10.5248 124.343 10.8674V11.4015C123.873 10.6326 123.109 10.0905 122.605 9.93606C121.248 9.5114 119.822 9.89102 118.754 11.4465C117.901 12.6851 117.388 14.0877 117.188 16.1033C117.04 17.5767 117.093 19.0694 117.354 20.3354C117.041 21.7638 116.449 22.3428 115.806 22.3428C114.867 22.3428 114.188 20.752 114.267 18.011C114.319 16.203 114.667 14.9371 115.049 13.1001C115.215 12.3232 115.076 11.9065 114.754 11.5173C114.449 11.1553 113.806 10.9752 112.877 11.2004C112.216 11.3628 111.268 11.535 110.407 11.6701C110.407 11.6701 110.459 11.4529 110.502 11.0733C110.728 9.07548 108.633 9.23795 107.972 9.87011C107.572 10.2497 107.303 10.7017 107.199 11.5076C107.033 12.7912 108.042 13.3977 108.042 13.3977C107.711 14.9708 106.904 17.0234 106.068 18.5064C105.625 19.3027 105.277 19.8898 104.834 20.5236V19.8271C104.825 16.5167 104.868 13.9221 104.887 12.9811C104.904 12.0594 104.939 11.3709 104.939 11.2181C104.93 10.8562 104.731 10.721 104.313 10.5489C103.939 10.3945 103.504 10.2964 103.053 10.2594C102.479 10.187 102.131 10.5039 102.14 10.8738V11.3805C101.67 10.6117 100.906 10.0696 100.402 9.91515C99.0453 9.49853 97.6193 9.87011 96.5506 11.4256C95.6985 12.6642 95.1417 14.4014 94.9855 16.0647C94.837 17.6201 94.8633 18.9311 95.0644 20.0442C94.8463 21.1557 94.2292 22.3235 93.5255 22.3235C92.63 22.3235 92.1165 21.4919 92.1165 17.7215C92.1165 15.5145 92.1769 14.5558 92.2124 12.965C92.2294 12.0433 92.265 11.3371 92.265 11.1843C92.2557 10.6953 91.4391 10.4428 91.0649 10.3527C90.6643 10.2529 90.3256 10.2256 90.0658 10.2449C89.7178 10.2722 89.475 10.5972 89.475 10.832V11.3934C89.0048 10.6245 88.2408 10.0824 87.7366 9.92802C86.3802 9.5114 84.9635 9.88298 83.8856 11.4384C83.1819 12.4518 82.6158 13.573 82.3204 16.0598C82.2338 16.774 82.1982 17.4528 82.2075 18.077C81.9291 19.8576 80.6856 21.9198 79.6773 21.9198C79.0865 21.9198 78.5204 20.7263 78.5204 18.1767C78.5204 14.7762 78.7199 9.94732 78.7555 9.47762C78.7555 9.47762 80.033 9.45993 80.2851 9.45028C80.9192 9.44062 81.5023 9.45993 82.3544 9.41489C82.7797 9.39719 83.1896 7.79668 82.755 7.60687C82.5555 7.51679 81.1465 7.43475 80.582 7.42671C80.1119 7.41706 78.8004 7.31894 78.8004 7.31894C78.8004 7.31894 78.9225 4.10826 78.9488 3.77368C78.9751 3.49379 78.6179 3.34902 78.4183 3.25894C77.9312 3.04179 77.4873 2.94206 76.9661 2.82463C76.2438 2.67021 75.9221 2.82463 75.8618 3.44875C75.7659 4.40745 75.7133 7.21117 75.7133 7.21117C75.1829 7.21117 73.3826 7.10339 72.8614 7.10339C72.3742 7.10339 71.8438 9.29103 72.5227 9.31837C73.3053 9.34572 74.6617 9.37306 75.5571 9.40845C75.5571 9.40845 75.5138 14.3274 75.5138 15.8378V16.3075C75.0189 18.9938 73.2713 20.4399 73.2713 20.4399C73.6455 18.6673 72.88 17.329 71.4973 16.1982C70.9931 15.7816 69.9848 14.995 68.8635 14.128C68.8635 14.128 69.5161 13.4588 70.0899 12.1205C70.4982 11.1714 70.5152 10.0857 69.5161 9.84115C67.8644 9.44384 66.491 10.7098 66.0904 12.0561C65.778 13.1049 65.9419 13.8835 66.5606 14.6877C66.6039 14.7424 66.6565 14.8052 66.7091 14.8679C66.3348 15.6191 65.8229 16.6228 65.3883 17.4094C64.1804 19.5794 63.2663 21.2973 62.5796 21.2973C62.0322 21.2973 62.0322 19.552 62.0322 17.9161C62.0322 16.5054 62.128 14.3902 62.2146 12.2009C62.2409 11.4771 61.893 11.062 61.3099 10.6905C60.9542 10.4637 60.1963 10.0117 59.7617 10.0117C59.1014 10.0117 57.2145 10.1017 55.4235 15.492C55.1977 16.1708 54.7539 17.4094 54.7539 17.4094L54.7879 10.935C54.7879 10.7806 54.709 10.6358 54.5358 10.5377C54.2311 10.3655 53.4315 10.0229 52.7093 10.0229C52.3706 10.0229 52.1958 10.1854 52.1958 10.52L52.1169 20.6474C52.1169 21.4163 52.1339 22.3107 52.2128 22.7096C52.2824 23.0989 52.4046 23.4238 52.5515 23.6136C52.6984 23.8034 52.8639 23.9482 53.1423 24.0109C53.4037 24.0656 54.8204 24.2554 54.8993 23.694C54.9859 23.0152 54.9951 22.2833 55.7344 19.552C56.8913 15.3022 58.4116 13.2304 59.1168 12.4985C59.239 12.3714 59.3859 12.3634 59.3782 12.5709C59.3442 13.5022 59.239 15.8266 59.1694 17.8067C58.9776 23.0973 59.8994 24.0817 61.2217 24.0817C62.2301 24.0817 63.6561 23.0329 65.1857 20.3917C66.1415 18.7461 67.0632 17.1279 67.7329 15.9601C68.1938 16.4025 68.715 16.8818 69.2377 17.3981C70.4456 18.5917 70.8462 19.7225 70.5771 20.7986C70.3776 21.6222 69.6213 22.4619 68.2727 21.6399C67.8814 21.3954 67.7082 21.2153 67.3169 20.9434C67.1081 20.7986 66.7771 20.7536 66.5869 20.908C66.0827 21.3053 65.795 21.812 65.6311 22.4265C65.4749 23.0329 66.0564 23.3578 66.6565 23.6377C67.1777 23.8822 68.299 24.0994 69.0119 24.1267C71.7943 24.2265 74.0291 22.7257 75.585 18.8732C75.8634 22.2013 77.045 24.0914 79.1066 24.0914C80.4799 24.0914 81.8626 22.2463 82.4627 20.4287C82.6359 21.1702 82.888 21.812 83.219 22.3541C84.8011 24.968 87.8789 24.4066 89.4177 22.182C89.8956 21.4951 89.9652 21.2506 89.9652 21.2506C90.191 23.3402 91.8088 24.072 92.7383 24.072C93.7822 24.072 94.8509 23.5654 95.5995 21.8024C95.6861 21.9922 95.782 22.1723 95.8871 22.3445C97.4693 24.9584 100.547 24.3873 102.086 22.1723C102.156 22.0726 102.225 21.9729 102.278 21.8925L102.321 23.2662C102.321 23.2662 101.443 24.1074 100.904 24.6222C98.5225 26.8918 96.713 28.6194 96.5831 30.6173C96.4099 33.1765 98.4096 34.1255 99.9129 34.2526C101.512 34.3877 102.887 33.466 103.73 32.1727C104.469 31.0419 104.956 28.6001 104.921 26.1857C104.904 25.2173 104.887 23.9981 104.868 22.6774C105.703 21.664 106.642 20.3901 107.511 18.8973C108.459 17.2695 109.468 15.0818 109.989 13.3816C109.989 13.3816 110.867 13.3912 111.806 13.3269C112.111 13.3092 112.198 13.3719 112.137 13.5987C112.068 13.8786 110.954 18.3649 111.972 21.3568C112.668 23.3997 114.25 24.0608 115.179 24.0608C116.274 24.0608 117.318 23.2018 117.883 21.9262C117.952 22.071 118.022 22.2061 118.101 22.3332C119.683 24.9471 122.744 24.3761 124.3 22.1611C124.648 21.664 124.847 21.2297 124.847 21.2297C125.178 23.3997 126.804 24.0688 127.725 24.0688C128.647 24.0688 129.612 23.6522 130.352 21.8265C130.386 22.6308 130.43 23.2919 130.508 23.4994C130.551 23.6265 130.829 23.7889 131.029 23.8613C131.915 24.2056 132.811 24.0415 133.151 23.9691C133.386 23.9241 133.559 23.7246 133.585 23.2276C133.646 21.9166 133.612 19.7193 133.994 18.0914C134.637 15.3521 135.228 14.284 135.516 13.7596C135.672 13.4604 135.854 13.4154 135.864 13.7242C135.881 14.358 135.907 16.211 136.151 18.6979C136.334 20.5332 136.577 21.6093 136.761 21.9536C137.291 22.93 137.951 22.975 138.491 22.975C138.83 22.975 139.543 22.8753 139.483 22.2512C139.449 21.9439 139.509 20.0716 140.135 17.3676C140.544 15.6046 141.23 14.0121 141.482 13.4347C141.578 13.2175 141.612 13.3896 141.612 13.425C141.56 14.6363 141.447 18.6062 141.917 20.7761C142.56 23.7149 144.43 24.0495 145.074 24.0495C146.456 24.0495 147.595 22.9557 147.978 20.0619C148.091 19.3928 147.952 18.8507 147.543 18.8507H147.528Z" fill="#262626"/>
</g>
<defs>
<radialGradient id="paint0_radial_490_745" cx="0" cy="0" r="1" gradientUnits="userSpaceOnUse" gradientTransform="translate(11.2248 40.9952) rotate(-90) scale(36.6332 32.7317)">
<stop stop-color="#FFDD55"/>
<stop offset="0.1" stop-color="#FFDD55"/>
<stop offset="0.5" stop-color="#FF543E"/>
<stop offset="1" stop-color="#C837AB"/>
</radialGradient>
<radialGradient id="paint1_radial_490_745" cx="0" cy="0" r="1" gradientUnits="userSpaceOnUse" gradientTransform="translate(-5.53049 4.9714) rotate(79.1054) scale(16.4424 65.0244)">
<stop stop-color="#3771C8"/>
<stop offset="0.13" stop-color="#3771C8"/>
<stop offset="1" stop-color="#6600FF" stop-opacity="0"/>
</radialGradient>
<clipPath id="clip0_490_745">
<rect width="148" height="37" fill="white"/>
</clipPath>
</defs>
</svg>
