<svg width="146" height="37" viewBox="0 0 146 37" fill="none" xmlns="http://www.w3.org/2000/svg">
<g clip-path="url(#clip0_490_736)">
<path d="M-0.000334177 5.46459C1.8566 5.45975 3.71353 5.45813 5.57047 5.44684C5.77445 5.44684 5.88454 5.49363 5.86026 5.7195C5.84731 5.83728 5.85864 5.95828 5.85864 6.07768C5.85864 12.6168 5.85864 19.1559 5.85864 25.6933C5.85864 26.308 5.7955 26.2387 6.41394 26.2403C9.5887 26.2419 12.7635 26.2403 15.9398 26.2403C16.5065 26.2403 16.4385 26.2048 16.4385 26.7501C16.4401 28.1989 16.4385 29.6462 16.4385 31.095C16.4385 31.5532 16.4579 31.529 15.9933 31.529C10.8418 31.529 5.68865 31.529 0.537157 31.529C0.357453 31.529 0.17775 31.5371 -0.00195312 31.5419C-0.000334177 22.8505 -0.000334177 14.1576 -0.000334177 5.46459Z" fill="#0966C3"/>
<path d="M108.953 18.4782C108.953 13.325 108.953 8.17346 108.953 3.02028C108.953 2.52819 108.981 2.04579 109.209 1.5892C109.712 0.579211 110.52 0.0161362 111.65 0.0145228C122.169 0.00645587 132.687 0.019363 143.205 2.28773e-06C144.46 -0.00161111 145.718 0.850262 145.938 2.19099C145.969 2.38299 146 2.57014 146 2.76536C145.998 13.2347 145.995 23.704 146.001 34.1733C146.001 35.3576 145.274 36.4724 144.133 36.8193C143.786 36.9242 143.451 37 143.089 37C132.676 36.9952 122.263 36.9968 111.848 36.9952C110.524 36.9952 109.355 36.2433 109.011 34.8284C108.939 34.5299 108.956 34.2056 108.956 33.8926C108.953 28.7556 108.955 23.6169 108.955 18.4798L108.953 18.4782ZM123.43 22.6601C123.43 25.4529 123.43 28.2441 123.43 31.0369C123.43 31.5048 123.397 31.4661 123.872 31.4661C125.041 31.4661 126.208 31.4661 127.377 31.4661C127.767 31.4661 128.155 31.4564 128.546 31.4693C128.763 31.4757 128.85 31.3935 128.826 31.1821C128.819 31.1224 128.824 31.0627 128.826 31.003C128.879 27.9618 128.722 24.9189 128.908 21.8793C128.939 21.3743 128.957 20.8741 129.093 20.3836C129.339 19.4979 129.81 18.7912 130.684 18.4185C131.346 18.1362 132.051 18.1217 132.748 18.2072C132.956 18.233 133.181 18.2701 133.393 18.3588C134.215 18.7041 134.622 19.3882 134.83 20.1804C134.976 20.7321 135.036 21.3146 135.033 21.8986C135.021 23.6008 135.028 25.3029 135.028 27.005C135.028 28.378 135.028 29.7526 135.028 31.1256C135.028 31.4548 135.034 31.4644 135.334 31.4644C136.951 31.4677 138.57 31.4677 140.187 31.4644C140.502 31.4644 140.515 31.4548 140.508 31.1369C140.455 27.7085 140.612 24.2768 140.43 20.8483C140.388 20.0481 140.312 19.2575 140.186 18.4669C140.016 17.4118 139.687 16.4308 139.049 15.5596C138.565 14.8965 137.958 14.3883 137.209 14.0559C136.652 13.8091 136.067 13.6751 135.46 13.5719C134.586 13.4235 133.728 13.367 132.85 13.509C131.706 13.6929 130.71 14.1705 129.839 14.9304C129.499 15.2272 129.242 15.5854 128.98 15.9436C128.897 16.0565 128.85 16.2614 128.665 16.2033C128.507 16.1533 128.586 15.9694 128.584 15.8468C128.576 15.3095 128.584 14.7723 128.58 14.2334C128.578 13.8784 128.573 13.8736 128.204 13.8736C127.471 13.8704 126.736 13.8736 126.002 13.8736C125.238 13.8736 124.474 13.88 123.71 13.8704C123.499 13.8671 123.402 13.9301 123.425 14.1495C123.436 14.2527 123.425 14.3576 123.425 14.4625C123.425 17.1956 123.425 19.9271 123.425 22.6601H123.43ZM119.923 22.6666C119.923 19.8754 119.923 17.0842 119.923 14.2931C119.923 13.8849 119.92 13.8752 119.601 13.8752C118.014 13.872 116.426 13.8768 114.84 13.8704C114.618 13.8704 114.496 13.9204 114.527 14.1656C114.54 14.2689 114.529 14.3737 114.529 14.4786C114.529 19.151 114.529 23.8218 114.529 28.4942C114.529 29.3751 114.527 30.256 114.529 31.1369C114.529 31.4564 114.537 31.4644 114.844 31.4644C116.431 31.4677 118.019 31.4677 119.606 31.4644C119.912 31.4644 119.912 31.4548 119.92 31.1289C119.921 31.0401 119.92 30.9498 119.92 30.8594C119.92 28.1279 119.92 25.3965 119.92 22.665L119.923 22.6666ZM114.108 8.25898C113.978 9.83688 115.584 11.3454 117.074 11.389C118.843 11.439 120.375 10.0611 120.372 8.25413C120.368 6.54878 119.117 5.1661 117.208 5.13705C115.482 5.11124 114.082 6.55523 114.108 8.25736V8.25898Z" fill="#0966C3"/>
<path d="M98.3691 29.3735C98.11 29.4557 98.0145 29.7171 97.8461 29.8865C97.0885 30.6497 96.1981 31.1998 95.1959 31.5564C94.6277 31.7597 94.0319 31.8968 93.4151 31.9194C92.2462 31.963 91.0951 31.8565 89.9748 31.5112C89.0601 31.2305 88.2328 30.7739 87.4752 30.1915C86.4164 29.3783 85.6538 28.3312 85.0856 27.1389C84.7213 26.3725 84.5238 25.5529 84.3409 24.7285C84.2599 24.3623 84.2373 23.9944 84.2308 23.6249C84.2195 23.0425 84.2178 22.4601 84.2308 21.8776C84.2502 20.9999 84.4591 20.1513 84.7068 19.3139C85.0192 18.2556 85.5017 17.2762 86.1509 16.3824C86.8843 15.3724 87.799 14.5544 88.9274 14.0156C89.8955 13.5541 90.9138 13.2298 92.0115 13.2427C92.6963 13.2508 93.3827 13.2218 94.061 13.3605C95.0713 13.5654 96.0507 13.8478 96.9039 14.4544C97.1856 14.6545 97.4026 14.9239 97.6503 15.1595C97.7442 15.2482 97.8267 15.3531 98.0145 15.4095V14.9029C98.0145 11.9165 98.0145 8.93013 98.0145 5.94535C98.0145 5.40163 97.9514 5.44681 98.5261 5.44681C100.054 5.44681 101.581 5.44681 103.109 5.44681C103.558 5.44681 103.559 5.44842 103.559 5.87113C103.559 14.2769 103.559 22.6827 103.559 31.0885C103.559 31.1627 103.556 31.2386 103.559 31.3128C103.566 31.4644 103.495 31.5322 103.344 31.5257C103.284 31.5225 103.224 31.5257 103.164 31.5257C101.712 31.5257 100.258 31.5257 98.8062 31.5257C98.4419 31.5257 98.4387 31.5209 98.4354 31.1563C98.4322 30.6787 98.4387 30.2011 98.4322 29.7236C98.4322 29.6106 98.4759 29.4864 98.3691 29.3719V29.3735ZM94.0594 27.0469C94.7588 27.0744 95.4096 26.9453 96.0345 26.6791C97.2293 26.1709 97.9417 25.2545 98.2703 24.0218C98.4759 23.2506 98.4953 22.4649 98.3691 21.6808C98.2476 20.9306 98.021 20.2174 97.5062 19.6253C97.341 19.4366 97.2196 19.2155 97.0027 19.0671C96.4231 18.6702 95.8192 18.3378 95.1182 18.2023C94.2375 18.0313 93.3536 18.0603 92.5182 18.3475C91.4869 18.7025 90.6855 19.364 90.2258 20.3981C90.0606 20.7692 89.9538 21.1387 89.8728 21.534C89.6235 22.7553 89.7514 23.9041 90.3407 25.0141C90.7034 25.6949 91.2149 26.208 91.8884 26.5549C92.57 26.9066 93.305 27.0857 94.0627 27.0469H94.0594Z" fill="#0966C3"/>
<path d="M65.7454 13.7832C65.5155 14.1414 65.2711 14.3415 65.0752 14.5835C64.9019 14.7997 64.6915 14.9933 64.515 15.2143C64.0811 15.7596 63.5938 16.2598 63.1389 16.7874C62.7342 17.2569 62.3149 17.7199 61.8923 18.1765C61.2787 18.838 60.7056 19.5382 60.0985 20.2045C59.6387 20.7112 59.268 21.2936 58.7645 21.7631C58.5864 21.9293 58.5767 22.0729 58.7192 22.2632C59.0834 22.7489 59.4347 23.2442 59.799 23.7298C60.5097 24.6801 61.2269 25.6256 61.936 26.5775C62.9333 27.9166 63.9273 29.2605 64.9214 30.6029C65.1286 30.882 65.3326 31.1643 65.5414 31.4515C65.4054 31.5645 65.2808 31.5241 65.1707 31.5241C63.1179 31.5274 61.065 31.5177 59.0122 31.5354C58.6965 31.5387 58.5217 31.4257 58.3614 31.1789C57.6911 30.1463 57.0128 29.1186 56.3264 28.0957C55.4845 26.8388 54.6216 25.5949 53.7895 24.3316C53.49 23.8766 53.1727 23.4362 52.7906 22.9957C52.7906 23.1054 52.7906 23.2168 52.7906 23.3265C52.7906 25.895 52.7906 28.4635 52.7906 31.0337C52.7906 31.5983 52.8246 31.529 52.2758 31.529C50.762 31.5306 49.2499 31.529 47.7362 31.529C47.6456 31.529 47.5565 31.5225 47.4659 31.529C47.2635 31.5467 47.2004 31.4418 47.2149 31.2595C47.2214 31.1853 47.2149 31.1095 47.2149 31.0353C47.2149 22.6714 47.2149 14.3076 47.2149 5.94536C47.2149 5.40487 47.1518 5.45005 47.7281 5.44843C49.271 5.44843 50.8139 5.44843 52.3583 5.44843C52.8262 5.44843 52.789 5.41778 52.789 5.8905C52.789 10.6694 52.789 15.4483 52.789 20.2287C52.789 20.3917 52.789 20.553 52.789 20.7612C53.0869 20.624 53.2164 20.361 53.3912 20.1658C54.1327 19.3349 54.845 18.4798 55.5914 17.6522C56.0949 17.0939 56.5449 16.4857 57.0565 15.9339C57.662 15.2821 58.2043 14.577 58.8066 13.922C58.9329 13.7848 59.0559 13.7848 59.2016 13.7848C59.9204 13.7848 60.6392 13.7848 61.3597 13.7848C62.6484 13.7848 63.937 13.7848 65.2257 13.7848H65.7438L65.7454 13.7832Z" fill="#0966C3"/>
<path d="M70.0402 24.4284C70.1859 25.1254 70.4481 25.7498 70.9176 26.2919C71.6446 27.1292 72.5738 27.581 73.6472 27.7552C74.1377 27.8343 74.625 27.7262 75.1042 27.6116C76.2181 27.3487 77.115 26.7501 77.8079 25.8434C78.0135 25.5739 78.0167 25.5788 78.2839 25.7708C79.3524 26.5436 80.4209 27.3132 81.4878 28.0876C81.6189 28.1828 81.7322 28.3022 81.8747 28.4296C81.5088 28.9733 81.0166 29.3944 80.5277 29.8155C79.9595 30.3044 79.3151 30.6835 78.653 31.0143C77.939 31.3709 77.1668 31.5967 76.3784 31.7613C75.1933 32.0098 73.9888 31.992 72.8102 31.8597C71.4859 31.7113 70.2053 31.3337 69.0283 30.6416C68.2771 30.1995 67.5745 29.7058 66.9739 29.0911C65.92 28.0134 65.1995 26.734 64.798 25.2738C64.4338 23.9476 64.4127 22.6053 64.5455 21.2549C64.6539 20.14 64.9891 19.0832 65.5233 18.1007C66.281 16.7051 67.3414 15.5951 68.7094 14.7642C69.99 13.9865 71.3742 13.5686 72.8474 13.3492C73.7281 13.2169 74.6121 13.2024 75.4782 13.296C76.4172 13.3976 77.3254 13.6832 78.2013 14.0785C79.1775 14.5189 79.9676 15.1917 80.6475 15.9758C81.2482 16.668 81.7063 17.4731 82.0139 18.3524C82.4721 19.6641 82.7311 21.0064 82.7052 22.4004C82.6955 22.9683 82.6955 23.5346 82.7068 24.1025C82.7101 24.3122 82.6453 24.4107 82.4268 24.3897C82.3231 24.38 82.2179 24.3897 82.1127 24.3897C78.2628 24.3897 74.4146 24.3897 70.5647 24.3897C70.4028 24.3897 70.2377 24.3671 70.0434 24.4284H70.0402ZM70.0272 20.4724C70.1729 20.5563 70.2798 20.5337 70.3818 20.5337C72.5075 20.5337 74.6331 20.5337 76.7572 20.5337C76.8025 20.5337 76.8479 20.5288 76.8916 20.5337C77.1312 20.5676 77.1684 20.4304 77.1522 20.2384C77.1247 19.8803 77.0357 19.5382 76.8867 19.2139C76.244 17.807 74.9602 17.2004 73.5468 17.2424C72.8636 17.2633 72.2371 17.4682 71.6656 17.8393C70.712 18.4605 70.1729 19.3382 70.0256 20.4708L70.0272 20.4724Z" fill="#0966C3"/>
<path d="M32.7127 16.1114C33.0656 15.6951 33.3376 15.3353 33.6549 15.011C34.5906 14.0575 35.7482 13.5283 37.0434 13.3896C38.0131 13.2847 38.999 13.3283 39.9736 13.5719C40.7038 13.7558 41.3951 13.9881 42.02 14.4012C42.9509 15.0159 43.5013 15.9113 43.8915 16.9294C44.1311 17.5554 44.2347 18.212 44.3788 18.8606C44.4112 19.0042 44.3966 19.1575 44.4128 19.3043C44.5132 20.253 44.5261 21.2032 44.5245 22.1552C44.5164 25.1125 44.5213 28.0682 44.5213 31.0256C44.5213 31.5919 44.5601 31.5257 44.0113 31.5257C42.483 31.5274 40.9547 31.5257 39.4264 31.5257C39.012 31.5257 39.0088 31.5225 39.0071 31.1143C39.0071 28.2167 39.0039 25.3206 39.0071 22.423C39.0071 21.6324 38.9294 20.8483 38.7222 20.0932C38.4243 19.0058 37.6165 18.2556 36.3893 18.262C35.7773 18.2653 35.1767 18.2443 34.6036 18.5557C33.8411 18.9703 33.4072 19.6157 33.1886 20.4127C32.9814 21.171 32.9102 21.9519 32.9134 22.744C32.928 25.4917 32.9199 28.2393 32.9183 30.9869C32.9183 31.608 32.9733 31.5241 32.3581 31.5257C30.8444 31.529 29.3323 31.5274 27.8186 31.5257C27.4106 31.5257 27.4074 31.5225 27.4074 31.1063C27.4074 25.461 27.4074 19.8157 27.4074 14.1705C27.4074 13.7623 27.3879 13.7784 27.7992 13.78C29.3129 13.78 30.825 13.78 32.3387 13.78C32.7062 13.78 32.7094 13.7849 32.711 14.1479C32.7143 14.7706 32.711 15.3918 32.711 16.1081L32.7127 16.1114Z" fill="#0966C3"/>
<path d="M18.8657 22.6714C18.8657 19.9077 18.8657 17.1456 18.8657 14.3818C18.8657 14.277 18.8738 14.1721 18.8657 14.0688C18.8446 13.8607 18.9207 13.7736 19.1425 13.7816C19.5764 13.7945 20.0119 13.7849 20.4458 13.7849C21.6292 13.7849 22.8127 13.7849 23.9977 13.7849C24.4397 13.7849 24.4429 13.7865 24.4429 14.2156C24.4429 15.6048 24.4429 16.9939 24.4429 18.383C24.4429 22.565 24.4429 26.7469 24.4429 30.9288C24.4429 31.0337 24.4348 31.1385 24.4429 31.2418C24.4624 31.4499 24.383 31.5419 24.1645 31.5306C23.9103 31.5177 23.6545 31.5274 23.4003 31.5274C22.0372 31.5274 20.6724 31.5274 19.3093 31.5274C18.8673 31.5274 18.8657 31.5774 18.8673 31.0934C18.8673 28.2861 18.8673 25.4771 18.8673 22.6698L18.8657 22.6714Z" fill="#0966C3"/>
<path d="M24.8297 8.27832C24.9365 9.95625 23.405 11.4761 21.642 11.4599C19.819 11.4438 18.4219 10.0579 18.4219 8.25896C18.4219 6.37451 19.8563 5.07895 21.6031 5.04669C23.4293 5.01281 24.8863 6.481 24.8297 8.27832Z" fill="#0966C3"/>
</g>
<defs>
<clipPath id="clip0_490_736">
<rect width="146" height="37" fill="white"/>
</clipPath>
</defs>
</svg>
