<svg width="163" height="37" viewBox="0 0 163 37" fill="none" xmlns="http://www.w3.org/2000/svg">
<g clip-path="url(#clip0_490_762)">
<mask id="mask0_490_762" style="mask-type:luminance" maskUnits="userSpaceOnUse" x="0" y="0" width="38" height="37">
<path d="M37.0611 0H0.0078125V37H37.0611V0Z" fill="white"/>
</mask>
<g mask="url(#mask0_490_762)">
<path d="M21.9679 15.5931L35.7295 0H32.5534L20.6441 13.4788L11.1157 0H0L14.5569 20.6144L0 37H3.17613L15.8807 22.7288L25.9376 37H37.0533L21.9679 15.5931ZM17.4679 20.8791L15.8807 18.7647L4.49992 2.37907H9.5284L19.0568 15.5931L20.3806 17.7075L32.555 34.8856H27.5265L17.4695 20.8791H17.4679Z" fill="black"/>
</g>
<path d="M53.5757 29.7671C51.3225 29.1612 49.2562 27.4518 48.1975 25.3215C47.6567 24.233 47.3863 21.1911 47.3863 16.1959C47.2905 9.70445 47.3272 9.49556 47.76 8.8689C48.6797 7.33653 50.7093 7.00965 52.0411 8.17846C52.9753 8.99965 53.0503 9.2787 53.0503 11.9655V14.2952H56.9754C59.377 14.2952 61.1288 14.3446 61.4897 14.4211C63.5384 14.8596 64.3161 17.3057 62.8933 18.8364C62.7256 19.0166 62.3807 19.2765 62.1268 19.4137C61.6797 19.6545 61.5152 19.664 57.357 19.6975L53.0503 19.7326V20.7722C53.0503 22.2839 53.2068 22.7782 53.9094 23.4798C54.7302 24.2994 54.949 24.3377 58.7958 24.3408C61.7803 24.3424 62.0486 24.36 62.5308 24.5784C64.3624 25.406 64.8191 27.6113 63.4682 29.107C62.6793 29.9808 62.6266 29.9903 58.2529 29.9856C54.8388 29.9824 54.2847 29.9553 53.5757 29.7655V29.7671ZM71.0548 29.8165C69.2759 29.386 67.4411 28.037 66.3185 26.3356C65.2854 24.7666 65.0826 23.6632 65.0778 19.5412C65.073 15.987 65.1449 15.5389 65.8299 14.8341C66.4639 14.182 66.8679 14.0129 67.8004 14.0097C68.5126 14.0065 68.6931 14.0528 69.1849 14.3558C69.5346 14.5726 69.8843 14.9202 70.1015 15.2694C70.5358 16.0205 70.456 16.3346 70.5087 19.4232C70.5646 22.9376 70.5726 23.0206 70.8376 23.4463C71.7351 24.8862 73.589 25.0983 74.8186 23.9023C75.5292 23.2119 75.5962 22.8053 75.5962 19.1761C75.5962 16.1911 75.609 15.9902 75.8406 15.5309C76.3036 14.6109 76.9727 14.1245 77.9644 13.989C79.0247 13.8439 80.168 14.4674 80.7157 15.4911C80.9601 15.9471 80.9744 16.1337 81.0303 19.4998C81.0112 22.2998 81.1421 23.1178 81.4072 23.5101C82.2535 24.7857 84.0324 25.06 85.1422 24.0857C85.6724 23.6201 85.9593 22.0883 86.0029 19.4902C86.0588 16.1417 86.0748 15.9455 86.3175 15.4911C87.3347 13.5824 89.9088 13.4628 91.0282 15.271C91.7516 16.274 91.4354 18.3948 91.4354 19.7629C91.4881 21.5631 91.3827 23.8705 91.0665 24.5816C90.209 26.999 88.2992 28.9172 86.0013 29.6714C84.9586 30.0143 82.6623 30.0956 81.6275 29.8277C80.6295 29.5694 79.7672 29.1739 78.9448 28.5983L78.255 28.1152L77.5652 28.5983C76.7316 29.1819 75.8869 29.5774 74.9639 29.8165C74.1032 30.0398 71.981 30.0382 71.0548 29.8149V29.8165ZM95.0666 29.8325C94.5397 29.6029 93.8818 28.9858 93.5943 28.4484C93.3436 27.9796 93.3404 27.927 93.3404 22.0303C93.3404 16.1337 93.35 16.0635 93.5672 15.6282C94.4678 13.8152 96.7928 13.407 98.2012 14.815C99.0779 15.6904 99.0747 15.6681 99.038 22.2169C99.0061 27.8696 98.9997 27.9844 98.7553 28.4373C98.4328 29.0336 97.8467 29.5901 97.3038 29.8165C96.78 30.035 95.5521 30.043 95.065 29.8325H95.0666ZM107.199 29.7671C104.63 29.0942 102.391 27.0675 101.448 24.5545C100.938 23.1991 100.897 22.5087 100.937 15.7956C100.972 9.60399 100.977 9.49556 101.222 9.04111C102.447 6.77525 105.799 7.06227 106.526 9.49556C106.649 9.90536 106.696 10.6516 106.696 12.1696V14.2744L109.443 14.3159C111.982 14.3542 112.223 14.3765 112.651 14.6045C114.66 15.6776 114.67 18.3389 112.667 19.4073C112.218 19.6465 112.016 19.6656 109.433 19.7007L106.679 19.739L106.717 21.0864C106.762 22.6586 106.941 23.1306 107.723 23.7285C108.407 24.2516 108.838 24.3377 110.804 24.3393C112.38 24.3393 112.59 24.3664 113.122 24.6135C115.343 25.6468 115.34 28.7721 113.119 29.7799C112.432 30.0908 108.41 30.0828 107.204 29.7671H107.199ZM121.919 29.7735C119.008 28.9778 116.618 26.5365 115.864 23.5866C115.679 22.8611 115.658 22.1292 115.658 16.2007C115.703 10.0473 115.396 10.2881 115.973 9.02038C116.637 7.76228 118.009 7.20738 119.46 7.6092C120.065 7.77663 121.084 8.79396 121.252 9.39829C121.322 9.65023 121.378 10.8318 121.378 12.0708V14.2936H123.733C126.43 14.2936 127.146 14.394 127.796 14.8596C129.202 15.869 129.234 18.1301 127.856 19.1267C127.168 19.6242 126.518 19.7198 123.802 19.7198H121.38V20.7659C121.38 22.1436 121.538 22.7224 122.084 23.3411C122.828 24.1846 123.104 24.2659 125.493 24.3345C127.572 24.3951 127.586 24.3967 128.152 24.7459C128.8 25.1445 129.399 26.0279 129.515 26.7534C129.683 27.8042 129.132 28.9874 128.182 29.6172L127.698 29.9377L125.204 29.9632C123.074 29.984 122.593 29.9569 121.921 29.7719L121.919 29.7735ZM136.35 29.8261C134.661 29.3701 133.415 28.6206 132.195 27.3274C130.715 25.7552 130.047 24.0235 130.05 21.7641C130.054 20.3848 130.29 19.3053 130.841 18.1636C131.422 16.9581 132.061 16.172 133 15.5022C135.735 13.5537 140.598 13.4309 143.66 15.236C144.757 15.8817 145.896 17.1032 146.452 18.2289C147.574 20.5044 147.462 22.5645 146.177 23.2342C145.733 23.4654 145.525 23.4766 140.829 23.5085L135.944 23.5404V23.8433C135.944 24.3153 136.696 24.9548 137.525 25.1876C138.091 25.3454 138.772 25.3805 141.327 25.3805C143.057 25.3805 144.628 25.4331 144.86 25.4969C146.849 26.0486 147.248 28.6812 145.498 29.7065C144.931 30.0892 144.588 29.9935 140.963 29.9903C137.958 29.984 136.78 29.9425 136.348 29.8261H136.35ZM141.433 19.5779C141.216 18.8492 140.591 18.4187 139.449 18.2082C138.236 17.9834 136.538 18.4856 136.211 19.1649C136.067 19.4647 135.928 19.8043 135.928 19.8043C135.928 19.8043 136.939 19.8378 138.729 19.8378H141.508L141.43 19.5779H141.433ZM150.158 29.7751C149.562 29.4514 148.928 28.7004 148.777 28.1407C148.689 27.8138 148.66 26.5318 148.689 24.1798C148.732 20.7547 148.737 20.6893 149.048 19.7549C149.869 17.2945 152.065 15.2535 154.618 14.5758C155.557 14.3271 159.889 14.2075 160.834 14.4052C162.147 14.6779 163 15.6904 163 16.9724C163 18.0663 162.502 18.913 161.569 19.4057C161.13 19.6369 160.878 19.6624 158.375 19.7182C155.78 19.7756 155.638 19.7916 155.223 20.0499C154.674 20.3911 154.273 20.9173 154.11 21.5105C154.033 21.7896 153.984 23.1657 153.982 24.9803C153.982 26.9851 153.882 28.1885 153.681 28.5903C153.478 28.9969 153.205 29.3127 152.842 29.5646C152.37 29.8915 152.199 29.9393 151.437 29.968C150.755 29.9919 150.482 29.9505 150.156 29.7751H150.158ZM94.9245 12.2653C93.0897 11.3516 92.756 8.94066 94.2794 7.60283C94.8734 7.083 95.3509 6.90601 96.1732 6.90601C97.323 6.90601 98.2172 7.44337 98.733 8.44315C99.9674 10.8366 97.3437 13.4676 94.9245 12.2637V12.2653Z" fill="black"/>
</g>
<defs>
<clipPath id="clip0_490_762">
<rect width="163" height="37" fill="white"/>
</clipPath>
</defs>
</svg>
