<svg width="48" height="47" viewBox="0 0 48 47" fill="none" xmlns="http://www.w3.org/2000/svg">
<g clip-path="url(#clip0_3230_1164)">
<path d="M40.1768 10.2817V8.83075C40.1734 7.67735 39.7019 6.57215 38.8654 5.75657C38.0289 4.94099 36.8953 4.48132 35.7123 4.47797H5.94889C4.76588 4.48132 3.63231 4.94099 2.7958 5.75657C1.95928 6.57215 1.48781 7.67735 1.48438 8.83075V32.0456C1.48781 33.199 1.95928 34.3042 2.7958 35.1198C3.63231 35.9354 4.76588 36.395 5.94889 36.3984H7.43706" stroke="white" stroke-width="2.4" stroke-linejoin="round"/>
<path d="M41.8525 11.7326H13.2033C10.8409 11.7326 8.92578 13.5998 8.92578 15.9031V38.0316C8.92578 40.3349 10.8409 42.2021 13.2033 42.2021H41.8525C44.2149 42.2021 46.1301 40.3349 46.1301 38.0316V15.9031C46.1301 13.5998 44.2149 11.7326 41.8525 11.7326Z" stroke="white" stroke-width="2.4" stroke-linejoin="round"/>
<path d="M34.6783 22.8131C36.259 22.8131 37.5403 21.5728 37.5403 20.0428C37.5403 18.5127 36.259 17.2724 34.6783 17.2724C33.0977 17.2724 31.8164 18.5127 31.8164 20.0428C31.8164 21.5728 33.0977 22.8131 34.6783 22.8131Z" stroke="white" stroke-width="2.4" stroke-miterlimit="10"/>
<path d="M31.8204 33.8747L23.7145 26.0406C23.1963 25.5415 22.5032 25.2525 21.7751 25.2322C21.0469 25.2118 20.338 25.4615 19.7913 25.9309L8.92578 35.2776M24.666 42.2021L35.6961 31.526C36.2037 31.038 36.8787 30.7506 37.5908 30.7192C38.303 30.6879 39.0018 30.9149 39.5524 31.3564L46.1301 36.6623" stroke="white" stroke-width="2.4" stroke-linecap="round" stroke-linejoin="round"/>
</g>
<defs>
<clipPath id="clip0_3230_1164">
<rect width="47.6215" height="46.4297" fill="white" transform="translate(0 0.125183)"/>
</clipPath>
</defs>
</svg>
