<?xml version="1.0" encoding="UTF-8"?>
<svg xmlns="http://www.w3.org/2000/svg" version="1.1" viewBox="0 0 100 100">
  <defs>
    <style>
      .cls-1 {
        fill: #49acf3;
      }

      .cls-2 {
        fill: #fdfdfe;
      }
    </style>
  </defs>
  <!-- Generator: Adobe Illustrator 28.6.0, SVG Export Plug-In . SVG Version: 1.2.0 Build 709)  -->
  <g>
    <g id="Layer_1">
      <g>
        <path class="cls-1" d="M80.5,82.5c-1.9,0-3.7-.2-5.4.2-.8.1-1.3.5-1.7,1.2-.8,1.7-1.2,3.5-1.8,5.2-.5,1.7-1.1,3.3-2,4.8-2.2,3.8-5.9,4.9-9.8,3-2-.9-3.7-2.3-5.4-3.6-.6-.5-1.2-.9-1.8-1.4-1.8-1.5-3.5-1.3-5.3.1-1.1.9-2.2,1.8-3.3,2.7-1.9,1.5-4,2.5-6.4,3-2.8.6-5-.6-6.6-2.8-1.6-2.2-2.3-4.8-3.1-7.4-.2-.7-.5-1.4-.7-2.2-.5-2.1-1.9-2.9-4-2.8-2.4,0-4.7,0-7.1,0-2.1,0-4.2-.6-5.8-2.1-2.5-2.3-2.5-5.2-1.7-8.2.4-1.6.9-3.1,1.5-4.7.4-1.2.7-2.4,1-3.6.2-.9,0-1.6-.7-2.2-1.1-1-2.3-1.9-3.5-2.7-1.5-1-3-2.1-4.3-3.4-3.5-3.5-3.5-7.7,0-11.3,1.5-1.5,3.2-2.6,4.9-3.8,1-.7,2-1.5,2.9-2.3.8-.7.9-1.4.7-2.3-.3-1.6-.9-3.1-1.4-4.7-.7-1.8-1.2-3.6-1.4-5.6-.4-3.6,1.6-6.8,5.2-7.8,2.1-.6,4.2-.5,6.3-.5,1.8,0,3.6.1,5.3-.2.7-.1,1.2-.4,1.5-1,.7-1.5,1.2-3,1.6-4.6.5-1.8,1.1-3.7,2-5.4,2.2-3.9,5.9-5.2,10-3.2,2,.9,3.7,2.3,5.4,3.6.9.7,1.8,1.3,2.7,1.8,1.1.7,2.1.7,3.3,0,1.8-1,3.2-2.4,4.9-3.6,1.4-1,2.8-1.9,4.5-2.5,3.1-1,6.1,0,8,2.6,1.6,2.2,2.3,4.8,3,7.4.3,1.2.8,2.4,1.3,3.6.3.8.9,1.1,1.6,1.2,1.3.2,2.6.2,3.9.2,2.1,0,4.3-.2,6.4.2,4.7.8,7.2,4.4,6.2,9.1-.4,2-1.1,3.9-1.7,5.8-1.6,5.1-1.7,4.8,2.5,7.8,1.7,1.2,3.5,2.4,5,3.8,3.6,3.5,3.6,7.8,0,11.3-1.5,1.6-3.4,2.8-5.2,4-.9.6-1.8,1.4-2.6,2.1-.8.7-.9,1.4-.7,2.3.3,1.6.9,3.1,1.4,4.6.6,1.8,1.2,3.6,1.4,5.5.5,4.2-1.9,7.4-6.1,8.2-1.7.3-3.5.3-5.1.3ZM67.4,45.3c0-.2,0-.5-.1-.8-.7-2.6-3.5-3.5-5.8-1.7-5,3.7-10,7.5-15,11.3-.7.6-1.1.5-1.7-.2-2-2.1-4-4.1-6.1-6.1-1.6-1.6-3.7-1.6-5.1-.2-1.4,1.4-1.3,3.5.2,5.1,2.9,2.9,5.8,5.8,8.7,8.7,1.6,1.6,3.3,1.8,5.1.4,6.1-4.6,12.2-9.1,18.3-13.7.9-.7,1.4-1.6,1.5-2.9Z"/>
        <path class="cls-2" d="M67.4,45.3c0,1.3-.5,2.2-1.5,2.9-6.1,4.6-12.2,9.2-18.3,13.7-1.8,1.3-3.4,1.2-5.1-.4-2.9-2.9-5.8-5.8-8.7-8.7-1.6-1.6-1.7-3.7-.2-5.1,1.5-1.5,3.5-1.4,5.1.2,2,2,4.1,4,6.1,6.1.6.6,1,.7,1.7.2,5-3.8,10-7.5,15-11.3,2.3-1.7,5.1-.9,5.8,1.7,0,.3,0,.6.1.8Z"/>
      </g>
    </g>
  </g>
</svg>