<svg width="47" height="50" viewBox="0 0 47 50" fill="none" xmlns="http://www.w3.org/2000/svg">
<g clip-path="url(#clip0_301_238)">
<path d="M47 11.133V22.6568C46.684 22.6901 46.5241 22.9822 46.2725 23.1297C43.6169 24.6879 40.9774 26.2744 38.3237 27.8345C37.9954 28.028 37.8696 28.237 37.8715 28.6317C37.8876 31.754 37.8706 34.8772 37.8895 37.9995C37.8933 38.5895 37.6965 38.9588 37.196 39.2548C33.3267 41.5359 29.4696 43.8376 25.6088 46.1333C23.6306 47.3096 21.6514 48.4838 19.6789 49.6698C19.5635 49.7392 19.3071 49.7284 19.3866 50.001H18.5351C18.5483 49.9912 18.5625 49.9834 18.5729 49.9717C18.5805 49.9629 18.5909 49.9414 18.589 49.9404C18.4755 49.8564 18.3658 49.7646 18.2447 49.6932C16.3781 48.5796 14.503 47.4795 12.6431 46.3531C8.46341 43.8229 4.20048 41.4402 0.0813607 38.8015C0.0160829 38.7595 0.0160829 38.8308 0 38.867V5.7619C0.30936 5.7238 0.48438 5.45026 0.734138 5.30373C3.55906 3.64198 6.37452 1.96167 9.18903 0.279401C9.29215 0.217854 9.49839 0.224693 9.45676 0C9.74058 0 10.0244 0 10.3082 0C10.294 0.00683848 10.2789 0.0117231 10.2647 0.0195385C10.2533 0.026377 10.2354 0.0410309 10.2363 0.0439616C10.3347 0.253024 10.5476 0.306754 10.7188 0.409332C13.487 2.06131 16.2542 3.71525 19.0327 5.34964C19.4953 5.6222 19.695 5.9485 19.6931 6.51609C19.676 12.8944 19.6817 19.2728 19.6855 25.6511C19.6855 25.8377 19.6354 26.0341 19.729 26.2119C19.8813 26.2314 19.9769 26.1327 20.0819 26.0712C22.3345 24.7338 24.5823 23.3856 26.8424 22.0599C27.1574 21.8753 27.2748 21.6789 27.2729 21.2999C27.2568 18.1601 27.2729 15.0192 27.2549 11.8794C27.2511 11.305 27.4479 10.9484 27.9323 10.6641C30.7799 8.99162 33.619 7.30447 36.4496 5.59973C36.933 5.30861 37.3304 5.31936 37.8072 5.60755C40.2546 7.08564 42.7163 8.53735 45.1703 10.0037C45.7853 10.371 46.3907 10.7569 47.0009 11.134L47 11.133ZM1.51936 22.7731C1.51936 27.6216 1.52504 32.4701 1.5099 37.3195C1.50896 37.7621 1.631 38.0092 2.01226 38.2349C7.26097 41.3376 12.5002 44.4589 17.7414 47.5753C18.1747 47.8332 18.1784 47.8322 18.1794 47.3095C18.1803 44.625 18.1737 41.9404 18.1879 39.2558C18.1898 38.9295 18.0763 38.7663 17.8114 38.613C15.1615 37.0763 12.5248 35.5122 9.86735 33.9892C9.30161 33.6648 9.06793 33.2799 9.06983 32.601C9.09064 25.9295 9.07834 19.2591 9.09159 12.5877C9.09159 12.194 8.97333 11.9859 8.6441 11.7934C6.42466 10.4941 4.21751 9.17235 2.00658 7.85741C1.68429 7.66593 1.52252 7.75678 1.52126 8.12997C1.52126 13.0117 1.52126 17.8924 1.52126 22.7741L1.51936 22.7731ZM19.6836 43.2993C19.6836 44.6494 19.6893 45.9995 19.6798 47.3496C19.677 47.6827 19.6931 47.8508 20.0743 47.6241C25.3912 44.4511 30.7127 41.2849 36.0371 38.1265C36.2774 37.9838 36.354 37.8197 36.3531 37.5452C36.3446 34.8616 36.3436 32.177 36.3531 29.4934C36.355 29.0909 36.2585 29.0606 35.9368 29.2511C30.6351 32.386 25.3297 35.5151 20.0204 38.6374C19.7678 38.7859 19.6732 38.95 19.676 39.2499C19.6912 40.6 19.6827 41.9501 19.6827 43.3003L19.6836 43.2993ZM35.5726 27.6636C35.3825 27.5405 35.2803 27.4692 35.1734 27.4057C32.936 26.0732 30.6947 24.7475 28.4649 23.4022C28.1574 23.2166 27.9379 23.1971 27.6153 23.3895C23.0374 26.1298 18.45 28.8535 13.8644 31.5801C13.0612 32.0578 12.258 32.5365 11.4567 33.0142C11.5447 33.2145 11.7103 33.2487 11.8418 33.3258C14.0735 34.6349 16.3109 35.9342 18.537 37.2541C18.8388 37.4328 19.0554 37.4182 19.3506 37.2423C23.4612 34.8049 27.5803 32.3812 31.6966 29.9535C32.9662 29.2052 34.2349 28.4549 35.5726 27.6636ZM10.6015 21.8577C10.6015 24.9819 10.6053 28.1052 10.5968 31.2294C10.5958 31.5918 10.6374 31.6993 10.9932 31.4853C13.2788 30.1098 15.5711 28.745 17.871 27.394C18.1415 27.2347 18.1832 27.0452 18.1822 26.7658C18.1775 20.5506 18.1784 14.3354 18.1775 8.1202C18.1775 7.56922 18.1737 7.56726 17.73 7.83005C15.4775 9.16844 13.2296 10.5146 10.9705 11.8403C10.6819 12.0103 10.592 12.2028 10.5939 12.5339C10.6053 15.6415 10.6005 18.7491 10.6005 21.8567L10.6015 21.8577ZM44.6566 11.5404C44.5478 11.4544 44.5138 11.4193 44.474 11.3958C42.1136 9.99101 39.7504 8.59108 37.3966 7.17454C37.1345 7.01628 36.9652 7.11006 36.7552 7.23608C34.4913 8.58619 32.2292 9.94021 29.9559 11.2727C29.5519 11.5092 29.6673 11.601 29.9776 11.7837C32.2472 13.124 34.514 14.4683 36.7713 15.8301C37.0466 15.9962 37.2386 15.9688 37.4959 15.8125C38.8942 14.9645 40.3029 14.1342 41.7087 13.2969C42.6737 12.7225 43.6387 12.1481 44.6576 11.5414L44.6566 11.5404ZM2.33959 6.17319C2.41433 6.26014 2.43041 6.29237 2.45596 6.308C4.84191 7.73041 7.2307 9.14793 9.61192 10.5772C9.83708 10.712 9.99034 10.627 10.1729 10.5186C12.4633 9.15379 14.7566 7.79195 17.047 6.42621C17.1454 6.3676 17.2882 6.34024 17.3005 6.17417C17.2646 6.14095 17.2333 6.10187 17.1936 6.07843C14.8341 4.67263 12.4728 3.2727 10.1181 1.85909C9.88438 1.71841 9.71977 1.77605 9.51447 1.89914C7.93551 2.84578 6.35087 3.78363 4.76906 4.72539C3.96681 5.2031 3.16455 5.6818 2.33959 6.17417V6.17319ZM37.88 21.7805C37.88 23.114 37.8885 24.4475 37.8753 25.7801C37.8715 26.1728 37.9311 26.2793 38.3077 26.0526C40.5782 24.6859 42.8563 23.3319 45.141 21.9886C45.4021 21.8353 45.4693 21.6555 45.4683 21.3663C45.4589 18.7159 45.4636 16.0655 45.4627 13.4151C45.4627 12.8847 45.456 12.8808 45.0218 13.1377C42.7569 14.4829 40.4959 15.836 38.2253 17.1695C37.9481 17.3326 37.8725 17.5212 37.8753 17.8289C37.8895 19.1458 37.881 20.4627 37.881 21.7796L37.88 21.7805ZM36.3474 21.8089C36.3474 20.4578 36.3399 19.1077 36.3531 17.7566C36.3559 17.4752 36.2651 17.3199 36.0295 17.1802C33.7458 15.832 31.4667 14.4741 29.1905 13.1113C28.9001 12.9374 28.7847 12.9462 28.7856 13.3389C28.7941 16.0401 28.7932 18.7423 28.7856 21.4435C28.7856 21.7053 28.8736 21.8519 29.0931 21.9808C31.3769 23.329 33.6568 24.684 35.9312 26.0497C36.249 26.2402 36.3559 26.2226 36.3512 25.8113C36.337 24.4769 36.3455 23.1424 36.3455 21.8079L36.3474 21.8089Z" fill="#F92C1F"/>
</g>
<defs>
<clipPath id="clip0_301_238">
<rect width="47" height="50" fill="white"/>
</clipPath>
</defs>
</svg>
