<svg width="50" height="50" viewBox="0 0 50 50" fill="none" xmlns="http://www.w3.org/2000/svg">
<g clip-path="url(#clip0_301_225)">
<path d="M39.8368 44.5455C37.6588 42.909 34.483 41.6817 31.0798 40.3638C27.0419 38.8183 22.459 37.0454 19.0563 34.2729C15.1544 31.1818 13.2487 27.2729 13.2487 22.3184C13.2487 17.864 15.0637 14.091 18.5572 11.364C22.459 8.27286 28.3578 6.68226 35.6169 6.68226C37.6134 6.68226 39.5642 6.81863 41.3338 7.04592C41.4699 7.04592 41.6514 7.00046 41.6968 6.81863C41.7875 6.68226 41.7422 6.50043 41.606 6.40951C37.0689 2.27288 31.1252 0 24.9546 0C18.2849 0 12.0236 2.59108 7.30497 7.31825C2.58638 12.0454 0 18.3182 0 25C0 31.6818 2.58638 37.9546 7.30497 42.6817C12.0236 47.4089 18.2849 50 24.9546 50C30.3538 50 35.4808 48.3181 39.7914 45.091C39.8822 45.0001 39.9276 44.9092 39.9276 44.8183C39.9729 44.7273 39.9276 44.6364 39.8368 44.5455Z" fill="#189EFF"/>
<path d="M49.8186 22.6821C49.8186 22.5912 49.7732 22.5002 49.6824 22.4548C44.5101 18.1367 40.2902 16.3639 35.1633 16.3639C32.4408 16.3639 30.3539 16.9094 28.9473 18.0004C27.7222 18.955 27.0869 20.2278 27.0869 21.7729C27.0869 26.0455 32.35 28.0457 38.3845 30.3185C41.5154 31.5004 44.7366 32.6823 47.7313 34.3638C47.7767 34.4093 47.8221 34.4093 47.9128 34.4093C47.9582 34.4093 48.0036 34.4093 48.0489 34.3638C48.1397 34.3184 48.2304 34.2729 48.2758 34.1366C49.4102 31.2273 50.0001 28.1366 50.0001 25C49.9547 24.2727 49.9093 23.4999 49.8186 22.6817V22.6821Z" fill="#189EFF"/>
</g>
<defs>
<clipPath id="clip0_301_225">
<rect width="50" height="50" fill="white"/>
</clipPath>
</defs>
</svg>
