<svg width="43" height="50" viewBox="0 0 43 50" fill="none" xmlns="http://www.w3.org/2000/svg">
<path d="M0.00388408 44.5222C0.143711 44.4784 0.159247 44.3551 0.170899 44.2358C0.384524 42.5093 0.59038 40.7828 0.807888 39.0563C0.998208 37.5407 1.1963 36.0211 1.3905 34.5054C1.57694 33.0177 1.7556 31.5299 1.94204 30.0421C2.10517 28.7492 2.27607 27.4563 2.43532 26.1595C2.59845 24.8666 2.74993 23.5698 2.91306 22.2769C3.07619 20.984 3.24709 19.6911 3.40634 18.3943C3.53839 17.3401 3.66269 16.2819 3.79086 15.2238C3.79474 15.18 3.79863 15.1323 3.80251 15.0885C3.86466 14.3924 4.17538 13.9389 4.87063 13.732C6.33105 13.2944 7.77592 12.8011 9.22857 12.3317C9.28295 12.3118 9.34121 12.292 9.39558 12.284C9.70631 12.2363 9.84614 12.0533 9.92382 11.731C10.4559 9.53516 11.2211 7.43076 12.3281 5.4656C13.2175 3.89029 14.3051 2.48603 15.7732 1.42787C16.8336 0.660105 17.9988 0.131023 19.2961 0.0156592C20.4691 -0.0877704 21.4867 0.32197 22.2985 1.22101C22.4383 1.37616 22.551 1.51937 22.8034 1.51141C24.2871 1.47163 25.4135 2.18768 26.3263 3.31347C26.9205 4.04941 27.3361 4.89276 27.6741 5.77987C27.7284 5.9191 27.7867 6.05833 27.8294 6.20154C27.8799 6.36862 27.977 6.40045 28.1324 6.34873C28.5247 6.22143 28.917 6.09811 29.3092 5.98673C29.6044 5.90319 29.9074 5.83954 30.1987 6.01855C30.1055 6.09414 30.1171 6.20154 30.1094 6.30497C30.0628 7.08069 30.0123 7.85244 29.9734 8.62816C29.9268 9.61472 29.8841 10.6013 29.8491 11.5878C29.8414 11.8385 29.8491 12.101 29.8103 12.3357C29.7054 13.004 29.7909 13.6763 29.6899 14.3486C29.5928 14.9811 29.6394 15.6335 29.6083 16.274C29.5695 17.1094 29.4918 17.9488 29.4957 18.7841C29.4957 19.4564 29.3792 20.1248 29.3947 20.801C29.3986 21.0039 29.4297 21.2187 29.3908 21.4176C29.251 22.0979 29.2976 22.7901 29.2626 23.4703C29.2122 24.5324 29.0956 25.5906 29.1384 26.6567C29.1384 26.6886 29.1384 26.7164 29.1384 26.7482C28.9713 27.4842 29.0529 28.24 28.9946 28.9839C28.9092 30.0858 28.8626 31.1917 28.816 32.2936C28.7771 33.2205 28.7266 34.1474 28.7033 35.0743C28.6956 35.4005 28.6956 35.7267 28.6567 36.0489C28.5752 36.6894 28.6257 37.3299 28.548 37.9743C28.4742 38.6028 28.4742 39.2473 28.4586 39.8838C28.4431 40.7391 28.3227 41.5864 28.346 42.4417C28.3654 43.0981 28.2372 43.7505 28.2489 44.4148C28.2489 44.6296 28.2683 44.8643 28.2295 45.0712C28.113 45.6917 28.144 46.3282 28.1168 46.9488C28.0702 47.9632 27.9731 48.9816 27.9964 50C26.3845 49.6937 24.7765 49.3874 23.1646 49.0811C20.8925 48.6435 18.6203 48.2059 16.3481 47.7683C14.2351 47.3625 12.1222 46.9488 10.0054 46.547C7.55841 46.0776 5.11533 45.6162 2.66836 45.1468C1.77891 44.9757 0.889454 44.7927 0 44.6137V44.5222H0.00388408ZM7.93129 35.1419C7.51569 36.5462 7.11951 37.8788 6.71945 39.2115C6.65731 39.4144 6.71945 39.5576 6.84763 39.6968C7.18166 40.0548 7.54676 40.381 7.94682 40.6595C10.0132 42.1115 12.3009 42.7042 14.7789 42.4258C16.7792 42.199 18.395 41.2403 19.4981 39.49C20.4069 38.0499 20.772 36.4507 20.7954 34.7441C20.8264 32.7989 20.1778 31.136 18.8922 29.7198C18.127 28.8765 17.2453 28.1883 16.2976 27.5796C15.7732 27.2415 15.28 26.8676 14.8605 26.4021C14.5342 26.0441 14.3012 25.6304 14.2623 25.1292C14.1847 24.1068 14.7595 23.2396 15.7344 22.8776C16.6627 22.5355 17.6143 22.611 18.5581 22.7463C19.3 22.8537 20.0108 23.0884 20.6982 23.4027C20.974 23.53 20.9857 23.518 21.0867 23.2117C21.6343 21.5489 22.1781 19.8861 22.7219 18.2232C22.8423 17.8573 22.8384 17.8533 22.481 17.7021C21.7159 17.3799 20.9119 17.2446 20.0884 17.173C18.3212 17.0179 16.6083 17.2247 14.942 17.8413C13.035 18.5455 11.493 19.7429 10.421 21.525C9.58202 22.9253 9.16642 24.4529 9.13147 26.0958C9.09263 27.9496 9.71019 29.5289 10.9725 30.8536C11.4852 31.3946 12.0484 31.872 12.6388 32.3175C13.1243 32.6835 13.5749 33.0893 13.9361 33.5905C14.34 34.1514 14.5692 34.768 14.5226 35.4761C14.4682 36.3751 13.9011 37.0832 13.0544 37.2662C12.6932 37.3458 12.3242 37.3338 11.963 37.2583C10.7472 37.0076 9.67524 36.4388 8.68091 35.6989C8.44398 35.5238 8.21094 35.3448 7.9274 35.13L7.93129 35.1419ZM11.7959 11.4645C11.8775 11.4844 11.9086 11.5003 11.9319 11.4924C13.066 11.1343 14.1963 10.7723 15.3305 10.4183C15.5596 10.3467 15.6373 10.2074 15.6878 9.97672C16.0102 8.41334 16.4879 6.90566 17.2531 5.50538C17.9444 4.24036 18.8339 3.16231 20.0574 2.39852C20.2555 2.2752 20.4574 2.16381 20.6827 2.02856C20.4963 1.88535 20.3215 1.82568 20.1351 1.78192C19.6185 1.66258 19.1135 1.75009 18.6203 1.90524C17.2181 2.35078 16.0956 3.22595 15.1673 4.36368C13.4855 6.43625 12.53 8.87082 11.7959 11.4526V11.4645ZM17.6143 9.70224C19.1524 9.21293 20.6478 8.73557 22.1431 8.26616C22.3451 8.20251 22.3606 8.07123 22.3684 7.89222C22.3917 6.97329 22.3218 6.06231 22.1625 5.16327C22.0693 4.63817 21.98 4.10511 21.7353 3.59591C20.8458 3.97781 20.1428 4.56656 19.5524 5.31046C18.7251 6.34873 18.2047 7.55011 17.8124 8.81513C17.7308 9.08166 17.6143 9.34421 17.6143 9.70224ZM23.4365 3.24584C23.8948 4.68988 24.0114 6.13392 24.0619 7.63365C24.7843 7.40292 25.4796 7.18015 26.1709 6.96135C26.3107 6.91759 26.3574 6.83405 26.3107 6.69482C25.9456 5.60881 25.5029 4.57054 24.6406 3.78686C24.3182 3.49248 23.9415 3.30552 23.4365 3.24584Z" fill="#95BF47"/>
<path d="M27.9966 50C27.9733 48.9816 28.0743 47.9632 28.117 46.9488C28.1442 46.3283 28.1131 45.6957 28.2297 45.0712C28.2685 44.8643 28.253 44.6296 28.2491 44.4148C28.2374 43.7544 28.3695 43.102 28.3462 42.4417C28.319 41.5864 28.4394 40.7391 28.4588 39.8838C28.4705 39.2473 28.4744 38.6029 28.5481 37.9743C28.6219 37.3339 28.5753 36.6894 28.6569 36.0489C28.6957 35.7267 28.6957 35.4005 28.7035 35.0743C28.7268 34.1474 28.7773 33.2205 28.8162 32.2936C28.8628 31.1877 28.9094 30.0818 28.9948 28.9839C29.0531 28.24 28.9715 27.4842 29.1385 26.7482C29.1463 26.7204 29.1424 26.6886 29.1385 26.6567C29.0958 25.5906 29.2123 24.5325 29.2628 23.4703C29.2939 22.7901 29.2512 22.0939 29.391 21.4176C29.4298 21.2227 29.3988 21.0039 29.3949 20.801C29.3832 20.1248 29.4997 19.4564 29.4959 18.7842C29.4959 17.9448 29.5697 17.1094 29.6085 16.274C29.6396 15.6296 29.5968 14.9811 29.6901 14.3486C29.7911 13.6763 29.7017 13.004 29.8105 12.3357C29.8493 12.101 29.8415 11.8385 29.8493 11.5878C29.8843 10.6013 29.9231 9.61472 29.9736 8.62816C30.0124 7.85244 30.0668 7.0807 30.1095 6.30498C30.1173 6.20155 30.1018 6.09414 30.1989 6.01855C30.4086 6.04242 30.5251 6.20552 30.6611 6.34078C31.4534 7.14435 32.2497 7.93996 33.0343 8.75148C33.2518 8.97823 33.477 9.08564 33.7994 9.10155C34.9258 9.16122 36.0522 9.26067 37.1747 9.34819C37.5359 9.37604 37.6369 9.45958 37.6952 9.82954C37.901 11.194 38.0991 12.5585 38.2972 13.923C38.5496 15.6574 38.7982 17.3958 39.0468 19.1302C39.2993 20.8806 39.5479 22.6309 39.8003 24.3853C40.111 26.5215 40.4295 28.6577 40.7403 30.7939C41.016 32.7074 41.284 34.6248 41.5598 36.5382C41.8123 38.2727 42.0725 40.0111 42.325 41.7455C42.5464 43.289 42.7639 44.8325 42.9814 46.376C43.0241 46.6863 43.0163 46.6942 42.7211 46.7579C40.2742 47.3029 37.8272 47.8399 35.3802 48.3849C32.976 48.918 30.5756 49.459 28.1714 49.992C28.117 50.004 28.0549 49.992 27.9966 49.992V50Z" fill="#5E8E3E"/>
<path d="M7.93111 35.142C8.21465 35.3568 8.4477 35.5358 8.68463 35.7108C9.67895 36.4507 10.751 37.0196 11.9667 37.2702C12.3279 37.3458 12.6969 37.3577 13.0581 37.2782C13.9087 37.0952 14.4719 36.3871 14.5263 35.4881C14.569 34.776 14.3437 34.1594 13.9398 33.6025C13.5786 33.1012 13.128 32.6955 12.6425 32.3295C12.0521 31.8839 11.4889 31.4026 10.9762 30.8655C9.71779 29.5409 9.09634 27.9616 9.13518 26.1078C9.17014 24.4649 9.58573 22.9373 10.4247 21.537C11.4928 19.7548 13.0348 18.5614 14.9458 17.8533C16.6081 17.2367 18.3249 17.0299 20.0922 17.185C20.9156 17.2566 21.7196 17.3958 22.4848 17.7141C22.8421 17.8613 22.8421 17.8692 22.7256 18.2352C22.1818 19.898 21.638 21.5609 21.0904 23.2237C20.9894 23.53 20.9777 23.538 20.702 23.4146C20.0184 23.1004 19.3037 22.8617 18.5618 22.7583C17.618 22.623 16.6664 22.5474 15.7381 22.8895C14.7632 23.2515 14.1845 24.1188 14.266 25.1411C14.3049 25.6424 14.5379 26.0521 14.8642 26.4141C15.2837 26.8795 15.7808 27.2535 16.3013 27.5916C17.249 28.2002 18.1346 28.8885 18.8959 29.7318C20.1815 31.148 20.8301 32.8108 20.7991 34.7561C20.7719 36.4587 20.4068 38.0619 19.5018 39.5019C18.3948 41.2523 16.7829 42.211 14.7826 42.4377C12.3046 42.7162 10.013 42.1235 7.95053 40.6715C7.55047 40.389 7.18537 40.0668 6.85134 39.7088C6.71928 39.5656 6.66102 39.4263 6.72317 39.2235C7.12323 37.8948 7.5194 36.5582 7.935 35.1539L7.93111 35.142Z" fill="white"/>
</svg>
