<svg width="50" height="50" viewBox="0 0 50 50" fill="none" xmlns="http://www.w3.org/2000/svg">
<g clip-path="url(#clip0_301_250)">
<path d="M50.0006 25.6065C49.9291 26.3153 49.8591 27.0241 49.7848 27.733C49.3645 31.8065 48.0167 35.5536 45.7063 38.9295C42.0845 44.2203 37.1696 47.7013 30.9306 49.266C20.6398 51.8462 9.66937 47.4674 3.95581 38.5205C1.83599 35.202 0.570824 31.5949 0.146299 27.6783C-1.20293 15.2463 6.91067 3.67429 19.0916 0.764834C20.6145 0.400628 22.2048 0.315179 23.7627 0.0994565C23.9701 0.0700398 24.1761 0.0336191 24.3834 0C24.7743 0 25.1652 0 25.5561 0C25.7635 0.0336191 25.9694 0.0700398 26.1768 0.0994565C27.7502 0.320782 29.3558 0.410433 30.8914 0.784446C37.1542 2.30571 42.0803 5.8105 45.7091 11.1153C48.0167 14.4898 49.3645 18.2356 49.7834 22.3091C49.8563 23.0179 49.9263 23.7267 49.9992 24.4341V25.6065H50.0006ZM24.9747 1.72578C12.1311 1.72578 1.68467 12.1365 1.66786 24.9566C1.65105 37.8551 12.068 48.3078 24.9438 48.3162C37.8155 48.3232 48.2647 37.9083 48.2745 25.0616C48.2843 12.1715 37.8575 1.72858 24.9747 1.72718V1.72578Z" fill="#00769D"/>
<path d="M35.1799 36.5579C32.6832 29.5007 30.2201 22.536 27.722 15.476C28.4898 15.476 29.1959 15.483 29.9021 15.4746C30.7889 15.4634 30.7469 15.6371 30.7497 14.6509C30.7516 13.7899 30.328 13.3594 29.4789 13.3594C25.7801 13.3594 22.0827 13.3594 18.3839 13.3594C17.9327 13.3594 17.7067 13.5919 17.7058 14.057C17.7058 14.508 17.7058 14.9591 17.7058 15.476C18.5744 15.476 19.3842 15.4942 20.1926 15.4676C20.5303 15.4564 20.676 15.574 20.7853 15.8864C21.7717 18.7076 22.7762 21.5232 23.764 24.3444C23.8284 24.5279 23.8508 24.7689 23.7892 24.9482C22.4708 28.7541 21.1384 32.5559 19.8074 36.3576C19.7919 36.4011 19.7625 36.4403 19.7121 36.5313C17.2294 29.5161 14.7607 22.5402 12.2612 15.4774C13.0626 15.4774 13.7884 15.455 14.5127 15.4858C14.9302 15.504 15.0591 15.3513 15.0269 14.9549C14.9989 14.5991 14.9989 14.2377 15.0269 13.8805C15.0577 13.477 14.9092 13.3482 14.5015 13.351C12.4321 13.3678 10.3641 13.3594 8.29476 13.3594C8.11963 13.3594 7.94589 13.3594 7.74414 13.3594C13.546 3.94462 28.6089 0.155472 39.016 9.60104C38.3533 9.82376 37.601 9.96804 36.9593 10.3154C35.6367 11.0298 35.0006 12.2429 34.9543 13.718C34.9417 14.12 35.1631 14.5697 35.3873 14.9297C36.1004 16.0755 36.9228 17.1555 37.5967 18.3224C38.6223 20.0986 39.0076 22.0583 38.8997 24.0937C38.8031 25.9063 38.3253 27.6461 37.7242 29.3523C36.92 31.6355 36.12 33.9188 35.3172 36.2021C35.285 36.2932 35.2472 36.3814 35.1799 36.5551V36.5579Z" fill="#00769D"/>
<path d="M25.0205 27.8688C27.0661 33.6513 29.064 39.2951 31.0773 44.9865C26.8909 46.2262 22.776 46.187 18.584 44.9011C20.7234 39.2419 22.8502 33.6149 25.0219 27.8688H25.0205Z" fill="#00769D"/>
<path d="M43.2962 15.13C46.1599 20.5357 46.6699 26.1543 44.6692 31.9283C42.9333 36.9362 39.6534 40.6917 34.9668 43.237C35.3801 42.0813 35.792 40.9271 36.2053 39.7714C38.314 33.8698 40.4184 27.9655 42.5354 22.0667C43.2597 20.0482 43.4503 17.9652 43.3774 15.8444C43.369 15.6049 43.3242 15.3681 43.2962 15.13Z" fill="#00769D"/>
<path d="M5.7148 17.0071C8.83498 25.8251 11.9215 34.545 15.0207 43.3042C5.82688 38.6396 1.50878 26.8477 5.7148 17.0071Z" fill="#00769D"/>
</g>
<defs>
<clipPath id="clip0_301_250">
<rect width="50" height="50" fill="white"/>
</clipPath>
</defs>
</svg>
