<svg viewBox="0 0 498 261" fill="none" xmlns="http://www.w3.org/2000/svg">
<g clip-path="url(#clip0_483_160)">
<path d="M0 0H502V371H0V0Z" fill="#FAFAFA"/>
<path d="M105 214.966H222.963" stroke="#D7DDE2" stroke-width="4" stroke-linecap="round"/>
<path d="M312.248 214.966H374.417" stroke="#D7DDE2" stroke-width="4" stroke-linecap="round"/>
<path d="M306.063 145.858H229.131C227.601 145.86 226.135 146.456 225.053 147.517C223.971 148.578 223.363 150.017 223.361 151.517V226.975C223.363 228.476 223.971 229.914 225.053 230.975C226.135 232.036 227.601 232.633 229.131 232.635H306.063C307.593 232.633 309.06 232.036 310.141 230.975C311.223 229.914 311.832 228.476 311.833 226.975V151.517C311.832 150.017 311.223 148.578 310.141 147.517C309.06 146.456 307.593 145.86 306.063 145.858ZM307.987 226.975C307.986 227.475 307.783 227.955 307.423 228.309C307.062 228.662 306.573 228.861 306.063 228.862H229.131C228.621 228.861 228.132 228.662 227.772 228.309C227.411 227.955 227.208 227.475 227.208 226.975V212.665L243.158 197.021C243.519 196.667 244.008 196.469 244.518 196.469C245.028 196.469 245.517 196.667 245.878 197.021L255.824 206.777C256.907 207.837 258.374 208.432 259.904 208.432C261.434 208.432 262.901 207.837 263.984 206.777L285.47 185.702C285.831 185.349 286.32 185.15 286.831 185.15C287.341 185.15 287.83 185.349 288.191 185.702L307.987 205.119V226.975ZM307.987 199.784L290.91 183.035C290.375 182.509 289.738 182.092 289.038 181.808C288.338 181.524 287.588 181.377 286.831 181.377C286.073 181.377 285.323 181.524 284.623 181.808C283.923 182.092 283.287 182.509 282.751 183.035L261.264 204.109C260.903 204.462 260.414 204.661 259.904 204.661C259.394 204.661 258.905 204.462 258.544 204.109L248.598 194.353C247.515 193.293 246.048 192.698 244.518 192.698C242.988 192.698 241.521 193.293 240.438 194.353L227.208 207.33V151.517C227.208 151.017 227.411 150.538 227.772 150.184C228.132 149.83 228.621 149.631 229.131 149.631H306.063C306.573 149.631 307.062 149.83 307.423 150.184C307.783 150.538 307.986 151.017 307.987 151.517V199.784ZM257.981 172.268V172.269C257.981 173.27 257.576 174.23 256.854 174.937C256.133 175.645 255.154 176.042 254.134 176.042C253.114 176.042 252.135 175.644 251.414 174.937C250.692 174.229 250.287 173.269 250.287 172.269C250.287 171.268 250.692 170.308 251.414 169.601C252.135 168.893 253.114 168.495 254.134 168.495C255.154 168.495 256.133 168.893 256.854 169.6C257.576 170.308 257.981 171.267 257.981 172.268Z" fill="#93B6C9"/>
<path d="M181.118 84.7346C181.098 82.9917 180.644 81.2737 179.788 79.7018C178.933 78.1299 177.696 76.7421 176.166 75.6362C174.635 74.5303 172.848 73.7332 170.93 73.3009C169.011 72.8686 167.009 72.8117 165.063 73.1341C163.104 69.9558 160.052 67.4058 156.344 65.8502C152.636 64.2946 148.463 63.8136 144.425 64.4761C140.387 65.1386 136.691 66.9107 133.869 69.5377C131.047 72.1648 129.242 75.5117 128.716 79.0978C126.913 79.2656 125.196 79.8607 123.747 80.8198C122.298 81.7789 121.171 83.066 120.488 84.544C119.712 86.2712 119.539 88.1627 119.991 89.9768C120.443 91.7909 121.499 93.4453 123.024 94.7285C126.489 97.5333 130.881 97.1521 135.212 97.1521H166.61C170.305 97.2819 173.907 96.1163 176.627 93.9109C179.347 91.7055 180.962 88.6405 181.118 85.3882V84.7346ZM166.733 94.429C163.052 94.4562 159.371 94.429 155.721 94.429C147.214 94.429 138.738 94.5924 130.263 94.429C128.639 94.4532 127.052 94.0044 125.749 93.1524C124.445 92.3004 123.498 91.0929 123.055 89.718C122.765 88.7702 122.728 87.7762 122.948 86.8138C123.167 85.8514 123.637 84.9469 124.32 84.1713C125.004 83.3956 125.882 82.7699 126.886 82.3432C127.89 81.9165 128.993 81.7004 130.108 81.712C130.514 81.7017 130.901 81.5549 131.189 81.3018C131.476 81.0486 131.643 80.7083 131.655 80.3504C131.919 77.1524 133.386 74.123 135.824 71.7404C138.262 69.3578 141.531 67.7577 145.117 67.1926C148.702 66.6275 152.4 67.1297 155.625 68.6197C158.85 70.1098 161.42 72.503 162.929 75.4215C163.1 75.6783 163.362 75.8786 163.675 75.9917C163.988 76.1048 164.334 76.1246 164.661 76.0479C166.239 75.6319 167.907 75.5516 169.528 75.8136C171.148 76.0756 172.675 76.6724 173.983 77.5549C175.29 78.4374 176.341 79.5805 177.049 80.8902C177.757 82.1999 178.102 83.6388 178.055 85.0886C178.032 86.3628 177.718 87.6199 177.132 88.785C176.546 89.9502 175.699 90.9997 174.643 91.8711C173.587 92.7425 172.342 93.418 170.983 93.8574C169.625 94.2968 168.179 94.4912 166.733 94.429Z" fill="#D7DDE2"/>
<path d="M392.733 168.44C392.72 167.257 392.41 166.091 391.827 165.025C391.244 163.958 390.4 163.016 389.357 162.266C388.313 161.516 387.095 160.975 385.787 160.681C384.479 160.388 383.114 160.349 381.787 160.568C380.451 158.411 378.37 156.681 375.842 155.626C373.314 154.57 370.469 154.244 367.716 154.693C364.962 155.143 362.443 156.345 360.518 158.128C358.594 159.91 357.364 162.182 357.005 164.615C355.776 164.729 354.605 165.133 353.617 165.783C352.629 166.434 351.861 167.308 351.395 168.311C350.866 169.483 350.748 170.766 351.056 171.997C351.364 173.228 352.084 174.351 353.124 175.222C355.486 177.125 358.481 176.866 361.434 176.866H382.842C385.361 176.954 387.817 176.163 389.671 174.667C391.526 173.17 392.627 171.09 392.733 168.883V168.44ZM382.926 175.018C380.416 175.037 377.906 175.018 375.417 175.018C369.617 175.018 363.838 175.129 358.059 175.018C356.953 175.035 355.871 174.73 354.982 174.152C354.093 173.574 353.447 172.754 353.145 171.821C352.947 171.178 352.922 170.504 353.072 169.851C353.222 169.198 353.542 168.584 354.008 168.058C354.474 167.531 355.073 167.107 355.757 166.817C356.442 166.528 357.194 166.381 357.954 166.389C358.231 166.382 358.495 166.282 358.691 166.111C358.887 165.939 359.001 165.708 359.009 165.465C359.189 163.295 360.189 161.239 361.851 159.622C363.513 158.006 365.743 156.92 368.187 156.536C370.632 156.153 373.153 156.494 375.352 157.505C377.551 158.516 379.303 160.14 380.332 162.12C380.448 162.295 380.627 162.43 380.84 162.507C381.054 162.584 381.29 162.597 381.513 162.545C382.589 162.263 383.726 162.209 384.831 162.386C385.936 162.564 386.977 162.969 387.869 163.568C388.76 164.167 389.477 164.943 389.959 165.831C390.442 166.72 390.677 167.696 390.645 168.68C390.629 169.545 390.415 170.398 390.016 171.188C389.616 171.979 389.039 172.691 388.319 173.283C387.599 173.874 386.75 174.332 385.824 174.63C384.897 174.929 383.912 175.06 382.926 175.018Z" fill="#D7DDE2"/>
<path fill-rule="evenodd" clip-rule="evenodd" d="M138.269 143.925C135.247 143.925 132.472 145.163 130.331 147.244C129.133 148.411 128.135 149.844 127.421 151.462C127.217 151.923 126.85 152.287 126.392 152.479C125.935 152.671 125.423 152.677 124.962 152.495C118.636 152.008 112.839 157.136 112.124 164.487C111.641 169.512 113.697 174.141 117.074 176.863C117.457 177.171 117.693 177.595 117.778 178.046C117.954 178.45 117.992 178.903 117.886 179.332C117.526 180.794 117.408 182.308 117.538 183.81C118.079 190.157 123.996 194.6 129.334 194.046C131.394 193.832 132.835 193.484 133.921 192.839C134.891 192.261 135.726 191.359 136.402 189.713C136.472 189.441 136.598 189.188 136.771 188.969C136.944 188.751 137.161 188.573 137.407 188.447C137.653 188.321 137.922 188.251 138.197 188.24C138.471 188.229 138.745 188.278 138.999 188.384C139.281 188.498 139.531 188.678 139.732 188.91C139.933 189.142 140.078 189.418 140.155 189.717C140.831 191.359 141.662 192.261 142.636 192.839C143.718 193.484 145.164 193.832 147.22 194.046C152.557 194.6 158.474 190.157 159.015 183.81C159.145 182.308 159.028 180.794 158.667 179.332C158.561 178.901 158.601 178.446 158.779 178.042C158.866 177.575 159.115 177.157 159.479 176.863C162.861 174.141 164.917 169.512 164.43 164.487C163.719 157.128 157.902 151.996 151.572 152.499C151.111 152.679 150.599 152.673 150.143 152.48C149.687 152.287 149.32 151.923 149.117 151.462C148.422 149.877 147.434 148.445 146.207 147.244C144.08 145.129 141.235 143.939 138.269 143.925ZM151.989 148.514C151.16 146.981 150.108 145.586 148.87 144.376C146.024 141.562 142.226 139.983 138.269 139.968C134.312 139.982 130.514 141.562 127.668 144.376C126.443 145.567 125.388 146.963 124.549 148.51C116.201 148.257 109.148 155.122 108.278 164.103C107.698 170.077 109.959 175.711 113.929 179.328C113.632 180.918 113.552 182.542 113.693 184.155C114.427 192.784 122.327 198.754 129.724 197.987C131.935 197.757 134.045 197.342 135.857 196.265C136.785 195.716 137.585 195.023 138.277 194.169C138.972 195.023 139.772 195.716 140.696 196.265C142.513 197.342 144.623 197.757 146.833 197.987C154.231 198.754 162.13 192.784 162.864 184.159C163.006 182.546 162.925 180.921 162.625 179.332C166.594 175.711 168.855 170.077 168.275 164.099C167.406 155.114 160.341 148.253 151.989 148.514Z" fill="#D7DDE2"/>
<path fill-rule="evenodd" clip-rule="evenodd" d="M149.975 168.625C150.106 168.848 150.192 169.095 150.229 169.352C150.267 169.609 150.254 169.871 150.192 170.123C150.131 170.375 150.021 170.612 149.87 170.821C149.718 171.03 149.528 171.206 149.311 171.339L140.588 176.696V213.163C140.588 213.688 140.384 214.191 140.022 214.562C139.66 214.933 139.168 215.142 138.656 215.142C138.143 215.142 137.651 214.933 137.289 214.562C136.927 214.191 136.723 213.688 136.723 213.163V186.588L128 181.234C127.561 180.965 127.243 180.527 127.119 180.018C126.994 179.509 127.072 178.97 127.336 178.52C127.599 178.07 128.026 177.745 128.523 177.618C129.021 177.49 129.547 177.57 129.987 177.84L136.723 181.978V161.729C136.723 161.204 136.927 160.701 137.289 160.33C137.651 159.959 138.143 159.75 138.656 159.75C139.168 159.75 139.66 159.959 140.022 160.33C140.384 160.701 140.588 161.204 140.588 161.729V172.083L147.324 167.944C147.542 167.811 147.783 167.722 148.034 167.684C148.285 167.646 148.541 167.659 148.788 167.722C149.034 167.786 149.265 167.898 149.469 168.053C149.673 168.208 149.845 168.402 149.975 168.625Z" fill="#D7DDE2"/>
<ellipse cx="224.612" cy="116.511" rx="3.06975" ry="2.98167" fill="#D7DDE2"/>
<ellipse cx="256.877" cy="110.842" rx="3.94682" ry="3.83357" fill="#D7DDE2"/>
<path d="M203.17 135.08H211.539M207.355 139.203V130.958" stroke="#D7DDE2" stroke-width="3" stroke-linecap="round" stroke-linejoin="round"/>
<path d="M316.52 128.359H324.889M320.705 132.482V124.236" stroke="#D7DDE2" stroke-width="3" stroke-linecap="round" stroke-linejoin="round"/>
</g>
<defs>
<clipPath id="clip0_483_160">
<rect width="498" height="260.067" fill="white"/>
</clipPath>
</defs>
</svg>
