<svg width="606" height="422" viewBox="0 0 606 422" fill="none" xmlns="http://www.w3.org/2000/svg">
<g clip-path="url(#clip0_3379_654)">
<path d="M0.0859375 326.152L106.698 312.49C107.063 312.443 107.283 312.062 107.142 311.724L58.9516 196.239C58.2661 194.595 59.4142 192.77 61.195 192.675C74.2562 191.978 118.318 189.898 122.761 189.689C122.983 189.679 123.187 189.8 123.286 189.998L140.627 224.94C140.635 224.957 140.643 224.973 140.65 224.992C141.365 226.911 183.335 339.27 192.653 339.376C202.051 339.482 270.513 335.217 271.58 333.618C272.648 332.02 176.099 309.415 178.661 308.455C181.225 307.496 241.248 307.07 242.743 307.176C244.237 307.283 330.748 327.755 332.564 331.593C334.379 335.432 195.109 348.013 191.798 348.12C188.487 348.227 122.375 324.662 116.075 321.25C109.773 317.838 109.346 312.294 109.346 312.294C109.346 312.294 107.424 282.545 126.434 298.325C145.445 314.106 161.145 298.965 163.922 287.129C166.699 275.294 183.04 277.427 184.642 275.187C186.243 272.948 202.799 264.098 217.003 263.565C231.208 263.032 244.344 271.242 244.024 276.999C243.704 282.757 229.392 284.677 218.819 280.838C208.245 276.999 205.789 270.815 211.129 268.043C216.469 265.271 218.285 269.109 227.256 267.404C236.227 265.698 250.112 275.827 251.287 286.597C252.461 297.366 238.257 310.694 223.305 311.227C208.352 311.76 178.019 306.962 175.35 303.763C172.68 300.564 175.671 286.81 180.476 284.357C185.282 281.904 185.282 277.746 183.36 277.639C181.439 277.532 184.215 302.269 190.623 301.949C197.032 301.63 193.934 286.702 195.856 281.371C197.778 276.04 211.343 277.319 211.556 280.625C211.77 283.93 205.361 293.1 225.441 296.938C245.52 300.777 249.792 286.275 249.045 281.691C248.297 277.106 260.473 280.412 263.57 292.247C266.668 304.083 261.54 309.627 269.659 311.333C277.776 313.039 290.485 314.639 292.408 313.786C294.331 312.933 288.136 296.833 277.669 285.104C267.202 273.375 248.084 275.509 247.977 274.335C247.87 273.162 263.143 257.488 265.814 244.905C268.484 232.324 273.556 189.887 282.208 175.332C290.859 160.778 316.972 132.095 325.518 143.398C334.062 154.7 342.819 171.76 370.803 165.789C398.785 159.818 413.097 136.147 416.515 122.713C419.933 109.278 400.922 113.97 392.164 97.9758C383.407 81.982 379.85 77.9658 385.115 72.5995C391.879 65.704 390.597 45.9428 381.697 36.8445C372.797 27.7461 369.45 38.4078 371.301 47.3653C373.152 56.3215 369.379 6.84794 332.425 1.44475C295.471 -3.95712 272.188 30.1622 270.123 48.8575C268.057 67.5529 325.66 19.3571 335.415 25.3999C345.171 31.4426 343.746 44.0952 354.213 40.1856C364.68 36.276 365.605 65.4198 370.874 61.0127C376.142 56.6057 367.598 13.8842 334.988 13.2447C302.378 12.6051 269.268 44.0241 271.263 57.6005C273.257 71.1769 285.895 99.7891 299.352 115.676C312.808 131.563 330.325 160.459 358.521 152.462C386.716 144.465 387.677 98.4021 391.522 103.093C395.367 107.785 403.911 114.183 440.437 118.021C476.964 121.86 505.374 126.125 525.026 160.672C544.678 195.219 565.824 272.842 568.815 300.778C571.806 328.714 529.939 345.988 534.424 337.67C538.91 329.354 526.307 293.954 504.946 284.998C483.586 276.041 477.177 299.073 465.215 294.38C453.253 289.689 441.932 287.343 434.456 292.462C426.979 297.579 408.182 312.152 408.039 310.446C407.897 308.741 420.855 266.446 423.277 264.668C425.698 262.891 430.54 266.587 432.034 265.236C433.529 263.886 436.591 253.934 435.168 251.802C433.744 249.669 429.472 249.101 428.474 249.955C427.478 250.807 423.419 261.541 424.843 261.755C426.266 261.968 434.312 263.318 434.669 265.238C435.026 267.158 428.903 292.747 427.834 294.809C426.766 296.871 406.045 310.163 402.771 317.059C399.495 323.954 397.218 345.208 393.017 341.796C388.816 338.383 389.67 328.29 391.949 324.665C394.228 321.04 401.063 316.348 400.92 318.908C400.778 321.467 391.309 342.934 391.237 343.36C391.211 343.521 370.158 343.06 343.693 342.422C299.635 341.36 240.581 339.806 238.58 339.806C235.376 339.806 171.721 385.229 177.275 393.119C182.828 401.01 317.614 416.79 325.945 411.673C334.275 406.555 334.702 340.02 343.46 344.499C352.217 348.977 324.662 410.05 329.575 412.674C334.487 415.298 453.467 421.483 457.098 420.417C460.73 419.351 462.865 361.986 467.779 361.986C472.693 361.986 485.722 360.494 491.916 347.698C498.111 334.903 491.489 316.989 485.721 313.79C479.954 310.591 487.858 346.204 496.402 347.484C504.946 348.763 530.152 341.513 537.628 330.851C545.105 320.188 532.716 291.4 514.345 283.723C495.975 276.045 475.255 288.414 480.595 279.458C485.935 270.501 527.673 242.912 542.968 247.044C558.262 251.176 488.498 278.818 481.876 264.744C475.254 250.669 450.381 170.7 464.039 147.349C477.699 123.998 480.06 275.94 477.176 278.179C474.292 280.418 385.058 150.388 407.807 197.889C430.557 245.391 287.013 203.326 331.39 240.272C375.767 277.218 289.096 312.885 295.504 315.443C301.913 318.002 386.661 323.281 386.5 326.319C386.339 329.358 389.064 357.828 398.194 357.987C407.326 358.147 418.7 329.198 421.905 325.68C425.109 322.161 443.853 312.404 442.09 309.205C440.328 306.006 419.982 319.495 415.337 330.21C410.69 340.926 401.88 350.629 410.21 357.346C418.541 364.064 434.561 344.497 441.397 338.953C448.233 333.409 457.844 327.544 454.533 325.626C451.222 323.707 419.929 352.176 424.521 358.253C429.113 364.331 440.008 363.157 448.765 357.933C457.523 352.709 467.99 345.245 465.319 343.005C462.649 340.765 430.822 361.025 437.337 364.116C443.853 367.209 477.335 358.625 492.395 355.906C507.454 353.188 529.563 341.352 534.689 341.352C539.815 341.352 605.981 343.431 605.981 343.431" stroke="black" stroke-miterlimit="10"/>
</g>
<defs>
<clipPath id="clip0_3379_654">
<rect width="606" height="421" fill="white" transform="translate(0 0.199951)"/>
</clipPath>
</defs>
</svg>
