<svg width="589" height="422" viewBox="0 0 589 422" fill="none" xmlns="http://www.w3.org/2000/svg">
<g clip-path="url(#clip0_3379_724)">
<path d="M0 390.34H244.615C244.768 390.34 244.894 390.465 244.894 390.62V415.238C244.894 418.871 254.831 420.368 265.943 420.368H479.425C486.477 420.368 488.828 413.743 488.828 407.759C488.828 401.776 494.598 278.252 494.811 270.986C495.024 263.721 487.972 259.873 477.929 260.087C467.885 260.3 265.73 258.59 256.541 259.018C247.351 259.446 244.147 267.78 243.719 277.183C243.291 286.586 247.992 386.388 244.147 387.03C240.964 387.56 230.322 386.482 226.742 386.094C226.484 386.066 226.403 385.731 226.619 385.586C227.592 384.931 228.48 383.144 225.555 378.268C221.067 370.788 215.939 352.409 217.434 343.219C218.93 334.029 212.519 299.195 213.16 280.816C213.801 262.437 199.27 226.451 208.887 206.404C218.503 186.358 233.675 171.612 236.667 181.228C239.659 190.845 261.028 227.816 249.274 237.22C237.521 246.623 222.989 227.603 230.897 239.357C238.803 251.111 258.464 245.982 262.95 238.288C267.439 230.595 273.207 221.192 267.011 227.389C260.813 233.587 246.496 252.606 261.882 248.333C277.268 244.059 284.32 237.006 276.627 225.893C268.934 214.78 266.583 216.918 280.474 217.559C294.365 218.2 305.156 207.087 307.719 209.01C310.283 210.933 306.223 212.749 306.865 215.421C307.506 218.093 308.041 221.833 310.604 218.948C313.168 216.062 317.335 209.033 315.627 206.404C313.917 203.774 309.323 195.654 306.546 195.654C303.769 195.654 291.266 207.302 292.014 204.523C292.761 201.744 302.592 193.838 306.438 197.149C310.285 200.462 315.84 204.843 315.306 201.958C314.771 199.072 306.651 185.93 301.415 185.715C296.179 185.502 274.063 207.835 274.489 211.787C274.917 215.741 276.733 217.451 274.276 215.313C271.819 213.176 268.293 207.513 269.575 204.414C270.857 201.315 287.632 179.089 291.693 178.983C295.753 178.876 305.797 186.997 306.865 185.287C307.934 183.578 299.172 172.251 297.142 171.396C295.192 170.575 280.841 170.543 279.692 170.542C279.643 170.542 279.599 170.53 279.556 170.506C277.816 169.511 240.077 147.899 239.764 143.827C239.47 140.007 248.242 129.008 249.708 127.197C249.816 127.064 250.015 127.057 250.13 127.185C251.547 128.753 259.509 137.417 261.453 136.347C263.59 135.171 266.582 130.898 266.154 130.257C265.726 129.616 260.598 125.768 260.171 125.768C259.743 125.768 256.217 130.683 255.576 130.149C255.011 129.678 251.791 126.053 251.034 125.199C250.943 125.095 250.94 124.942 251.03 124.837C252.285 123.355 260.752 113.397 261.346 113.693C261.987 114.014 310.389 145.322 310.282 146.604C310.18 147.832 295.275 167.098 294.018 168.721C293.966 168.79 293.886 168.829 293.8 168.829C292.089 168.822 274.65 168.868 273.634 173.745C272.565 178.875 271.817 201.848 268.398 203.665C264.979 205.481 249.058 209.542 243.396 193.299C237.733 177.057 235.169 157.609 237.626 139.765C240.084 121.921 249.273 105.572 251.73 96.2752C254.187 86.9786 266.047 46.6952 280.151 20.7297C294.255 -5.23571 330.797 -1.8701 348.747 9.99052C366.696 21.8511 370.222 27.6215 375.992 39.1624C381.762 50.7032 384.326 80.0342 387.211 89.6506C390.096 99.267 386.41 112.411 389.936 120.906C393.462 129.401 401.795 130.522 400.353 139.499C398.91 148.476 393.462 154.084 403.238 161.939C413.014 169.793 422.471 170.112 416.701 177.806C410.931 185.499 402.277 195.917 408.046 203.13C413.816 210.343 399.391 228.935 409.008 227.653C414.937 226.862 416.601 224.182 417.005 222.244C417.069 221.939 417.512 221.955 417.554 222.263C417.979 225.402 417.176 230.768 406.284 229.737C391.058 228.294 382.884 206.496 389.455 198.322C396.027 190.148 388.334 209.702 382.403 223.166C376.473 236.63 387.691 236.79 390.737 232.943C393.783 229.096 384.967 247.368 375.512 233.104C366.055 218.838 363.972 200.246 368.139 202.33C372.306 204.414 377.435 235.187 366.536 231.661C355.637 228.135 361.728 224.287 356.438 227.494C351.15 230.699 347.783 235.187 341.052 234.707C334.321 234.226 325.506 229.097 324.224 231.181C322.942 233.264 324.865 258.428 321.339 256.826C317.813 255.223 325.025 233.746 322.942 224.771C320.858 215.795 315.249 210.261 317.973 210.705C320.698 211.148 320.858 229.42 333.04 230.38C345.221 231.343 356.279 230.702 352.753 223.007C349.227 215.313 348.586 206.177 351.951 194.317C355.317 182.456 343.617 174.602 343.937 166.107C344.258 157.612 343.616 156.65 332.879 152.643C322.14 148.637 296.657 134.371 295.536 126.998C294.414 119.624 295.375 96.224 291.689 89.011C288.002 81.798 285.758 70.2586 296.496 66.8916C307.235 63.526 312.363 62.7244 314.126 51.6654C315.889 40.6063 320.377 40.2851 329.993 40.6063C339.608 40.9275 329.832 11.2753 328.871 18.1671C327.909 25.0589 324.544 39.4849 338.808 38.6833C353.073 37.8817 372.145 43.6521 373.907 50.2241C375.671 56.7961 377.112 106.322 375.189 110.65C373.266 114.978 360.444 139.34 357.72 144.789C354.996 150.238 344.418 151.04 344.898 155.848C345.378 160.657 402.115 146.873 413.654 156.81C425.194 166.748 433.367 178.93 435.29 207.781C437.213 236.631 438.495 260.193 444.906 264.68C451.317 269.167 478.884 269.81 468.306 293.531C457.728 317.252 441.06 335.204 453.882 344.821C466.704 354.437 482.731 357.963 475.358 367.901C467.985 377.839 472.153 388.737 484.654 390.02C497.155 391.302 588.189 390.02 588.189 390.02" stroke="black" stroke-miterlimit="10"/>
</g>
<defs>
<clipPath id="clip0_3379_724">
<rect width="588.206" height="421" fill="white" transform="translate(0 0.202393)"/>
</clipPath>
</defs>
</svg>
