<svg width="354" height="158" viewBox="0 0 354 158" fill="none" xmlns="http://www.w3.org/2000/svg">
<g clip-path="url(#clip0_3262_1389)">
<path d="M124.987 144.693L30.0263 116.836C29.8461 116.783 29.6672 116.923 29.6745 117.11L31.489 162.358C31.4949 162.513 31.3719 162.641 31.2167 162.643L25.3437 162.691C25.1977 162.692 25.0766 162.579 25.0674 162.434L21.7837 110.64C21.7758 110.513 21.8547 110.398 21.9764 110.361C24.0487 109.721 41.1476 104.457 45.7895 103.437C50.734 102.351 56.3439 102.212 60.4465 100.671C64.5491 99.1295 65.7764 98.4641 68.7221 99.6898C71.6678 100.916 76.34 96.4239 77.4442 96.6604C78.5484 96.8969 79.8901 99.655 81.389 99.366C82.8878 99.077 80.2584 92.9833 78.8904 93.0621C77.5225 93.1409 75.4192 93.9029 76.7865 93.3248C78.1538 92.7468 82.651 92.9307 83.2824 91.749C83.9138 90.5673 83.3087 79.7981 86.2189 78.5021C89.1292 77.2061 121.284 70.2368 122.932 71.0428C124.58 71.8481 120.915 95.2948 119.495 97.0545C118.076 98.8142 83.7296 109.268 81.7573 108.979C79.7849 108.69 62.2966 103.962 62.901 103.148C63.506 102.334 82.5721 96.8528 82.6773 96.9934C82.7826 97.1333 81.9059 107.255 81.2745 107.219C80.6432 107.185 72.5787 104.488 72.438 104.243C72.3077 104.015 81.9046 100.791 83.2561 100.337C83.3534 100.305 83.4232 100.222 83.4389 100.121C83.6533 98.7374 85.1265 89.0769 84.4919 88.8332C84.2347 88.7347 83.2351 88.8142 82.094 88.9541C80.1986 89.1873 77.9138 89.5886 77.996 89.6208C78.1275 89.6734 82.046 89.0362 82.217 89.0165C82.388 88.9968 79.9092 88.064 80.1788 87.9596C80.4485 87.8545 82.2038 88.9515 82.4143 88.9449C82.5603 88.9403 83.1002 88.8733 83.4159 88.8332C83.5507 88.8162 83.652 88.7045 83.6553 88.5685C83.6639 88.1882 83.679 87.4748 83.6698 87.4413C83.6566 87.3954 82.6155 86.6006 81.8533 86.6006C81.091 86.6006 75.4981 89.2273 71.8684 90.0937C68.2394 90.9608 61.1121 91.6695 53.9066 92.8782C46.7011 94.0861 27.2134 92.8519 30.2118 94.6642C33.2101 96.4765 35.9711 93.7971 36.3657 91.5126C36.7603 89.2273 37.8645 84.1058 34.4722 83.2387C31.0799 82.3717 17.7462 81.8994 16.8787 82.9235C16.0106 83.9475 17.808 95.9076 19.491 101.581C21.174 107.254 25.1016 107.954 24.2947 108.305C23.4884 108.655 25.0313 127.462 23.804 128.127C22.5768 128.793 19.7363 129.808 18.5794 126.831C17.4226 123.854 0.100685 137.723 0.310484 134.851C0.520283 131.979 17.7376 126.796 17.9481 125.501C18.1585 124.205 17.1944 82.6344 15.9843 82.3198C14.7748 82.0045 14.0908 82.0571 14.4591 80.7965C14.8274 79.536 15.5633 71.341 15.4581 62.568C15.3529 53.795 23.5055 53.9 30.0803 60.1514C36.6551 66.4027 35.4975 82.3198 34.5511 80.9016C33.6047 79.4835 34.4998 64.7895 26.1881 60.782C20.0868 57.8399 15.7212 57.1574 20.9813 52.0089C26.2407 46.8611 41.0733 40.4521 41.7573 39.8216C42.4413 39.191 45.8599 34.7788 45.5968 35.7766C45.3338 36.7744 44.3874 40.5047 48.4373 43.8665C52.4873 47.2283 57.195 50.2229 56.9056 51.0893C56.6162 51.9564 53.9336 59.5996 52.6452 58.5749C51.3568 57.5509 42.7044 47.2809 42.757 43.4198C42.8096 39.5588 48.6215 30.6281 48.0954 30.4179C47.5692 30.2077 44.1243 24.7184 47.3851 22.4594C50.6458 20.2005 51.7507 25.5322 51.6455 29.0786C51.5403 32.6243 52.8813 24.6395 56.2216 24.114C59.562 23.5885 56.511 17.5211 59.3772 17.0488C62.2433 16.5766 72.7543 21.1023 75.3844 19.6664C78.0144 18.2305 80.7846 8.66993 67.074 5.90323C54.7938 3.42489 51.5153 9.4043 50.9655 10.6786C50.9102 10.8067 50.7688 10.8711 50.6353 10.8323C49.5422 10.5124 44.9832 9.66704 42.9845 17.0055C40.705 25.3759 44.7728 28.1774 45.2285 27.1619C45.6843 26.1464 43.149 13.8283 62.0947 14.8346C79.241 15.745 75.5948 26.1424 75.2088 27.4772C74.2269 30.8745 73.2804 36.4775 71.8073 39.1391C70.3347 41.8007 69.6685 46.5288 65.0049 47.0188C60.3413 47.5088 54.0999 40.3648 54.3801 42.6763C54.6609 44.9878 62.3748 46.5984 61.9539 47.3341C61.533 48.0698 57.9217 50.311 57.9914 51.046C58.0611 51.781 60.5511 54.3382 61.6731 56.5446C62.7951 58.751 62.2394 48.6642 64.7234 47.5095C67.2075 46.354 77.4692 48.4901 76.9963 54.9517C76.5235 61.4132 62.3216 90.1476 63.5843 90.3578C64.8464 90.568 70.0539 73.1277 71.8421 75.1764C73.6303 77.2252 74.6826 76.0698 75.9973 74.9662C77.312 73.8634 84.413 70.9738 85.0437 68.82C85.675 66.6661 79.0654 52.6225 76.1196 53.008C73.1739 53.393 69.5975 70.1331 70.2992 71.4993C71.0003 72.8649 80.0473 86.6984 81.1344 85.6481C82.2216 84.5978 75.4192 78.2236 76.7865 77.1378C78.1538 76.052 84.7109 70.5889 85.8335 71.1144C86.9555 71.6399 90.778 78.3813 91.7244 78.3813C92.6708 78.3813 104.979 73.4955 103.296 82.6364C101.613 91.7766 116.129 82.7941 113.026 89.5709C109.923 96.3477 117.655 92.04 121.494 92.9327C125.334 93.826 149.949 98.1856 150.054 97.6082C150.16 97.0302 142.428 87.5747 138.378 88.3629C134.328 89.1511 140.903 98.0549 141.455 96.085C142.007 94.1151 136.116 65.8267 135.801 55.9508C135.485 46.0749 134.959 33.2569 138.378 32.9941C141.797 32.7314 175.512 30.4199 176.563 31.4709C176.794 31.7008 176.873 31.9353 176.843 32.1934C176.738 33.115 175.247 34.3322 174.302 36.6712C173.092 39.6659 179.403 49.279 181.56 48.4383C183.716 47.5975 185.452 45.4962 185.242 45.2866C185.031 45.0764 177.773 40.6636 177.51 36.5136C177.247 32.3636 177.826 31.6279 175.827 29.6317C173.828 27.6355 176.511 20.2287 178.93 23.7482C181.349 27.2676 180.876 30.1046 181.875 28.4763C182.875 26.8479 182.349 21.6469 185.715 22.1198C189.081 22.5927 183.348 15.7108 188.818 16.972C194.288 18.2332 201.862 21.595 202.703 19.2309C203.545 16.8669 202.651 9.40758 188.502 8.04197C174.354 6.67636 174.459 23.959 175.984 22.4358C177.509 20.9125 177.141 13.4525 187.608 14.8188C198.075 16.1844 201.651 18.6536 201.072 23.3816C200.494 28.1097 198.916 28.3725 199.442 30.3161C199.968 32.2598 197.391 45.9704 193.13 46.6536C188.87 47.3367 181.401 42.5035 179.824 37.198C178.246 31.8926 169.251 39.0366 163.939 42.0312C158.627 45.0259 154.63 46.7593 153.999 51.5918C153.367 56.425 155.313 72.7618 160.047 83.5836C164.781 94.4054 187.713 96.6118 191.027 96.4541C194.34 96.2965 192.71 87.6811 195.498 87.2614C198.286 86.841 201.836 87.7343 204.886 87.5767C207.937 87.419 212.276 85.7906 215.406 86.841C218.535 87.8913 218.194 86.7096 220.823 88.5744C223.453 90.4392 223.322 93.1186 222.611 92.488C221.901 91.8574 216.905 88.1803 218.272 88.627C219.639 89.0736 222.348 91.4902 222.375 93.1974C222.401 94.9046 222.796 96.8482 222.006 96.0869C221.217 95.325 219.271 92.1471 216.905 91.3063C214.538 90.4655 210.751 89.3627 212.513 90.0721C214.275 90.7815 216.694 90.9391 217.72 92.5938C218.745 94.2484 221.954 96.7438 221.875 97.2167C221.796 97.6897 221.033 98.9765 219.139 97.1905C217.246 95.4045 213.249 92.8565 211.566 93.0667C209.883 93.2769 209.514 93.3032 210.619 94.2221C211.723 95.1411 215.589 96.7175 214.563 98.0569C213.538 99.3962 210.277 97.3475 208.094 96.192C205.911 95.0366 202.598 95.9818 199.731 94.9052C196.864 93.8286 193.901 95.947 193.831 95.0714C193.762 94.1958 197.934 88.0325 196.075 86.6314C194.217 85.2303 177.035 81.4133 172.933 79.1018C168.831 76.7903 162.694 82.4991 164.448 82.2889C166.201 82.0787 172.898 80.608 172.933 77.8761C172.968 75.1442 169.778 65.5836 167.849 60.6105C165.92 55.6374 160.38 48.7036 156.663 48.8087C152.946 48.9138 160.362 70.4516 157.416 80.4326C154.471 90.4136 150.421 97.1379 152.052 97.7679C153.631 98.3781 175.182 102.092 176.547 102.326C176.592 102.334 176.636 102.331 176.679 102.317C177.739 101.965 191.522 97.3902 192.078 97.1373C192.657 96.8745 220.849 104.597 222.532 104.439C224.215 104.281 256.246 95.4557 257.771 93.8273C259.297 92.199 265.871 58.9986 263.452 58.3687C261.032 57.7381 230.947 63.569 228.317 64.7777C225.687 65.9856 226.055 80.5896 224.793 79.3291C223.531 78.0686 215.956 68.8226 214.379 65.5659C212.801 62.3092 208.372 42.3229 198.231 40.6656C195.338 40.1927 203.07 42.0838 203.018 49.0183C202.965 55.9527 198.442 64.8828 197.495 71.9749C196.548 79.0664 195.497 86.6314 196.811 85.3703C198.126 84.1097 198.126 67.0892 199.494 68.4022C200.861 69.7153 206.016 80.0116 209.487 82.4807C212.959 84.9499 215.694 86.7096 216.352 86.2629C217.009 85.8163 218.192 84.1879 219.349 84.8448C220.506 85.5016 218.56 86.7884 219.744 87.2614C220.927 87.7343 223.347 89.3627 223.689 88.5481C224.031 87.7336 224.031 80.0904 224.793 80.0641C225.494 80.0398 222.386 99.5295 221.881 102.667C221.849 102.864 222.032 103.029 222.225 102.975C226.07 101.894 255.487 93.6014 256.667 92.6194C257.929 91.5691 259.717 76.3345 260.348 75.5988C260.949 74.8979 272.343 69.1419 273.416 68.6006C273.47 68.5737 273.529 68.5651 273.587 68.5756L327.567 78.2118C335.211 79.3458 349.8 84.9023 347 98.0569C343.5 114.5 312.407 106.189 307 114C298 127 318 131.167 318.5 131.5" stroke="black" stroke-miterlimit="10" stroke-linecap="round"/>
</g>
<defs>
<clipPath id="clip0_3262_1389">
<rect width="354" height="158" fill="white"/>
</clipPath>
</defs>
</svg>
