<svg width="326" height="165" viewBox="0 0 326 165" fill="none" xmlns="http://www.w3.org/2000/svg">
<path d="M1.14844 157.988C1.14844 157.988 38.5812 139.127 38.9942 139.127H41.1305C41.2744 139.127 41.3918 139.242 41.3937 139.386C41.4103 140.686 41.5144 146.464 42.0521 146.732C42.6581 147.034 52.5187 146.375 52.5466 146.21C52.5685 146.081 52.4365 144.542 52.3795 143.891C52.3656 143.736 52.4889 143.604 52.6447 143.607C55.5992 143.649 80.0856 144.022 80.435 144.563C80.807 145.14 71.3455 149.34 70.7673 149.587C70.1892 149.834 33.0455 150.658 33.0455 150.37C33.0455 150.082 32.5914 148.393 32.9626 148.229C33.3346 148.064 52.0115 143.547 52.0095 143.287C51.9956 141.79 51.2795 132.676 51.1967 132.676C51.1138 132.676 49.7645 133.033 49.6545 132.895C49.5444 132.758 28.2114 45.4823 29.1409 44.988C30.0705 44.4937 32.6112 43.2585 32.8592 43.3821C33.1072 43.5057 71.9031 55.4276 72.6464 55.9833C73.3896 56.5391 89.3176 121.461 88.8833 121.893C88.4491 122.326 54.3016 133.012 53.62 131.9C53.0459 130.963 52.9113 128.536 52.8834 127.794C52.8788 127.667 52.9643 127.557 53.0883 127.529C55.9711 126.891 87.3285 119.939 87.2105 119.113C87.0865 118.248 73.2663 57.3421 71.8408 56.7242C70.4153 56.1063 33.7888 45.0494 33.4785 45.6052C33.1689 46.161 53.868 126.464 52.8145 126.71C51.8637 126.933 43.3948 128.363 41.7498 128.641C41.6 128.666 41.4607 128.561 41.4448 128.409C41.0297 124.391 36.2354 78.0857 35.5239 77.8492C34.8072 77.6113 40.6478 133.895 41.0768 138.023C41.0907 138.158 41.2061 138.26 41.3427 138.258L147.09 136.657C147.136 136.656 147.181 136.668 147.221 136.69C148.71 137.519 177.092 153.226 189.964 153.787C203.185 154.363 243.261 130.397 253.095 118.454C262.928 106.512 258.631 72.6614 239.13 71.1785C219.629 69.6962 199.549 116.889 193.269 120.101C186.989 123.313 184.593 138.879 185.749 138.797C186.906 138.715 195.831 118.124 191.038 120.843C186.579 123.371 179.239 120.601 168.651 116.642C167.88 116.354 170.628 113.677 179.511 110.301C188.394 106.924 189.179 102.559 189.964 103.135C190.749 103.711 194.178 118.207 194.922 117.177C195.666 116.148 190.129 100.747 190.088 97.9049C190.047 95.0632 179.428 98.9345 178.023 100.293C176.618 101.652 177.775 90.4511 176.494 88.4744C175.213 86.4978 175.379 74.8436 177.486 71.9814C179.593 69.1192 181.721 69.7986 182.527 70.2519C183.332 70.7046 183.601 72.5993 183.683 74.4523C183.766 76.3054 184.696 81.2678 183.146 80.8766C181.597 80.4853 177.716 74.1939 178.953 72.064C180.189 69.9341 182.175 71.1785 183.188 70.2314C184.2 69.2844 185.522 68.8932 187.195 69.8812C188.868 70.8692 187.091 84.2535 186.369 84.5C185.645 84.7472 183.27 84.2119 183.477 82.2762C183.683 80.3406 185.584 81.3497 185.687 82.3589C185.791 83.368 186.948 84.5826 188.951 83.9238C190.955 83.2649 192.525 70.8903 192.215 69.7576C191.906 68.6249 188.869 68.3368 188.187 70.0457C187.505 71.7547 191.761 70.581 192.959 69.1192C194.157 67.6574 197.008 67.6984 197.193 69.7576C197.379 71.8168 194.508 78.0349 192.235 78.0349C189.962 78.0349 191.078 71.6721 193.35 70.2519C195.623 68.8311 197.813 70.1905 197.896 72.8465C197.978 75.5025 198.164 77.7679 196.615 79.0645C195.065 80.3617 197.048 76.7171 199.094 75.0286C201.139 73.3401 201.201 71.1163 204.113 70.9518C207.026 70.7872 207.811 72.7639 205.787 73.814C203.763 74.8641 204.32 77.1083 202.936 78.2615C201.552 79.4147 200.251 82.8327 199.176 84.0269C198.102 85.221 195.499 88.4539 193.02 89.0507C190.541 89.6481 189.57 90.9242 189.466 93.2102C189.363 95.4954 189.88 97.8018 188.64 98.6457C187.401 99.4896 176.246 101.549 175.894 101.796C175.543 102.043 175.667 98.0278 176.246 96.8541C176.824 95.6804 174.2 96.7101 174.283 99.6753C174.366 102.641 176.762 111.267 175.729 110.856C174.696 110.444 174.676 104.514 174.18 104.802C173.684 105.09 165.751 111.466 165.159 112.853C164.567 114.239 168.299 114.953 168.134 115.763C167.969 116.573 153.026 109.724 150.216 112.606C147.407 115.489 145.527 122.819 145.073 122.675C144.618 122.531 141.829 119.896 142.8 116.478C143.771 113.06 147.077 109.703 149.886 109.58C152.695 109.456 153.006 110.733 151.828 110.774C150.651 110.815 148.027 109.539 145.59 107.562C143.152 105.585 140.962 102.291 136.583 101.529C132.204 100.767 128.01 101.529 125.531 101.612C123.052 101.694 117.64 100.706 115.471 102.023C113.302 103.341 114.128 106.121 117.888 106.512C121.648 106.903 130.593 108.159 130.221 107.521C129.849 106.883 125.139 105.668 121.483 107.336C117.827 109.004 115.513 110.795 112.93 111.207C110.348 111.619 109.418 111.619 108.468 111.434C107.518 111.249 104.729 108.448 107.001 107.686C109.274 106.924 113.756 110.26 113.467 110.507C113.178 110.755 104.998 110.796 104.233 112.32C103.469 113.843 105.018 114.914 106.836 114.811C108.654 114.708 114.397 115.47 115.74 115.49C117.083 115.511 123.218 115.182 122.722 114.831C122.226 114.481 113.53 114.296 113.426 114.996C113.323 115.696 114.563 116.808 116.111 116.746C117.661 116.684 121.09 115.963 124.21 116.993C127.329 118.023 130.717 119.773 133.299 119.505C135.882 119.237 141.852 117.837 143.897 118.538C145.942 119.237 144.104 125.868 144.434 129.904C144.765 133.939 147.474 136.35 147.987 136.616C157.862 141.722 181.908 150.679 195.542 148.826C209.176 146.973 250.327 117.755 252.434 102.559C254.541 87.3635 249.955 55.4897 244.377 52.1543C238.8 48.819 203.226 96.2587 206.449 99.224C209.672 102.189 217.357 81.4112 215.87 76.7277C214.382 72.0448 235.887 49.5598 238.738 50.3013C241.589 51.0428 236.446 43.5685 239.792 34.9205C243.138 26.2725 244.254 12.0032 229.876 4.22031C215.498 -3.56262 193.25 5.94978 191.328 14.1034C189.407 22.2571 197.402 17.1302 196.72 20.0333C196.038 22.9365 191.204 29.1135 193.559 33.2525C195.914 37.3914 194.985 36.3413 192.567 40.6032C190.15 44.8651 189.014 47.3777 191.06 47.6453C193.105 47.9129 194.53 46.9038 194.944 49.0252C195.357 51.1459 194.861 52.5667 196.369 53.102C197.877 53.6373 198.435 53.5758 197.299 54.4402C196.162 55.3053 196.865 56.9317 198.291 58.1054C199.716 59.279 197.382 62.6355 199.902 64.1383C202.422 65.6411 206.471 63.4385 210.458 63.0473C214.445 62.656 214.404 63.9533 213.95 66.2597C213.495 68.5661 215.912 71.1811 216.883 70.6868C217.853 70.1925 226.716 52.835 231.426 50.3641C236.137 47.8931 227.832 40.666 225.229 43.1984C222.626 45.7308 219.032 50.0548 217.668 45.7308C216.305 41.4068 217.483 33.191 214.446 34.859C211.409 36.527 208.373 36.4649 206.823 32.4502C205.274 28.4348 200.378 28.3734 204.407 25.0373C208.435 21.702 208.497 14.6599 203.663 15.8336C198.828 17.0073 193.003 19.3546 197.093 16.7601C201.184 14.1656 209.86 10.2744 212.897 16.6365C215.933 22.9993 204.84 26.7053 211.595 26.8904C218.35 27.0754 212.525 34.1175 217.607 32.0794C222.689 30.0407 226.719 34.676 225.726 39.183C224.732 43.6901 233.968 39.8624 235.641 44.9893C237.315 50.1162 238.761 52.4841 240.579 51.6607C242.397 50.8372 245 48.2837 247.065 52.7313C249.131 57.1788 256.444 67.062 258.758 70.0682C261.072 73.0745 280.216 91.7648 283.423 129.492C284.043 136.781 279.209 162.601 286.811 163.59C294.414 164.578 315.568 156.342 324.822 162.436" stroke="black" stroke-miterlimit="10"/>
</svg>
