<svg width="845" height="477" viewBox="0 0 845 477" fill="none" xmlns="http://www.w3.org/2000/svg">
<path d="M844.008 419.608C798.835 412.154 767.217 385.838 757.055 373.611C732.818 352.868 720.551 365.044 711.723 385.636C702.897 406.227 679.409 420.055 666.991 399.012C654.573 377.971 642.007 367.599 622.409 371.357C602.81 375.114 595.328 390.595 598.321 404.574C601.314 418.553 603.557 447.863 604.156 449.967C604.754 452.072 658.537 437.341 658.537 412.541C658.537 387.74 608.145 266.793 605.253 259.779C602.361 252.764 591.59 251.862 579.023 261.381C566.455 270.901 571.018 311.308 572.141 326.414C573.263 341.52 573.712 288.989 578.649 270.726C583.586 252.464 604.656 259.077 604.357 252.664C604.058 246.252 573.264 232.023 547.532 226.611C521.799 221.2 517.087 212.558 513.123 209.176C509.159 205.793 508.485 217.818 506.765 221.513C505.045 225.207 502.502 199.254 502.726 195.347C502.951 191.439 523.671 216.54 525.242 218.42C526.812 220.298 532.124 244.347 532.199 249.232C532.273 254.118 511.029 234.803 507.215 232.173C503.4 229.543 505.195 238.11 500.109 241.868C495.022 245.625 463.68 255.621 462.034 253.742C460.389 251.864 482.38 236.156 486.645 232.173C490.909 228.189 496.968 214.587 497.791 206.47C498.613 198.354 499.362 169.119 499.436 163.032C499.511 156.943 494.05 163.107 487.842 171.824C481.632 180.543 471.31 192.867 447.223 185.653C423.136 178.438 412.289 154.463 408.774 140.936C405.258 127.409 405.557 116.511 400.471 102.984C395.384 89.4574 394.711 77.0565 399.423 65.9344C404.136 54.8124 419.995 51.4303 422.538 43.1635C425.082 34.8967 415.432 28.8095 418.499 38.2037C421.567 47.5979 444.157 34.5214 447.299 24.3751C450.44 14.2304 429.569 28.3592 432.562 35.7238C435.555 43.0899 462.559 26.9316 468.917 21.2197C475.276 15.5078 475.5 43.6153 486.047 44.5175C496.594 45.4197 506.542 43.165 509.61 40.7601C512.677 38.3553 510.956 45.1195 510.732 51.9587C510.508 58.7979 512.827 70.672 515.295 68.042C517.764 65.412 513.051 76.8357 514.397 84.2754C515.743 91.7166 518.96 82.5476 521.877 91.0396C524.795 99.5316 515.519 110.203 513.649 114.412C511.779 118.62 516.641 116.342 520.232 111.03C523.822 105.72 524.569 100.811 524.271 84.5771C523.97 68.3452 529.954 41.4401 517.687 29.8662C505.419 18.2924 505.869 36.0285 504.971 39.3355C504.074 42.641 509.608 37.0808 506.767 24.6047C503.925 12.1302 484.176 -6.20784 445.279 4.3137C406.381 14.8353 387.83 54.8154 388.728 83.6749C389.624 112.533 409.373 115.89 410.37 114.488C411.368 113.085 404.586 105.27 404.685 97.5535C404.785 89.8386 408.964 91.6768 411.966 88.9364C414.967 86.196 408.475 76.4604 423.137 70.1481C437.798 63.8357 433.311 54.0648 443.184 50.0072C453.059 45.9495 466.622 57.8737 478.192 52.2619C489.762 46.6501 508.712 47.5523 506.518 52.2619C504.323 56.9715 508.563 58.5742 507.366 72.2527C506.169 85.9311 509.535 102.69 509.535 108.702C509.535 114.714 505.721 127.942 489.413 128.393C473.106 128.843 468.019 114.039 467.57 110.807C467.121 107.575 462.109 106.597 459.566 108.402C457.023 110.205 452.161 129.445 433.908 125.161C415.656 120.876 414.909 104.494 414.085 101.488C413.264 98.4822 406.157 93.0706 407.728 91.8682C409.298 90.6658 411.469 94.0478 416.929 94.0478C422.388 94.0478 422.913 94.0478 438.546 94.4982C454.181 94.9485 455.602 100.51 457.098 100.811C458.595 101.111 463.905 102.54 467.197 101.788C470.488 101.037 471.312 97.9553 480.063 95.4754C488.816 92.9955 505.121 99.0827 506.917 98.5573C508.712 98.0319 511.705 94.95 513.051 93.4474C514.397 91.9447 517.988 97.1297 517.614 99.3844C517.241 101.639 514.098 107.051 512.603 108.478C511.106 109.906 508.114 133.629 503.626 148.96C499.139 164.292 484.277 196.957 455.154 194.052C426.032 191.147 417.926 163.039 416.13 158.53C414.334 154.02 412.666 189.943 411.668 193.15C410.671 196.357 405.286 199.864 401.096 208.381C396.908 216.899 399.401 222.711 398.404 224.414C397.406 226.118 395.311 215.597 394.813 213.592C394.315 211.588 411.57 187.94 413.165 186.537C414.761 185.134 415.259 217.501 427.726 227.321C440.194 237.14 456.452 252.271 457.748 254.576C459.045 256.879 454.257 260.136 452.911 261.039C451.563 261.941 448.572 329.728 448.721 330.48C448.871 331.232 461.437 332.133 463.233 329.428C465.027 326.723 463.083 267.501 460.989 262.241C458.894 256.979 422.838 236.839 418.949 233.381C415.058 229.924 391.42 251.268 388.877 251.418C386.334 251.568 395.909 224.514 392.617 216.848C389.326 209.183 355.964 244.955 333.822 241.048C311.68 237.14 305.246 240.296 310.633 256.229C316.019 272.161 316.617 316.802 321.105 330.931C325.594 345.059 337.711 346.864 341.003 349.569C344.295 352.274 337.638 456.962 340.555 465.304C343.471 473.646 583.142 464.402 585.835 462.147C588.527 459.893 589.875 350.77 588.079 344.908C586.284 339.046 337.862 344.156 335.767 344.156C333.673 344.156 333.972 470.413 335.767 473.075C337.563 475.738 588.603 471.015 590.997 470.413C593.39 469.811 595.26 344.229 594.811 339.044C594.363 333.859 333.824 337.467 330.681 337.917C327.539 338.367 326.643 438.546 326.309 440.351C325.975 442.154 308.091 442.004 305.996 442.004C303.902 442.004 312.953 380.077 312.729 374.065C312.505 368.052 287.596 395.71 281.012 399.767C274.429 403.825 270.54 390.748 266.201 386.991C261.862 383.232 270.689 398.715 272.185 405.177C273.681 411.641 268.595 414.497 263.208 405.779C257.822 397.061 236.279 396.008 231.641 399.015C227.003 402.022 241.813 401.572 250.79 406.832C259.766 412.093 263.955 430.13 265.152 431.182C266.349 432.234 269.191 424.268 271.584 419.608C273.978 414.948 305.769 394.055 312.95 380.077C320.131 366.098 324.844 344.003 326.19 335.886C327.536 327.769 316.765 258.102 311.154 251.113C305.544 244.124 246.3 353.922 222.063 368.803C197.827 383.682 188.8 402.171 187.477 409.347C186.154 416.522 194.885 420.507 195.184 423.614C195.484 426.721 185.36 428.624 184.213 429.376C183.066 430.128 183.365 434.738 182.917 435.138C182.469 435.54 177.333 431.982 179.078 428.926C180.822 425.869 183.765 426.621 188.901 424.366C194.039 422.111 189.251 419.306 196.781 412.792C204.312 406.28 212.09 410.689 218.674 412.392C225.257 414.096 227.35 409.537 236.178 409.487C245.005 409.437 257.322 428.776 263.905 434.387C270.489 439.998 278.068 442.453 275.276 448.966C272.484 455.48 259.916 468.057 252.985 464.95C246.053 461.844 250.84 449.568 253.134 445.811C255.428 442.052 247.849 436.442 245.604 435.69C243.36 434.939 243.36 460.39 242.612 462.295C241.863 464.198 230.144 468.307 225.058 463.897C219.97 459.488 223.411 443.857 223.013 441.352C222.614 438.847 215.782 441.602 211.094 447.264C206.407 452.925 199.923 459.94 198.328 462.745C196.732 465.55 199.825 470.611 201.321 472.214C202.816 473.818 244.705 473.116 246.252 470.611C247.799 468.107 243.51 451.923 242.263 450.521C241.016 449.117 241.913 456.081 241.365 459.138C240.817 462.195 229.895 466.502 227.053 461.543C224.211 456.581 229.447 439.899 227.652 434.988C225.858 430.077 220.919 439.195 215.634 440.198C210.349 441.2 210.697 426.521 212.044 424.466C213.39 422.412 212.143 429.176 211.795 436.19C211.444 443.205 208.055 452.624 200.374 453.526C192.695 454.428 191.148 434.888 193.143 432.433C195.139 429.978 193.992 432.833 194.091 439.797C194.191 446.762 197.283 448.164 198.829 453.476C200.374 458.786 189.503 466.953 186.411 466.703C183.32 466.452 171.65 450.269 171.949 442.904C172.248 435.54 175.49 433.035 178.382 434.287C181.275 435.54 179.379 441.001 181.325 449.468C183.27 457.935 194.74 462.495 193.643 466.202C192.546 469.909 179.431 475.972 142.927 463.797C106.423 451.623 99.0926 466.202 99.0926 466.202C96.4321 470.476 86.158 478.429 66.3449 476.049C41.5785 473.075 30.6813 421.756 1.45703 415.551" stroke="#171717" stroke-miterlimit="10" stroke-linecap="round"/>
</svg>
