<svg width="399" height="352" viewBox="0 0 399 352" fill="none" xmlns="http://www.w3.org/2000/svg">
<path d="M398.121 143.758C389.748 167.292 363.266 165.934 362.174 150.003C361.082 134.073 345.064 130.633 343.881 131.086C342.698 131.538 332.656 231.376 331.564 233.126C330.473 234.876 292.917 237.109 291.218 238.255C289.519 239.401 333.021 238.315 335.023 235.298C337.025 232.281 348.613 132.172 346.671 128.31C344.73 124.449 216.227 124.207 212.102 125.776C207.976 127.346 203.001 233.79 204.458 240.186C205.913 246.583 211.374 155.224 210.767 147.982C210.16 140.741 174.152 128.642 168.235 126.922C162.32 125.203 159.134 143.667 135.655 143.577C112.175 143.487 101.194 128.068 101.254 127.586C101.314 127.104 105.137 123.121 106.108 120.888C107.078 118.655 105.319 98.6207 105.623 97.4145C105.926 96.2071 123.389 113.409 132.985 111.354C142.582 109.3 157.725 90.6259 158.544 83.0682C159.362 75.5106 159.09 65.2826 159.635 59.3984C160.182 53.5154 162.275 50.2564 164.596 53.5154C166.917 56.7743 163.868 78.8598 158.817 75.0573C153.766 71.2559 158.862 59.8055 158.681 51.7043C158.498 43.6031 153.614 40.4205 152.462 35.3816C151.31 30.3428 147.699 27.5673 147.548 26.7832C147.397 25.9991 150.763 24.2493 153.949 24.912C157.134 25.5758 158.803 44.6139 158.409 45.1574C158.014 45.701 152.22 45.731 149.763 44.2369C147.306 42.7438 149.171 33.5567 142.892 27.0387C136.613 20.5219 128.376 21.8646 124.13 22.1665C119.883 22.4683 125.101 18.305 127.042 14.3821C128.984 10.4593 117.274 18.305 112.117 20.4167C106.96 22.5284 109.69 15.7699 110.601 13.4165C111.511 11.063 95.068 24.3383 95.2505 25.2439C95.4331 26.1494 105.444 25.304 108.295 25.3642C111.146 25.4243 117.881 27.536 121.582 27.536C125.283 27.536 126.194 24.9409 132.078 23.6132C137.963 22.2856 151.615 24.7593 151.675 21.5015C151.735 18.2437 144.755 1.04669 120.487 0.926416C96.218 0.806142 86.0098 13.0557 85.6005 18.0332C85.1912 23.0107 83.9168 27.8992 81.8238 32.2892C79.7308 36.6792 86.2831 58.6293 86.3738 58.7647C86.4645 58.9 95.8843 51.8408 96.4296 49.5775C96.9761 47.3143 91.8796 43.7847 92.1982 39.6213C92.5168 35.458 105.212 30.8413 106.123 29.3934C107.033 27.9454 107.488 29.7553 99.661 29.0765C91.8343 28.3976 87.9668 26.1344 85.6912 25.3202C83.4157 24.506 79.1087 30.6158 78.8052 35.8049C78.5017 40.9941 84.4482 61.1794 84.9936 61.9936C85.5401 62.8077 92.5773 63.231 93.7308 63.6231C94.8831 64.0151 94.8226 66.0367 96.0366 68.6318C97.2505 71.227 100.162 78.2711 112.584 75.8726C125.006 73.474 122.004 63.0645 122.64 61.3448C123.277 59.6251 124.824 58.3576 127.327 59.1729C129.83 59.9871 131.589 68.9337 138.142 69.7178C144.695 70.5019 151.399 67.6361 153.174 65.056C154.948 62.4758 154.145 55.3253 154.175 54.0439C154.205 52.7613 156.617 51.9622 156.996 51.6453C157.375 51.3284 155.616 47.9191 154.978 47.2703C154.341 46.6215 151.914 48.1759 143.177 49.1716C134.44 50.1673 128.419 54.2405 125.142 55.2131C121.866 56.1857 116.997 55.6433 112.992 55.2362C108.988 54.8291 92.6064 59.9431 89.2854 60.7573C85.9633 61.5715 86.1912 65.5995 89.1029 69.9895C92.0157 74.3796 96.247 88.4089 94.654 89.0427C93.061 89.6764 85.2343 78.5279 84.2645 72.6148C83.2936 66.7016 84.9924 62.7788 89.2401 66.5802C93.4866 70.3816 98.7657 91.8645 103.68 98.0193C108.594 104.174 122.791 118.295 136.26 114.312C149.728 110.329 154.097 96.8119 154.947 95.9076C155.797 95.0032 155.918 116.123 156.706 118.899C157.495 121.674 165.959 127.195 166.687 128.603C167.414 130.01 166.323 140.954 139.111 145.751C111.899 150.548 98.7947 129.73 98.5215 128.644C98.2482 127.558 51.4703 148.376 41.3691 157.338C31.2668 166.298 31.3587 211.375 28.6284 226.763C25.8982 242.15 19.6191 285.869 29.0831 302.977C38.5482 320.083 52.411 310.549 79.7133 295.344C107.016 280.137 134.318 250.449 135.774 248.397C137.23 246.346 136.988 245.5 133.59 239.467C130.192 233.432 129.828 226.131 128.554 223.416C127.28 220.701 71.7657 250.027 70.8552 250.027C69.9447 250.027 63.0284 200.425 63.0284 196.624C63.0284 192.822 73.9494 246.407 73.9494 249.846C73.9494 253.286 62.4819 259.26 39.9122 268.673C17.3424 278.087 24.8052 319.723 41.004 320.99C57.2029 322.258 68.8529 311.758 72.675 313.568C76.497 315.378 71.4005 320.266 70.1273 326.601C68.8529 332.938 86.3261 314.472 95.2459 312.119C104.164 309.765 69.3994 340.359 67.761 345.971C66.1226 351.584 206.912 342.17 208.277 341.355C209.642 340.54 206.06 317.153 206.184 314.924C206.309 312.696 220.29 322.437 223.567 321.169C226.844 319.902 243.589 285.055 242.496 281.705C241.403 278.356 216.285 274.011 216.376 271.839C216.467 269.667 227.024 275.007 238.491 275.007C249.959 275.007 248.32 271.568 249.503 274.555C250.685 277.542 238.582 320.445 221.382 324.609C204.182 328.772 200.541 302.161 198.63 292.024C196.718 281.886 199.631 251.382 200.177 250.84C200.724 250.297 200.541 270.572 200.996 273.107C201.451 275.641 203.635 272.563 205.091 271.931C206.547 271.297 209.004 281.797 205.546 282.702C202.088 283.608 217.537 260.991 218.196 259.531C219.489 256.664 220.735 251.704 223.705 250.345C226.675 248.986 239.144 246.978 238.233 246.742C237.323 246.506 224.062 246.703 220.934 249.066C217.808 251.428 215.116 258.475 216.402 260.148C217.38 261.421 216.376 265.505 223.202 268.401C230.027 271.298 242.223 270.935 246.863 269.035C251.505 267.134 249.958 265.414 251.596 264.056C253.234 262.698 268.614 262.97 273.074 260.617C277.533 258.263 285.906 247.221 287.453 242.514C289.001 237.807 290.547 224.819 290.502 220.112C290.456 215.405 287.089 213.867 284.359 214.274C281.628 214.681 278.989 235.952 278.125 238.848C277.26 241.745 270.298 253.693 269.798 254.372C269.298 255.051 277.67 246.044 278.899 242.696C280.128 239.348 283.131 219.433 282.312 214.139C281.494 208.843 278.99 209.342 276.352 211.016C273.712 212.691 269.39 235.138 267.16 242.244C264.93 249.349 258.833 253.784 257.604 254.825C256.375 255.866 266.796 249.349 267.614 247.72C268.433 246.09 271.71 224.095 271.391 221.154C271.073 218.213 267.023 215.226 264.43 217.353C261.835 219.479 261.335 225.092 260.517 231.382C259.698 237.673 257.604 242.877 254.738 246.182C251.871 249.486 243.681 253.784 242.861 254.69C242.042 255.595 252.462 251.386 253.737 250.3C255.011 249.214 260.289 242.787 261.427 240.389C262.564 237.99 264.642 231.745 258.09 233.917C251.538 236.089 252.326 241.701 247.685 242.787C243.045 243.873 213.694 246.136 206.504 246C199.314 245.865 164.549 241.43 164.276 240.751C164.003 240.072 192.397 241.158 194.901 241.656C197.403 242.153 199.36 246.348 199.299 246.65C199.239 246.952 145.332 243.391 144.664 242.939C143.997 242.487 144.058 240.405 145.181 239.62C146.303 238.836 157.042 239.484 163.003 238.805C168.963 238.127 173.424 235.501 176.426 235.683C179.43 235.865 197.327 240.405 198.359 240.285C199.39 240.164 199.724 236 199.633 232.59C199.542 229.181 183.706 226.224 182.403 226.616C181.098 227.008 198.056 232.197 199.058 231.473C200.059 230.749 199.391 223.836 198.056 222.391C196.721 220.947 184.162 218.832 181.492 218.469C178.823 218.107 198.117 223.99 198.814 224.171C199.512 224.353 200.18 222.512 200.225 218.801C200.27 215.089 193.946 214.139 190.305 214.003C186.665 213.868 200.134 216.991 200.771 216.854C201.409 216.718 201.667 213.702 196.145 211.77C190.623 209.839 176.882 211.106 164.687 212.374C152.491 213.641 134.381 221.154 132.742 225.137C131.104 229.12 142.935 242.335 143.299 245.503C143.663 248.67 135.897 251.296 128.496 263.123C121.094 274.95 69.0377 308.501 66.004 311.156C62.9703 313.812 61.3924 361.966 42.4633 348.811C23.5343 335.655 0.417969 347.241 0.417969 347.241" stroke="#171717" stroke-miterlimit="10"/>
</svg>
