<svg width="96" height="45" viewBox="0 0 96 45" fill="none" xmlns="http://www.w3.org/2000/svg">
<mask id="mask0_153_235" style="mask-type:luminance" maskUnits="userSpaceOnUse" x="0" y="0" width="91" height="26">
<path d="M90.4623 0H0V25.7471H90.4623V0Z" fill="white"/>
</mask>
<g mask="url(#mask0_153_235)">
<path d="M80.1379 9.38414C83.0332 7.16756 86.9799 7.60628 89.0549 10.3254C89.8955 11.4247 90.2181 12.7333 90.3374 14.0877C90.5609 16.6537 90.4009 19.2274 90.439 21.796C90.4568 22.8801 90.4263 23.9667 90.4492 25.0508C90.4568 25.4283 90.3831 25.5609 89.9717 25.5482C88.9228 25.515 87.8739 25.515 86.8275 25.5482C86.3831 25.5609 86.2434 25.4691 86.2459 24.987C86.2713 21.541 86.2586 18.0949 86.2586 14.6489C86.2586 14.4933 86.251 14.3351 86.2434 14.177C86.1393 12.3609 84.9989 11.4808 83.1983 11.8252C81.2909 12.1925 80.1735 13.5291 80.1531 15.5671C80.1227 18.7683 80.1277 21.9695 80.1455 25.1706C80.1455 25.6272 80.049 25.765 79.5766 25.7471C78.5303 25.7063 77.4788 25.7114 76.4325 25.7471C76.0185 25.7599 75.9575 25.6221 75.9575 25.2497C75.9677 16.9904 75.9677 8.73371 75.9575 0.474425C75.9575 0.124974 76.0185 -0.00766449 76.402 0.00508918C77.4839 0.035698 78.5684 0.035698 79.6528 0.00508918C80.0516 -0.00766449 80.143 0.107119 80.1404 0.497381C80.1227 3.24452 80.1303 5.99167 80.1303 8.73881V9.3867V9.38159L80.1379 9.38414Z" fill="#18323C"/>
<path d="M4.00748 13.0931C4.0024 15.6286 4.6805 17.7712 6.36688 19.4929C8.22341 21.3881 10.5193 22.0054 13.1175 21.6228C15.0527 21.3397 16.6908 20.4928 18.0344 19.0848C18.2731 18.8348 18.3645 18.9037 18.5499 19.095C19.2788 19.8449 20.0179 20.5872 20.7595 21.3243C20.9144 21.4774 20.9779 21.5667 20.7899 21.7784C17.1759 25.8162 11.0374 26.9487 6.30593 24.3521C2.67413 22.3548 0.721081 19.169 0.152184 15.1031C-0.241472 12.2998 0.109009 9.58841 1.46268 7.08359C3.49192 3.31105 6.64879 1.20925 10.9587 0.949072C13.4679 0.798579 15.8426 1.29087 18.0318 2.55604C19.1112 3.17842 20.0509 3.9819 20.9474 4.8415C21.1658 5.05066 21.0998 5.15779 20.922 5.33124C20.2337 6.00463 19.5353 6.66782 18.8902 7.37693C18.5652 7.73658 18.3925 7.78504 18.0344 7.39988C17.0997 6.38724 15.967 5.64753 14.6591 5.19095C10.7123 3.8161 6.12561 5.44857 4.54336 9.90471C4.15986 10.9862 3.97954 12.0958 4.0024 13.088L4.00748 13.0931Z" fill="#18323C"/>
<path d="M42.1568 24.296C40.544 25.5739 38.7586 25.8137 36.8691 25.6836C33.9636 25.4846 31.5864 23.3241 30.982 20.3117C30.8245 19.521 30.761 18.7226 30.761 17.9166C30.761 14.8914 30.7687 11.8662 30.7534 8.83851C30.7534 8.45335 30.8144 8.2901 31.2537 8.30796C32.3001 8.34367 33.3516 8.33857 34.3979 8.31051C34.7967 8.3003 34.9262 8.39468 34.9236 8.82065C34.9033 11.8637 34.9109 14.9067 34.916 17.9497C34.916 18.2992 34.9313 18.6486 34.9617 18.9955C35.1573 21.23 36.6481 22.314 38.8373 21.8218C41.0774 21.3167 42.1441 19.9317 42.1542 17.483C42.1644 14.6134 42.1695 11.7463 42.1441 8.87932C42.139 8.41254 42.2609 8.2952 42.7206 8.31051C43.7669 8.34622 44.8158 8.33091 45.8648 8.31561C46.1797 8.31051 46.3194 8.36152 46.3194 8.73138C46.3067 14.2741 46.3067 19.8194 46.3194 25.3622C46.3194 25.6606 46.2356 25.7422 45.9409 25.7397C44.8057 25.7244 43.6704 25.7218 42.5352 25.7397C42.238 25.7448 42.1339 25.6606 42.1568 25.3596C42.1822 25.0357 42.1618 24.7066 42.1618 24.296H42.1568Z" fill="#18323C"/>
<path d="M73.9541 10.9019C73.1135 11.6901 72.2626 12.4655 71.4423 13.2741C71.1452 13.5674 70.9648 13.5241 70.7134 13.2307C69.0575 11.2998 65.3876 11.3381 63.6174 13.0955C62.1774 14.5265 61.7736 17.1487 62.7819 19.128C64.0924 21.7043 67.1502 22.5001 69.8296 20.9671C70.302 20.6967 70.7134 20.3524 71.0487 20.0004C72.0087 20.9595 72.9585 21.9083 73.9058 22.8547C69.215 27.2496 63.4066 26.0354 60.5749 22.9771C57.5043 19.6662 57.3393 13.723 60.9584 10.3408C64.0416 7.45842 69.6036 6.77482 73.9566 10.8968L73.9541 10.9019Z" fill="#18323C"/>
<path d="M50.2836 19.0159C50.2836 16.9421 50.2734 14.8658 50.2937 12.7921C50.2988 12.4018 50.2074 12.2794 49.8086 12.2998C49.0594 12.3355 48.3077 12.2998 47.5559 12.3151C47.3146 12.3202 47.2207 12.2615 47.2232 11.9988C47.2359 10.879 47.2359 9.75924 47.2232 8.64202C47.2232 8.38695 47.3095 8.31553 47.5559 8.31808C48.3254 8.33083 49.0924 8.30532 49.862 8.33083C50.1997 8.34103 50.2988 8.25176 50.2963 7.89976C50.2759 6.08618 50.3013 4.27261 50.281 2.46159C50.2759 2.09428 50.3597 1.99225 50.7331 1.99991C51.8328 2.02541 52.935 2.02286 54.0322 1.99991C54.37 1.9948 54.4741 2.07898 54.4716 2.43098C54.4538 4.2318 54.4716 6.03262 54.4538 7.83344C54.4487 8.20585 54.5173 8.35379 54.9312 8.33338C55.6627 8.29512 56.3992 8.33338 57.1306 8.31553C57.41 8.31043 57.5345 8.37164 57.5319 8.68283C57.5167 9.7822 57.5091 10.8816 57.5294 11.9809C57.5345 12.287 57.4126 12.3176 57.1637 12.3151C56.4119 12.3023 55.6601 12.3329 54.9109 12.3023C54.53 12.287 54.4563 12.4171 54.4563 12.7717C54.469 16.8988 54.4563 21.0258 54.4766 25.1504C54.4766 25.6299 54.3598 25.7651 53.8823 25.7473C52.836 25.709 51.7871 25.7166 50.7407 25.7473C50.3699 25.7575 50.2785 25.6503 50.281 25.2932C50.2963 23.2016 50.2886 21.11 50.2886 19.0184L50.2836 19.0159Z" fill="#18323C"/>
<path d="M23.5276 12.8583C23.5276 8.74908 23.5327 4.6373 23.52 0.528061C23.52 0.1429 23.5835 -0.0126948 24.0178 0.00260962C25.0819 0.0383199 26.1486 0.028117 27.2153 0.00771109C27.5633 5.88802e-05 27.6877 0.0689288 27.6877 0.45409C27.675 8.72868 27.675 17.0007 27.6877 25.2753C27.6877 25.6273 27.6217 25.7574 27.2382 25.7472C26.1562 25.7191 25.0718 25.7115 23.9899 25.7497C23.5632 25.765 23.52 25.6069 23.5226 25.2447C23.5353 21.1176 23.5302 16.988 23.5302 12.8609L23.5276 12.8583Z" fill="#18323C"/>
<path d="M69.7991 16.8272C69.8093 18.4444 68.5445 19.7453 66.9597 19.7504C65.3622 19.7555 64.0492 18.4725 64.0314 16.8859C64.0136 15.3019 65.3521 13.9628 66.9546 13.9628C68.5572 13.9628 69.7915 15.256 69.8017 16.8272H69.7991Z" fill="#EE4537"/>
</g>
<path d="M14.9528 44.9027C15.1715 44.2026 15.3903 43.5026 15.6112 42.8026C15.8364 42.0896 16.0616 41.3788 16.2996 40.6701C16.3618 40.487 16.3382 40.3858 16.1731 40.2673C15.045 39.4595 13.9255 38.6389 12.8059 37.8204C12.7437 37.7751 12.6837 37.7256 12.6279 37.6351C12.9818 37.6351 13.3357 37.6351 13.6917 37.6351C14.8091 37.6351 15.9286 37.6287 17.046 37.633C17.1897 37.633 17.2476 37.5877 17.2926 37.452C17.743 36.0756 18.1998 34.7014 18.6545 33.325C18.6738 33.2625 18.6974 33.2022 18.7189 33.1376C18.8025 33.1527 18.7939 33.2259 18.8089 33.2733C19.2743 34.6454 19.7419 36.0153 20.1987 37.3896C20.2502 37.5446 20.3167 37.6007 20.4861 37.6007C21.9123 37.6007 23.3364 37.6093 24.7626 37.6157C24.8119 37.6157 24.8634 37.62 24.9599 37.6243C24.7969 37.7471 24.6704 37.8419 24.5417 37.9367C23.4608 38.7315 22.3798 39.5263 21.2968 40.3168C21.1788 40.403 21.1467 40.4762 21.1938 40.6227C21.6292 41.956 22.0539 43.2915 22.4828 44.627C22.5064 44.7002 22.5278 44.7756 22.5557 44.8682C22.4678 44.8596 22.4249 44.8101 22.3777 44.7756C21.2239 43.9463 20.07 43.1192 18.9205 42.2856C18.8046 42.2016 18.7317 42.2037 18.6181 42.2856C17.4621 43.1321 16.2996 43.9722 15.1394 44.8144C15.0879 44.8532 15.03 44.8833 14.9742 44.9156C14.9678 44.9092 14.9614 44.9027 14.9549 44.8962L14.9528 44.9027Z" fill="#EE4537"/>
<path d="M0 37.6372C0.373177 37.6372 0.73134 37.6372 1.08736 37.6372C2.19188 37.6372 3.29639 37.6286 4.40305 37.6372C4.57677 37.6372 4.63468 37.5747 4.68401 37.4218C5.12582 36.0626 5.5762 34.7078 6.0223 33.3508C6.04589 33.2775 6.07377 33.2043 6.11666 33.0858C6.23677 33.4369 6.344 33.7471 6.44909 34.0573C6.8287 35.1817 7.2126 36.3039 7.58578 37.4283C7.63082 37.5661 7.6973 37.6049 7.83671 37.6049C9.25435 37.6049 10.6741 37.6157 12.0918 37.6221C12.154 37.6221 12.2162 37.6221 12.332 37.6221C12.2398 37.6975 12.1883 37.7428 12.1347 37.7837C10.9808 38.6324 9.82698 39.4832 8.66885 40.3275C8.5466 40.4159 8.52087 40.4891 8.56805 40.6334C9.00771 41.9861 9.44094 43.341 9.87631 44.6937C9.89347 44.7497 9.91063 44.8035 9.93207 44.8682C9.85486 44.8854 9.8184 44.8316 9.77766 44.8014C8.61952 43.97 7.45924 43.1385 6.3054 42.3006C6.18315 42.2101 6.10594 42.2144 5.98584 42.3006C4.84057 43.1407 3.68887 43.9721 2.53932 44.8057C2.47712 44.8509 2.42565 44.9134 2.31627 44.9242C2.39348 44.6765 2.46425 44.4417 2.53932 44.2069C2.92107 43.0157 3.30068 41.8224 3.69102 40.6334C3.74249 40.4783 3.72104 40.3943 3.58593 40.2974C2.44495 39.4746 1.30826 38.6431 0.171575 37.8138C0.115813 37.7729 0.0471832 37.7449 0 37.6394L0 37.6372Z" fill="#EE4537"/>
<path d="M27.5507 44.9349C27.6944 44.4826 27.836 44.0389 27.9775 43.5995C28.295 42.6129 28.6081 41.6264 28.9319 40.642C28.9855 40.4805 28.9662 40.3922 28.8204 40.2866C27.6837 39.4681 26.5535 38.641 25.4211 37.816C25.3632 37.7751 25.3074 37.732 25.2388 37.6803C25.3138 37.62 25.3846 37.6415 25.4511 37.6415C26.8494 37.6351 28.2499 37.6286 29.6483 37.6329C29.8113 37.6329 29.8713 37.579 29.9206 37.4304C30.3689 36.054 30.8257 34.6798 31.2804 33.3034C31.2997 33.2431 31.3233 33.1827 31.3554 33.0858C31.4176 33.2581 31.4691 33.3981 31.5163 33.5403C31.9538 34.8306 32.3913 36.123 32.8224 37.4153C32.8717 37.5618 32.9425 37.6006 33.0883 37.6006C34.5146 37.6006 35.9386 37.6092 37.3649 37.6178C37.4206 37.6178 37.4807 37.5984 37.5472 37.648C37.4871 37.6954 37.4313 37.7384 37.3756 37.7794C36.2196 38.628 35.0658 39.4789 33.9076 40.3232C33.7875 40.4116 33.7575 40.4826 33.8047 40.627C34.2443 41.9732 34.6754 43.3216 35.1086 44.67C35.1301 44.7368 35.1687 44.7992 35.1537 44.8962C34.7676 44.6183 34.3902 44.3491 34.0127 44.0777C33.1891 43.4853 32.3634 42.8951 31.5442 42.2985C31.4241 42.2123 31.349 42.2058 31.2246 42.2963C30.0686 43.145 28.9062 43.985 27.7459 44.8251C27.6902 44.866 27.643 44.9242 27.5465 44.9349H27.5507Z" fill="#EE4537"/>
<path d="M44.1145 33.0365C44.3376 33.6956 44.5456 34.303 44.7515 34.9105C45.0303 35.7355 45.3134 36.5604 45.5858 37.3897C45.6308 37.5297 45.6994 37.5664 45.8389 37.5664C47.2436 37.5664 48.6505 37.575 50.0553 37.5836C50.1175 37.5836 50.2076 37.5491 50.2333 37.6137C50.2655 37.6999 50.1604 37.7236 50.1068 37.7624C48.9594 38.6089 47.8098 39.4554 46.656 40.2955C46.5402 40.3795 46.5187 40.4506 46.5638 40.5863C47.0056 41.939 47.4388 43.2917 47.8742 44.6465C47.8935 44.7068 47.9128 44.7672 47.9342 44.8382C47.8399 44.8339 47.7927 44.7736 47.7391 44.7327C46.5895 43.9077 45.4421 43.0849 44.2968 42.2556C44.1832 42.1737 44.1102 42.1716 43.9944 42.2556C42.8384 43.1021 41.676 43.9422 40.5157 44.7844C40.4578 44.8253 40.3999 44.8662 40.3356 44.9093C40.3077 44.8145 40.357 44.7435 40.3806 44.6724C40.8181 43.3046 41.2556 41.939 41.6996 40.5733C41.7446 40.4312 41.7275 40.3558 41.6031 40.2653C40.4557 39.4382 39.3147 38.6046 38.1737 37.771C38.118 37.7301 38.0472 37.7042 38 37.5987C38.3732 37.5987 38.7292 37.5987 39.0852 37.5987C40.1962 37.5987 41.3093 37.59 42.4202 37.5965C42.5746 37.5965 42.6325 37.5427 42.6776 37.4026C43.1301 36.0198 43.5869 34.6391 44.0437 33.2584C44.063 33.2024 44.0802 33.1464 44.1188 33.0387L44.1145 33.0365Z" fill="#EE4537"/>
<path d="M14.9723 44.9221C14.9723 44.9221 14.9528 44.9458 14.9506 44.9436C14.9311 44.9285 14.9376 44.9156 14.9528 44.9027C14.9593 44.9092 14.9658 44.9156 14.9701 44.9221H14.9723Z" fill="#EE4537"/>
<path d="M62.4366 37.5019C61.1026 37.4954 59.7686 37.4868 58.4346 37.4846C58.2952 37.4846 58.2287 37.4458 58.1815 37.308C57.7247 35.9402 57.2614 34.5746 56.796 33.2089C56.7724 33.1422 56.7681 33.0603 56.6974 33C56.6759 33.0625 56.6588 33.112 56.6416 33.1615C56.1826 34.5487 55.7237 35.9359 55.269 37.3274C55.224 37.4695 55.1596 37.5169 55.0074 37.5169C53.8964 37.5126 52.7833 37.5169 51.6724 37.5191C51.3163 37.5191 50.9625 37.5191 50.6064 37.5191C50.6601 37.6139 50.7201 37.6612 50.7823 37.7065C51.9147 38.5315 53.045 39.3586 54.1816 40.1771C54.3103 40.2697 54.3404 40.3451 54.2889 40.4981C53.8428 41.8637 53.4053 43.2293 52.9699 44.5971C52.9484 44.666 52.8948 44.7328 52.9313 44.8254C52.9956 44.7802 53.0535 44.7414 53.1114 44.6983C54.2674 43.8604 55.4234 43.0247 56.5751 42.1803C56.6952 42.092 56.7703 42.0856 56.8947 42.176C58.04 43.0075 59.1895 43.8303 60.3369 44.6553C60.3905 44.694 60.4377 44.7479 60.5278 44.7587C60.5021 44.679 60.4828 44.6165 60.4635 44.5562C60.0302 43.2078 59.5991 41.8594 59.1595 40.5131C59.1144 40.3731 59.1316 40.2977 59.256 40.2073C60.3155 39.4383 62.606 37.7862 62.606 37.7862V37.5105C62.5481 37.5083 62.488 37.5019 62.4301 37.5019H62.4366ZM60.2511 38.833L59.9144 37.896H61.5615L60.2511 38.833Z" fill="#EE4537"/>
<path d="M62.2173 37.4996L62.3803 37.9541L63.0001 37.4996H62.2173Z" fill="#EE4537"/>
<path d="M72.28 42.9V41.71L75.71 35.2H77.11L73.68 41.71H77.39V39.19H77.46H78.65V41.71H80.12V42.9H78.65V45H77.39V42.9H72.28ZM81.0575 44.972C80.8988 44.8133 80.8195 44.6127 80.8195 44.37C80.8195 44.1273 80.8988 43.9267 81.0575 43.768C81.2161 43.6093 81.4168 43.53 81.6595 43.53C81.9021 43.53 82.1028 43.6093 82.2615 43.768C82.4201 43.9267 82.4995 44.1273 82.4995 44.37C82.4995 44.6127 82.4201 44.8133 82.2615 44.972C82.1028 45.1307 81.9021 45.21 81.6595 45.21C81.4168 45.21 81.2161 45.1307 81.0575 44.972ZM83.2689 36.39V35.2H89.7789V36.39L85.7189 45H84.3889L88.4489 36.404V36.39H83.2689Z" fill="black"/>
</svg>
