<svg width="92" height="45" viewBox="0 0 92 45" fill="none" xmlns="http://www.w3.org/2000/svg">
<g clip-path="url(#clip0_153_67)">
<mask id="mask0_153_67" style="mask-type:luminance" maskUnits="userSpaceOnUse" x="0" y="0" width="91" height="30">
<path d="M91 0H0V30H91V0Z" fill="white"/>
</mask>
<g mask="url(#mask0_153_67)">
<path d="M0 11.994C0 9.36691 0 6.74262 0 4.11556C0 2.37158 0.920195 0.952521 2.45753 0.302696C2.94242 0.099973 3.45211 0.00277703 3.97282 0C7.91809 0 11.8634 0 15.8086 0C17.93 0 19.7071 1.7051 19.7759 3.77676C19.7814 3.97393 19.7374 4.02391 19.539 4.02114C14.4559 4.01558 9.37552 4.01558 4.29241 4.01558C4.08027 4.01558 3.97282 4.11833 3.97282 4.32661V20.239C3.97282 20.6028 3.97282 20.6055 3.61466 20.6055H0.360915C0.121223 20.6055 0 20.4861 0 20.2501V11.9912V11.994Z" fill="#01AD33"/>
<path d="M19.7734 16.0402C19.7734 18.7395 19.79 21.4415 19.7679 24.1408C19.7514 26.2957 17.9826 28.0314 15.8392 28.0314C11.8939 28.0314 7.94865 28.0314 4.00613 28.0314C2.04176 28.0314 0.42178 26.6706 0.0718851 24.7239C0.0443343 24.5712 0.0388242 24.4129 0.0167836 24.2574C-0.00525701 24.0936 0.033314 24.0269 0.223414 24.0269C1.7883 24.0352 3.35318 24.0325 4.92082 24.0297C8.48313 24.0297 12.0427 24.0297 15.605 24.0352C15.8089 24.0352 15.8447 23.9797 15.8447 23.7909C15.8392 18.4506 15.8392 13.1104 15.8392 7.77019C15.8392 7.55359 15.9439 7.4425 16.1533 7.4425H19.429C19.6605 7.4425 19.7762 7.56192 19.7762 7.80352V16.0374L19.7734 16.0402Z" fill="#01AD33"/>
<path d="M30.9493 17.5435C30.3238 18.3434 29.5075 18.6359 28.5693 18.6079C27.1087 18.5643 25.9671 17.7738 25.5324 16.336C25.2853 15.5175 25.2697 14.6834 25.4573 13.8556C25.6075 13.1927 25.9171 12.6076 26.4081 12.1189C27.5215 11.011 29.7984 10.8429 30.9556 12.3835C30.9556 12.1252 30.9618 11.9042 30.9556 11.6832C30.9462 11.4872 31.0338 11.4156 31.2277 11.4187C31.6561 11.4249 32.0877 11.4311 32.5193 11.4156C32.7727 11.4062 32.8352 11.5121 32.8352 11.7424C32.829 13.8711 32.8352 15.9999 32.829 18.1286C32.829 18.5301 32.7758 18.9285 32.6632 19.3175C32.3817 20.2761 31.7781 20.9607 30.8242 21.2626C29.3355 21.7326 27.8593 21.717 26.455 20.9358C26.2861 20.8425 26.1423 20.7118 25.9796 20.606C25.8514 20.5219 25.8514 20.4161 25.9171 20.3041C26.1517 19.8995 26.3894 19.4949 26.6302 19.0934C26.7428 18.9067 26.8585 19.0249 26.9586 19.109C27.337 19.4326 27.7686 19.6443 28.2565 19.7439C28.7694 19.8466 29.2792 19.8341 29.7796 19.691C30.4927 19.4856 30.9024 18.9783 30.9556 18.2313C30.9712 18.0166 30.9556 17.8018 30.9556 17.5435H30.9493ZM30.9712 14.976C30.9712 13.84 30.2425 13.0806 29.1447 13.0806C28.0376 13.0806 27.2588 13.8587 27.2619 14.9666C27.2619 16.087 28.0282 16.8713 29.1228 16.8806C30.2269 16.89 30.9681 16.1212 30.9681 14.9728L30.9712 14.976Z" fill="#01AD33"/>
<path d="M65.663 12.3804V8.98273C65.663 8.42594 65.5847 8.43859 66.2207 8.44492C66.559 8.44808 66.8973 8.47339 67.2325 8.46074C67.4832 8.45125 67.5458 8.54615 67.5458 8.78659C67.5395 11.5294 67.5427 14.2754 67.5427 17.0182C67.5427 17.4453 67.5333 17.8693 67.5458 18.2963C67.5521 18.4956 67.4769 18.5747 67.2827 18.5716C66.8284 18.5652 66.371 18.5684 65.9137 18.5716C65.7382 18.5716 65.6474 18.5146 65.6599 18.3185C65.6724 18.0907 65.6599 17.8598 65.6599 17.6257C65.5628 17.6098 65.5565 17.7016 65.5189 17.7459C64.2972 19.2043 61.8944 19.0746 60.7634 17.4833C59.8205 16.1578 59.8017 13.861 60.7008 12.507C61.8286 10.8113 64.3974 10.6563 65.6599 12.3741L65.663 12.3804ZM65.7194 14.9935C65.7288 13.8515 64.9676 13.0416 63.8774 13.029C62.7778 13.0163 61.9789 13.8293 61.9727 14.9651C61.9696 16.0755 62.7465 16.8917 63.8241 16.9075C64.9112 16.9233 65.71 16.1135 65.7194 14.9904V14.9935Z" fill="#01AD33"/>
<path d="M72.201 11.2578C74.0124 11.2484 75.406 12.2804 75.8452 13.938C76.3117 15.6925 75.6226 17.472 74.1374 18.2882C72.5121 19.1827 70.1853 18.8136 69.1393 17.1749C68.3404 15.9208 68.2824 14.576 68.9106 13.2437C69.5144 11.9646 70.6 11.3766 71.9571 11.2765C72.0485 11.2703 72.137 11.264 72.198 11.2609L72.201 11.2578ZM72.2224 16.8965C73.3019 16.9028 74.0856 16.1303 74.0917 15.0576C74.0978 13.9192 73.3476 13.1154 72.2773 13.1029C71.2008 13.0904 70.4232 13.8879 70.4079 15.0075C70.3957 16.1021 71.152 16.8934 72.2224 16.8965Z" fill="#01AD33"/>
<path d="M76.9308 15.004C76.9247 12.8101 78.4717 11.264 80.6757 11.2577C82.852 11.2514 84.4298 12.8132 84.4329 14.9727C84.439 17.1792 82.8827 18.7566 80.6941 18.7628C78.4994 18.7691 76.9339 17.2073 76.9277 15.0009L76.9308 15.004ZM80.6511 16.9006C81.747 16.9038 82.5328 16.1182 82.5389 15.0103C82.5451 13.918 81.7408 13.1011 80.6573 13.1043C79.6013 13.1043 78.8186 13.9055 78.8155 14.9884C78.8125 16.0963 79.5799 16.8975 80.6481 16.9006H80.6511Z" fill="#01AD33"/>
<path d="M42.1808 17.6495C41.3856 18.8108 39.8045 19.0148 38.7304 18.4875C37.8876 18.0732 37.5105 17.3577 37.5264 16.4475C37.5422 15.5217 38.0967 14.8061 39.0029 14.4578C39.4496 14.2851 39.9186 14.2695 40.3812 14.2192C40.8311 14.1722 41.281 14.1439 41.7309 14.1031C41.902 14.0874 42.0985 14.0874 42.1587 13.896C42.2189 13.6983 42.1872 13.4943 42.0383 13.3248C41.9084 13.1804 41.7404 13.0988 41.5567 13.0549C41.0307 12.9356 40.5079 12.9545 39.9946 13.1271C39.6809 13.2338 39.4116 13.4064 39.2373 13.6983C39.155 13.8364 39.0599 13.8615 38.9268 13.7642C38.5783 13.5068 38.2266 13.2557 37.8717 13.0047C37.7418 12.9137 37.7608 12.8226 37.8274 12.7002C38.1505 12.1102 38.6543 11.7399 39.2785 11.5327C40.2639 11.2063 41.2715 11.1687 42.2791 11.4292C43.3659 11.7116 44.0502 12.5873 44.0756 13.7956C44.1073 15.324 44.0851 16.8555 44.0883 18.3839C44.0883 18.566 44.0059 18.6193 43.838 18.6193C43.369 18.6162 42.8969 18.613 42.428 18.6193C42.2379 18.6193 42.1682 18.544 42.1777 18.362C42.1872 18.1454 42.1777 17.9257 42.1777 17.6495H42.1808ZM42.1808 15.6598C42.2537 15.4307 42.1175 15.4024 41.8957 15.4338C41.5186 15.4903 41.1352 15.528 40.7582 15.5813C40.4635 15.6221 40.1625 15.6315 39.8964 15.7853C39.6302 15.9391 39.4971 16.1682 39.5193 16.4758C39.5415 16.7771 39.7158 16.9685 39.9883 17.0815C40.1404 17.1443 40.3019 17.1537 40.4635 17.1694C41.3856 17.2478 42.1682 16.5762 42.1808 15.6566V15.6598Z" fill="#01AD33"/>
<path d="M55.8979 11.2577C57.0742 11.2639 58.0179 11.4734 58.8187 12.1112C58.9915 12.2488 59.0214 12.355 58.8718 12.527C58.606 12.8334 58.3535 13.1491 58.1043 13.468C57.9846 13.6212 57.8816 13.6462 57.7088 13.5212C57.0575 13.046 56.2999 12.9366 55.5024 13.0053C55.3895 13.0147 55.2765 13.0616 55.1735 13.1085C55.0106 13.1835 54.9076 13.3023 54.9143 13.4868C54.9209 13.665 55.0372 13.7619 55.1934 13.8213C55.7085 14.0214 56.2567 14.0902 56.795 14.209C57.247 14.309 57.6922 14.431 58.0976 14.6561C58.9018 15.1031 59.1742 15.8097 59.0878 16.6319C58.9682 17.7606 58.3801 18.3546 57.1871 18.6109C55.971 18.8704 54.7747 18.8048 53.6117 18.3577C53.2429 18.217 52.9239 18.0075 52.6381 17.748C52.5152 17.6324 52.4985 17.5386 52.6148 17.4041C52.9039 17.0634 53.1831 16.7132 53.4555 16.3599C53.5851 16.1942 53.6881 16.2036 53.8443 16.3349C54.5853 16.9602 55.4759 17.129 56.4395 17.0321C56.5525 17.0196 56.6654 16.9758 56.7685 16.9289C56.9479 16.8445 57.0542 16.7007 57.0476 16.5038C57.0409 16.3099 56.9147 16.2036 56.7386 16.1286C56.4262 15.9973 56.0906 15.9441 55.7616 15.8722C55.2233 15.7565 54.6784 15.6596 54.1733 15.4345C53.2728 15.0312 52.8209 14.3747 52.8607 13.4274C52.9006 12.4895 53.4289 11.883 54.3261 11.5328C54.8811 11.3171 55.4659 11.2671 55.9012 11.2608L55.8979 11.2577Z" fill="#01AD33"/>
<path d="M48.404 11.2643C49.56 11.258 50.51 11.474 51.3172 12.1189C51.4899 12.2567 51.5198 12.3631 51.367 12.5322C51.098 12.8358 50.8455 13.152 50.5964 13.4713C50.4801 13.6185 50.3772 13.6435 50.221 13.5277C49.5799 13.0518 48.8359 12.9391 48.0453 12.9924C47.9589 12.9986 47.8659 13.0174 47.7862 13.0487C47.5869 13.1238 47.4142 13.2303 47.4108 13.4619C47.4108 13.6842 47.5802 13.7813 47.7729 13.847C48.3343 14.0411 48.9289 14.11 49.5069 14.2509C49.756 14.3135 50.0018 14.3886 50.241 14.4825C51.3338 14.9145 51.7025 15.7535 51.573 16.7898C51.4501 17.7603 50.8223 18.33 49.8523 18.568C48.5734 18.881 47.3045 18.8247 46.0722 18.3426C45.73 18.2111 45.4311 18.017 45.1587 17.7759C45.0092 17.6444 44.9826 17.5255 45.1221 17.3658C45.4078 17.034 45.6835 16.6896 45.9559 16.3452C46.0755 16.1981 46.1751 16.1918 46.3246 16.3202C47.0787 16.9682 47.9822 17.1373 48.9654 17.0246C49.0883 17.0089 49.2079 16.9651 49.3142 16.8993C49.6397 16.6959 49.6264 16.3171 49.2743 16.1511C48.8691 15.9633 48.424 15.9038 47.9888 15.8162C47.464 15.7097 46.9458 15.5908 46.4708 15.3372C45.6669 14.9083 45.3082 14.2571 45.3547 13.3931C45.3945 12.601 45.7865 12.0219 46.5273 11.6525C47.1517 11.3394 47.8261 11.2517 48.4007 11.258L48.404 11.2643Z" fill="#01AD33"/>
<path d="M88.0102 12.5852C88.5782 11.4684 89.6381 11.109 90.6658 11.3112C90.8942 11.3561 91.0054 11.4877 90.9996 11.754C90.9908 12.2193 90.9996 12.6878 90.9967 13.1532C90.9967 13.4388 90.9557 13.4708 90.7068 13.4099C90.2588 13.3008 89.8138 13.3104 89.3746 13.4516C88.5343 13.7244 88.0863 14.4335 88.0775 15.5182C88.0717 16.4937 88.0688 17.4693 88.0805 18.448C88.0805 18.6887 88.0131 18.7689 87.7965 18.7625C87.3953 18.7497 86.9913 18.7529 86.5902 18.7625C86.3969 18.7657 86.3091 18.7079 86.3091 18.4705C86.3149 16.2145 86.3149 13.9618 86.3091 11.7059C86.3091 11.4909 86.3794 11.4171 86.5726 11.4203C86.9679 11.4299 87.3602 11.4299 87.7555 11.4203C87.9341 11.4203 88.016 11.4877 88.0102 11.6931C88.0014 11.969 88.0102 12.2418 88.0102 12.5884V12.5852Z" fill="#01AD33"/>
<path d="M36.5816 13.592V18.4052C36.5816 18.7371 36.5571 18.7629 36.2474 18.7629C35.8335 18.7629 35.4196 18.7564 35.0088 18.7629C34.8003 18.7661 34.7114 18.6888 34.7114 18.46C34.7145 15.2158 34.7145 11.9715 34.7114 8.72725C34.7114 8.5114 34.7881 8.4373 34.9904 8.44374C35.4288 8.45341 35.8672 8.45341 36.3026 8.44374C36.5172 8.4373 36.5877 8.52106 36.5877 8.74658C36.5816 10.3607 36.5847 11.9747 36.5847 13.5856L36.5816 13.592Z" fill="#01AD33"/>
</g>
<path d="M8.65854 33H3.00936C1.34734 33 0 34.3581 0 36.0333V41.7275C0 43.4028 1.34734 44.7609 3.00936 44.7609H8.65854C10.3206 44.7609 11.6679 43.4028 11.6679 41.7275V36.0333C11.6679 34.3581 10.3206 33 8.65854 33Z" fill="#3CA93C"/>
<path d="M4.54263 37.492C4.952 36.4147 5.34365 35.3218 5.82604 34.2758C6.32612 35.3151 6.69344 36.4214 7.12272 37.4942C8.30212 37.628 9.49037 37.6258 10.6698 37.7552C9.78025 38.518 8.87744 39.2629 7.97021 40.0034C8.18927 41.1766 8.59863 42.3096 8.80442 43.4851C7.82416 42.836 6.82178 42.2204 5.8371 41.5781C4.83914 42.207 3.84783 42.8472 2.85208 43.4806C3.08221 42.3119 3.44732 41.1766 3.704 40.0123C2.79676 39.2696 1.88511 38.5269 1 37.7552C2.17719 37.6236 3.36544 37.628 4.54485 37.492H4.54263Z" fill="#FEFEFE"/>
<path d="M61.9906 33H56.3414C54.6794 33 53.332 34.3581 53.332 36.0333V41.7275C53.332 43.4028 54.6794 44.7609 56.3414 44.7609H61.9906C63.6526 44.7609 64.9999 43.4028 64.9999 41.7275V36.0333C64.9999 34.3581 63.6526 33 61.9906 33Z" fill="#3CA93C"/>
<mask id="mask1_153_67" style="mask-type:luminance" maskUnits="userSpaceOnUse" x="53" y="33" width="12" height="12">
<path d="M61.9906 33H56.3414C54.6794 33 53.332 34.3581 53.332 36.0333V41.7275C53.332 43.4028 54.6794 44.7609 56.3414 44.7609H61.9906C63.6526 44.7609 64.9999 43.4028 64.9999 41.7275V36.0333C64.9999 34.3581 63.6526 33 61.9906 33Z" fill="white"/>
</mask>
<g mask="url(#mask1_153_67)">
<path d="M65.9432 32.099H62.6616V45.3587H65.9432V32.099Z" fill="#EEF2F3"/>
</g>
<path d="M57.8752 37.492C58.2845 36.4147 58.6762 35.3218 59.1586 34.2758C59.6586 35.3151 60.026 36.4214 60.4552 37.4942C61.6346 37.628 62.8229 37.6258 64.0023 37.7552C63.1128 38.518 62.21 39.2629 61.3027 40.0034C61.5218 41.1766 61.9311 42.3096 62.1369 43.4851C61.1567 42.836 60.1543 42.2204 59.1696 41.5781C58.1717 42.207 57.1803 42.8472 56.1846 43.4806C56.4147 42.3119 56.7798 41.1766 57.0365 40.0123C56.1293 39.2696 55.2176 38.5269 54.3325 37.7552C55.5097 37.6236 56.698 37.628 57.8774 37.492H57.8752Z" fill="#FEFEFE"/>
<path d="M48.6585 33H43.0094C41.3473 33 40 34.3581 40 36.0333V41.7275C40 43.4028 41.3473 44.7609 43.0094 44.7609H48.6585C50.3206 44.7609 51.6679 43.4028 51.6679 41.7275V36.0333C51.6679 34.3581 50.3206 33 48.6585 33Z" fill="#3CA93C"/>
<path d="M44.5426 37.492C44.952 36.4147 45.3437 35.3218 45.826 34.2758C46.3261 35.3151 46.6934 36.4214 47.1227 37.4942C48.3021 37.628 49.4904 37.6258 50.6698 37.7552C49.7802 38.518 48.8774 39.2629 47.9702 40.0034C48.1893 41.1766 48.5986 42.3096 48.8044 43.4851C47.8242 42.836 46.8218 42.2204 45.8371 41.5781C44.8391 42.207 43.8478 42.8472 42.8521 43.4806C43.0822 42.3119 43.4473 41.1766 43.704 40.0123C42.7968 39.2696 41.8851 38.5269 41 37.7552C42.1772 37.6236 43.3654 37.628 44.5448 37.492H44.5426Z" fill="#FEFEFE"/>
<path d="M35.3246 33H29.6754C28.0134 33 26.666 34.3581 26.666 36.0333V41.7275C26.666 43.4028 28.0134 44.7609 29.6754 44.7609H35.3246C36.9866 44.7609 38.3339 43.4028 38.3339 41.7275V36.0333C38.3339 34.3581 36.9866 33 35.3246 33Z" fill="#3CA93C"/>
<path d="M31.2086 37.492C31.618 36.4147 32.0097 35.3218 32.4921 34.2758C32.9921 35.3151 33.3595 36.4214 33.7887 37.4942C34.9681 37.628 36.1564 37.6258 37.3358 37.7552C36.4463 38.518 35.5435 39.2629 34.6362 40.0034C34.8553 41.1766 35.2646 42.3096 35.4704 43.4851C34.4902 42.836 33.4878 42.2204 32.5031 41.5781C31.5052 42.207 30.5138 42.8472 29.5181 43.4806C29.7482 42.3119 30.1133 41.1766 30.37 40.0123C29.4628 39.2696 28.5511 38.5269 27.666 37.7552C28.8432 37.6236 30.0315 37.628 31.2109 37.492H31.2086Z" fill="#FEFEFE"/>
<path d="M21.9925 33H16.3433C14.6813 33 13.334 34.3581 13.334 36.0333V41.7275C13.334 43.4028 14.6813 44.7609 16.3433 44.7609H21.9925C23.6545 44.7609 25.0019 43.4028 25.0019 41.7275V36.0333C25.0019 34.3581 23.6545 33 21.9925 33Z" fill="#3CA93C"/>
<path d="M17.8766 37.492C18.286 36.4147 18.6776 35.3218 19.16 34.2758C19.6601 35.3151 20.0274 36.4214 20.4567 37.4942C21.6361 37.628 22.8244 37.6258 24.0038 37.7552C23.1142 38.518 22.2114 39.2629 21.3042 40.0034C21.5233 41.1766 21.9326 42.3096 22.1384 43.4851C21.1581 42.836 20.1558 42.2204 19.1711 41.5781C18.1731 42.207 17.1818 42.8472 16.1861 43.4806C16.4162 42.3119 16.7813 41.1766 17.038 40.0123C16.1307 39.2696 15.2191 38.5269 14.334 37.7552C15.5112 37.6236 16.6994 37.628 17.8788 37.492H17.8766Z" fill="#FEFEFE"/>
<path d="M74.28 42.9V41.71L77.71 35.2H79.11L75.68 41.71H79.39V39.19H79.46H80.65V41.71H82.12V42.9H80.65V45H79.39V42.9H74.28ZM83.0575 44.972C82.8988 44.8133 82.8195 44.6127 82.8195 44.37C82.8195 44.1273 82.8988 43.9267 83.0575 43.768C83.2161 43.6093 83.4168 43.53 83.6595 43.53C83.9021 43.53 84.1028 43.6093 84.2615 43.768C84.4201 43.9267 84.4995 44.1273 84.4995 44.37C84.4995 44.6127 84.4201 44.8133 84.2615 44.972C84.1028 45.1307 83.9021 45.21 83.6595 45.21C83.4168 45.21 83.2161 45.1307 83.0575 44.972ZM85.2689 36.39V35.2H91.7789V36.39L87.7189 45H86.3889L90.4489 36.404V36.39H85.2689Z" fill="black"/>
</g>
<defs>
<clipPath id="clip0_153_67">
<rect width="92" height="45" fill="white"/>
</clipPath>
</defs>
</svg>
