<svg width="91" height="45" viewBox="0 0 91 45" fill="none" xmlns="http://www.w3.org/2000/svg">
<g clip-path="url(#clip0_153_167)">
<mask id="mask0_153_167" style="mask-type:luminance" maskUnits="userSpaceOnUse" x="0" y="0" width="93" height="31">
<path d="M93 0H0V31H93V0Z" fill="white"/>
</mask>
<g mask="url(#mask0_153_167)">
<path d="M15.6019 14.1133C14.4011 14.1133 13.2002 14.1133 12.0024 14.1163C11.8471 14.1163 11.7903 14.0769 11.7933 13.9101C11.7993 12.9637 11.7993 12.0174 11.7933 11.0711C11.7933 10.9012 11.85 10.8679 12.0054 10.8679C15.4376 10.8709 18.8698 10.8709 22.3021 10.8679C22.4544 10.8679 22.5052 10.9073 22.5291 11.068C22.7143 12.3086 22.6934 13.5461 22.5142 14.7806C22.2812 16.3851 21.8002 17.9047 20.8653 19.2302C19.2821 21.4777 17.1672 22.9306 14.4996 23.4826C12.2712 23.9436 10.0488 23.8921 7.90999 23.061C3.71603 21.4352 1.03955 18.4021 0.203143 13.8676C-0.43312 10.425 0.430167 7.28575 2.57494 4.55292C4.50165 2.09913 7.01384 0.600768 10.0607 0.145801C13.3795 -0.35163 16.4025 0.412715 19.0311 2.60869C19.2432 2.78764 19.4434 2.98176 19.6495 3.16678C19.7391 3.24564 19.7421 3.30327 19.6555 3.39123C18.9774 4.07975 18.2993 4.76827 17.6272 5.46285C17.5167 5.57811 17.4599 5.50228 17.3852 5.43252C16.6265 4.74097 15.7871 4.17378 14.8312 3.8098C10.0279 1.98387 4.75556 4.73187 3.67421 10.0186C3.03496 13.1397 3.83552 15.8968 6.06393 18.1534C7.37529 19.4819 8.98536 20.2402 10.8254 20.4404C12.6028 20.6345 14.3174 20.3979 15.9066 19.5001C17.7885 18.4355 18.9505 16.8431 19.303 14.6532C19.3607 14.2892 19.2134 14.1072 18.8609 14.1072H15.6049L15.6019 14.1133Z" fill="#4285F3"/>
<path d="M70.6343 16.3457C70.6343 18.5962 70.6492 20.8498 70.6283 23.1004C70.6134 24.5381 70.3386 25.9273 69.6605 27.2042C68.8121 28.8087 67.5038 29.8279 65.7862 30.298C64.2299 30.7257 62.6735 30.7469 61.1411 30.1979C59.2085 29.5033 57.8493 28.1566 56.9771 26.2761C56.9143 26.1396 56.9293 26.082 57.0726 26.0213C57.9061 25.6755 58.7395 25.3207 59.5669 24.9567C59.7222 24.8869 59.779 24.9173 59.8537 25.0719C60.4481 26.3034 61.3383 27.2194 62.6855 27.4893C64.1313 27.7775 65.4785 27.5318 66.527 26.355C67.0975 25.715 67.3454 24.9203 67.4619 24.0771C67.5516 23.4462 67.5097 22.8123 67.5157 22.1814C67.5157 22.1298 67.5396 22.0631 67.4739 22.0358C67.4022 22.0055 67.3634 22.0661 67.3216 22.1116C66.282 23.2642 64.9527 23.7434 63.4592 23.7495C61.7655 23.7556 60.2749 23.1368 58.9874 22.0267C57.5327 20.774 56.6156 19.1756 56.3826 17.2465C56.0032 14.1042 57.0936 11.5685 59.6147 9.71832C60.8275 8.82962 62.2105 8.40801 63.7131 8.47474C65.1081 8.53844 66.3358 9.01767 67.3156 10.0732C67.3574 10.1187 67.3932 10.1824 67.4649 10.1612C67.5456 10.1339 67.5127 10.055 67.5127 10.0004C67.5157 9.70315 67.5187 9.40591 67.5127 9.10866C67.5097 8.9752 67.5546 8.93274 67.683 8.93274C68.609 8.93577 69.532 8.93881 70.4581 8.93274C70.6552 8.93274 70.6343 9.04193 70.6343 9.17236C70.6343 11.5655 70.6343 13.9586 70.6343 16.3517H70.6283L70.6343 16.3457ZM59.6028 15.8482C59.6028 17.3284 59.9552 18.4021 60.7259 19.3181C62.4585 21.3806 65.6039 21.1835 66.9989 18.8753C68.0235 17.1798 68.0385 15.3811 67.1513 13.625C65.9982 11.3501 63.2829 10.7738 61.3114 12.3541C60.1225 13.3065 59.6267 14.6107 59.6057 15.8482H59.6028Z" fill="#4285F3"/>
<path d="M47.6397 8.46876C51.8934 8.47482 55.1345 11.79 55.1285 16.1304C55.1225 20.4253 51.8277 23.7678 47.6099 23.7587C43.38 23.7496 40.1121 20.398 40.1241 16.0788C40.136 11.7567 43.389 8.46269 47.6397 8.46876ZM43.4069 16.094C43.4069 16.4246 43.4278 16.7522 43.4906 17.0767C43.5503 17.3922 43.6369 17.6985 43.7534 17.9958C44.9095 20.9834 48.6046 21.6992 50.6926 19.3152C51.8307 18.014 52.0756 16.4519 51.6813 14.7928C50.9734 11.8264 47.6786 10.5131 45.2739 12.2389C43.9805 13.1671 43.4398 14.5107 43.4129 16.094H43.4069Z" fill="#FABC06"/>
<path d="M31.4398 23.7587C27.222 23.7647 23.9361 20.4192 23.9331 16.1213C23.9331 11.7809 27.1712 8.47179 31.4309 8.46875C35.6875 8.46572 38.9435 11.7809 38.9376 16.1122C38.9316 20.4162 35.6607 23.7556 31.4398 23.7587ZM27.219 15.7513C27.216 16.9311 27.3833 17.6803 27.7298 18.3749C29.0441 21.0198 32.4315 21.5688 34.3971 19.4213C35.7025 17.9958 35.9444 16.2851 35.3888 14.4652C34.5375 11.6748 31.2994 10.5707 29.0172 12.2753C27.7656 13.2125 27.2399 14.5319 27.219 15.7452V15.7513Z" fill="#E94336"/>
<path d="M77.167 16.0758C77.1879 14.1619 77.6987 12.4148 78.9294 10.9468C80.3423 9.2634 82.1555 8.44143 84.3242 8.47176C86.8484 8.50512 88.6496 9.79116 89.952 11.9204C90.3642 12.5938 90.6271 13.3338 90.9198 14.0648C90.9856 14.2256 90.881 14.2286 90.7944 14.265C89.1096 14.9778 87.4249 15.6936 85.7431 16.4064C84.2286 17.0494 82.7141 17.6924 81.1967 18.3263C80.9995 18.4082 80.9876 18.475 81.0861 18.657C82.0092 20.3252 83.4788 20.9197 85.2174 20.7013C86.472 20.5436 87.4099 19.849 88.1358 18.8268C88.2583 18.6509 88.333 18.66 88.4913 18.7692C89.2112 19.2727 89.9341 19.7671 90.6629 20.2524C90.8183 20.3555 90.8063 20.4162 90.7077 20.5496C89.0738 22.7577 86.92 23.8982 84.2017 23.7374C81.1907 23.5585 79.031 22.0328 77.7764 19.212C77.3701 18.299 77.155 17.104 77.17 16.0849L77.167 16.0758ZM84.3003 11.4199C84.2017 11.429 84.0255 11.426 83.8522 11.4594C81.8299 11.8324 80.4499 13.5249 80.42 15.6542C80.42 15.8362 80.4558 15.8665 80.6231 15.7937C81.4297 15.4449 82.2422 15.1021 83.0517 14.7594C84.3391 14.2134 85.6266 13.6614 86.92 13.1246C87.1112 13.0457 87.0963 12.9699 87.0126 12.8243C86.8752 12.5786 86.7079 12.3572 86.4929 12.1752C85.8805 11.6505 85.1636 11.4321 84.2973 11.4199H84.3003Z" fill="#E94336"/>
<path d="M75.7841 12.0627C75.7841 15.7146 75.7841 19.3634 75.7901 23.0153C75.7901 23.2428 75.7303 23.3004 75.5123 23.2974C74.6341 23.2853 73.7529 23.2822 72.8746 23.2974C72.6476 23.3004 72.5819 23.2489 72.5819 23.0062C72.5908 16.2666 72.5879 9.52706 72.5879 2.79051C72.5879 2.23545 72.5998 1.68039 72.5819 1.12533C72.5759 0.906945 72.6476 0.870548 72.8388 0.873581C73.717 0.88268 74.5982 0.879647 75.4764 0.879647C75.6825 0.879647 75.7841 0.988839 75.7841 1.20722V12.0658V12.0627Z" fill="#34A753"/>
</g>
<path d="M15.6981 44.6338C15.9277 43.8907 16.1574 43.1477 16.3893 42.4047C16.6257 41.6479 16.8622 40.8935 17.1121 40.1413C17.1774 39.947 17.1526 39.8395 16.9792 39.7138C15.7949 38.8564 14.6195 37.9853 13.4442 37.1166C13.3789 37.0686 13.3159 37.016 13.2573 36.9199C13.6288 36.9199 14.0004 36.9199 14.3741 36.9199C15.5472 36.9199 16.7226 36.9131 17.8956 36.9177C18.0465 36.9177 18.1073 36.8696 18.1546 36.7256C18.6274 35.2647 19.107 33.8061 19.5844 32.3451C19.6046 32.2788 19.6294 32.2148 19.6519 32.1462C19.7397 32.1622 19.7307 32.24 19.7465 32.2903C20.2351 33.7466 20.7259 35.2007 21.2055 36.6593C21.2595 36.8239 21.3293 36.8834 21.5072 36.8834C23.0045 36.8834 24.4996 36.8925 25.9969 36.8994C26.0487 36.8994 26.1028 36.9039 26.2041 36.9085C26.033 37.0388 25.9001 37.1394 25.765 37.24C24.6302 38.0837 23.4954 38.9273 22.3583 39.7663C22.2345 39.8578 22.2007 39.9355 22.2503 40.091C22.7073 41.5062 23.1532 42.9237 23.6035 44.3411C23.6282 44.4189 23.6508 44.4989 23.68 44.5972C23.5877 44.5881 23.5427 44.5355 23.4931 44.4989C22.2818 43.6187 21.0704 42.7408 19.8635 41.856C19.742 41.7668 19.6654 41.7691 19.5461 41.856C18.3325 42.7545 17.1121 43.6461 15.894 44.54C15.8399 44.5812 15.7791 44.6132 15.7206 44.6475C15.7138 44.6406 15.7071 44.6338 15.7003 44.6269L15.6981 44.6338Z" fill="#F9BC15"/>
<path d="M0 36.9223C0.39178 36.9223 0.7678 36.9223 1.14157 36.9223C2.30115 36.9223 3.46073 36.9131 4.62256 36.9223C4.80494 36.9223 4.86573 36.856 4.91752 36.6937C5.38135 35.251 5.85419 33.813 6.32252 32.3726C6.34729 32.2949 6.37656 32.2172 6.4216 32.0914C6.54769 32.4641 6.66027 32.7933 6.77059 33.1225C7.16913 34.316 7.57217 35.5071 7.96395 36.7005C8.01123 36.8468 8.08103 36.888 8.22739 36.888C9.7157 36.888 11.2063 36.8994 12.6946 36.9063C12.7599 36.9063 12.8252 36.9063 12.9468 36.9063C12.8499 36.9863 12.7959 37.0343 12.7396 37.0778C11.5282 37.9785 10.3169 38.8816 9.10101 39.7778C8.97267 39.8716 8.94565 39.9493 8.99519 40.1025C9.45677 41.5382 9.91159 42.9763 10.3687 44.4121C10.3867 44.4715 10.4047 44.5287 10.4272 44.5973C10.3462 44.6155 10.3079 44.5584 10.2651 44.5264C9.04923 43.6439 7.8311 42.7614 6.61974 41.872C6.4914 41.776 6.41034 41.7806 6.28425 41.872C5.08189 42.7637 3.87277 43.6462 2.66591 44.531C2.60061 44.579 2.54657 44.6453 2.43174 44.6567C2.5128 44.3938 2.5871 44.1446 2.66591 43.8954C3.06669 42.6311 3.46523 41.3645 3.87502 40.1025C3.92906 39.9379 3.90655 39.8487 3.76469 39.7458C2.56684 38.8725 1.37348 37.99 0.180129 37.1098C0.121587 37.0663 0.0495354 37.0366 0 36.9246V36.9223Z" fill="#F9BC15"/>
<path d="M28.9243 44.6681C29.0752 44.188 29.2238 43.717 29.3724 43.2507C29.7056 42.2035 30.0344 41.1564 30.3743 40.1116C30.4306 39.9402 30.4104 39.8464 30.2573 39.7344C29.0639 38.8656 27.8773 37.9877 26.6885 37.1121C26.6277 37.0686 26.5691 37.0229 26.4971 36.968C26.5759 36.904 26.6502 36.9269 26.72 36.9269C28.188 36.92 29.6583 36.9131 31.1264 36.9177C31.2975 36.9177 31.3605 36.8606 31.4123 36.7028C31.8829 35.2419 32.3625 33.7833 32.8399 32.3223C32.8601 32.2583 32.8849 32.1943 32.9187 32.0914C32.984 32.2743 33.038 32.4229 33.0875 32.5738C33.5469 33.9433 34.0062 35.3151 34.4588 36.6868C34.5106 36.8423 34.5849 36.8834 34.738 36.8834C36.2353 36.8834 37.7304 36.8926 39.2277 36.9017C39.2862 36.9017 39.3493 36.8811 39.4191 36.9337C39.356 36.984 39.2975 37.0297 39.2389 37.0732C38.0253 37.974 36.814 38.877 35.5981 39.7733C35.472 39.867 35.4405 39.9424 35.49 40.0956C35.9516 41.5245 36.4042 42.9557 36.859 44.3869C36.8815 44.4578 36.922 44.5241 36.9063 44.627C36.501 44.3321 36.1047 44.0463 35.7084 43.7582C34.8438 43.1295 33.9769 42.503 33.1168 41.8698C32.9907 41.7783 32.9119 41.7714 32.7813 41.8675C31.5677 42.7683 30.3473 43.6599 29.1292 44.5515C29.0707 44.595 29.0211 44.6567 28.9198 44.6681H28.9243Z" fill="#F9BC15"/>
<path d="M46.3139 32.0388C46.548 32.7384 46.7664 33.3831 46.9826 34.0279C47.2753 34.9035 47.5725 35.7791 47.8585 36.6593C47.9058 36.8079 47.9778 36.8468 48.1242 36.8468C49.599 36.8468 51.076 36.856 52.5508 36.8651C52.6161 36.8651 52.7107 36.8285 52.7377 36.8971C52.7715 36.9886 52.6612 37.0137 52.6049 37.0549C51.4003 37.9534 50.1934 38.8519 48.982 39.7435C48.8604 39.8327 48.8379 39.9081 48.8852 40.0521C49.349 41.4879 49.8039 42.9237 50.2609 44.3617C50.2812 44.4258 50.3015 44.4898 50.324 44.5652C50.2249 44.5606 50.1754 44.4966 50.1191 44.4532C48.9122 43.5776 47.7076 42.7042 46.5053 41.824C46.3859 41.7371 46.3094 41.7348 46.1878 41.824C44.9742 42.7225 43.7538 43.6141 42.5357 44.5081C42.4749 44.5515 42.4141 44.5949 42.3465 44.6407C42.3173 44.5401 42.369 44.4646 42.3938 44.3892C42.8531 42.9374 43.3125 41.4879 43.7786 40.0384C43.8258 39.8875 43.8078 39.8075 43.6772 39.7115C42.4726 38.8336 41.2748 37.9488 40.0769 37.064C40.0184 37.0206 39.9441 36.9931 39.8945 36.8811C40.2863 36.8811 40.6601 36.8811 41.0338 36.8811C42.2002 36.8811 43.3688 36.872 44.5351 36.8788C44.6972 36.8788 44.758 36.8217 44.8053 36.6731C45.2804 35.2053 45.76 33.7398 46.2396 32.2743C46.2598 32.2149 46.2778 32.1554 46.3184 32.0411L46.3139 32.0388Z" fill="#F9BC15"/>
<path d="M15.7156 44.6538C15.7156 44.6538 15.6957 44.6782 15.6935 44.676C15.6736 44.6605 15.6803 44.6472 15.6957 44.6339C15.7024 44.6405 15.709 44.6472 15.7134 44.6538H15.7156Z" fill="#F9BC15"/>
<path d="M65.5464 36.7783C64.1458 36.7714 62.7453 36.7623 61.3448 36.76C61.1985 36.76 61.1287 36.7188 61.0792 36.5725C60.5996 35.1207 60.1132 33.6713 59.6246 32.2218C59.5998 32.1509 59.5953 32.064 59.521 32C59.4985 32.0663 59.4805 32.1189 59.4625 32.1715C58.9807 33.6438 58.4988 35.1162 58.0215 36.5931C57.9742 36.744 57.9066 36.7943 57.7468 36.7943C56.5804 36.7897 55.4118 36.7943 54.2455 36.7966C53.8717 36.7966 53.5002 36.7966 53.1265 36.7966C53.1828 36.8972 53.2458 36.9475 53.3111 36.9955C54.4999 37.8711 55.6865 38.749 56.8799 39.6178C57.015 39.7161 57.0465 39.7961 56.9925 39.9585C56.5241 41.408 56.0648 42.8574 55.6077 44.3092C55.5852 44.3824 55.5289 44.4532 55.5672 44.5516C55.6348 44.5035 55.6956 44.4624 55.7563 44.4167C56.97 43.5273 58.1836 42.6402 59.3927 41.744C59.5188 41.6503 59.5976 41.6434 59.7282 41.7395C60.9305 42.622 62.1374 43.4953 63.342 44.3709C63.3983 44.4121 63.4479 44.4692 63.5424 44.4807C63.5154 44.3961 63.4951 44.3298 63.4749 44.2658C63.02 42.8346 62.5675 41.4034 62.1059 39.9745C62.0586 39.8259 62.0766 39.7458 62.2072 39.6498C63.3195 38.8336 65.7242 37.0801 65.7242 37.0801V36.7874C65.6634 36.7851 65.6004 36.7783 65.5396 36.7783H65.5464ZM62.2613 38.9091L61.6353 37.1967H64.6299L62.259 38.9091H62.2613Z" fill="#F9BC15"/>
<path d="M65.3188 36.7782L65.49 37.2583L66.1384 36.7782H65.3188Z" fill="#F9BC15"/>
<path d="M73.28 42.9V41.71L76.71 35.2H78.11L74.68 41.71H78.39V39.19H78.46H79.65V41.71H81.12V42.9H79.65V45H78.39V42.9H73.28ZM82.0575 44.972C81.8988 44.8133 81.8195 44.6127 81.8195 44.37C81.8195 44.1273 81.8988 43.9267 82.0575 43.768C82.2161 43.6093 82.4168 43.53 82.6595 43.53C82.9021 43.53 83.1028 43.6093 83.2615 43.768C83.4201 43.9267 83.4995 44.1273 83.4995 44.37C83.4995 44.6127 83.4201 44.8133 83.2615 44.972C83.1028 45.1307 82.9021 45.21 82.6595 45.21C82.4168 45.21 82.2161 45.1307 82.0575 44.972ZM84.2689 36.39V35.2H90.7789V36.39L86.7189 45H85.3889L89.4489 36.404V36.39H84.2689Z" fill="black"/>
</g>
<defs>
<clipPath id="clip0_153_167">
<rect width="91" height="45" fill="white"/>
</clipPath>
</defs>
</svg>
