<svg width="105" height="45" viewBox="0 0 105 45" fill="none" xmlns="http://www.w3.org/2000/svg">
<g clip-path="url(#clip0_153_194)">
<mask id="mask0_153_194" style="mask-type:luminance" maskUnits="userSpaceOnUse" x="0" y="0" width="105" height="26">
<path d="M104.874 0H0V25.5457H104.874V0Z" fill="white"/>
</mask>
<g mask="url(#mask0_153_194)">
<path d="M17.9726 16.6473C18.3283 17.7204 18.684 18.7959 19.0373 19.869C19.4256 21.0483 19.8089 22.2302 20.1922 23.4095C20.2147 23.4779 20.2573 23.5411 20.2423 23.6449C20.1722 23.6019 20.1095 23.569 20.0494 23.526C17.6293 21.7797 15.2068 20.031 12.7867 18.2822C12.7416 18.2493 12.694 18.2214 12.6565 18.1835C12.5562 18.0898 12.4736 18.1126 12.3709 18.1886C11.8949 18.5403 11.4139 18.8845 10.9328 19.2287C8.94119 20.6687 6.94952 22.1062 4.95536 23.5437C4.90525 23.5791 4.85765 23.6272 4.76746 23.6373C4.85014 23.3817 4.92529 23.1312 5.00797 22.8857C5.88229 20.2157 6.75913 17.5457 7.63345 14.8758C7.71863 14.6176 7.71613 14.6176 7.49817 14.4607C5.08563 12.717 2.67309 10.9733 0.260545 9.22959C0.182882 9.17139 0.10522 9.11065 0 9.03219C0.122757 8.98411 0.220461 9.00182 0.313154 9.00182C3.27935 9.00182 6.24555 9.00688 9.20925 9.00942C9.59756 9.00942 9.5224 9.05497 9.64015 8.70319C10.5671 5.87884 11.494 3.05449 12.421 0.227615C12.446 0.151692 12.4711 0.0757686 12.4986 -0.00268555C12.6038 0.0656455 12.6038 0.174469 12.6339 0.265577C13.4807 2.8495 14.3224 5.43596 15.1642 8.01988C15.2544 8.29574 15.3521 8.56906 15.4323 8.84745C15.4698 8.97905 15.54 9.01195 15.6677 9.00942C16.2615 9.00435 16.8552 9.00942 17.4465 9.00942H24.9897C24.9947 9.0246 24.9997 9.03979 25.0048 9.0575C24.8995 9.13595 24.7993 9.21947 24.6916 9.29539C22.3016 11.0214 19.9091 12.7474 17.5191 14.4759C17.454 14.524 17.3939 14.5797 17.3312 14.6328C17.0982 14.7011 16.9279 14.8732 16.74 15.0099C15.4272 15.9488 14.1195 16.8979 12.8118 17.8444C12.7567 17.8849 12.679 17.9051 12.6815 17.9987C12.7667 18.024 12.8418 17.9962 12.922 17.976C14.3274 17.6115 15.7329 17.2522 17.1358 16.8877C17.4164 16.8143 17.707 16.784 17.9676 16.6473H17.9726Z" fill="#01B67A"/>
<path d="M72.5017 20.869V25.3029C72.5017 25.5256 72.5468 25.5458 72.2687 25.5433C71.7126 25.5433 71.1564 25.5433 70.6002 25.5433C70.4098 25.5433 70.4098 25.5382 70.4048 25.3459C70.4048 25.3181 70.4048 25.2902 70.4048 25.2649V12.8843C70.4048 12.8388 70.4073 12.7932 70.4048 12.7477C70.3973 12.649 70.4299 12.6009 70.5401 12.6009C71.1063 12.606 71.6725 12.606 72.2362 12.6009C72.3589 12.6009 72.389 12.6515 72.389 12.7629C72.384 13.1146 72.389 13.469 72.389 13.8131C72.4341 13.8385 72.4491 13.8157 72.4641 13.7929C72.9176 13.0033 73.6341 12.5984 74.5034 12.4288C75.3351 12.2668 76.1594 12.3124 76.9585 12.5908C77.918 12.9248 78.642 13.5474 79.1306 14.4382C80.0725 16.1516 80.0525 18.7406 79.0629 20.4235C78.3364 21.6586 77.2416 22.2862 75.7986 22.3115C75.1247 22.3216 74.4733 22.2179 73.8571 21.9395C73.3911 21.7294 72.9978 21.4308 72.6796 21.0335C72.637 20.9803 72.612 20.9069 72.5067 20.869H72.5017ZM72.4366 17.3107C72.4366 17.9813 72.5193 18.4774 72.7222 18.9886C73.2057 20.216 74.328 20.8512 75.6257 20.6108C76.4625 20.4539 77.0162 19.9224 77.3644 19.1784C77.7176 18.4242 77.7552 17.6194 77.68 16.8096C77.6299 16.2731 77.4871 15.7568 77.2066 15.2886C76.6704 14.3876 75.8938 13.9372 74.8241 14.0131C73.7443 14.0915 73.0679 14.6761 72.6996 15.6581C72.4992 16.1921 72.4266 16.7463 72.4316 17.3132L72.4366 17.3107Z" fill="#1B1B1B"/>
<path d="M98.6812 17.2879C98.6912 18.0775 98.5735 18.7988 98.3004 19.4897C97.7743 20.8285 96.8123 21.7067 95.4269 22.104C94.292 22.4279 93.1522 22.4102 92.0398 22.0053C90.7271 21.527 89.8352 20.6134 89.3993 19.2898C88.9283 17.8498 88.9484 16.4123 89.5396 15.0077C90.1283 13.6056 91.2256 12.7831 92.7012 12.4643C93.6707 12.2542 94.6453 12.2846 95.5897 12.606C97.1605 13.1374 98.1075 14.2409 98.5083 15.8277C98.6336 16.3212 98.6962 16.8248 98.6812 17.2904V17.2879ZM96.5918 17.3132C96.5994 17.093 96.5693 16.8779 96.5367 16.6628C96.4566 16.101 96.2912 15.5721 95.9705 15.0937C95.0135 13.6714 92.9267 13.6537 91.9321 14.9267C91.5588 15.405 91.3584 15.9491 91.2557 16.5363C91.1029 17.4347 91.1755 18.3129 91.5688 19.1379C92.0323 20.1123 92.8014 20.6741 93.9162 20.6589C95.016 20.6437 95.7601 20.0743 96.2186 19.1075C96.4866 18.5407 96.5743 17.9333 96.5918 17.3132Z" fill="#1B1B1B"/>
<path d="M38.1545 9.03766C38.1545 9.63745 38.1545 10.2448 38.1545 10.8497C38.1545 10.9408 38.1269 10.9864 38.0292 10.9813C37.9666 10.9788 37.9014 10.9813 37.8388 10.9813H34.0008C33.9607 11.0876 33.9757 11.1863 33.9757 11.2825C33.9757 14.7572 33.9757 18.2294 33.9757 21.7042C33.9757 21.9345 33.8605 22.0484 33.6275 22.0484C33.0538 22.0484 32.4776 22.0484 31.9039 22.0484C31.6684 22.0484 31.6659 22.0459 31.6659 21.8105C31.6659 20.0693 31.6659 18.3281 31.6659 16.587V11.3078C31.6659 11.2344 31.6634 11.1635 31.6659 11.0901C31.6684 11.0091 31.6308 10.9762 31.5506 10.9788C31.488 10.9813 31.4229 10.9788 31.3602 10.9788H27.7753C27.4997 10.9788 27.5147 11.0117 27.5147 10.7105C27.5147 10.2018 27.5172 9.69566 27.5122 9.18697C27.5122 9.05284 27.5398 8.97692 27.6926 8.99717C27.7452 9.00476 27.8028 8.99717 27.8579 8.99717C31.1774 8.99717 34.4993 8.99717 37.8187 8.99717C37.9265 8.99717 38.0367 8.97439 38.1595 9.03007L38.1545 9.03766Z" fill="#1B1B1B"/>
<path d="M61.3959 15.2658C61.0852 15.2658 60.7746 15.2658 60.4639 15.2658C60.3788 15.2658 60.3061 15.2658 60.281 15.1519C60.1382 14.4509 59.6272 14.1624 58.9808 14.051C58.4447 13.9574 57.9086 13.9852 57.385 14.1421C57.2372 14.1877 57.1019 14.2636 56.9716 14.3471C56.5457 14.623 56.5758 15.281 56.894 15.5619C57.1244 15.7644 57.3875 15.8985 57.6731 15.9997C58.2493 16.2047 58.8556 16.2958 59.4518 16.4249C59.9879 16.5413 60.514 16.678 61.0301 16.8627C61.4209 17.0044 61.7717 17.212 62.0723 17.4954C62.6811 18.0623 62.8639 18.7785 62.7838 19.5782C62.6886 20.5349 62.15 21.1954 61.3433 21.6687C60.737 22.023 60.0706 22.2027 59.3767 22.2811C58.4247 22.3874 57.4827 22.3444 56.5658 22.0356C55.9971 21.8433 55.4885 21.5523 55.0827 21.0992C54.5917 20.5551 54.3812 19.9022 54.3261 19.1885C54.3186 19.0898 54.3386 19.0265 54.4564 19.0392C54.4664 19.0392 54.4739 19.0392 54.4839 19.0392C55.0852 19.0392 55.6889 19.0392 56.2902 19.0392C56.3979 19.0392 56.4631 19.0594 56.4656 19.1809C56.4656 19.2442 56.4906 19.3049 56.5057 19.3657C56.6309 19.887 56.9366 20.254 57.4426 20.4539C57.7783 20.5855 58.1215 20.6614 58.4798 20.6665C58.9833 20.6741 59.4819 20.6285 59.9579 20.4488C60.4639 20.2565 60.717 19.8971 60.6919 19.4188C60.6794 19.1531 60.5767 18.9304 60.3712 18.7532C60.0456 18.4698 59.6522 18.3255 59.2439 18.2268C58.6677 18.0876 58.089 17.9737 57.5103 17.8396C57.0393 17.7308 56.5733 17.6093 56.1299 17.4144C55.6639 17.2094 55.2505 16.9361 54.9574 16.5084C54.1507 15.3392 54.5065 13.7524 55.7391 13.0033C56.3027 12.6616 56.9215 12.4921 57.5679 12.406C58.3695 12.2997 59.1687 12.3174 59.9604 12.5072C60.747 12.6945 61.4159 13.0716 61.912 13.722C62.2126 14.1143 62.3804 14.5597 62.4656 15.038C62.5057 15.2557 62.4957 15.2633 62.2652 15.2633C61.9721 15.2633 61.6815 15.2633 61.3884 15.2633L61.3959 15.2658Z" fill="#1B1B1B"/>
<path d="M50.8185 22.0179V20.7803C50.7258 20.8233 50.7033 20.8917 50.6632 20.9473C50.0394 21.8179 49.1826 22.2659 48.1154 22.3089C47.5843 22.3291 47.0607 22.2633 46.5496 22.1115C45.6552 21.8458 45.0916 21.2536 44.7909 20.3931C44.5955 19.8287 44.5304 19.2441 44.5279 18.6519C44.5204 16.7108 44.5254 14.7697 44.5279 12.8261C44.5279 12.6034 44.5279 12.6008 44.7458 12.6008C45.2945 12.6008 45.8406 12.6008 46.3893 12.6008C46.6749 12.6008 46.6398 12.5958 46.6398 12.8514C46.6398 14.6938 46.6398 16.5362 46.6398 18.3761C46.6398 18.6671 46.6498 18.9556 46.7049 19.2416C46.8628 20.0818 47.3287 20.5374 48.1755 20.6487C48.5764 20.7019 48.9797 20.669 49.3655 20.5348C50.1271 20.2716 50.5405 19.7149 50.7033 18.9506C50.7634 18.6646 50.7785 18.3761 50.7785 18.085C50.7785 16.3692 50.7785 14.6558 50.7785 12.94C50.7785 12.8767 50.7835 12.8134 50.7785 12.7502C50.7684 12.6388 50.8236 12.6084 50.9238 12.611C51.1142 12.6135 51.3071 12.611 51.5 12.611C51.9108 12.611 52.3217 12.6135 52.7325 12.611C52.8453 12.611 52.9079 12.6388 52.8929 12.7628C52.8879 12.816 52.8929 12.8716 52.8929 12.9273V21.7471C52.8929 21.9495 52.7927 22.0508 52.5897 22.0508C52.0962 22.0508 51.6052 22.0508 51.1117 22.0508C51.0215 22.0508 50.9288 22.0685 50.8261 22.0204L50.8185 22.0179Z" fill="#1C1C1C"/>
<path d="M104.874 20.4539C104.874 20.9651 104.874 21.4536 104.874 21.942C104.874 22.0356 104.829 22.066 104.744 22.0761C103.99 22.1622 103.236 22.2204 102.482 22.0812C102.204 22.0306 101.936 21.9395 101.693 21.7876C101.344 21.5674 101.131 21.2511 101.031 20.8563C100.929 20.4488 100.896 20.0338 100.896 19.6162C100.896 17.956 100.896 16.2958 100.896 14.6356V14.4711C100.893 14.1523 100.923 14.1902 100.623 14.1877C100.257 14.1877 99.8938 14.1877 99.5281 14.1877C99.3126 14.1877 99.3101 14.1852 99.3076 13.9599C99.3076 13.5778 99.3076 13.1982 99.3076 12.816C99.3076 12.606 99.3126 12.6034 99.513 12.6034C99.8963 12.6034 100.28 12.6034 100.663 12.6034C100.868 12.6034 100.871 12.6009 100.871 12.3934C100.871 11.5936 100.871 10.7964 100.871 9.99672C100.871 9.77655 100.873 9.77402 101.091 9.77148C101.648 9.77148 102.204 9.77148 102.762 9.77148C102.97 9.77148 102.973 9.77402 102.973 9.97901C102.973 10.7231 102.973 11.4671 102.973 12.2112C102.973 12.2744 102.973 12.3377 102.973 12.401C102.978 12.5958 102.978 12.5984 103.171 12.6009C103.627 12.6034 104.083 12.6009 104.539 12.6009C104.601 12.6009 104.666 12.6034 104.729 12.6009C104.819 12.5958 104.862 12.6287 104.859 12.7249C104.857 13.1602 104.854 13.5955 104.859 14.0308C104.859 14.175 104.769 14.1624 104.679 14.1624C104.223 14.1624 103.767 14.1624 103.311 14.1624C102.933 14.1624 102.97 14.1194 102.97 14.4914C102.97 16.0529 102.97 17.6118 102.97 19.1733C102.97 19.3555 102.978 19.5352 102.993 19.7174C103.03 20.2135 103.268 20.464 103.764 20.4995C104.073 20.5222 104.386 20.5298 104.691 20.4691C104.734 20.459 104.782 20.459 104.867 20.4514L104.874 20.4539Z" fill="#1A1A1A"/>
<path d="M68.9416 20.4817C68.9416 20.8386 68.9441 21.2106 68.9416 21.5801C68.9416 21.7319 69.0042 21.9192 68.909 22.028C68.8113 22.1419 68.6159 22.0812 68.4631 22.1014C67.7992 22.1951 67.1328 22.2052 66.4764 22.066C65.5495 21.8686 65.1236 21.3827 65.0059 20.4185C64.9683 20.1122 64.9457 19.806 64.9482 19.4973C64.9507 17.8371 64.9482 16.1769 64.9482 14.5167C64.9482 14.4534 64.9432 14.3902 64.9482 14.3269C64.9583 14.2181 64.9057 14.1877 64.8029 14.1902C64.4372 14.1953 64.0739 14.1902 63.7082 14.1902C63.6455 14.1902 63.5804 14.1852 63.5178 14.1902C63.395 14.2029 63.3599 14.1472 63.3624 14.0308C63.3674 13.7853 63.3624 13.5398 63.3624 13.2969C63.3624 13.1425 63.3624 12.9881 63.3624 12.8337C63.3624 12.606 63.3649 12.6034 63.6054 12.6034C63.9787 12.6034 64.3545 12.6034 64.7278 12.6034C64.9307 12.6034 64.9357 12.5984 64.9357 12.3883C64.9357 11.6265 64.9357 10.8648 64.9357 10.103C64.9357 10.0397 64.9407 9.97648 64.9357 9.91321C64.9257 9.80691 64.9733 9.77148 65.0785 9.77148C65.3892 9.77655 65.6998 9.77148 66.0105 9.77148C66.2835 9.77148 66.5591 9.77148 66.8322 9.77148C67.0251 9.77148 67.0276 9.77655 67.0301 9.96382C67.0301 10.6724 67.0301 11.3785 67.0301 12.0871C67.0301 12.1783 67.0301 12.2694 67.0301 12.3605C67.0301 12.6034 67.0301 12.6034 67.2906 12.6034C67.7391 12.6034 68.185 12.6034 68.6309 12.6034C68.6861 12.6034 68.7412 12.6034 68.7963 12.6034C68.8865 12.6009 68.9266 12.6414 68.9266 12.7325C68.9266 13.1678 68.9241 13.6031 68.9266 14.0384C68.9266 14.1826 68.8263 14.1649 68.7387 14.1649C68.2827 14.1649 67.8268 14.1649 67.3708 14.1649C67.3082 14.1649 67.243 14.1674 67.1804 14.1649C67.0802 14.1599 67.0251 14.1953 67.0326 14.3041C67.0376 14.3573 67.0326 14.4129 67.0326 14.4686V19.1505C67.0326 19.3581 67.0351 19.5681 67.0677 19.7757C67.1428 20.2666 67.3608 20.4792 67.8593 20.507C68.16 20.5222 68.4606 20.5298 68.7587 20.4741C68.8113 20.464 68.8639 20.4463 68.9416 20.4843V20.4817Z" fill="#1B1B1B"/>
<path d="M87.4655 15.5289C87.4655 17.6066 87.4655 19.6819 87.4655 21.7597C87.4655 22.0912 87.5081 22.0482 87.1774 22.0507C86.6388 22.0507 86.1002 22.0507 85.5616 22.0507C85.3737 22.0507 85.3687 22.0456 85.3687 21.8533C85.3687 21.2636 85.3687 20.674 85.3687 20.0843C85.3687 16.4931 85.3687 12.9019 85.3687 9.30823C85.3687 8.97163 85.3186 9.00453 85.6718 9.002C86.1929 9.002 86.7115 9.002 87.2326 9.002C87.4856 9.002 87.4655 8.98682 87.4655 9.24243V15.5263V15.5289Z" fill="#1A1A1A"/>
<path d="M39.6528 14.3472C39.8532 13.9119 40.1162 13.5373 40.457 13.2159C41.2085 12.5149 42.0879 12.2137 43.1175 12.3833C43.2077 12.3985 43.2653 12.4111 43.2628 12.5275C43.2553 13.1349 43.2578 13.7423 43.2553 14.3497C43.2553 14.3649 43.2403 14.3826 43.2302 14.4003C43.0248 14.3775 42.8169 14.3497 42.6089 14.3345C41.657 14.2636 40.8954 14.6002 40.3567 15.3949C39.9233 16.0352 39.778 16.7565 39.778 17.5132C39.778 18.9101 39.778 20.3071 39.778 21.7041V21.9876C39.7054 22.0635 39.6277 22.0382 39.5601 22.0382C39.0114 22.0407 38.4653 22.0382 37.9166 22.0382C37.631 22.0382 37.6736 22.0357 37.6736 21.7826C37.6736 19.3429 37.6736 16.9007 37.6736 14.461C37.6736 13.9068 37.6736 13.3551 37.6736 12.8008C37.6736 12.606 37.6786 12.6009 37.864 12.6009C38.3926 12.6009 38.9237 12.6009 39.4523 12.6009C39.6453 12.6009 39.6478 12.6034 39.6478 12.7907C39.6478 13.307 39.6478 13.8258 39.6478 14.3421L39.6528 14.3472Z" fill="#1B1B1B"/>
<path d="M83.5071 17.3536V21.7369C83.5071 21.8002 83.5046 21.8634 83.5071 21.9267C83.5147 22.0229 83.462 22.0533 83.3744 22.0507C83.2466 22.0482 83.1188 22.0507 82.9911 22.0507C82.5176 22.0507 82.0416 22.0482 81.5681 22.0507C81.4554 22.0507 81.3952 22.0229 81.4078 21.8989C81.4128 21.8457 81.4078 21.7901 81.4078 21.7344V12.9146C81.4078 12.8691 81.4128 12.8235 81.4078 12.778C81.3877 12.6312 81.4554 12.5957 81.5931 12.5983C82.1593 12.6059 82.7255 12.5983 83.2917 12.6008C83.5046 12.6008 83.5046 12.6033 83.5046 12.8311C83.5046 14.3369 83.5046 15.8427 83.5046 17.3511L83.5071 17.3536Z" fill="#1A1A1A"/>
<path d="M17.9726 16.6476C17.7121 16.7817 17.419 16.8146 17.1409 16.888C15.738 17.2549 14.33 17.6118 12.9271 17.9762C12.8469 17.9965 12.7718 18.0268 12.6866 17.999C12.6841 17.9079 12.7617 17.8851 12.8169 17.8446C14.1246 16.8981 15.4323 15.9491 16.7451 15.0101C16.9355 14.876 17.1033 14.7014 17.3363 14.6331C17.5342 15.243 17.7296 15.8529 17.9275 16.4628C17.9476 16.5235 17.9576 16.5843 17.9751 16.645L17.9726 16.6476Z" fill="#01542A"/>
<path d="M82.4499 10.9838C82.1593 10.9838 81.8662 10.9838 81.5756 10.9838C81.4703 10.9838 81.4077 10.9737 81.4077 10.8395C81.4127 10.2701 81.4127 9.69816 81.4077 9.12874C81.4077 9.0351 81.4428 9.0022 81.5355 9.0022C82.1468 9.0022 82.7555 9.0022 83.3668 9.0022C83.4745 9.0022 83.5071 9.04269 83.5071 9.14645C83.5046 9.70828 83.5021 10.2701 83.5071 10.832C83.5071 10.9534 83.4645 10.9889 83.3493 10.9863C83.0486 10.9813 82.748 10.9863 82.4474 10.9863L82.4499 10.9838Z" fill="#1B1B1B"/>
</g>
<path d="M15.4366 30H1V44.5838H15.4366V30Z" fill="#00B67A"/>
<path d="M31.0773 30H16.6406V44.5838H31.0773V30Z" fill="#00B67A"/>
<path d="M46.7179 30H32.2812V44.5838H46.7179V30Z" fill="#00B67A"/>
<path d="M62.359 30H47.9224V44.5838H62.359V30Z" fill="#00B67A"/>
<path d="M78 30H70.7803V44.5838H78V30Z" fill="#DCDCE6"/>
<path d="M70.7827 30H63.563V44.5838H70.7827V30Z" fill="#00B67A"/>
<path d="M8.2193 39.828L10.4152 39.2666L11.3333 42.1234L8.2193 39.828ZM13.2731 36.1374H9.40714L8.2193 32.4604L7.03146 36.1374H3.16553L6.29315 38.4162L5.1053 42.0931L8.23292 39.8143L10.1591 38.4162L13.2731 36.1374Z" fill="white"/>
<path d="M23.8607 39.828L26.0566 39.2666L26.9747 42.1234L23.8607 39.828ZM28.9117 36.1374H25.0458L23.858 32.4604L22.6701 36.1374H18.8042L21.9318 38.4162L20.744 42.0931L23.8716 39.8143L25.7978 38.4162L28.9117 36.1374Z" fill="white"/>
<path d="M39.5013 39.828L41.6972 39.2666L42.6153 42.1234L39.5013 39.828ZM44.5524 36.1374H40.6864L39.4986 32.4604L38.3108 36.1374H34.4448L37.5724 38.4162L36.3846 42.0931L39.5122 39.8143L41.4384 38.4162L44.5524 36.1374Z" fill="white"/>
<path d="M55.1392 39.828L57.3351 39.2666L58.2532 42.1234L55.1392 39.828ZM60.193 36.1374H56.3271L55.1392 32.4604L53.9514 36.1374H50.0854L53.2131 38.4162L52.0252 42.0931L55.1528 39.8143L57.079 38.4162L60.193 36.1374Z" fill="white"/>
<path d="M70.7803 39.828L72.9762 39.2666L73.8943 42.1234L70.7803 39.828ZM75.8341 36.1374H71.9682L70.7803 32.4604L69.5925 36.1374H65.7266L68.8542 38.4162L67.6663 42.0931L70.794 39.8143L72.7201 38.4162L75.8341 36.1374Z" fill="white"/>
<path d="M86.28 42.9V41.71L89.71 35.2H91.11L87.68 41.71H91.39V39.19H91.46H92.65V41.71H94.12V42.9H92.65V45H91.39V42.9H86.28ZM95.0575 44.972C94.8988 44.8133 94.8195 44.6127 94.8195 44.37C94.8195 44.1273 94.8988 43.9267 95.0575 43.768C95.2161 43.6093 95.4168 43.53 95.6595 43.53C95.9021 43.53 96.1028 43.6093 96.2615 43.768C96.4201 43.9267 96.4995 44.1273 96.4995 44.37C96.4995 44.6127 96.4201 44.8133 96.2615 44.972C96.1028 45.1307 95.9021 45.21 95.6595 45.21C95.4168 45.21 95.2161 45.1307 95.0575 44.972ZM97.2689 36.39V35.2H103.779V36.39L99.7189 45H98.3889L102.449 36.404V36.39H97.2689Z" fill="black"/>
</g>
<defs>
<clipPath id="clip0_153_194">
<rect width="105" height="45" fill="white"/>
</clipPath>
</defs>
</svg>
