<svg width="463" height="500" viewBox="0 0 463 500" fill="none" xmlns="http://www.w3.org/2000/svg">
<g clip-path="url(#clip0_89_52)">
<path d="M462.767 375.343C458.64 376.987 454.876 379.341 450.986 381.44C395.537 411.37 340.101 441.329 284.664 471.284C267.571 480.519 250.478 489.759 233.385 499.002C232.842 499.294 232.341 499.666 231.82 499.995H230.985C224.905 496.661 218.845 493.297 212.744 490.001C172.139 468.041 131.53 446.095 90.9167 424.152C61.2329 408.115 31.5492 392.081 1.84454 376.086C0.534166 375.376 0 374.629 0 373.068C0.0459049 290.945 0.0417317 208.821 0 126.697C0 125.17 0.450702 124.372 1.79446 123.646C43.5929 101.12 85.3705 78.5511 127.144 55.9825C161.351 37.5079 195.551 19.0291 229.737 0.521122C230.881 -0.0965067 231.732 -0.217529 232.959 0.450179C279.231 25.5059 325.524 50.5157 371.821 75.5255C401.563 91.5922 431.314 107.655 461.064 123.709C461.603 123.997 462.078 124.468 462.771 124.368V375.343H462.767ZM459.015 249.931C459.015 209.701 459.007 169.472 459.053 129.247C459.053 127.661 458.631 126.81 457.187 126.033C442.373 118.113 427.604 110.104 412.827 102.117C352.975 69.7749 293.119 37.4328 233.289 5.04901C231.878 4.28532 230.851 4.3354 229.474 5.0824C201.343 20.3437 173.191 35.5591 145.034 50.7744C98.6162 75.8552 52.2022 100.94 5.75897 125.979C4.29002 126.772 3.75585 127.619 3.75585 129.309C3.80176 209.697 3.80176 290.085 3.75585 370.473C3.75585 372.067 4.18986 372.91 5.62543 373.682C23.1235 383.063 40.5841 392.515 58.0488 401.955C115.213 432.845 172.377 463.73 229.52 494.662C230.927 495.426 231.957 495.376 233.334 494.633C262.931 478.583 292.552 462.579 322.173 446.57C367.122 422.278 412.071 397.986 457.041 373.74C458.51 372.947 459.053 372.109 459.053 370.414C458.999 330.256 459.011 290.097 459.011 249.935L459.015 249.931Z" fill="#6D7B7F"/>
<path d="M459.015 249.931C459.015 290.09 459.003 330.248 459.057 370.411C459.057 372.105 458.514 372.948 457.045 373.737C412.071 397.983 367.126 422.279 322.177 446.567C292.556 462.575 262.939 478.579 233.338 494.629C231.965 495.376 230.935 495.422 229.524 494.658C172.381 463.727 115.217 432.841 58.0527 401.951C40.588 392.512 23.1275 383.06 5.62938 373.678C4.18963 372.906 3.75562 372.063 3.7598 370.469C3.80153 290.081 3.80153 209.694 3.7598 129.306C3.7598 127.616 4.28979 126.768 5.76292 125.976C52.2019 100.937 98.6201 75.8558 145.034 50.7709C173.19 35.5555 201.343 20.3401 229.474 5.07885C230.847 4.33186 231.878 4.28595 233.288 5.04547C293.119 37.4293 352.975 69.7672 412.826 102.113C427.608 110.101 442.372 118.109 457.187 126.03C458.631 126.802 459.053 127.657 459.053 129.243C459.007 169.473 459.015 209.702 459.015 249.927V249.931ZM12.6111 318.613C12.5902 334.384 12.5944 350.15 12.5151 365.92C12.5068 367.339 13.4123 367.627 14.2929 368.099C30.9939 377.054 47.6949 386.006 64.4001 394.957C119.281 424.361 174.171 453.753 229.032 483.203C230.768 484.134 232.053 484.134 233.785 483.203C287.051 454.6 340.343 426.052 393.634 397.495C411.929 387.692 430.229 377.901 448.52 368.099C449.4 367.627 450.306 367.339 450.297 365.92C450.218 350.15 450.222 334.384 450.201 318.613C450.222 318.129 450.26 317.645 450.26 317.157C450.26 272.287 450.26 227.421 450.26 182.551C450.26 182.067 450.222 181.583 450.201 181.095C450.222 165.604 450.206 150.113 450.31 134.622C450.322 132.945 449.713 132.206 448.353 131.48C425.634 119.353 402.944 107.171 380.246 95.0107C331.42 68.8532 282.586 42.7042 233.785 16.5008C232.057 15.5744 230.764 15.5744 229.027 16.505C175.765 45.1079 122.47 73.6607 69.1784 102.214C50.8832 112.016 32.5839 121.807 14.2929 131.609C13.4123 132.081 12.5068 132.369 12.5151 133.788C12.5944 149.558 12.5902 165.324 12.6111 181.095C12.5902 181.579 12.5527 182.063 12.5527 182.551C12.5527 227.421 12.5527 272.287 12.5527 317.157C12.5527 317.641 12.5902 318.125 12.6111 318.613Z" fill="#FCFCFC"/>
<path d="M450.201 181.099C450.222 181.583 450.26 182.067 450.26 182.555C450.26 227.425 450.26 272.291 450.26 317.161C450.26 317.645 450.222 318.129 450.201 318.617C444.225 318.63 438.254 318.705 432.278 318.609C430.571 318.58 430.212 319.147 430.22 320.737C430.279 332.689 430.22 344.637 430.291 356.589C430.3 358.07 429.786 358.867 428.547 359.502C425.83 360.896 423.143 362.348 420.463 363.817C403.792 372.956 387.128 382.12 370.452 391.255C357.974 398.091 345.472 404.881 332.994 411.721C313.584 422.362 294.188 433.033 274.782 443.687C261.887 450.765 248.929 457.746 236.118 464.97C233.163 466.635 230.889 466.627 227.93 464.97C211.4 455.714 194.766 446.642 178.153 437.54C164.093 429.836 150 422.195 135.941 414.492C116.527 403.854 97.1388 393.171 77.7252 382.533C63.6658 374.83 49.5855 367.159 35.501 359.506C34.2825 358.842 33.7525 358.074 33.7608 356.589C33.8318 344.637 33.7734 332.689 33.8318 320.737C33.8401 319.147 33.4812 318.584 31.7744 318.609C25.3853 318.701 18.992 318.63 12.6029 318.617C12.582 318.133 12.5444 317.649 12.5444 317.161C12.5444 272.291 12.5444 227.425 12.5444 182.555C12.5444 182.071 12.582 181.587 12.6029 181.099C18.992 181.086 25.3853 181.015 31.7744 181.107C33.4771 181.132 33.8401 180.573 33.8318 178.983C33.7734 167.031 33.8318 155.083 33.7567 143.131C33.7483 141.65 34.2616 140.849 35.4969 140.214C38.2136 138.82 40.9011 137.368 43.5803 135.899C60.2521 126.76 76.9156 117.596 93.5916 108.461C106.069 101.625 118.572 94.8352 131.05 87.9953C150.459 77.3538 169.856 66.683 189.261 56.0289C202.161 48.9512 215.114 41.9694 227.926 34.7457C230.881 33.0806 233.155 33.0889 236.114 34.7457C252.644 44.0018 269.278 53.0743 285.891 62.1759C299.951 69.8796 314.043 77.5207 328.103 85.2244C347.516 95.8618 366.905 106.545 386.319 117.182C400.378 124.886 414.458 132.556 428.543 140.21C429.761 140.874 430.291 141.641 430.283 143.127C430.212 155.075 430.27 167.027 430.212 178.979C430.204 180.569 430.563 181.132 432.269 181.107C438.241 181.011 444.217 181.086 450.193 181.099H450.201ZM232.041 306.139H39.0608C38.6434 306.139 38.222 306.185 37.813 306.131C36.6737 305.977 36.2814 306.361 36.2856 307.583C36.3273 323.633 36.3232 339.679 36.2898 355.729C36.2898 356.714 36.6361 357.194 37.4875 357.632C39.6492 358.734 41.7441 359.965 43.8766 361.133C106.003 395.157 168.129 429.177 230.238 463.23C231.548 463.948 232.504 463.965 233.818 463.238C251.742 453.36 269.699 443.541 287.648 433.709C333.833 408.415 380.013 383.122 426.214 357.862C427.428 357.198 427.792 356.464 427.787 355.12C427.737 339.558 427.716 323.996 427.804 308.435C427.817 306.515 427.299 306.098 425.438 306.102C360.971 306.152 296.508 306.144 232.041 306.144V306.139ZM232.053 193.572C296.587 193.572 361.121 193.564 425.659 193.614C427.395 193.614 427.804 193.205 427.796 191.473C427.721 175.911 427.729 160.35 427.792 144.788C427.796 143.269 427.366 142.48 426.018 141.746C405.912 130.795 385.843 119.782 365.762 108.786C321.71 84.6568 277.653 60.5317 233.618 36.3774C232.537 35.7848 231.719 35.6805 230.593 36.2981C166.413 71.4863 102.222 106.649 38.0049 141.762C36.6195 142.518 36.2731 143.348 36.2773 144.83C36.3315 160.321 36.3524 175.816 36.2564 191.306C36.2439 193.293 36.8573 193.606 38.656 193.606C103.123 193.56 167.586 193.568 232.053 193.568V193.572ZM118.714 251.725C118.668 254.325 119.215 257.802 120.429 261.165C127.49 280.746 153.752 286.471 169.443 271.853C170.742 270.642 170.776 269.436 169.543 268.235C168.55 267.266 167.553 266.302 166.547 265.347C164.527 263.431 164.569 263.485 162.449 265.297C156.047 270.763 148.744 272.232 140.874 269.382C133.349 266.661 129.414 260.835 128.634 253.007C127.415 240.792 135.837 231.39 147.208 231.043C153.264 230.86 158.559 232.675 162.925 236.902C164.068 238.008 164.798 238.083 165.896 236.856C167.236 235.367 168.759 234.027 170.286 232.721C171.229 231.915 171.092 231.456 170.24 230.651C168.216 228.723 166.05 226.999 163.596 225.677C144.17 215.227 118.944 226.386 118.71 251.73L118.714 251.725ZM306.49 249.197C306.49 257.251 306.465 265.305 306.511 273.355C306.519 275.062 305.731 277.328 306.87 278.321C307.834 279.16 310.037 278.613 311.69 278.617C316.577 278.634 316.535 278.622 316.589 273.68C316.652 267.922 316.188 262.146 316.814 256.412C317.386 251.191 321.868 247.953 327.41 248.362C331.834 248.687 333.979 251.584 334.008 257.263C334.008 257.681 334.008 258.098 334.008 258.511C334.008 264.621 334.033 270.73 333.987 276.84C333.979 278.062 334.1 278.743 335.619 278.655C338.039 278.517 340.476 278.588 342.905 278.634C343.781 278.651 344.119 278.409 344.111 277.474C344.036 269.562 344.215 261.641 343.898 253.737C343.623 246.885 339.583 241.96 333.265 240.074C328.145 238.542 323.083 238.851 318.304 241.309C316.76 242.102 316.539 241.877 316.556 240.253C316.622 234.006 316.539 227.755 316.614 221.508C316.631 220.13 316.239 219.726 314.886 219.797C312.808 219.909 310.713 219.943 308.643 219.788C306.953 219.663 306.432 220.105 306.448 221.9C306.553 230.993 306.494 240.091 306.494 249.184L306.49 249.197ZM232.783 259.233C232.783 253.328 232.738 247.423 232.817 241.522C232.834 240.137 232.429 239.748 231.085 239.815C228.936 239.924 226.774 239.945 224.629 239.811C223.106 239.715 222.63 240.107 222.655 241.722C222.76 248.041 222.709 254.363 222.697 260.681C222.68 267.692 217.101 272.182 210.148 270.851C207.69 270.38 206.025 269.002 204.99 266.778C204.243 265.171 204.018 263.46 204.018 261.708C204.018 256.775 204.03 251.846 204.014 246.914C204.005 244.631 203.939 242.353 203.901 240.07C201.506 239.586 199.077 240.011 196.673 239.828C195.488 239.736 195.15 240.137 195.158 241.33C195.212 248.692 195.071 256.057 195.221 263.415C195.396 271.907 199.945 277.783 207.519 279.656C212.239 280.825 216.733 280.149 221.053 277.971C221.503 277.745 222.38 276.89 222.555 277.653C222.897 279.16 223.895 278.567 224.633 278.592C226.782 278.667 228.944 278.538 231.089 278.647C232.437 278.718 232.842 278.321 232.821 276.94C232.742 271.039 232.788 265.134 232.788 259.229L232.783 259.233ZM285.537 238.618C284.773 238.618 284.009 238.58 283.245 238.622C270.154 239.36 261.082 250.832 263.794 263.31C265.589 271.556 270.793 276.794 278.801 278.968C287.26 281.263 295.022 279.665 301.708 273.722C302.525 272.996 302.179 272.671 301.574 272.132C299.967 270.701 298.336 269.286 296.858 267.73C295.832 266.649 295.126 266.628 293.975 267.609C290.023 270.96 285.486 271.51 280.683 269.858C276.047 268.264 273.046 263.832 273.142 258.962C273.238 253.933 276.239 249.923 281.13 248.466C285.824 247.068 290.215 247.703 294.071 250.849C295.118 251.705 295.807 251.838 296.8 250.757C298.11 249.33 299.571 248.024 301.057 246.78C302.192 245.829 302.43 245.261 301.073 244.155C296.52 240.458 291.379 238.58 285.537 238.622V238.618ZM254.042 263.16C254.042 258.511 254.092 253.862 254.008 249.213C253.983 247.824 254.254 247.285 255.794 247.302C257.685 247.323 260.293 248.262 261.295 246.885C262.225 245.603 261.528 243.141 261.545 241.201C261.545 241.13 261.537 241.059 261.545 240.992C261.679 240.061 261.236 239.799 260.356 239.836C258.899 239.895 257.434 239.748 255.986 239.878C254.471 240.016 253.933 239.611 253.996 237.975C254.133 234.511 253.987 231.035 254.067 227.567C254.092 226.382 253.737 226.031 252.56 226.065C249.785 226.144 247.006 226.173 244.235 226.056C242.849 225.998 242.649 226.545 242.678 227.738C242.753 230.722 242.703 233.706 242.703 236.69C242.703 238.796 241.664 239.849 239.586 239.849C237.508 239.849 236.461 240.902 236.448 243.008C236.448 247.344 236.448 247.419 240.687 247.314C242.282 247.277 242.762 247.657 242.745 249.326C242.653 258.553 242.728 267.784 242.674 277.015C242.666 278.275 242.954 278.701 244.272 278.655C247.043 278.551 249.823 278.559 252.598 278.655C253.837 278.697 254.075 278.242 254.062 277.111C254.004 272.462 254.037 267.813 254.037 263.164L254.042 263.16ZM186.507 249.23C186.507 240.061 186.465 230.889 186.549 221.72C186.566 220.13 186.132 219.721 184.592 219.805C182.096 219.938 179.588 219.938 177.093 219.805C175.557 219.721 175.114 220.126 175.131 221.725C175.215 230.964 175.173 240.203 175.173 249.443C175.173 258.682 175.219 267.646 175.131 276.744C175.114 278.35 175.569 278.738 177.097 278.659C179.592 278.53 182.1 278.526 184.596 278.659C186.14 278.743 186.561 278.321 186.549 276.739C186.465 267.571 186.507 258.398 186.507 249.23ZM285.082 266.16C289.334 266.177 292.677 263.102 292.639 259.212C292.602 255.435 289.255 252.331 285.203 252.314C280.979 252.297 277.649 255.389 277.687 259.3C277.724 263.164 280.934 266.144 285.082 266.16Z" fill="#18313B"/>
<path d="M12.6111 318.613C19.0044 318.626 25.3936 318.697 31.7827 318.605C33.4895 318.58 33.8484 319.143 33.84 320.733C33.7816 332.685 33.84 344.633 33.7691 356.585C33.7608 358.066 34.2907 358.838 35.5093 359.502C49.5938 367.16 63.674 374.826 77.7334 382.529C97.147 393.167 116.536 403.85 135.949 414.488C150.009 422.191 164.101 429.832 178.161 437.536C194.774 446.638 211.408 455.71 227.938 464.966C230.897 466.623 233.171 466.635 236.126 464.966C248.942 457.742 261.895 450.761 274.79 443.683C294.196 433.033 313.588 422.358 333.002 411.717C345.476 404.877 357.983 398.087 370.46 391.251C387.136 382.116 403.796 372.956 420.472 363.813C423.151 362.344 425.838 360.892 428.555 359.498C429.79 358.863 430.308 358.066 430.3 356.585C430.229 344.633 430.287 332.685 430.229 320.733C430.22 319.143 430.579 318.58 432.286 318.605C438.258 318.701 444.234 318.626 450.21 318.613C450.231 334.384 450.226 350.15 450.306 365.92C450.314 367.339 449.408 367.627 448.528 368.099C430.233 377.901 411.933 387.692 393.642 397.494C340.351 426.047 287.06 454.6 233.793 483.203C232.057 484.134 230.772 484.134 229.04 483.203C174.18 453.753 119.294 424.361 64.4085 394.957C47.7033 386.01 31.0023 377.054 14.3013 368.099C13.4207 367.627 12.5151 367.339 12.5235 365.92C12.6028 350.15 12.5986 334.384 12.6195 318.613H12.6111Z" fill="#6A787D"/>
<path d="M450.201 181.099C444.225 181.086 438.254 181.011 432.278 181.107C430.571 181.136 430.212 180.569 430.22 178.979C430.279 167.031 430.22 155.079 430.291 143.127C430.3 141.646 429.77 140.874 428.551 140.21C414.467 132.552 400.386 124.886 386.327 117.183C366.913 106.545 347.525 95.8619 328.111 85.2244C314.052 77.5208 299.959 69.8797 285.9 62.176C269.286 53.0743 252.652 44.0019 236.122 34.7458C233.163 33.089 230.889 33.0807 227.934 34.7458C215.118 41.9695 202.165 48.9513 189.27 56.0289C169.865 66.6831 150.468 77.3538 131.058 87.9954C118.585 94.8353 106.078 101.625 93.5999 108.461C76.9239 117.596 60.2646 126.756 43.5886 135.899C40.9094 137.368 38.2219 138.82 35.5052 140.214C34.2699 140.849 33.7566 141.65 33.765 143.131C33.8359 155.079 33.7775 167.031 33.8401 178.983C33.8484 180.573 33.4854 181.132 31.7827 181.107C25.3936 181.015 19.0003 181.086 12.6112 181.099C12.5903 165.328 12.5945 149.562 12.5152 133.792C12.5068 132.373 13.4124 132.085 14.293 131.613C32.5881 121.811 50.8875 112.02 69.1785 102.218C122.47 73.6648 175.761 45.1119 229.028 16.509C230.764 15.5784 232.053 15.5784 233.785 16.5049C282.586 42.7082 331.42 68.8531 380.247 95.0147C402.944 107.175 425.638 119.357 448.353 131.484C449.713 132.21 450.322 132.949 450.31 134.626C450.206 150.117 450.218 165.608 450.201 181.099Z" fill="#6A797D"/>
<path d="M232.041 306.14C296.508 306.14 360.971 306.148 425.438 306.098C427.299 306.098 427.812 306.515 427.804 308.431C427.716 323.992 427.737 339.554 427.787 355.116C427.792 356.46 427.429 357.194 426.214 357.858C380.013 383.114 333.829 408.412 287.648 433.705C269.699 443.537 251.742 453.357 233.818 463.234C232.5 463.961 231.548 463.944 230.238 463.226C168.133 429.169 106.003 395.153 43.8766 361.13C41.7483 359.965 39.6492 358.734 37.4875 357.628C36.6362 357.194 36.2898 356.714 36.2898 355.725C36.319 339.675 36.3274 323.629 36.2856 307.579C36.2856 306.361 36.6738 305.973 37.813 306.127C38.222 306.181 38.6435 306.135 39.0608 306.135C103.386 306.135 167.715 306.135 232.041 306.135V306.14ZM231.402 317.908C177.009 317.908 122.616 317.908 68.2229 317.937C67.3632 317.937 65.7733 317.34 65.7441 318.547C65.7065 320.128 67.3799 319.339 68.2313 319.339C177.017 319.385 285.799 319.381 394.586 319.352C395.445 319.352 397.035 319.949 397.065 318.743C397.102 317.161 395.429 317.95 394.577 317.95C340.184 317.904 285.791 317.908 231.398 317.908H231.402ZM213.253 360.266C213.111 360.287 212.969 360.312 212.827 360.332C212.448 359.694 212.06 359.06 211.692 358.413C209.272 354.127 206.806 349.862 204.46 345.534C203.517 343.798 202.019 344.529 200.784 344.575C199.494 344.62 200.124 345.893 200.116 346.582C200.058 352.345 200.099 358.108 200.066 363.871C200.062 364.856 200.195 365.382 201.397 365.369C202.582 365.357 203.05 364.99 202.92 363.813C202.845 363.124 202.829 362.427 202.829 361.735C202.82 357.687 202.829 353.643 202.829 349.595C203.509 349.929 203.809 350.354 204.068 350.805C206.53 355.149 209.097 359.439 211.392 363.871C212.377 365.774 213.879 365.432 215.277 365.261C216.717 365.086 216.016 363.709 216.024 362.899C216.087 357.274 216.012 351.648 216.091 346.027C216.112 344.645 215.582 344.449 214.392 344.462C213.015 344.479 213.257 345.372 213.253 346.165C213.245 350.864 213.249 355.558 213.249 360.257L213.253 360.266ZM224.128 354.761C224.128 357.745 224.128 360.729 224.128 363.713C224.128 363.784 224.133 363.85 224.128 363.921C224.074 364.769 224.174 365.39 225.314 365.353C227.738 365.273 230.179 365.428 232.596 365.265C236.097 365.027 238.326 363.183 239.131 359.857C239.941 356.51 239.915 353.1 239.156 349.741C238.53 346.982 236.748 345.309 233.923 344.767C231.164 344.237 228.385 344.654 225.622 344.474C224.404 344.395 224.082 344.867 224.108 346.014C224.17 348.927 224.128 351.844 224.128 354.757V354.761ZM226.878 404.668C226.891 402.861 226.808 401.067 226.403 399.297C225.668 396.076 223.732 394.294 220.756 394.131C217.297 393.943 214.927 395.437 214.013 398.738C212.865 402.882 212.844 407.11 213.921 411.279C214.684 414.241 216.675 415.677 219.663 415.76C222.764 415.844 224.896 414.467 225.94 411.637C226.77 409.392 226.883 407.039 226.874 404.672L226.878 404.668ZM266.319 404.985C266.24 403.27 266.236 401.25 265.772 399.285C264.963 395.875 263.056 394.227 259.909 394.131C256.508 394.022 254.346 395.425 253.407 398.763C252.218 402.97 252.201 407.268 253.378 411.491C254.179 414.362 256.103 415.681 259.054 415.765C262.117 415.848 264.107 414.554 265.238 411.821C266.11 409.718 266.081 407.485 266.319 404.99V404.985ZM273 365.123C270.78 358.513 268.56 351.911 266.344 345.305C265.923 344.049 264.863 344.57 264.045 344.508C263.243 344.445 262.446 344.324 262.067 345.463C259.984 351.711 257.818 357.929 255.703 364.163C255.569 364.556 255.214 365.248 256.02 365.278C257.092 365.315 258.286 365.803 258.891 364.118C260.314 360.161 260.397 360.195 264.537 360.195C264.817 360.195 265.101 360.241 265.368 360.186C267.575 359.74 268.748 360.679 269.027 362.87C269.324 365.182 270.684 365.799 273 365.123ZM239.715 415.364C241.451 415.364 243.187 415.306 244.919 415.385C246.046 415.435 246.325 414.988 246.338 413.933C246.35 412.764 245.691 412.764 244.869 412.777C242.511 412.806 240.145 412.747 237.791 412.852C236.084 412.927 236.105 412.147 236.652 410.97C237.299 409.593 238.513 408.758 239.673 407.877C241.33 406.621 243.171 405.599 244.602 404.063C247.219 401.25 246.822 396.539 243.713 395.07C240.629 393.613 237.495 393.897 234.561 395.667C234.065 395.967 233.092 396.288 233.86 397.202C234.403 397.849 234.866 398.751 235.993 397.782C237.09 396.839 238.517 396.706 239.932 396.756C242.849 396.856 244.11 398.934 242.878 401.609C242.428 402.59 241.656 403.274 240.804 403.884C239.394 404.889 237.967 405.874 236.564 406.893C234.332 408.508 233.226 410.682 233.147 413.457C233.109 414.822 233.347 415.527 234.929 415.393C236.514 415.256 238.121 415.364 239.715 415.364ZM200.279 415.364C202.015 415.364 203.755 415.31 205.487 415.385C206.614 415.435 206.876 414.976 206.897 413.928C206.922 412.739 206.251 412.768 205.437 412.777C203.075 412.806 200.713 412.76 198.355 412.848C196.853 412.902 196.69 412.288 197.22 411.099C197.971 409.421 199.469 408.499 200.85 407.468C202.461 406.267 204.239 405.273 205.541 403.696C207.778 400.987 207.285 396.522 204.444 395.133C201.293 393.588 198.104 393.897 195.108 395.713C194.599 396.021 193.673 396.426 194.532 397.278C195.058 397.795 195.471 398.746 196.535 397.841C197.637 396.906 199.035 396.71 200.462 396.756C201.752 396.798 203.029 396.956 203.63 398.3C204.206 399.589 204.005 400.883 203.258 402.072C202.733 402.911 201.969 403.521 201.18 404.092C199.72 405.148 198.238 406.179 196.794 407.256C194.461 408.996 193.685 411.383 193.852 414.212C193.906 415.122 194.182 415.414 195.075 415.385C196.811 415.331 198.547 415.368 200.283 415.368L200.279 415.364ZM189.107 354.707C189.107 357.687 189.141 360.666 189.09 363.642C189.07 364.773 189.199 365.42 190.622 365.39C191.92 365.365 192.07 364.806 192.062 363.746C192.028 357.858 192.028 351.969 192.062 346.085C192.066 345.029 191.924 344.466 190.622 344.441C189.199 344.412 189.065 345.054 189.086 346.19C189.141 349.027 189.103 351.869 189.103 354.707H189.107ZM249.731 354.907C249.731 351.928 249.702 348.944 249.747 345.964C249.76 344.963 249.564 344.449 248.387 344.454C247.231 344.454 246.814 344.771 246.826 345.981C246.881 351.944 246.864 357.904 246.835 363.867C246.83 364.869 247.018 365.382 248.191 365.378C249.347 365.378 249.781 365.065 249.752 363.85C249.677 360.871 249.727 357.891 249.727 354.907H249.731Z" fill="#FDFDFD"/>
<path d="M232.053 193.573C167.586 193.573 103.123 193.564 38.6561 193.61C36.8575 193.61 36.244 193.297 36.2565 191.311C36.3525 175.82 36.3317 160.325 36.2774 144.834C36.2732 143.353 36.6196 142.522 38.0051 141.767C102.222 106.65 166.414 71.4865 230.593 36.3025C231.719 35.6849 232.537 35.7892 233.618 36.3818C277.658 60.5361 321.71 84.6612 365.762 108.79C385.839 119.787 405.912 130.804 426.018 141.75C427.366 142.485 427.8 143.269 427.792 144.792C427.729 160.354 427.721 175.916 427.796 191.478C427.804 193.21 427.391 193.619 425.659 193.619C361.125 193.568 296.591 193.577 232.053 193.577V193.573ZM231.194 181.804C285.654 181.804 340.118 181.808 394.577 181.763C395.429 181.763 397.102 182.551 397.065 180.97C397.035 179.764 395.445 180.36 394.586 180.36C285.8 180.331 177.018 180.331 68.2314 180.373C67.38 180.373 65.7066 179.584 65.7442 181.166C65.7734 182.372 67.3633 181.775 68.223 181.775C122.545 181.808 176.867 181.804 231.194 181.804ZM221.37 140.753C221.524 140.715 221.679 140.678 221.833 140.636C222.522 141.834 223.21 143.031 223.891 144.233C225.944 147.856 228.114 151.415 229.996 155.125C230.998 157.095 232.575 156.511 233.935 156.381C235.254 156.252 234.607 154.908 234.616 154.132C234.674 148.436 234.624 142.739 234.666 137.043C234.674 135.962 234.328 135.586 233.234 135.599C232.199 135.607 231.719 135.845 231.765 136.989C231.845 138.929 231.786 140.878 231.786 142.823C231.786 145.744 231.786 148.669 231.786 152.212C231.006 150.885 230.547 150.126 230.113 149.358C227.755 145.189 225.322 141.062 223.085 136.83C222.104 134.977 220.581 135.641 219.279 135.699C217.856 135.762 218.524 137.11 218.516 137.861C218.453 143.349 218.474 148.836 218.491 154.328C218.491 155.359 218.065 156.557 219.989 156.527C221.796 156.498 221.353 155.371 221.357 154.428C221.378 149.871 221.366 145.314 221.366 140.757L221.37 140.753ZM220.832 96.296C220.953 97.6064 220.974 98.9335 221.22 100.223C222.096 104.826 224.613 106.837 229.349 106.837C234.048 106.837 236.798 104.609 237.708 100.102C238.234 97.4854 238.263 94.8563 237.821 92.2397C236.978 87.2319 234.465 85.1578 229.428 85.2079C224.871 85.2538 222.263 87.4447 221.282 91.9476C220.969 93.3915 220.949 94.8354 220.836 96.3002L220.832 96.296ZM192.133 150.718C192.133 149.333 192.108 147.943 192.141 146.558C192.162 145.711 191.895 145.268 190.964 145.289C189.299 145.331 187.634 145.327 185.973 145.289C185.088 145.268 184.796 145.598 184.746 146.495C184.629 148.527 186.115 147.847 187.025 147.826C188.515 147.793 189.441 147.847 189.378 149.85C189.241 154.324 188.919 154.725 184.367 154.266C181.637 153.99 180.302 152.972 179.889 150.468C179.413 147.584 179.4 144.655 179.893 141.771C180.31 139.334 181.646 138.228 184.145 137.957C185.986 137.756 187.78 137.973 189.316 139.058C190.451 139.86 190.743 138.879 191.261 138.332C191.811 137.756 191.665 137.318 191.052 136.818C186.587 133.141 178.32 135.72 176.988 141.287C176.22 144.496 176.212 147.768 176.917 150.99C177.61 154.149 179.613 156.047 182.864 156.573C184.383 156.82 185.898 156.861 187.421 156.694C190.559 156.349 192.129 154.637 192.129 151.557C192.129 151.282 192.129 151.002 192.129 150.727L192.133 150.718ZM171.63 156.239C169.41 149.625 167.202 143.006 164.97 136.4C164.556 135.182 163.463 135.695 162.637 135.645C161.923 135.599 161.126 135.403 160.771 136.45C158.643 142.752 156.465 149.041 154.324 155.338C154.207 155.684 153.932 156.11 154.445 156.423C155.313 156.953 157.091 156.269 157.491 155.238C158.504 152.628 160.403 151.323 163.188 151.323C163.467 151.323 163.751 151.369 164.018 151.315C166.226 150.881 167.386 151.787 167.67 154.007C167.962 156.306 169.314 156.978 171.63 156.231V156.239ZM274.027 145.877C274.027 148.932 274.065 151.991 274.006 155.046C273.985 156.118 274.323 156.515 275.429 156.494C278.413 156.436 281.401 156.436 284.389 156.494C285.487 156.515 285.603 155.977 285.624 155.083C285.641 154.124 285.207 153.882 284.364 153.923C283.6 153.961 282.837 153.932 282.073 153.932C276.765 153.932 276.811 153.932 276.965 148.665C277.003 147.43 277.432 147.138 278.555 147.184C280.22 147.255 281.889 147.154 283.554 147.217C284.606 147.255 284.827 146.783 284.831 145.844C284.84 144.872 284.543 144.421 283.525 144.504C282.837 144.559 282.136 144.513 281.443 144.513C276.836 144.513 276.873 144.513 276.973 139.881C276.998 138.67 277.27 138.111 278.609 138.195C280.408 138.303 282.219 138.203 284.026 138.228C284.919 138.241 285.616 138.274 285.591 136.98C285.57 135.828 285.132 135.586 284.101 135.607C281.255 135.657 278.405 135.674 275.559 135.603C274.386 135.574 273.973 135.933 274.002 137.13C274.073 140.048 274.027 142.965 274.027 145.882V145.877ZM245.27 95.9663C245.27 98.9543 245.316 101.942 245.249 104.926C245.224 106.107 245.604 106.483 246.789 106.479C247.949 106.479 248.233 105.999 248.153 104.98C248.099 104.292 248.145 103.591 248.145 102.898C248.145 100.133 249.492 98.722 252.185 98.6664C252.531 98.658 252.877 98.6455 253.224 98.6163C257.067 98.32 258.878 96.2292 258.883 92.0811C258.887 87.9998 257.005 85.8297 253.149 85.6336C250.999 85.5251 248.842 85.6503 246.693 85.5793C245.608 85.5418 245.236 85.9132 245.257 87.0065C245.316 89.9904 245.278 92.9784 245.278 95.9663H245.27ZM296.871 156.79C301.353 156.803 303.932 155.075 304.545 152.037C305.171 148.928 303.715 146.624 300.068 145.005C298.991 144.525 297.885 144.112 296.817 143.62C295.227 142.889 294.158 141.809 294.672 139.876C295.181 137.961 296.737 137.852 298.319 137.861C299.584 137.865 300.802 138.145 301.925 138.737C303.051 139.338 303.16 138.261 303.594 137.752C304.228 137.014 303.702 136.671 303.072 136.379C300.139 135.011 297.163 134.756 294.271 136.354C290.832 138.257 290.569 142.86 293.733 145.218C294.609 145.873 295.657 146.311 296.65 146.791C297.585 147.242 298.578 147.58 299.508 148.039C301.199 148.874 302.025 150.176 301.503 152.112C300.994 153.994 299.467 154.203 297.889 154.228C296.412 154.253 294.947 154.032 293.72 153.168C292.447 152.271 292.197 153.443 291.705 154.057C290.974 154.979 291.897 155.263 292.435 155.58C293.971 156.481 295.673 156.765 296.871 156.794V156.79ZM199.778 145.898C199.778 148.886 199.841 151.874 199.749 154.862C199.711 156.164 200.137 156.532 201.406 156.494C204.323 156.411 207.24 156.427 210.157 156.49C211.196 156.511 211.421 156.118 211.438 155.159C211.459 154.09 211.008 153.852 210.073 153.923C209.314 153.982 208.546 153.936 207.782 153.936C202.374 153.936 202.403 153.936 202.674 148.494C202.724 147.505 202.987 147.146 203.989 147.179C205.792 147.238 207.603 147.163 209.406 147.209C210.344 147.23 210.578 146.8 210.574 145.944C210.574 145.068 210.478 144.425 209.368 144.513C208.675 144.567 207.978 144.521 207.286 144.521C202.474 144.521 202.511 144.521 202.674 139.63C202.712 138.566 202.97 138.145 204.085 138.195C205.958 138.274 207.836 138.203 209.71 138.22C210.578 138.228 211.342 138.312 211.321 136.989C211.304 135.837 210.845 135.595 209.823 135.611C206.977 135.662 204.126 135.678 201.28 135.603C200.087 135.574 199.72 135.966 199.749 137.147C199.82 140.064 199.774 142.981 199.774 145.902L199.778 145.898ZM241.86 146.074C241.814 147.534 241.873 148.986 242.173 150.426C242.757 153.226 243.943 155.605 246.922 156.448C250.044 157.333 252.932 156.824 255.515 154.704C256.775 153.669 256.22 153.051 255.281 152.317C254.384 151.616 254.063 152.542 253.579 152.897C249.56 155.839 245.695 154.186 245.082 149.27C244.815 147.121 244.832 144.989 245.094 142.844C245.654 138.241 249.33 136.304 253.316 138.779C254.668 139.618 255.177 139.109 255.749 138.211C256.491 137.043 255.239 136.784 254.668 136.425C249.614 133.258 243.413 135.929 242.211 141.738C241.915 143.173 241.793 144.621 241.856 146.086L241.86 146.074ZM206.501 97.1223C206.501 99.7598 206.543 102.397 206.48 105.035C206.455 106.128 206.835 106.462 207.916 106.47C209.055 106.483 209.506 106.199 209.485 104.968C209.414 101.154 209.418 97.3351 209.476 93.5167C209.506 91.8057 208.738 89.669 209.84 88.4964C210.783 87.4906 212.873 88.246 214.455 88.1876C215.281 88.1583 215.928 88.175 215.92 87.0149C215.912 85.9466 215.598 85.5543 214.488 85.571C210.115 85.6211 205.746 85.6211 201.372 85.571C200.321 85.5585 200.12 85.9632 200.099 86.9106C200.078 87.9163 200.4 88.2668 201.397 88.1917C202.432 88.1166 203.492 88.2877 204.515 88.15C206.255 87.9121 206.609 88.6883 206.53 90.2491C206.413 92.5318 206.501 94.8271 206.501 97.1181V97.1223ZM266.048 146.04C266.048 143.061 266.023 140.077 266.065 137.097C266.077 136.112 265.919 135.57 264.725 135.582C263.577 135.595 263.143 135.891 263.156 137.105C263.21 143.065 263.21 149.028 263.156 154.992C263.143 156.219 263.602 156.49 264.733 156.507C265.935 156.523 266.077 155.96 266.065 154.983C266.027 152.004 266.052 149.02 266.052 146.04H266.048Z" fill="#FDFDFD"/>
<path d="M118.714 251.726C118.948 226.378 144.175 215.219 163.601 225.672C166.055 226.995 168.221 228.719 170.245 230.647C171.092 231.456 171.234 231.911 170.291 232.717C168.763 234.023 167.24 235.358 165.9 236.852C164.799 238.079 164.073 238.004 162.929 236.898C158.564 232.671 153.268 230.856 147.213 231.039C135.841 231.386 127.42 240.788 128.638 253.003C129.419 260.831 133.354 266.657 140.878 269.378C148.749 272.228 156.052 270.759 162.453 265.293C164.573 263.481 164.532 263.427 166.551 265.343C167.557 266.298 168.555 267.262 169.548 268.23C170.78 269.432 170.747 270.638 169.448 271.849C153.756 286.467 127.495 280.742 120.434 261.161C119.219 257.793 118.673 254.321 118.719 251.721L118.714 251.726Z" fill="#FAFAFB"/>
<path d="M306.49 249.197C306.49 240.103 306.544 231.006 306.444 221.912C306.423 220.118 306.949 219.676 308.639 219.801C310.709 219.955 312.808 219.918 314.882 219.809C316.239 219.738 316.627 220.143 316.61 221.52C316.535 227.767 316.618 234.019 316.552 240.266C316.535 241.885 316.752 242.115 318.3 241.322C323.078 238.868 328.14 238.559 333.261 240.087C339.579 241.973 343.619 246.897 343.894 253.749C344.211 261.653 344.032 269.574 344.107 277.486C344.115 278.421 343.777 278.663 342.901 278.647C340.472 278.601 338.035 278.53 335.615 278.668C334.096 278.755 333.975 278.075 333.983 276.852C334.029 270.743 334.004 264.633 334.004 258.524C334.004 258.106 334.004 257.689 334.004 257.276C333.975 251.592 331.83 248.7 327.406 248.374C321.864 247.965 317.382 251.204 316.81 256.425C316.184 262.154 316.648 267.934 316.585 273.693C316.531 278.634 316.572 278.647 311.686 278.63C310.033 278.626 307.83 279.172 306.866 278.334C305.726 277.34 306.515 275.074 306.507 273.368C306.461 265.313 306.486 257.259 306.486 249.209L306.49 249.197Z" fill="#FBFCFC"/>
<path d="M232.783 259.233C232.783 265.138 232.738 271.043 232.817 276.944C232.833 278.325 232.433 278.718 231.085 278.651C228.936 278.542 226.778 278.672 224.629 278.597C223.895 278.572 222.897 279.16 222.551 277.658C222.376 276.894 221.499 277.745 221.048 277.975C216.729 280.153 212.235 280.829 207.515 279.661C199.945 277.787 195.392 271.911 195.217 263.419C195.066 256.061 195.208 248.696 195.154 241.334C195.146 240.145 195.479 239.744 196.669 239.832C199.073 240.016 201.497 239.59 203.897 240.074C203.938 242.357 204.005 244.635 204.009 246.918C204.026 251.851 204.018 256.779 204.014 261.712C204.014 263.465 204.235 265.176 204.986 266.782C206.021 269.007 207.686 270.384 210.144 270.855C217.096 272.187 222.676 267.696 222.693 260.685C222.705 254.363 222.759 248.045 222.651 241.727C222.626 240.112 223.102 239.724 224.625 239.815C226.77 239.949 228.932 239.928 231.081 239.819C232.429 239.753 232.833 240.141 232.813 241.526C232.733 247.427 232.779 253.332 232.779 259.237L232.783 259.233Z" fill="#FBFCFC"/>
<path d="M285.537 238.618C291.379 238.576 296.52 240.458 301.073 244.151C302.43 245.253 302.192 245.825 301.057 246.776C299.567 248.024 298.11 249.326 296.8 250.753C295.807 251.834 295.118 251.7 294.071 250.845C290.215 247.698 285.82 247.064 281.13 248.462C276.243 249.919 273.242 253.929 273.142 258.958C273.046 263.828 276.047 268.264 280.683 269.854C285.491 271.506 290.023 270.955 293.975 267.604C295.126 266.628 295.832 266.649 296.858 267.725C298.336 269.282 299.967 270.697 301.574 272.128C302.179 272.667 302.525 272.992 301.708 273.718C295.018 279.661 287.26 281.259 278.801 278.964C270.789 276.79 265.585 271.552 263.794 263.306C261.082 250.828 270.154 239.356 283.245 238.618C284.005 238.576 284.773 238.613 285.537 238.613V238.618Z" fill="#FAFAFB"/>
<path d="M254.042 263.16C254.042 267.809 254.008 272.458 254.067 277.107C254.079 278.238 253.845 278.693 252.602 278.651C249.831 278.559 247.047 278.551 244.276 278.651C242.958 278.701 242.67 278.275 242.678 277.011C242.732 267.78 242.661 258.553 242.749 249.322C242.766 247.653 242.286 247.273 240.692 247.31C236.456 247.411 236.452 247.335 236.452 243.004C236.452 240.898 237.498 239.845 239.59 239.845C241.682 239.845 242.721 238.792 242.707 236.686C242.707 233.702 242.757 230.718 242.682 227.734C242.653 226.541 242.849 225.994 244.239 226.052C247.01 226.169 249.789 226.144 252.564 226.061C253.741 226.027 254.096 226.378 254.071 227.563C253.996 231.031 254.142 234.507 254 237.971C253.933 239.603 254.476 240.012 255.99 239.874C257.434 239.744 258.903 239.886 260.36 239.832C261.236 239.799 261.683 240.057 261.549 240.988C261.541 241.055 261.549 241.126 261.549 241.197C261.532 243.137 262.229 245.604 261.299 246.881C260.297 248.258 257.689 247.319 255.798 247.298C254.259 247.281 253.987 247.82 254.012 249.209C254.096 253.858 254.046 258.507 254.042 263.156V263.16Z" fill="#FCFCFC"/>
<path d="M186.507 249.23C186.507 258.398 186.466 267.571 186.549 276.74C186.562 278.325 186.144 278.747 184.596 278.659C182.105 278.521 179.592 278.526 177.097 278.659C175.565 278.738 175.115 278.35 175.131 276.744C175.219 267.642 175.173 258.544 175.173 249.443C175.173 240.341 175.215 230.964 175.131 221.725C175.115 220.126 175.557 219.722 177.093 219.805C179.588 219.939 182.096 219.939 184.592 219.805C186.128 219.722 186.562 220.13 186.549 221.72C186.466 230.889 186.507 240.062 186.507 249.23Z" fill="#FCFCFC"/>
<path d="M285.082 266.161C280.934 266.144 277.724 263.168 277.687 259.3C277.649 255.39 280.979 252.293 285.203 252.314C289.255 252.331 292.602 255.436 292.639 259.212C292.681 263.098 289.334 266.173 285.082 266.161Z" fill="#F93D2E"/>
<path d="M231.402 317.908C285.795 317.908 340.188 317.904 394.581 317.95C395.433 317.95 397.106 317.161 397.069 318.742C397.039 319.949 395.449 319.352 394.59 319.352C285.804 319.381 177.022 319.385 68.2354 319.339C67.3841 319.339 65.7106 320.128 65.7482 318.546C65.7774 317.34 67.3674 317.937 68.227 317.937C122.62 317.904 177.013 317.908 231.406 317.908H231.402Z" fill="#51646B"/>
<path d="M213.253 360.266C213.253 355.567 213.249 350.872 213.257 346.173C213.257 345.38 213.015 344.487 214.397 344.47C215.586 344.453 216.116 344.654 216.095 346.035C216.016 351.661 216.095 357.286 216.028 362.907C216.02 363.717 216.717 365.09 215.281 365.269C213.879 365.44 212.381 365.783 211.396 363.88C209.101 359.448 206.534 355.158 204.072 350.813C203.818 350.363 203.517 349.933 202.833 349.603C202.833 353.651 202.833 357.695 202.833 361.743C202.833 362.436 202.85 363.133 202.925 363.821C203.054 364.998 202.587 365.365 201.401 365.378C200.2 365.39 200.066 364.864 200.07 363.88C200.099 358.116 200.062 352.353 200.12 346.59C200.129 345.906 199.499 344.629 200.788 344.583C202.019 344.541 203.521 343.807 204.465 345.543C206.814 349.87 209.276 354.135 211.697 358.421C212.064 359.068 212.452 359.702 212.832 360.341C212.974 360.32 213.116 360.295 213.257 360.274L213.253 360.266Z" fill="#1F3842"/>
<path d="M224.129 354.761C224.129 351.844 224.17 348.931 224.108 346.018C224.083 344.867 224.404 344.395 225.623 344.479C228.385 344.662 231.169 344.241 233.923 344.771C236.748 345.313 238.53 346.987 239.156 349.745C239.916 353.1 239.945 356.51 239.131 359.861C238.326 363.187 236.093 365.031 232.596 365.269C230.176 365.432 227.738 365.282 225.314 365.357C224.175 365.395 224.074 364.773 224.129 363.926C224.133 363.855 224.129 363.788 224.129 363.717C224.129 360.733 224.129 357.749 224.129 354.765V354.761ZM227.054 354.866V358.813C227.054 361.618 228.463 362.942 231.281 362.786C234.424 362.611 235.997 361.313 236.364 358.392C236.661 356.051 236.652 353.685 236.348 351.343C236.001 348.698 234.724 347.387 232.258 347.133C230.885 346.991 229.491 347.116 228.106 347.066C227.067 347.028 227.046 347.684 227.05 348.422C227.058 350.567 227.05 352.716 227.05 354.861L227.054 354.866Z" fill="#243C45"/>
<path d="M226.878 404.668C226.887 407.034 226.774 409.388 225.944 411.633C224.896 414.463 222.764 415.84 219.667 415.756C216.679 415.677 214.689 414.237 213.925 411.274C212.848 407.109 212.873 402.878 214.017 398.734C214.931 395.437 217.301 393.939 220.761 394.127C223.736 394.29 225.672 396.071 226.407 399.293C226.812 401.063 226.891 402.861 226.883 404.664L226.878 404.668ZM216.103 405.449C216.266 406.842 216.383 408.574 216.688 410.269C216.996 411.996 217.969 413.19 219.893 413.223C221.8 413.257 222.856 412.13 223.273 410.431C224.187 406.742 224.199 403.016 223.352 399.314C222.997 397.762 222.025 396.731 220.31 396.672C218.532 396.61 217.48 397.574 216.892 399.164C216.183 401.092 216.387 403.137 216.099 405.453L216.103 405.449Z" fill="#243C45"/>
<path d="M266.319 404.985C266.081 407.481 266.106 409.714 265.238 411.817C264.107 414.55 262.117 415.844 259.054 415.76C256.103 415.681 254.179 414.362 253.378 411.487C252.201 407.268 252.218 402.97 253.407 398.759C254.346 395.425 256.512 394.022 259.909 394.127C263.056 394.227 264.963 395.875 265.772 399.281C266.24 401.246 266.24 403.266 266.319 404.981V404.985ZM263.285 404.873C263.248 403.141 263.264 401.405 262.851 399.706C262.442 398.029 261.629 396.739 259.688 396.668C257.681 396.593 256.587 397.787 256.166 399.56C255.306 403.183 255.298 406.851 256.095 410.49C256.454 412.121 257.451 413.198 259.279 413.227C261.086 413.252 262.092 412.205 262.618 410.632C263.244 408.766 263.227 406.813 263.285 404.873Z" fill="#243C45"/>
<path d="M273 365.123C270.684 365.803 269.324 365.186 269.027 362.87C268.748 360.679 267.575 359.744 265.368 360.186C265.1 360.241 264.813 360.195 264.537 360.195C260.401 360.195 260.314 360.165 258.891 364.117C258.286 365.799 257.092 365.315 256.02 365.278C255.214 365.248 255.569 364.556 255.702 364.163C257.818 357.929 259.98 351.711 262.067 345.463C262.446 344.324 263.243 344.445 264.045 344.508C264.863 344.57 265.918 344.049 266.344 345.305C268.56 351.911 270.78 358.513 273 365.123ZM264.187 347.729C263.465 349.904 262.947 351.477 262.43 353.046C261.322 356.387 262.538 357.956 266.077 357.753C266.144 357.753 266.215 357.745 266.286 357.753C267.137 357.841 267.417 357.486 267.145 356.668C266.215 353.872 265.292 351.072 264.191 347.729H264.187Z" fill="#243C45"/>
<path d="M239.715 415.364C238.117 415.364 236.514 415.26 234.929 415.393C233.347 415.531 233.109 414.821 233.147 413.457C233.226 410.677 234.332 408.507 236.564 406.892C237.971 405.878 239.394 404.889 240.804 403.883C241.66 403.274 242.428 402.59 242.878 401.609C244.11 398.93 242.853 396.852 239.932 396.756C238.517 396.71 237.09 396.839 235.993 397.782C234.866 398.75 234.407 397.849 233.86 397.202C233.088 396.288 234.065 395.967 234.561 395.667C237.495 393.897 240.629 393.613 243.713 395.07C246.822 396.539 247.219 401.25 244.602 404.063C243.171 405.603 241.33 406.621 239.673 407.877C238.513 408.758 237.299 409.592 236.652 410.97C236.101 412.142 236.085 412.927 237.791 412.852C240.149 412.747 242.511 412.806 244.869 412.777C245.691 412.764 246.351 412.764 246.338 413.932C246.325 414.988 246.046 415.435 244.919 415.385C243.187 415.305 241.447 415.364 239.715 415.364Z" fill="#243C45"/>
<path d="M200.279 415.364C198.543 415.364 196.803 415.326 195.071 415.381C194.178 415.41 193.902 415.118 193.848 414.208C193.681 411.378 194.457 408.987 196.79 407.251C198.234 406.175 199.715 405.144 201.176 404.088C201.965 403.516 202.728 402.903 203.254 402.068C204.005 400.879 204.206 399.585 203.626 398.296C203.025 396.952 201.748 396.793 200.458 396.751C199.035 396.706 197.633 396.902 196.531 397.837C195.467 398.738 195.054 397.791 194.528 397.273C193.673 396.426 194.595 396.017 195.104 395.708C198.1 393.893 201.293 393.588 204.439 395.128C207.281 396.522 207.77 400.987 205.537 403.691C204.235 405.269 202.457 406.262 200.846 407.464C199.461 408.495 197.963 409.421 197.216 411.095C196.686 412.28 196.853 412.898 198.351 412.843C200.709 412.756 203.071 412.802 205.433 412.772C206.246 412.764 206.918 412.735 206.893 413.924C206.872 414.972 206.609 415.431 205.483 415.381C203.751 415.305 202.011 415.36 200.275 415.36L200.279 415.364Z" fill="#243C45"/>
<path d="M189.107 354.707C189.107 351.869 189.145 349.027 189.091 346.189C189.07 345.054 189.203 344.412 190.626 344.441C191.928 344.466 192.07 345.029 192.066 346.085C192.037 351.973 192.033 357.862 192.066 363.746C192.07 364.806 191.924 365.361 190.626 365.39C189.203 365.419 189.074 364.773 189.095 363.642C189.145 360.666 189.112 357.687 189.112 354.707H189.107Z" fill="#273F48"/>
<path d="M249.731 354.907C249.731 357.887 249.681 360.871 249.756 363.85C249.785 365.06 249.347 365.373 248.195 365.378C247.022 365.378 246.83 364.868 246.839 363.867C246.868 357.903 246.885 351.944 246.83 345.981C246.818 344.771 247.239 344.458 248.391 344.453C249.564 344.453 249.764 344.962 249.752 345.964C249.71 348.944 249.735 351.928 249.735 354.907H249.731Z" fill="#273F48"/>
<path d="M231.194 181.804C176.872 181.804 122.549 181.804 68.2231 181.775C67.3635 181.775 65.7735 182.372 65.7443 181.166C65.7067 179.584 67.3802 180.373 68.2315 180.373C177.018 180.327 285.8 180.331 394.586 180.36C395.446 180.36 397.036 179.763 397.065 180.969C397.102 182.551 395.429 181.762 394.578 181.762C340.118 181.808 285.654 181.804 231.194 181.804Z" fill="#51646B"/>
<path d="M221.37 140.753C221.37 145.31 221.383 149.867 221.362 154.424C221.358 155.371 221.8 156.494 219.993 156.523C218.069 156.556 218.499 155.354 218.495 154.324C218.478 148.836 218.462 143.344 218.52 137.856C218.528 137.105 217.856 135.761 219.284 135.695C220.586 135.636 222.113 134.969 223.09 136.826C225.322 141.057 227.759 145.184 230.117 149.353C230.551 150.121 231.01 150.881 231.791 152.208C231.791 148.665 231.791 145.744 231.791 142.818C231.791 140.874 231.849 138.925 231.77 136.984C231.724 135.841 232.204 135.603 233.239 135.595C234.332 135.586 234.678 135.958 234.67 137.038C234.633 142.735 234.678 148.431 234.62 154.128C234.612 154.904 235.259 156.248 233.94 156.377C232.579 156.51 231.002 157.091 230 155.121C228.118 151.411 225.948 147.851 223.895 144.229C223.215 143.027 222.522 141.829 221.838 140.632C221.683 140.669 221.529 140.707 221.374 140.748L221.37 140.753Z" fill="#243C45"/>
<path d="M220.832 96.296C220.949 94.8312 220.965 93.3873 221.278 91.9433C222.259 87.4405 224.871 85.2537 229.424 85.2037C234.461 85.1494 236.974 87.2277 237.817 92.2355C238.259 94.852 238.23 97.4811 237.704 100.098C236.798 104.605 234.044 106.833 229.345 106.833C224.609 106.833 222.092 104.822 221.216 100.219C220.97 98.9334 220.953 97.6022 220.828 96.2918L220.832 96.296ZM235.029 95.8536C234.929 94.7143 234.895 93.2495 234.653 91.8181C234.173 88.9846 232.513 87.6825 229.575 87.6825C226.662 87.6825 224.93 89.0054 224.396 91.7639C223.824 94.7185 223.828 97.6981 224.408 100.657C224.7 102.147 225.401 103.361 226.941 103.954C230.918 105.489 234.315 103.482 234.77 99.2714C234.883 98.2365 234.929 97.1974 235.033 95.8494L235.029 95.8536Z" fill="#243C45"/>
<path d="M192.133 150.718C192.133 150.994 192.133 151.273 192.133 151.549C192.133 154.628 190.564 156.341 187.426 156.686C185.898 156.853 184.383 156.811 182.868 156.565C179.622 156.035 177.614 154.14 176.922 150.981C176.216 147.764 176.225 144.488 176.993 141.278C178.324 135.716 186.591 133.132 191.056 136.809C191.67 137.314 191.816 137.748 191.265 138.324C190.743 138.871 190.455 139.851 189.32 139.05C187.784 137.965 185.986 137.748 184.15 137.948C181.646 138.224 180.314 139.325 179.897 141.763C179.401 144.646 179.413 147.576 179.893 150.459C180.306 152.963 181.641 153.982 184.371 154.257C188.924 154.716 189.245 154.32 189.383 149.842C189.445 147.839 188.519 147.784 187.029 147.818C186.119 147.839 184.634 148.519 184.751 146.487C184.801 145.589 185.097 145.26 185.977 145.281C187.643 145.318 189.308 145.322 190.969 145.281C191.903 145.26 192.166 145.698 192.145 146.549C192.112 147.935 192.137 149.324 192.137 150.71L192.133 150.718Z" fill="#273F48"/>
<path d="M171.63 156.239C169.314 156.986 167.962 156.314 167.669 154.015C167.39 151.795 166.226 150.889 164.018 151.323C163.751 151.377 163.463 151.332 163.187 151.332C160.405 151.332 158.507 152.636 157.491 155.246C157.091 156.277 155.313 156.961 154.445 156.431C153.931 156.114 154.207 155.688 154.324 155.346C156.469 149.049 158.643 142.76 160.771 136.458C161.126 135.411 161.923 135.607 162.637 135.653C163.463 135.703 164.556 135.19 164.969 136.408C167.202 143.014 169.414 149.633 171.63 156.248V156.239ZM162.837 138.858C161.764 142.084 160.821 144.963 159.849 147.834C159.548 148.723 159.932 148.915 160.729 148.894C162.115 148.861 163.5 148.84 164.882 148.899C165.917 148.945 166.025 148.552 165.729 147.676C164.777 144.863 163.872 142.038 162.833 138.858H162.837Z" fill="#243C45"/>
<path d="M274.027 145.877C274.027 142.96 274.077 140.043 274.002 137.126C273.973 135.928 274.386 135.57 275.559 135.599C278.405 135.67 281.255 135.657 284.101 135.603C285.132 135.586 285.566 135.824 285.591 136.976C285.616 138.27 284.919 138.24 284.026 138.224C282.219 138.195 280.408 138.299 278.609 138.19C277.27 138.111 276.998 138.666 276.973 139.876C276.873 144.509 276.835 144.509 281.443 144.509C282.135 144.509 282.837 144.554 283.525 144.5C284.543 144.421 284.84 144.872 284.831 145.84C284.823 146.775 284.602 147.25 283.554 147.213C281.889 147.15 280.22 147.25 278.555 147.179C277.436 147.129 277.002 147.426 276.965 148.661C276.81 153.932 276.765 153.927 282.073 153.927C282.837 153.927 283.604 153.961 284.364 153.919C285.207 153.877 285.645 154.119 285.624 155.079C285.608 155.968 285.491 156.511 284.389 156.49C281.405 156.435 278.417 156.431 275.429 156.49C274.323 156.511 273.989 156.118 274.006 155.042C274.06 151.987 274.027 148.928 274.027 145.873V145.877Z" fill="#273F48"/>
<path d="M245.27 95.9662C245.27 92.9782 245.307 89.9944 245.249 87.0064C245.228 85.9131 245.599 85.5417 246.684 85.5792C248.834 85.6502 250.995 85.525 253.14 85.6335C257 85.8296 258.883 87.9997 258.874 92.081C258.87 96.2291 257.059 98.3199 253.215 98.6162C252.869 98.6412 252.523 98.6579 252.176 98.6663C249.483 98.7219 248.137 100.132 248.137 102.898C248.137 103.591 248.091 104.292 248.145 104.98C248.224 105.999 247.94 106.474 246.78 106.478C245.595 106.478 245.215 106.107 245.24 104.926C245.307 101.942 245.261 98.9542 245.261 95.9662H245.27ZM248.132 91.9934C248.132 94.7226 249.434 96.0775 252.039 96.058C254.985 96.0372 255.753 95.2318 255.774 92.1728C255.794 89.1222 254.96 88.2167 252.101 88.1791C249.458 88.1429 248.137 89.4157 248.137 91.9975L248.132 91.9934Z" fill="#243C45"/>
<path d="M296.871 156.79C295.669 156.765 293.966 156.477 292.435 155.576C291.896 155.259 290.974 154.975 291.704 154.053C292.193 153.435 292.443 152.266 293.72 153.164C294.947 154.027 296.416 154.249 297.889 154.224C299.467 154.199 300.994 153.99 301.503 152.108C302.025 150.176 301.198 148.869 299.508 148.035C298.578 147.576 297.584 147.242 296.65 146.787C295.652 146.307 294.609 145.869 293.733 145.214C290.573 142.856 290.832 138.253 294.271 136.35C297.159 134.752 300.138 135.006 303.072 136.375C303.702 136.671 304.224 137.009 303.594 137.748C303.16 138.257 303.051 139.334 301.925 138.733C300.802 138.136 299.583 137.861 298.319 137.856C296.737 137.848 295.181 137.957 294.672 139.872C294.158 141.804 295.227 142.885 296.817 143.615C297.885 144.108 298.991 144.521 300.067 145.001C303.715 146.624 305.171 148.924 304.545 152.033C303.932 155.075 301.353 156.798 296.871 156.786V156.79Z" fill="#243C45"/>
<path d="M199.778 145.898C199.778 142.981 199.828 140.06 199.753 137.143C199.724 135.966 200.091 135.57 201.284 135.599C204.13 135.674 206.981 135.653 209.827 135.607C210.853 135.591 211.308 135.828 211.325 136.984C211.346 138.303 210.582 138.224 209.714 138.215C207.84 138.199 205.958 138.27 204.089 138.19C202.97 138.145 202.712 138.566 202.678 139.626C202.511 144.517 202.478 144.517 207.289 144.517C207.982 144.517 208.683 144.563 209.372 144.509C210.486 144.425 210.574 145.068 210.578 145.94C210.578 146.796 210.348 147.225 209.409 147.204C207.602 147.163 205.795 147.238 203.993 147.175C202.991 147.142 202.728 147.505 202.678 148.49C202.407 153.932 202.378 153.932 207.786 153.932C208.55 153.932 209.318 153.978 210.077 153.919C211.008 153.848 211.463 154.086 211.442 155.154C211.421 156.114 211.2 156.506 210.161 156.486C207.244 156.423 204.322 156.406 201.409 156.49C200.145 156.527 199.715 156.156 199.753 154.858C199.845 151.874 199.782 148.882 199.782 145.894L199.778 145.898Z" fill="#243C45"/>
<path d="M241.86 146.073C241.793 144.609 241.914 143.161 242.211 141.725C243.413 135.916 249.614 133.245 254.668 136.413C255.239 136.771 256.491 137.03 255.748 138.199C255.177 139.1 254.668 139.609 253.316 138.766C249.33 136.291 245.654 138.228 245.094 142.831C244.831 144.98 244.815 147.108 245.082 149.258C245.691 154.174 249.555 155.83 253.578 152.884C254.063 152.529 254.384 151.607 255.281 152.304C256.224 153.038 256.779 153.656 255.515 154.691C252.932 156.811 250.044 157.316 246.922 156.435C243.943 155.592 242.757 153.214 242.173 150.413C241.873 148.974 241.814 147.521 241.86 146.061V146.073Z" fill="#243C45"/>
<path d="M206.501 97.1222C206.501 94.8311 206.413 92.5358 206.53 90.2531C206.609 88.6924 206.255 87.9162 204.514 88.154C203.492 88.2917 202.432 88.1206 201.397 88.1957C200.4 88.2667 200.078 87.9162 200.099 86.9146C200.116 85.9715 200.32 85.5625 201.372 85.575C205.745 85.6251 210.115 85.6251 214.488 85.575C215.594 85.5625 215.911 85.9506 215.92 87.0189C215.928 88.1791 215.281 88.1624 214.455 88.1916C212.873 88.25 210.782 87.4905 209.839 88.5004C208.742 89.6731 209.505 91.8055 209.476 93.5207C209.414 97.335 209.414 101.158 209.485 104.972C209.505 106.203 209.055 106.483 207.915 106.474C206.835 106.462 206.455 106.128 206.48 105.039C206.542 102.401 206.501 99.7638 206.501 97.1263V97.1222Z" fill="#243C45"/>
<path d="M266.048 146.04C266.048 149.02 266.023 152.004 266.06 154.983C266.073 155.956 265.935 156.519 264.729 156.507C263.594 156.494 263.139 156.219 263.152 154.992C263.206 149.032 263.206 143.069 263.152 137.105C263.139 135.891 263.573 135.591 264.721 135.582C265.914 135.57 266.073 136.112 266.06 137.097C266.019 140.077 266.044 143.061 266.044 146.04H266.048Z" fill="#273F48"/>
<path d="M227.054 354.865C227.054 352.72 227.058 350.571 227.054 348.426C227.054 347.683 227.07 347.032 228.11 347.07C229.491 347.12 230.889 346.995 232.262 347.137C234.728 347.391 236.005 348.702 236.352 351.348C236.656 353.684 236.66 356.055 236.368 358.396C236.001 361.317 234.428 362.615 231.285 362.79C228.467 362.946 227.058 361.622 227.058 358.817C227.058 357.503 227.058 356.184 227.058 354.87L227.054 354.865Z" fill="#FAFAFB"/>
<path d="M216.104 405.448C216.391 403.128 216.187 401.088 216.896 399.16C217.481 397.57 218.532 396.606 220.314 396.668C222.029 396.731 223.002 397.757 223.356 399.31C224.204 403.011 224.191 406.738 223.277 410.427C222.856 412.13 221.804 413.252 219.897 413.219C217.969 413.186 217.001 411.992 216.692 410.264C216.387 408.57 216.27 406.838 216.108 405.444L216.104 405.448Z" fill="#F8F9F9"/>
<path d="M263.285 404.873C263.227 406.813 263.244 408.766 262.618 410.632C262.092 412.205 261.086 413.252 259.279 413.227C257.455 413.202 256.454 412.121 256.095 410.49C255.298 406.855 255.306 403.187 256.166 399.56C256.587 397.782 257.677 396.593 259.688 396.668C261.624 396.739 262.438 398.029 262.851 399.706C263.269 401.405 263.248 403.141 263.285 404.873Z" fill="#F8F9F9"/>
<path d="M264.187 347.729C265.293 351.072 266.211 353.872 267.141 356.668C267.413 357.486 267.133 357.841 266.282 357.753C266.215 357.745 266.144 357.753 266.073 357.753C262.534 357.957 261.318 356.387 262.426 353.046C262.947 351.477 263.465 349.908 264.183 347.729H264.187Z" fill="#F8F9F9"/>
<path d="M235.029 95.8534C234.929 97.2014 234.879 98.2405 234.766 99.2754C234.311 103.482 230.914 105.493 226.937 103.958C225.397 103.361 224.696 102.151 224.404 100.661C223.824 97.7021 223.82 94.7267 224.392 91.7679C224.926 89.0052 226.658 87.6865 229.57 87.6865C232.508 87.6865 234.173 88.9886 234.649 91.8221C234.891 93.2535 234.925 94.7183 235.025 95.8576L235.029 95.8534Z" fill="#F8F9F9"/>
<path d="M162.837 138.858C163.876 142.038 164.778 144.868 165.733 147.676C166.03 148.552 165.921 148.945 164.886 148.899C163.505 148.836 162.115 148.861 160.734 148.895C159.937 148.916 159.553 148.719 159.853 147.835C160.826 144.964 161.769 142.088 162.841 138.858H162.837Z" fill="#F8F9F9"/>
<path d="M248.133 91.9934C248.133 89.4144 249.454 88.1416 252.097 88.175C254.96 88.2125 255.79 89.1181 255.769 92.1687C255.749 95.2318 254.981 96.033 252.034 96.0539C249.43 96.0734 248.128 94.7185 248.128 91.9892L248.133 91.9934Z" fill="#F8F9F9"/>
<path d="M275.025 386.227H185.735V421.594H275.025V386.227Z" fill="#FDFEFE"/>
<path d="M260.702 406.091C254.647 408.178 251.162 405.903 251.521 400.094C251.738 396.593 253.603 394.636 257.075 394.269C260.777 393.876 263.147 395.375 263.994 398.909C264.925 402.794 264.867 406.751 263.844 410.594C262.717 414.826 256.374 416.845 252.927 414.233C252.293 413.753 251.88 413.24 252.351 412.455C252.664 411.934 253.086 411.504 253.779 411.642C254.004 411.687 254.2 411.854 254.417 411.95C258.987 414.02 261.979 411.85 261.47 406.771C261.449 406.392 261.432 406.008 261.411 405.628C261.173 405.782 260.936 405.937 260.702 406.091ZM261.532 400.307C261.37 397.883 260.001 396.539 257.643 396.622C255.122 396.71 254.304 398.484 254.334 400.779C254.363 403.095 255.177 404.802 257.818 404.647C260.456 404.493 261.407 402.698 261.532 400.303V400.307Z" fill="#263B44"/>
<path d="M226.649 404.464C226.549 406.638 226.353 408.787 225.681 410.836C224.708 413.791 222.639 415.264 219.467 415.176C216.245 415.089 214.33 413.403 213.675 410.36C212.886 406.705 212.878 402.999 213.695 399.347C214.434 396.055 216.454 394.114 219.98 394.143C223.532 394.168 225.468 396.13 226.052 399.502C226.336 401.142 226.453 402.807 226.645 404.464H226.649ZM223.699 404.651C223.49 402.999 223.31 401.342 223.068 399.694C222.814 397.966 221.841 396.71 220.068 396.66C218.157 396.606 217.021 397.832 216.613 399.677C215.857 403.116 215.845 406.571 216.596 410.001C216.925 411.5 217.852 412.635 219.538 412.681C221.161 412.722 222.267 411.825 222.785 410.335C223.419 408.512 223.603 406.604 223.699 404.651Z" fill="#263B44"/>
<path d="M200.395 414.905C199.799 414.905 199.181 415.001 198.601 414.888C197.19 414.621 195.146 415.886 194.474 413.941C193.852 412.134 194.315 410.102 195.592 408.512C197.19 406.525 199.36 405.211 201.418 403.771C203.296 402.456 204.898 400.716 203.726 398.367C202.486 395.884 200.062 396.643 198 397.282C196.911 397.62 195.721 398.842 195.008 397.152C194.294 395.462 196.135 395.299 197.053 394.899C200.663 393.334 205.015 394.327 206.463 396.889C208.07 399.736 206.868 403.003 203.242 405.745C201.622 406.968 200.003 408.195 198.472 409.526C197.866 410.052 197.299 410.861 197.758 411.75C198.154 412.518 199.022 412.263 199.694 412.268C201.61 412.284 203.525 412.201 205.437 412.184C206.346 412.176 207.118 412.405 207.106 413.553C207.093 414.692 206.334 414.897 205.412 414.897C203.734 414.897 202.056 414.897 200.383 414.897L200.395 414.905Z" fill="#2B4049"/>
<path d="M238.304 397.787C236.648 398.855 235.684 399.481 234.711 400.099C233.906 400.608 233.388 400.119 232.9 399.556C232.27 398.822 232.595 398.258 233.255 397.795C234.035 397.248 234.841 396.739 235.629 396.201C237.107 395.191 238.705 393.785 240.487 394.736C242.089 395.592 241.15 397.54 241.205 398.993C241.317 401.968 241.246 404.952 241.234 407.932C241.226 410.135 240.537 412.773 244.351 412.272C245.04 412.18 245.34 412.835 245.374 413.478C245.415 414.308 245.036 414.905 244.172 414.909C240.954 414.934 237.733 414.926 234.515 414.892C233.672 414.884 233.213 414.35 233.246 413.511C233.292 412.422 234.044 412.042 234.962 412.205C238.484 412.831 238.43 410.661 238.334 408.19C238.208 404.99 238.304 401.78 238.304 397.791V397.787Z" fill="#2B4049"/>
</g>
<defs>
<clipPath id="clip0_89_52">
<rect width="462.767" height="500" fill="white"/>
</clipPath>
</defs>
</svg>
