<svg width="400" height="489" viewBox="0 0 400 489" fill="none" xmlns="http://www.w3.org/2000/svg">
<g clip-path="url(#clip0_100_70)">
<mask id="mask0_100_70" style="mask-type:alpha" maskUnits="userSpaceOnUse" x="0" y="0" width="400" height="489">
<path d="M386.667 0H13.3333C5.96954 0 0 5.97089 0 13.3364V475.664C0 483.029 5.96954 489 13.3333 489H386.667C394.03 489 400 483.029 400 475.664V13.3364C400 5.97089 394.03 0 386.667 0Z" fill="#F3FAFF"/>
</mask>
<g mask="url(#mask0_100_70)">
<path d="M0 0H400V489H0V0Z" fill="#FFF9F7"/>
<path opacity="0.9" d="M120.996 271.493C122.44 270.791 123.654 269.691 124.494 268.322C125.334 266.953 125.766 265.373 125.738 263.767C125.738 258.632 121.484 254.72 115.569 254.72H104.622C104.5 254.72 104.379 254.744 104.266 254.791C104.153 254.838 104.05 254.907 103.964 254.994C103.878 255.081 103.809 255.184 103.763 255.297C103.716 255.41 103.693 255.531 103.693 255.654V288.021C103.693 288.51 104.084 288.955 104.627 288.955H116.111C122.271 288.955 126.769 284.994 126.769 279.517C126.769 275.16 123.933 272.715 121 271.591L120.996 271.493ZM108.676 269.59V259.321H115.08C118.209 259.321 120.311 261.126 120.311 264.358C120.311 267.439 118.209 269.59 115.08 269.59H108.676ZM108.631 284.451V273.987H116.253C119.089 273.987 121.338 276.138 121.338 279.121C121.338 282.158 119.578 284.456 116.253 284.456H108.627L108.631 284.451ZM136.449 288.021C136.449 288.51 136.84 288.955 137.382 288.955H140.556C141.044 288.955 141.489 288.51 141.489 288.021V275.552H148.867L155.271 288.314C155.467 288.71 155.76 288.955 156.298 288.955H159.964C160.796 288.955 161.138 288.168 160.796 287.532L154.098 275.111C158.351 273.4 161.333 269.688 161.333 265.185C161.333 259.366 156.542 254.725 150.676 254.725H137.378C137.131 254.725 136.895 254.823 136.721 254.997C136.547 255.171 136.449 255.407 136.449 255.654V288.021ZM141.582 271.351V259.468H150.284C153.462 259.468 156.249 262.109 156.249 265.287C156.249 268.657 153.462 271.346 150.284 271.346L141.582 271.351ZM168.827 271.884C168.827 281.664 176.604 289.444 186.382 289.444C196.16 289.444 203.982 281.664 203.982 271.884C203.982 262.104 196.16 254.236 186.382 254.236C184.068 254.232 181.777 254.687 179.639 255.574C177.502 256.46 175.561 257.762 173.929 259.402C172.297 261.043 171.006 262.991 170.13 265.133C169.254 267.275 168.811 269.57 168.827 271.884ZM173.716 271.884C173.716 264.945 179.436 258.979 186.382 258.979C193.369 258.979 199.093 264.945 199.093 271.889C199.093 278.877 193.369 284.7 186.382 284.7C179.436 284.7 173.716 278.877 173.716 271.884ZM213.244 288.021C213.244 288.51 213.68 288.955 214.169 288.955H217.249C217.372 288.955 217.493 288.931 217.607 288.885C217.72 288.838 217.823 288.769 217.91 288.683C217.997 288.596 218.066 288.493 218.112 288.379C218.159 288.266 218.183 288.144 218.182 288.021V264.207H218.276L238.858 288.759C239.444 289.439 239.791 289.439 240.28 289.439H240.716C241.204 289.439 241.649 289.052 241.649 288.563V255.649C241.641 255.405 241.54 255.172 241.367 254.999C241.193 254.827 240.96 254.727 240.716 254.72H237.587C237.464 254.72 237.343 254.744 237.23 254.791C237.117 254.838 237.015 254.907 236.928 254.994C236.842 255.081 236.774 255.184 236.727 255.297C236.681 255.41 236.657 255.531 236.658 255.654V278.783H236.56L216.027 254.965C215.391 254.236 215.049 254.236 214.56 254.236H214.169C213.68 254.236 213.24 254.627 213.24 255.116L213.244 288.021ZM250.724 288.955H271.258C271.38 288.955 271.501 288.93 271.614 288.883C271.727 288.836 271.83 288.768 271.916 288.681C272.003 288.594 272.071 288.491 272.117 288.378C272.164 288.265 272.187 288.143 272.187 288.021V285.234C272.186 285.112 272.162 284.991 272.114 284.879C272.067 284.766 271.998 284.664 271.911 284.578C271.825 284.492 271.722 284.424 271.609 284.378C271.496 284.332 271.375 284.309 271.253 284.309H256.982V284.26L272.822 256.921C273.164 256.289 273.164 256.143 273.164 255.654C273.158 255.408 273.057 255.175 272.884 255.001C272.71 254.827 272.477 254.727 272.231 254.72H252.142C251.897 254.727 251.663 254.827 251.49 255.001C251.316 255.175 251.216 255.408 251.209 255.654V258.49C251.209 258.979 251.653 259.419 252.142 259.419H265.929V259.615L250.187 286.461C249.796 287.145 249.796 287.39 249.796 288.026C249.796 288.515 250.236 288.955 250.724 288.955ZM281.484 288.021C281.484 288.51 281.876 288.955 282.413 288.955H301.969C302.091 288.955 302.212 288.93 302.325 288.883C302.438 288.836 302.541 288.768 302.627 288.681C302.714 288.594 302.782 288.491 302.828 288.378C302.875 288.265 302.898 288.143 302.898 288.021V285.332C302.898 285.085 302.8 284.849 302.626 284.675C302.452 284.5 302.215 284.402 301.969 284.402H286.52V273.893H299.573C299.82 273.892 300.056 273.793 300.23 273.618C300.405 273.443 300.502 273.207 300.502 272.96V270.221C300.494 269.978 300.394 269.746 300.222 269.573C300.049 269.401 299.817 269.3 299.573 269.292H286.52V259.321H301.969C302.091 259.321 302.212 259.297 302.325 259.25C302.438 259.203 302.541 259.134 302.627 259.048C302.714 258.961 302.782 258.858 302.828 258.745C302.875 258.631 302.898 258.51 302.898 258.388V255.649C302.898 255.403 302.8 255.167 302.626 254.992C302.452 254.818 302.215 254.72 301.969 254.72H282.413C282.291 254.72 282.17 254.744 282.057 254.791C281.944 254.838 281.841 254.907 281.755 254.994C281.669 255.081 281.6 255.184 281.554 255.297C281.507 255.41 281.484 255.531 281.484 255.654V288.021Z" fill="#A87761"/>
<path d="M51.7109 373.36C51.7109 374.027 52.2443 374.627 52.9776 374.627H60.8443C61.5109 374.627 62.1109 374.027 62.1109 373.36V357.69H69.1109C77.8443 357.69 83.9776 350.955 83.9776 342.687C83.9776 334.618 77.8443 327.95 69.0443 327.95H52.9776C52.6417 327.95 52.3195 328.084 52.0819 328.321C51.8444 328.559 51.7109 328.881 51.7109 329.217V373.36ZM62.1109 347.955V337.752H68.8443C71.7109 337.752 73.7109 339.886 73.7109 342.687C73.7109 345.687 71.7109 347.955 68.8443 347.955H62.1109ZM84.7865 374.627H92.1198C93.4532 374.627 94.1865 373.827 94.5198 373.027L96.9198 367.692H115.053L117.453 372.96C118.053 374.227 118.586 374.627 119.786 374.627H127.186C128.186 374.627 128.72 373.76 128.32 372.894L107.453 328.017C107.345 327.806 107.183 327.628 106.984 327.499C106.785 327.37 106.556 327.296 106.32 327.283H105.653C105.417 327.296 105.188 327.37 104.989 327.499C104.79 327.628 104.628 327.806 104.52 328.017L83.6532 372.894C83.2532 373.76 83.7865 374.627 84.7865 374.627ZM100.92 358.624L105.92 347.621H105.986L111.053 358.624H100.92ZM136.027 373.36C136.027 374.027 136.56 374.627 137.293 374.627H145.226C145.893 374.627 146.493 374.027 146.493 373.36V356.356H151.093L159.96 374.027C160.093 374.294 160.493 374.627 161.026 374.627H169.893C171.027 374.627 171.493 373.56 171.026 372.694L161.893 355.756C168.093 353.422 171.76 348.488 171.76 342.353C171.76 334.418 165.693 327.95 157.226 327.95H137.289C136.953 327.95 136.631 328.084 136.393 328.321C136.156 328.559 136.022 328.881 136.022 329.217V373.36H136.027ZM146.493 347.888V337.486H156.36C159.093 337.486 161.426 339.419 161.426 342.553C161.426 345.687 159.093 347.888 156.36 347.888H146.493ZM189.875 373.36C189.875 374.027 190.48 374.627 191.142 374.627H199.142C199.809 374.627 200.409 374.027 200.409 373.36V337.752H209.942C210.278 337.752 210.6 337.619 210.838 337.381C211.075 337.144 211.209 336.821 211.209 336.485V329.217C211.209 328.55 210.675 327.95 209.942 327.95H180.342C180.006 327.95 179.684 328.084 179.446 328.321C179.209 328.559 179.075 328.881 179.075 329.217V336.485C179.075 337.152 179.609 337.752 180.342 337.752H189.875V373.36ZM220.666 373.36C220.666 374.027 221.267 374.627 221.933 374.627H229.866C230.202 374.627 230.525 374.494 230.762 374.256C231 374.019 231.133 373.696 231.133 373.36V348.488H231.2L257.133 374.561C257.667 375.094 258.133 375.294 258.8 375.294H259.467C260.133 375.294 260.733 374.894 260.733 374.094V329.217C260.722 328.884 260.585 328.569 260.35 328.333C260.115 328.098 259.799 327.961 259.467 327.95H251.467C251.131 327.95 250.808 328.084 250.571 328.321C250.333 328.559 250.2 328.881 250.2 329.217V352.889H250.133L224.533 328.283C224 327.75 223.533 327.283 222.867 327.283H221.866C221.2 327.283 220.6 327.817 220.6 328.483L220.666 373.36ZM273.698 373.36C273.698 374.027 274.231 374.627 274.964 374.627H302.564C302.9 374.627 303.222 374.494 303.46 374.256C303.697 374.019 303.831 373.696 303.831 373.36V366.092C303.831 365.425 303.298 364.825 302.564 364.825H284.098V355.823H299.298C299.964 355.823 300.564 355.29 300.564 354.556V347.288C300.553 346.955 300.416 346.639 300.181 346.404C299.946 346.169 299.63 346.032 299.298 346.021H284.098V337.752H302.564C302.9 337.752 303.222 337.619 303.46 337.381C303.697 337.144 303.831 336.821 303.831 336.485V329.217C303.831 328.55 303.298 327.95 302.564 327.95H274.964C274.628 327.95 274.306 328.084 274.069 328.321C273.831 328.559 273.698 328.881 273.698 329.217V373.36ZM314.684 373.36C314.684 374.027 315.218 374.627 315.951 374.627H323.884C324.551 374.627 325.151 374.027 325.151 373.36V356.356H329.751L338.618 374.027C338.751 374.294 339.151 374.627 339.684 374.627H348.551C349.684 374.627 350.151 373.56 349.684 372.694L340.551 355.756C346.751 353.422 350.418 348.488 350.418 342.353C350.418 334.418 344.351 327.95 335.884 327.95H315.951C315.615 327.95 315.293 328.084 315.055 328.321C314.818 328.559 314.684 328.881 314.684 329.217V373.36ZM325.151 347.888V337.486H335.018C337.751 337.486 340.084 339.419 340.084 342.553C340.084 345.687 337.751 347.888 335.018 347.888H325.151Z" fill="#A87761"/>
<mask id="mask1_100_70" style="mask-type:alpha" maskUnits="userSpaceOnUse" x="0" y="0" width="400" height="156">
<path d="M0 155.591H400V-9.05991e-05H0V155.591Z" fill="white"/>
</mask>
<g mask="url(#mask1_100_70)">
<path d="M-43.6911 223.518C54.3308 353.31 249.816 386.465 392.938 297.571C536.059 208.677 572.62 31.3968 474.598 -98.3957C376.576 -228.188 181.09 -261.343 37.9689 -172.449C-105.153 -83.5552 -141.713 93.7252 -43.6911 223.518Z" fill="url(#paint0_radial_100_70)"/>
<path style="mix-blend-mode:lighten" d="M-43.6911 223.518C54.3308 353.31 249.816 386.465 392.938 297.571C536.059 208.677 572.62 31.3968 474.598 -98.3957C376.576 -228.188 181.09 -261.343 37.9689 -172.449C-105.153 -83.5552 -141.713 93.7252 -43.6911 223.518Z" fill="url(#paint1_radial_100_70)" fill-opacity="0.47"/>
<path style="mix-blend-mode:darken" d="M-43.6911 223.518C54.3308 353.31 249.816 386.465 392.938 297.571C536.059 208.677 572.62 31.3968 474.598 -98.3957C376.576 -228.188 181.09 -261.343 37.9689 -172.449C-105.153 -83.5552 -141.713 93.7252 -43.6911 223.518Z" fill="url(#paint2_radial_100_70)" fill-opacity="0.3"/>
<path d="M81.3779 44.4546C89.4134 44.4546 97.1201 47.4686 103.085 52.9454C103.159 53.014 103.209 53.1041 103.229 53.2031C103.249 53.302 103.237 53.4048 103.196 53.4967C103.155 53.5878 103.085 53.6633 102.998 53.7121C102.911 53.761 102.81 53.7805 102.711 53.7678C100.4 53.4478 97.8979 53.2788 95.2845 53.2788C85.8179 53.2788 78.1379 55.4349 73.0623 59.5114C68.5379 63.1433 66.1468 68.1711 66.1468 74.048C66.1468 80.605 68.6046 85.784 73.6579 89.8916C78.1245 93.5147 84.0668 95.8663 89.3112 97.9423C93.7201 99.6849 97.8801 101.334 100.702 103.504C100.761 103.548 100.809 103.606 100.842 103.672C100.875 103.739 100.892 103.812 100.892 103.886C100.892 103.96 100.875 104.033 100.842 104.099C100.809 104.166 100.761 104.223 100.702 104.268C95.1484 108.493 88.3601 110.775 81.3823 110.763C77.0972 110.768 72.8548 109.911 68.9074 108.243C64.96 106.575 61.3882 104.131 58.4046 101.054C52.2697 94.7973 48.8503 86.3724 48.889 77.6088C48.889 68.7535 52.2668 60.4271 58.4046 54.1635C61.3882 51.0871 64.96 48.6422 68.9074 46.9743C72.8548 45.3064 77.0972 44.4495 81.3823 44.4546H81.3779ZM221.942 65.9617C231.04 65.9617 234.987 70.0071 235.32 79.6271L235.325 78.9691C235.391 79.956 235.4 81.4764 235.351 82.5699C234.996 90.6118 230.68 95.3729 224.258 95.5729C220.658 95.6929 216.342 95.3151 215.498 95.0928V105.277C215.498 106.077 214.96 106.629 214.058 106.629H211.271C210.917 106.623 210.58 106.478 210.332 106.225C210.084 105.972 209.946 105.632 209.947 105.277V69.2247C209.947 68.5534 210.645 68.06 211.591 67.6421C212.36 67.2998 217.569 65.9617 221.942 65.9617ZM291.711 66.2996C300.991 66.2996 301.871 71.9942 301.871 79.3559V93.7325C301.871 94.5015 301.293 95.1239 300.467 95.2217L298.502 95.3995C296.6 95.5195 292.018 95.5773 287.569 95.5773C282.111 95.5773 278.289 93.4969 278.289 87.3532C278.289 81.912 282.431 77.8177 289.889 77.8177C292.902 77.8177 295.725 78.7157 295.725 78.7157C295.849 74.0436 294.72 71.932 291.085 71.932C287.76 71.932 284.498 72.8922 282.996 73.3367C282.116 73.5323 281.551 72.9544 281.365 72.1231L280.8 69.6915C280.613 68.669 281.049 68.22 281.742 67.9622C284.95 66.8587 288.319 66.2969 291.711 66.2996ZM155.578 54.9103C156.24 54.9103 156.902 55.586 156.902 56.2573V68.9046C157.56 68.4156 160.565 65.9617 164.947 65.9617C172.818 65.9617 175.702 71.603 175.702 79.3248V94.2259C175.694 94.5763 175.553 94.9105 175.308 95.1612C175.063 95.4119 174.732 95.5606 174.382 95.5773H171.018C170.665 95.5703 170.328 95.4247 170.081 95.1719C169.834 94.9191 169.697 94.5794 169.698 94.2259V79.2003C169.698 74.5459 167.773 71.7853 164.169 71.7853C159.902 71.7853 157.502 74.6659 156.902 75.8929V94.2215C156.902 95.0217 156.36 95.5729 155.52 95.5729H152.218C151.864 95.5671 151.526 95.4219 151.278 95.169C151.031 94.9161 150.892 94.5757 150.893 94.2215V56.2573C150.893 55.586 151.493 54.9103 152.213 54.9103H155.578ZM319.422 66.2996C322.067 66.2996 325.369 67.0331 324.467 68.9357L323.027 71.3407C322.667 72.1409 321.947 72.3187 321.347 72.0164C320.96 71.7942 319.773 71.5585 319.022 71.483C318.768 71.4721 318.513 71.4677 318.258 71.4696C314.982 71.4696 313.356 71.7675 312.676 72.1809C312.533 72.2698 312.276 72.4832 312.276 72.6477V94.2215C312.276 95.4484 311.493 95.5729 310.351 95.5729H307.587C307.233 95.5659 306.897 95.4203 306.65 95.1675C306.403 94.9147 306.266 94.5749 306.267 94.2215V68.26C306.267 67.9933 306.365 67.771 306.525 67.5932C306.665 67.4223 306.839 67.2815 307.035 67.1792C307.231 67.0768 307.446 67.0151 307.667 66.9975C308.453 66.8908 309.125 66.8286 309.125 66.8286C310.178 66.7041 311.653 66.5174 314.147 66.4107L315.129 66.3663C316.129 66.3218 317.178 66.2996 318.258 66.2996C318.511 66.2996 318.751 66.3085 318.996 66.3174C319.138 66.3129 319.276 66.2996 319.422 66.2996ZM136.342 65.9617C140.187 65.9617 143.071 67.1264 144.453 68.0466C145.116 68.5356 145.413 69.3936 145.053 70.1316L144.093 72.092C143.671 72.95 142.831 72.8922 142.289 72.6432C140.369 71.7853 138.507 71.234 136.342 71.234C133.942 71.234 132.511 72.461 132.511 73.7457C132.511 75.5861 134.782 76.6886 137.547 77.9156C142.649 80.1249 146.498 82.0231 146.498 87.2955C146.498 91.7098 142.773 95.5729 136.587 95.5729C132.2 95.5729 129.013 93.7947 127.453 92.6878C127.031 92.3855 126.671 91.8298 126.973 91.2208L128.236 88.5846C128.533 87.9712 129.316 87.7845 130.036 88.2157C131.658 89.1359 133.64 90.3006 136.947 90.3006C139.289 90.3006 140.609 89.1359 140.609 87.54C140.609 85.6417 138.507 84.4148 134.662 82.6366C130.396 80.6762 126.862 78.3468 126.862 73.6879C126.862 70.1316 129.618 65.9617 136.342 65.9617ZM192.827 65.9617C194.667 65.9617 196.889 66.3174 198.453 67.0197C200.018 67.7266 201.365 68.7268 202.498 70.0293C203.627 71.3318 204.502 72.8966 205.129 74.7193C205.756 76.5419 206.067 78.5601 206.067 80.7651C206.067 83.01 205.756 85.0327 205.133 86.842C204.502 88.6469 203.622 90.2028 202.498 91.5053C201.386 92.7926 200.006 93.82 198.453 94.5149C196.889 95.2173 194.667 95.5729 192.827 95.5729C190.982 95.5729 188.769 95.2173 187.205 94.5149C185.652 93.82 184.272 92.7926 183.16 91.5053C181.99 90.1334 181.095 88.5486 180.525 86.8376C179.877 84.8797 179.561 82.8272 179.591 80.7651C179.591 78.5601 179.902 76.5419 180.525 74.7193C181.093 73.0007 181.988 71.4082 183.16 70.0293C184.289 68.7268 185.636 67.7266 187.205 67.0197C188.769 66.3129 190.982 65.9617 192.827 65.9617ZM338.436 65.9617C345.645 65.9617 351.111 71.4163 351.111 78.9558C351.111 79.4492 351.053 80.4317 350.991 80.9207C350.971 81.2457 350.831 81.5517 350.598 81.7786C350.364 82.0056 350.054 82.1371 349.729 82.1476H330.569C330.627 85.9485 333.991 89.8694 338.858 89.8694C342.04 89.8694 343.965 88.7047 345.645 87.4777C346.245 87.051 346.787 86.8642 347.267 87.6022L348.889 90.1761C349.369 90.7896 349.609 91.3408 348.769 92.0743C346.787 93.8525 343.125 95.5729 338.498 95.5729C330.085 95.5729 324.618 88.8291 324.618 80.7384C324.618 72.7677 330.08 65.9617 338.436 65.9617ZM257.267 65.9617C257.929 65.9617 258.351 66.2729 258.467 66.6374L265.916 83.7391H266.04L270.485 67.4332C270.84 66.5752 271.862 66.5752 272.587 66.5752H275.107C276.071 66.5752 276.609 67.3087 276.191 68.1711L268.262 94.8349C268.142 95.2662 267.6 95.5729 267 95.5729H266.76C266.16 95.5729 265.738 95.2617 265.56 94.8972L257.089 75.6484H256.969L248.436 94.8972C248.316 95.2617 247.956 95.5729 247.356 95.5729H246.996C246.396 95.5729 245.973 95.2617 245.853 94.8349L237.742 68.1711C237.325 67.3087 237.742 66.5708 238.707 66.5708H242.307C242.791 66.5708 243.391 66.8819 243.511 67.4332L248.076 83.6769H248.196L255.707 66.6374C255.816 66.4298 255.98 66.2567 256.182 66.1373C256.384 66.018 256.615 65.9572 256.849 65.9617H257.267ZM290.396 82.4277C287.009 82.4277 284.44 84.2192 284.44 87.291C284.44 89.9138 285.942 90.9896 288.951 91.0563C291.645 91.1141 294.782 91.4786 295.662 90.0072V83.4501C295.285 83.1967 293.027 82.4277 290.396 82.4277ZM221.942 71.3363C218.667 71.3363 216.396 72.0787 215.773 72.1498C215.695 72.1605 215.623 72.1992 215.571 72.2589C215.518 72.3185 215.489 72.395 215.489 72.4743V89.7983C215.489 90.0027 215.64 90.1005 215.858 90.1717C215.858 90.1717 217.707 90.3939 219.671 90.5495L220.413 90.6029C221.525 90.6785 222.6 90.7185 223.342 90.6785C227.84 90.4251 229.396 88.0112 229.52 82.5611C229.542 81.4853 229.538 80.1783 229.529 79.2403C229.351 72.1631 227.418 71.3363 221.942 71.3363ZM192.671 71.3407C187.658 71.3407 185.133 75.6706 185.133 81.014C185.133 86.3575 187.658 90.6918 192.671 90.6918C197.685 90.6918 200.213 86.3575 200.213 81.014C200.213 75.6706 197.685 71.3407 192.671 71.3407ZM94.6357 66.1351C101.302 66.1351 106.782 68.4778 113.565 74.2214C113.66 74.3038 113.719 74.4203 113.729 74.5459C114.202 79.6893 113.488 84.8728 111.64 89.696C111.606 89.7836 111.548 89.8592 111.471 89.913C111.394 89.9669 111.303 89.9966 111.209 89.9983C111.129 89.9976 111.051 89.9762 110.982 89.9361C107.116 87.7489 102.911 86.1485 98.8401 84.6015C90.9423 81.5964 84.1245 79.0002 84.1245 73.3056C84.1245 71.274 84.9557 69.5403 86.5334 68.3C88.3557 66.8642 91.0801 66.1351 94.6357 66.1351ZM338.316 71.1718C333.929 71.1718 331.289 74.0525 330.867 77.6088H345.165C345.045 74.1769 342.396 71.1718 338.316 71.1718ZM347.813 59.258C349.636 59.258 351.111 60.7561 351.111 62.6098C351.115 63.0465 351.032 63.4796 350.868 63.8844C350.705 64.2892 350.463 64.6577 350.156 64.969C349.85 65.2802 349.486 65.5281 349.084 65.6984C348.682 65.8688 348.25 65.9582 347.813 65.9617C347.377 65.9582 346.945 65.8688 346.543 65.6984C346.141 65.5281 345.777 65.2802 345.47 64.969C345.164 64.6577 344.922 64.2892 344.758 63.8844C344.595 63.4796 344.512 63.0465 344.516 62.6098C344.516 60.7561 345.991 59.258 347.813 59.258ZM347.813 59.747C347.066 59.7598 346.355 60.0684 345.835 60.6051C345.315 61.1417 345.029 61.8627 345.04 62.6098C345.04 64.1835 346.285 65.4727 347.813 65.4727C349.347 65.4727 350.591 64.1835 350.591 62.6098C350.602 61.8615 350.316 61.1394 349.795 60.6019C349.274 60.0645 348.562 59.7598 347.813 59.747ZM347.987 60.9117C348.556 60.9117 349.022 61.374 349.022 61.9475C349.022 62.392 348.733 62.7654 348.32 62.9344L348.969 64.1658C349.005 64.228 348.969 64.308 348.889 64.308H348.533C348.511 64.3094 348.49 64.3036 348.471 64.2916C348.453 64.2796 348.439 64.262 348.431 64.2413L347.809 62.9788H347.093V64.2147C347.093 64.2591 347.049 64.3036 347.005 64.3036H346.693C346.67 64.3036 346.647 64.2942 346.631 64.2775C346.614 64.2609 346.605 64.2382 346.605 64.2147V61.005C346.604 60.993 346.606 60.981 346.61 60.9697C346.614 60.9583 346.621 60.948 346.629 60.9393C346.637 60.9305 346.647 60.9236 346.658 60.9189C346.669 60.9141 346.681 60.9117 346.693 60.9117H347.987ZM347.947 61.3829H347.102V62.5609H347.947C348.258 62.5609 348.529 62.2942 348.529 61.9564C348.529 61.6452 348.258 61.3785 347.951 61.3785L347.947 61.3829Z" fill="white"/>
</g>
<path d="M386.667 1.11133H13.3335C6.5834 1.11133 1.11133 6.58465 1.11133 13.3363V475.664C1.11133 482.415 6.5834 487.889 13.3335 487.889H386.667C393.417 487.889 398.889 482.415 398.889 475.664V13.3363C398.889 6.58465 393.417 1.11133 386.667 1.11133Z" stroke="#D4D8DC" stroke-width="0.5"/>
</g>
</g>
<defs>
<radialGradient id="paint0_radial_100_70" cx="0" cy="0" r="1" gradientUnits="userSpaceOnUse" gradientTransform="translate(320.324 283.094) rotate(133.226) scale(534.668 540.466)">
<stop stop-color="#BF8970"/>
<stop offset="0.281" stop-color="#BF8970"/>
<stop offset="0.771" stop-color="#DDB8A7"/>
<stop offset="1" stop-color="#BF8970"/>
</radialGradient>
<radialGradient id="paint1_radial_100_70" cx="0" cy="0" r="1" gradientUnits="userSpaceOnUse" gradientTransform="translate(216.771 34.796) rotate(94.4872) scale(683.714 753.104)">
<stop stop-color="#BF8970"/>
<stop offset="0.406" stop-color="#E5D0C6"/>
<stop offset="0.724" stop-color="#BF8970"/>
<stop offset="1" stop-color="#BF8970" stop-opacity="0.7"/>
</radialGradient>
<radialGradient id="paint2_radial_100_70" cx="0" cy="0" r="1" gradientUnits="userSpaceOnUse" gradientTransform="translate(569.637 241.796) rotate(150.936) scale(1058.47 1008.81)">
<stop stop-color="#E5D0C6"/>
<stop offset="0.344" stop-color="#BF8970"/>
<stop offset="0.667" stop-color="#E5D0C6"/>
</radialGradient>
<clipPath id="clip0_100_70">
<rect width="400" height="489" fill="white"/>
</clipPath>
</defs>
</svg>
