<svg width="317" height="484" viewBox="0 0 317 484" fill="none" xmlns="http://www.w3.org/2000/svg">
<g clip-path="url(#clip0_107_52)">
<path d="M0 0H317V484L158.524 436.132L0 484V0Z" fill="url(#paint0_linear_107_52)"/>
<path d="M9.09717 9.34131H307.903V331.589H9.09717V9.34131Z" fill="white"/>
<path d="M233.286 52.8528C233.093 50.9652 231.593 49.7068 229.705 49.7068H86.2303C84.3431 49.7068 82.8431 51.2072 82.6495 52.8528L70.6489 198.44C70.4553 200.328 72.149 202.215 74.2297 202.215H242.383C244.271 202.215 245.964 200.521 245.964 198.44L233.286 52.8528ZM154.798 185.759C129.684 185.759 109.215 161.269 109.215 131.116C109.215 129.615 110.473 128.163 112.167 128.163C113.667 128.163 115.119 129.422 115.119 131.116C115.119 158.123 133.071 180.048 154.992 180.048C176.912 180.048 194.865 158.123 194.865 131.116C194.865 129.615 196.123 128.163 197.817 128.163C199.317 128.163 200.768 129.422 200.768 131.116C200.333 161.075 179.864 185.759 154.798 185.759ZM214.076 129.228C213.011 130.293 211.124 130.293 210.059 129.228L197.623 116.789L184.945 129.47C184.51 129.906 183.687 130.293 183.058 130.293C182.429 130.293 181.558 130.099 181.171 129.47C180.106 128.405 180.106 126.518 181.171 125.453L195.929 110.691C196.365 110.255 197.188 109.868 197.817 109.868C198.639 109.868 199.317 110.062 199.704 110.691L214.269 125.259C215.334 126.518 215.334 128.212 214.076 129.276V129.228Z" fill="#53C174"/>
<path d="M222.302 99.2683H91.311V209.185H222.302V99.2683Z" fill="white"/>
<path d="M219.156 99.2683H86.23V209.185H219.156V99.2683Z" fill="white"/>
<path d="M259.223 236.192L244.9 61.9037C244.706 59.5805 242.77 57.8865 240.448 57.8865H76.1168C73.7941 57.8865 71.9069 59.5805 71.665 61.9037L57.7288 236.192C57.5352 238.709 59.616 240.838 62.1806 240.838H255.013C257.529 241.032 259.658 238.709 259.223 236.192ZM154.798 185.759C129.684 185.759 109.215 161.269 109.215 131.116C109.215 129.615 110.473 128.163 112.167 128.163C113.667 128.163 115.119 129.422 115.119 131.116C115.119 158.123 133.071 180.048 154.992 180.048C176.912 180.048 194.865 158.123 194.865 131.116C194.865 129.615 196.123 128.163 197.817 128.163C199.317 128.163 200.768 129.422 200.768 131.116C200.333 161.075 179.864 185.759 154.798 185.759ZM214.075 129.228C213.011 130.293 211.124 130.293 210.059 129.228L197.623 116.789L184.945 129.47C184.509 129.906 183.687 130.293 183.058 130.293C182.429 130.293 181.558 130.099 181.171 129.47C180.106 128.405 180.106 126.518 181.171 125.453L195.929 110.691C196.365 110.255 197.188 109.868 197.817 109.868C198.639 109.868 199.317 110.062 199.704 110.691L214.269 125.259C215.334 126.518 215.334 128.212 214.075 129.276V129.228Z" fill="url(#paint1_linear_107_52)"/>
<path d="M55.6482 280.575L47.8091 264.022H42.583L55.5998 289.964L68.5682 264.022H63.3421L55.5998 280.575H55.6482Z" fill="#555555"/>
<path d="M78.8269 281.64C78.8269 284.592 77.1817 285.318 75.2945 285.318C73.5524 285.318 72.7782 284.495 72.7782 282.027V272.298H68.1328V282.995C68.1328 286.818 69.6329 288.9 73.2621 288.9C76.0203 288.9 77.8591 287.786 78.9237 285.802V288.125H83.5691V272.25H78.9237V281.64H78.8753H78.8269Z" fill="#555555"/>
<path d="M91.021 281.398H103.651C103.699 280.768 103.699 280.139 103.699 279.849C103.699 274.864 100.409 271.33 95.1825 271.33C89.9565 271.33 86.2305 275.348 86.2305 280.139C86.2305 284.931 89.4242 288.803 95.1825 288.803C99.9731 288.803 102.296 286.334 103.506 283.721L99.0537 282.753C98.3279 284.156 97.1665 285.221 95.0858 285.221C93.1018 285.221 91.4081 283.963 91.021 281.398ZM98.715 278.01H91.1662C91.6501 276.122 93.4889 274.815 95.1825 274.815C97.1665 274.815 98.3762 275.928 98.715 278.01Z" fill="#555555"/>
<path d="M119.571 279.655L115.845 282.317C117.393 286.286 120.732 289.141 125.426 289.141C130.942 289.141 134.088 286.625 134.088 281.155C134.088 276.799 130.023 274.476 127.555 273.46C124.797 272.347 122.329 271.911 122.329 269.636C122.329 268.233 123.297 267.216 125.087 267.216C127.507 267.216 128.765 268.959 129.829 271.04L133.41 268.281C132.442 265.813 130.12 262.909 125.426 262.909C120.732 262.909 117.393 265.813 117.393 269.83C117.393 274.186 121.216 276.122 123.539 277.09C126.297 278.203 128.765 279.074 128.765 281.833C128.765 283.575 127.652 284.785 125.523 284.785C122.861 284.737 121.022 282.898 119.619 279.558L119.571 279.655Z" fill="#555555"/>
<path d="M137.717 266.732V272.25H135.104V276.219H137.717V288.125H142.362V276.267H144.975V272.298H142.362V266.732H137.717Z" fill="#555555"/>
<path d="M150.347 280.236C150.347 277.284 152.089 275.348 154.944 275.348C157.799 275.348 159.541 277.235 159.541 280.236C159.541 283.237 157.799 285.124 154.944 285.124C152.089 285.124 150.347 283.285 150.347 280.236ZM145.653 280.236C145.653 285.754 150.105 289.045 154.944 289.045C159.783 289.045 164.186 285.754 164.186 280.236C164.186 274.718 159.734 271.427 154.895 271.427C150.056 271.427 145.653 274.718 145.653 280.236Z" fill="#555555"/>
<path d="M177.3 277.042L179.719 273.315C178.897 272.347 177.687 271.766 175.896 271.766C174.396 271.766 172.848 272.734 171.832 274.283V272.25H166.944V288.174H171.832V279.171C171.832 276.848 172.751 276.219 174.638 276.219C175.558 276.267 176.525 276.509 177.3 277.042Z" fill="#555555"/>
<path d="M185.38 281.398H198.01C198.058 280.768 198.058 280.139 198.058 279.849C198.058 274.864 194.768 271.33 189.542 271.33C184.316 271.33 180.59 275.348 180.59 280.139C180.59 284.931 183.784 288.803 189.542 288.803C194.332 288.803 196.655 286.334 197.865 283.721L193.413 282.753C192.687 284.156 191.526 285.221 189.445 285.221C187.413 285.221 185.768 283.963 185.38 281.398ZM193.026 278.01H185.477C185.961 276.122 187.8 274.815 189.494 274.815C191.381 274.815 192.687 275.928 193.026 278.01Z" fill="#555555"/>
<path d="M210.398 265.813L212.14 262.086C211.656 261.36 210.107 260.44 207.93 260.44C203.623 260.44 201.446 262.909 201.446 266.297V272.153H199.171V276.122H201.446V288.028H206.091V276.17H210.059V272.202H206.091V267.216C206.091 265.329 207.059 264.603 208.123 264.603C209.333 264.603 209.865 265.038 210.398 265.813Z" fill="#555555"/>
<path d="M223.124 277.042L225.544 273.315C224.721 272.347 223.511 271.766 221.721 271.766C220.221 271.766 218.672 272.734 217.656 274.283V272.25H212.866V288.174H217.656V279.171C217.656 276.848 218.576 276.219 220.463 276.219C221.382 276.267 222.447 276.509 223.124 277.042Z" fill="#555555"/>
<path d="M231.109 280.236C231.109 277.284 232.851 275.348 235.706 275.348C238.561 275.348 240.303 277.235 240.303 280.236C240.303 283.237 238.561 285.124 235.706 285.124C232.851 285.124 231.109 283.285 231.109 280.236ZM226.463 280.236C226.463 285.754 230.915 289.045 235.754 289.045C240.593 289.045 245.045 285.754 245.045 280.236C245.045 274.718 240.593 271.427 235.754 271.427C230.915 271.427 226.463 274.718 226.463 280.236Z" fill="#555555"/>
<path d="M252.4 278.542C252.4 276.219 254.046 275.251 255.933 275.251C257.675 275.251 258.449 276.074 258.449 278.542V288.271H263.094V277.477C263.094 273.654 260.917 271.573 257.578 271.573C255.11 271.573 253.368 272.783 252.352 274.67V272.347H247.707V288.271H252.352V278.542H252.4Z" fill="#555555"/>
<path d="M267.111 266.732V272.25H264.498V276.219H267.111V288.125H271.756V276.267H274.369V272.298H271.756V266.732H267.111Z" fill="#555555"/>
<path d="M96.1982 393.299H100.118V382.796H108.247C113.328 382.796 116.764 379.65 116.764 375.052C116.764 370.454 113.328 367.259 108.247 367.259H96.1982V393.299ZM107.812 370.696C110.86 370.696 112.796 372.39 112.796 375.1C112.796 377.81 110.86 379.505 107.812 379.505H100.069V370.696H107.812Z" fill="white"/>
<path d="M125.329 393.637C127.651 393.637 129.538 393.008 131.184 391.653V393.298H134.813V380.763C134.813 376.407 132.006 373.987 127.071 373.987C124.554 373.987 122.135 374.568 119.28 375.923L120.635 378.73C122.957 377.617 124.748 377.133 126.49 377.133C129.49 377.133 131.087 378.488 131.087 381.15V383.134C129.49 382.457 127.748 382.07 125.909 382.07C121.167 382.07 118.264 384.248 118.264 387.829C118.264 391.411 121.07 393.589 125.232 393.589L125.329 393.637ZM121.941 387.829C121.941 385.942 123.635 384.683 126.345 384.683C128.232 384.683 129.78 385.07 131.232 385.845V389.136C129.877 390.346 128.232 390.927 126.2 390.927C123.683 390.927 121.941 389.668 121.941 387.829Z" fill="white"/>
<path d="M139.168 393.298H142.894V380.666C143.862 378.391 145.604 377.23 147.781 377.23C148.507 377.23 149.281 377.375 149.959 377.617V374.277C149.378 374.035 148.894 373.987 148.072 373.987C145.846 373.987 144.007 375.003 142.846 376.794V374.374H139.12V393.298H139.168Z" fill="white"/>
<path d="M155.572 388.604C155.572 391.895 157.556 393.637 161.234 393.637C162.347 393.637 163.75 393.395 164.766 393.057V389.911C163.847 390.249 163.072 390.346 162.056 390.346C160.024 390.346 159.25 389.62 159.25 387.684V377.423H164.814V374.277H159.25V368.566L155.572 369.437V374.277H151.556V377.423H155.572V388.555V388.604Z" fill="white"/>
<path d="M167.573 393.298H171.299V379.698C172.363 378.101 173.96 377.23 175.993 377.23C178.848 377.23 180.686 379.069 180.686 382.021V393.298H184.412V381.392C184.412 376.988 181.364 373.987 177.009 373.987C174.734 373.987 172.799 374.761 171.299 376.262V374.374H167.573V393.298Z" fill="white"/>
<path d="M205.075 391.169L202.704 388.846C201.494 389.91 199.752 390.54 197.913 390.54C194.623 390.54 192.058 388.265 191.526 385.119H206.478V384.054C206.478 378.488 202.51 374.18 197.332 374.18C192.155 374.18 187.848 378.44 187.848 383.909C187.848 389.378 192.203 393.734 197.768 393.734C200.575 393.734 202.897 392.96 205.075 391.266V391.169ZM197.236 377.181C199.994 377.181 202.22 379.359 202.801 382.263H191.574C192.155 379.262 194.381 377.181 197.284 377.181H197.236Z" fill="white"/>
<path d="M210.01 393.298H213.736V380.666C214.704 378.391 216.446 377.23 218.624 377.23C219.349 377.23 220.124 377.375 220.801 377.617V374.277C220.221 374.035 219.737 373.987 218.914 373.987C216.688 373.987 214.849 375.003 213.688 376.794V374.374H209.962V393.298H210.01Z" fill="white"/>
</g>
<defs>
<linearGradient id="paint0_linear_107_52" x1="0" y1="242" x2="317" y2="242" gradientUnits="userSpaceOnUse">
<stop stop-color="#5DCB79"/>
<stop offset="1" stop-color="#61D67F"/>
</linearGradient>
<linearGradient id="paint1_linear_107_52" x1="251.335" y1="246.646" x2="65.9162" y2="66.3965" gradientUnits="userSpaceOnUse">
<stop stop-color="#5DCB79"/>
<stop offset="1" stop-color="#61D67F"/>
</linearGradient>
<clipPath id="clip0_107_52">
<rect width="317" height="484" fill="white"/>
</clipPath>
</defs>
</svg>
