<svg width="575" height="415" viewBox="0 0 575 415" fill="none" xmlns="http://www.w3.org/2000/svg">
<path d="M512.322 414.885C496.261 381.757 463.821 354.047 456.545 351.852C447.031 348.983 402.153 348.182 387.598 343.812C377.357 340.74 368.962 332.958 359.798 326.964C350.633 320.973 340.701 316.774 328.414 312.626C316.127 308.478 301.485 304.383 290.067 300.03C278.649 295.677 270.457 291.068 266.617 286.715C262.778 282.362 263.291 278.266 268.359 277.089C273.427 275.913 283.054 277.652 293.599 280.675C304.145 283.695 315.615 287.996 324.882 291.326C334.149 294.653 341.214 297.01 345.155 296.395C349.097 295.781 349.917 292.196 343.414 289.123C336.911 286.051 323.088 283.492 308.138 279.037C293.188 274.582 277.113 268.232 269.843 262.957C262.572 257.682 264.108 253.485 270.918 252.766C277.728 252.05 289.809 254.816 304.452 259.117C319.095 263.418 336.297 269.255 346.126 271.664C355.956 274.069 358.413 273.046 358.874 271.049C359.335 269.052 357.799 266.081 346.329 262.395C334.86 258.708 313.459 254.305 300.969 250.207C288.476 246.112 284.892 242.321 283.254 238.738C281.617 235.153 281.924 231.774 287.3 230.237C292.675 228.701 303.119 229.009 316.432 233.208C329.745 237.408 345.921 245.497 355.547 247.138C365.171 248.775 368.246 243.964 365.07 241.095C361.896 238.228 352.476 237.306 342.747 234.541C333.019 231.776 322.984 227.168 318.837 222.713C314.69 218.258 316.432 213.957 322.575 213.549C328.719 213.14 339.267 216.621 351.4 218.618C363.534 220.615 377.255 221.128 384.729 219.795C392.203 218.464 393.431 215.288 392.614 210.885C391.794 206.482 388.928 200.848 384.216 194.243C379.507 187.637 372.952 180.058 369.367 173.351C365.783 166.645 365.168 160.805 366.603 157.17C368.037 153.535 371.518 152.101 374.334 153.996C377.151 155.892 379.301 161.114 383.958 164.442C388.618 167.769 395.784 169.204 399.624 170.792C403.464 172.38 403.977 174.119 404.745 176.221C405.513 178.319 406.536 180.777 410.375 182.724C414.215 184.669 420.871 186.104 426.502 189.431C432.133 192.759 436.74 197.982 439.711 205.152C442.681 212.32 444.011 221.435 446.622 230.243C449.233 239.051 453.125 247.552 463.363 256.204C473.601 264.858 490.191 273.666 516.2 286.569C542.208 299.473 577.638 316.475 595.045 324.975C612.453 333.476 611.838 333.476 605.08 336.14C598.323 338.803 585.421 344.128 569.599 347.866C553.779 351.605 535.039 353.756 517.275 348.736C499.508 343.719 482.715 331.531 472.99 320.778C463.262 310.026 460.598 300.705 457.987 295.432C455.376 290.157 452.818 288.929 446.877 290.925C440.939 292.922 431.62 298.145 421.996 298.658C412.372 299.171 402.438 294.972 395.987 286.83C389.537 278.689 386.567 266.603 385.236 256.925C383.906 247.247 384.213 239.975 380.527 235.06C376.841 230.144 369.162 227.585 358.718 226.353C348.277 225.122 335.071 225.218 321.604 221.122C308.138 217.027 300.865 214.267 290.215 211.914C279.563 209.56 268.301 213.299 262.054 217.26C237.924 232.558 218.449 202.779 194.78 188.414C184.231 182.014 175.938 177.713 171.741 177.301C167.542 176.893 167.441 180.374 173.277 187.363C179.114 194.352 190.891 204.85 200.106 213.913C209.321 222.977 215.977 230.605 218.896 236.009C221.814 241.41 220.994 244.587 215.925 244.329C210.857 244.074 201.537 240.387 191.541 232.487C181.544 224.587 170.864 212.47 162.109 204.738C153.355 197.005 146.523 193.656 144.899 195.565C143.276 197.474 146.86 204.644 153.566 212.632C160.272 220.62 170.104 229.428 173.072 235.521C176.042 241.613 172.15 244.993 167.85 245.302C163.549 245.61 158.84 242.845 154.844 239.081C150.851 235.318 147.573 230.556 140.585 222.337C112.333 189.113 92.9483 185.506 68.6513 161.811C58.3856 151.799 54.4938 141.252 51.2685 134.133C48.0432 127.015 45.4843 123.328 38.5207 118.158C31.5572 112.987 20.1917 106.33 18.7079 100.594C17.2242 94.858 25.6194 90.0466 36.5762 93.9363C47.533 97.8288 61.0487 110.425 74.5151 114.726C87.9814 119.027 101.393 115.033 116.702 117.645C132.012 120.256 149.213 129.473 165.085 139.716C180.957 149.956 195.495 161.221 209.576 172.208C223.657 183.191 237.274 193.894 243.341 201.55C249.407 209.206 247.924 213.815 245.398 214.871C242.872 215.927 239.306 213.431 232.573 207.824C225.84 202.217 215.942 193.499 206.436 185.298C196.93 177.098 187.816 169.418 184.999 163.682C182.183 157.946 185.666 154.158 192.166 154.567C198.669 154.975 208.191 159.584 218.276 165.934C228.36 172.284 239.01 180.374 246.895 182.831C254.78 185.289 259.901 182.116 255.137 175.304C250.376 168.493 235.733 158.048 221.858 149.037C207.983 140.026 194.876 132.446 184.944 125.227C175.011 118.007 168.253 111.144 167.383 106.228C166.514 101.312 171.53 98.3417 181.206 92.9132C190.882 87.4846 205.218 79.5982 211.874 72.3784C218.531 65.1586 217.505 58.6027 214.537 56.2491C211.567 53.8928 206.652 55.7361 202.3 58.6548C197.947 61.5734 194.16 65.5674 186.376 67.1035C178.595 68.6396 166.818 67.7179 158.985 70.0742C151.152 72.4306 147.261 78.0621 137.944 79.5461C128.627 81.0301 113.88 78.3693 94.9011 72.8749C75.922 67.3833 52.7084 59.0608 36.376 46.4645C20.0546 33.8573 10.6035 16.9873 1.15234 0.114624" stroke="#B1B1B1" stroke-width="1.5" stroke-linecap="round" stroke-linejoin="round"/>
</svg>
