<svg width="569" height="477" viewBox="0 0 569 477" fill="none" xmlns="http://www.w3.org/2000/svg">
<mask id="mask0_81_52" style="mask-type:alpha" maskUnits="userSpaceOnUse" x="0" y="0" width="569" height="477">
<g clip-path="url(#clip0_81_52)">
<path d="M502.996 2.2941C501.048 1.25809 498.789 1.37499 496.954 2.60834L385.392 77.6048C383.592 78.8146 382.631 80.8223 382.821 82.976C383.008 85.1305 384.305 86.9357 386.286 87.8087L426.408 105.464L432.121 136.58C432.335 137.757 433.246 138.622 434.436 138.78C434.879 138.839 435.315 138.794 435.71 138.657C436.155 138.504 436.547 138.234 436.859 137.873L436.864 137.872L455.931 118.459L497.261 136.648C498.635 137.252 500.161 137.303 501.545 136.824C501.991 136.67 502.422 136.461 502.825 136.198C504.495 135.116 505.496 133.29 505.506 131.307L506.091 7.46956C506.101 5.26377 504.943 3.3301 502.995 2.29154L502.996 2.2941ZM434.655 137.169C434.275 137.118 433.83 136.859 433.722 136.284L428.211 106.256L445.599 113.908L435.783 136.573C435.524 137.089 435.032 137.22 434.653 137.17L434.655 137.169ZM428.412 104.568L487.835 29.3626L446.286 112.436L428.413 104.571L428.412 104.568ZM438.9 133.47L447.088 114.564L454.336 117.753L438.9 133.47ZM504.462 7.46566L503.877 131.295C503.87 132.727 503.148 134.047 501.943 134.828C500.739 135.608 499.235 135.73 497.923 135.153L447.779 113.088L492.829 23.0102C493.016 22.6363 492.889 22.1849 492.539 21.9623C492.186 21.7406 491.722 21.8183 491.462 22.1486L426.875 103.888L386.946 86.3175C385.515 85.687 384.578 84.3842 384.442 82.8275C384.306 81.2709 385.001 79.8221 386.3 78.949L497.861 3.95257C499.186 3.06202 500.817 2.97598 502.226 3.72579C503.635 4.47561 504.469 5.87383 504.462 7.46566Z" fill="white"/>
<path d="M65.7334 360.885C65.6409 360.917 65.5432 360.933 65.441 360.929C64.9909 360.915 64.6393 360.539 64.6536 360.09C64.6812 359.255 64.7199 358.412 64.7629 357.581C64.7859 357.132 65.1705 356.789 65.6198 356.809C66.07 356.831 66.4148 357.213 66.3919 357.661C66.3478 358.481 66.3116 359.316 66.2831 360.139C66.2703 360.484 66.0431 360.775 65.735 360.881L65.7334 360.885ZM235.382 301.552C235.366 301.557 235.351 301.563 235.333 301.569C234.256 301.87 233.145 302.131 232.031 302.35C231.589 302.437 231.162 302.149 231.076 301.709C230.99 301.27 231.277 300.844 231.721 300.756C232.792 300.546 233.863 300.293 234.898 300.004C235.33 299.883 235.78 300.137 235.901 300.568C236.016 300.983 235.786 301.415 235.383 301.554L235.382 301.552ZM243.125 298.527C242.747 298.658 242.321 298.496 242.134 298.131C241.93 297.732 242.088 297.242 242.489 297.038C243.446 296.549 244.404 296.011 245.337 295.442C245.722 295.209 246.223 295.328 246.456 295.711C246.689 296.094 246.569 296.594 246.184 296.828C245.216 297.418 244.222 297.976 243.225 298.484C243.191 298.502 243.156 298.517 243.12 298.529L243.125 298.527ZM223.873 303.179C223.793 303.206 223.709 303.221 223.621 303.223C222.512 303.242 221.374 303.226 220.242 303.177C219.793 303.158 219.445 302.777 219.466 302.329C219.486 301.881 219.866 301.534 220.318 301.553C221.419 301.602 222.522 301.615 223.596 301.596C224.045 301.59 224.415 301.946 224.423 302.393C224.429 302.751 224.198 303.063 223.874 303.175L223.873 303.179ZM252.712 291.958C252.409 292.063 252.059 291.983 251.836 291.728C251.539 291.393 251.57 290.878 251.908 290.581C252.716 289.869 253.521 289.112 254.296 288.337C254.615 288.021 255.131 288.017 255.447 288.334C255.767 288.651 255.767 289.166 255.448 289.482C254.65 290.283 253.821 291.062 252.984 291.798C252.902 291.869 252.809 291.924 252.712 291.958ZM212.281 302.205C212.152 302.249 212.013 302.263 211.872 302.237C210.786 302.046 209.677 301.823 208.573 301.574C208.134 301.477 207.86 301.042 207.959 300.604C208.057 300.166 208.494 299.892 208.933 299.989C210.012 300.232 211.098 300.449 212.161 300.637C212.605 300.715 212.898 301.138 212.817 301.578C212.763 301.878 212.55 302.112 212.281 302.205ZM298.969 270.721C298.546 270.867 298.081 270.644 297.934 270.22C297.787 269.795 298.013 269.334 298.439 269.186C299.466 268.831 300.504 268.443 301.529 268.04C301.943 267.877 302.419 268.079 302.583 268.497C302.748 268.916 302.544 269.387 302.124 269.553C301.077 269.966 300.017 270.359 298.97 270.723L298.969 270.721ZM290.972 273.017C290.943 273.027 290.915 273.037 290.885 273.042C290.238 273.188 289.576 273.328 288.922 273.457C288.476 273.546 288.027 273.629 287.58 273.707C287.136 273.786 286.714 273.488 286.639 273.047C286.561 272.604 286.858 272.184 287.303 272.107C287.739 272.031 288.174 271.949 288.61 271.864C289.25 271.737 289.893 271.603 290.527 271.459C290.967 271.358 291.402 271.634 291.5 272.07C291.592 272.476 291.359 272.883 290.972 273.017ZM260.566 283.379C260.319 283.465 260.037 283.431 259.813 283.265C259.453 282.997 259.378 282.487 259.647 282.128C260.293 281.26 260.929 280.358 261.538 279.443C261.788 279.068 262.292 278.965 262.668 279.213C263.044 279.461 263.147 279.964 262.897 280.339C262.273 281.277 261.619 282.205 260.956 283.096C260.854 283.231 260.717 283.327 260.568 283.379L260.566 283.379ZM309.683 266.145C309.303 266.276 308.878 266.111 308.691 265.746C308.489 265.346 308.651 264.858 309.052 264.653C310.018 264.165 311 263.647 311.975 263.116C312.372 262.901 312.863 263.043 313.08 263.438C313.296 263.83 313.151 264.324 312.758 264.54C311.767 265.083 310.768 265.609 309.786 266.103C309.752 266.121 309.719 266.135 309.683 266.147L309.683 266.145ZM66.5506 350.126C66.4377 350.165 66.3159 350.179 66.1904 350.165C65.7442 350.113 65.4241 349.711 65.4762 349.264C65.6075 348.156 65.7568 347.042 65.9166 345.95C65.9816 345.506 66.3949 345.197 66.8404 345.264C67.285 345.328 67.594 345.739 67.5264 346.183C67.3673 347.261 67.2213 348.359 67.0933 349.452C67.0545 349.772 66.8356 350.028 66.5506 350.126ZM279.439 274.584C279.367 274.608 279.289 274.624 279.21 274.628C278.095 274.679 276.96 274.705 275.84 274.7C275.391 274.698 275.027 274.334 275.03 273.886C275.033 273.438 275.399 273.074 275.848 273.076C276.941 273.079 278.049 273.057 279.137 273.004C279.587 272.983 279.968 273.33 279.988 273.778C280.003 274.145 279.773 274.468 279.439 274.584ZM319.784 260.332C319.437 260.451 319.04 260.325 318.834 260.004C318.591 259.627 318.7 259.126 319.078 258.88C319.983 258.298 320.912 257.685 321.838 257.055C322.211 256.803 322.717 256.897 322.969 257.268C323.221 257.639 323.126 258.145 322.753 258.397C321.815 259.033 320.875 259.656 319.958 260.245C319.902 260.282 319.843 260.311 319.784 260.332ZM201.009 299.339C200.847 299.395 200.665 299.401 200.49 299.344C199.451 299.008 198.384 298.641 197.317 298.256C196.894 298.105 196.676 297.639 196.828 297.217C196.981 296.795 197.449 296.576 197.872 296.727C198.922 297.106 199.972 297.464 200.996 297.797C201.423 297.936 201.656 298.394 201.516 298.82C201.434 299.072 201.239 299.257 201.008 299.337L201.009 299.339ZM329.319 253.631C328.996 253.743 328.622 253.643 328.404 253.355C328.134 252.996 328.202 252.488 328.563 252.217C329.419 251.569 330.302 250.889 331.188 250.193C331.543 249.915 332.056 249.976 332.332 250.327C332.609 250.678 332.547 251.189 332.195 251.468C331.303 252.169 330.41 252.856 329.547 253.509C329.477 253.563 329.401 253.603 329.322 253.63L329.319 253.631ZM267.807 274.119C267.692 274.159 267.568 274.173 267.439 274.158C266.329 274.017 265.208 273.85 264.109 273.654C263.665 273.576 263.37 273.157 263.45 272.714C263.53 272.271 263.951 271.976 264.395 272.055C264.817 272.129 265.244 272.199 265.669 272.267C266.141 271.311 266.596 270.334 267.022 269.356C267.202 268.945 267.683 268.755 268.095 268.934C268.507 269.112 268.696 269.591 268.516 270.002C268.151 270.841 267.764 271.683 267.363 272.509C267.456 272.522 267.552 272.532 267.645 272.546C268.093 272.603 268.407 273.01 268.35 273.453C268.311 273.77 268.09 274.021 267.807 274.119ZM338.409 246.34C338.099 246.448 337.744 246.362 337.521 246.098C337.229 245.755 337.274 245.244 337.619 244.953C338.467 244.239 339.311 243.52 340.148 242.801C340.489 242.505 341.003 242.545 341.298 242.884C341.591 243.224 341.552 243.736 341.212 244.031C340.37 244.755 339.522 245.477 338.67 246.196C338.592 246.263 338.503 246.311 338.41 246.343L338.409 246.34ZM68.5081 338.676C68.3695 338.724 68.2184 338.736 68.0627 338.701C67.6237 338.604 67.3497 338.169 67.4483 337.731C67.6965 336.637 67.9628 335.545 68.2439 334.48C68.358 334.045 68.8027 333.786 69.2384 333.898C69.674 334.011 69.9336 334.454 69.8195 334.889C69.5442 335.938 69.2812 337.014 69.0379 338.089C68.973 338.375 68.7657 338.59 68.509 338.678L68.5081 338.676ZM190.136 295.185C189.951 295.249 189.74 295.247 189.547 295.162C188.575 294.745 187.576 294.306 186.492 293.824C186.082 293.643 185.898 293.162 186.084 292.751C186.267 292.342 186.749 292.158 187.161 292.342C188.238 292.822 189.23 293.256 190.196 293.672C190.608 293.85 190.798 294.325 190.62 294.739C190.526 294.958 190.347 295.114 190.137 295.187L190.136 295.185ZM256.432 271.687C256.276 271.741 256.1 271.748 255.927 271.696C254.857 271.37 253.783 271.014 252.732 270.636C252.309 270.484 252.09 270.019 252.243 269.597C252.396 269.174 252.863 268.955 253.287 269.107C254.314 269.476 255.362 269.823 256.406 270.141C256.837 270.273 257.077 270.725 256.947 271.154C256.867 271.414 256.67 271.602 256.432 271.685L256.432 271.687ZM347.202 238.689C346.902 238.793 346.553 238.715 346.328 238.464C346.028 238.129 346.057 237.615 346.394 237.316C347.219 236.578 348.045 235.84 348.868 235.097C349.203 234.795 349.718 234.82 350.019 235.151C350.321 235.482 350.295 235.998 349.962 236.299C349.14 237.045 348.31 237.787 347.482 238.526C347.398 238.601 347.305 238.653 347.204 238.688L347.202 238.689ZM270.903 262.653C270.747 262.707 270.574 262.715 270.401 262.663C269.971 262.534 269.728 262.08 269.858 261.651C270.175 260.614 270.471 259.549 270.742 258.487C270.853 258.054 271.296 257.789 271.731 257.899C272.166 258.009 272.43 258.45 272.319 258.884C272.042 259.971 271.737 261.058 271.415 262.121C271.335 262.38 271.14 262.571 270.901 262.654L270.903 262.653ZM355.811 230.84C355.516 230.942 355.175 230.87 354.95 230.628C354.645 230.301 354.659 229.786 354.99 229.48C355.801 228.724 356.608 227.966 357.415 227.206C357.742 226.898 358.258 226.912 358.566 227.238C358.875 227.563 358.86 228.078 358.533 228.386C357.725 229.15 356.915 229.908 356.099 230.666C356.012 230.747 355.914 230.804 355.809 230.84L355.811 230.84ZM179.529 290.396C179.337 290.463 179.119 290.458 178.921 290.366C177.915 289.901 176.91 289.438 175.902 288.976C175.493 288.788 175.314 288.306 175.504 287.899C175.693 287.49 176.178 287.314 176.585 287.5C177.592 287.962 178.601 288.426 179.607 288.892C180.014 289.08 180.192 289.563 180.002 289.969C179.905 290.178 179.732 290.326 179.529 290.396ZM71.7505 327.517C71.5811 327.575 71.3922 327.578 71.2095 327.515C70.7864 327.363 70.5653 326.899 70.7181 326.476C71.0964 325.426 71.4988 324.371 71.9134 323.342C72.0826 322.926 72.5554 322.722 72.9727 322.89C73.3891 323.055 73.5932 323.529 73.4239 323.945C73.0168 324.954 72.6221 325.99 72.2513 327.02C72.1653 327.262 71.9755 327.436 71.7496 327.514L71.7505 327.517ZM245.645 267.348C245.442 267.418 245.215 267.408 245.009 267.305C244.009 266.797 243.014 266.256 242.049 265.702C241.662 265.478 241.527 264.981 241.752 264.594C241.978 264.206 242.477 264.071 242.865 264.295C243.805 264.837 244.777 265.363 245.75 265.857C246.151 266.059 246.309 266.549 246.105 266.949C246.005 267.143 245.838 267.281 245.645 267.348ZM364.248 222.807C363.958 222.907 363.627 222.838 363.398 222.608C363.083 222.288 363.091 221.772 363.414 221.46C364.208 220.687 365 219.912 365.789 219.135C366.11 218.818 366.627 218.822 366.941 219.141C367.255 219.459 367.252 219.975 366.933 220.289C366.142 221.069 365.347 221.845 364.552 222.621C364.463 222.706 364.359 222.771 364.249 222.809L364.248 222.807ZM273.393 251.31C273.275 251.351 273.148 251.366 273.014 251.347C272.568 251.286 272.257 250.878 272.319 250.433C272.469 249.353 272.598 248.257 272.7 247.171C272.741 246.725 273.138 246.395 273.587 246.438C274.035 246.477 274.364 246.873 274.321 247.321C274.216 248.431 274.084 249.553 273.93 250.655C273.886 250.968 273.67 251.214 273.387 251.312L273.393 251.31ZM168.909 285.636C168.725 285.699 168.517 285.697 168.325 285.614C167.277 285.169 166.248 284.746 165.264 284.353C164.847 284.185 164.646 283.714 164.813 283.298C164.982 282.881 165.456 282.68 165.872 282.846C166.863 283.242 167.905 283.669 168.963 284.119C169.377 284.294 169.568 284.772 169.392 285.185C169.298 285.404 169.117 285.564 168.907 285.636L168.909 285.636ZM372.507 214.592C372.225 214.69 371.898 214.628 371.669 214.406C371.349 214.093 371.346 213.579 371.66 213.258C372.436 212.469 373.211 211.676 373.983 210.883C374.297 210.559 374.811 210.55 375.134 210.862C375.458 211.174 375.463 211.688 375.152 212.01C374.379 212.808 373.601 213.601 372.821 214.395C372.729 214.487 372.621 214.556 372.508 214.595L372.507 214.592ZM76.4194 316.875C76.214 316.946 75.9804 316.935 75.774 316.829C75.3744 316.621 75.2217 316.13 75.4323 315.733C75.9546 314.742 76.501 313.754 77.0606 312.796C77.286 312.409 77.7861 312.276 78.1739 312.5C78.5618 312.723 78.6939 313.222 78.4686 313.609C77.9216 314.546 77.3862 315.516 76.874 316.486C76.7729 316.676 76.6068 316.81 76.4168 316.876L76.4194 316.875ZM235.82 261.153C235.568 261.24 235.279 261.202 235.055 261.028C234.165 260.342 233.288 259.626 232.447 258.897C232.107 258.602 232.07 258.091 232.367 257.751C232.66 257.411 233.177 257.376 233.516 257.668C234.336 258.375 235.19 259.074 236.053 259.741C236.409 260.015 236.474 260.526 236.196 260.879C236.095 261.009 235.963 261.1 235.819 261.15L235.82 261.153ZM380.587 206.202C380.31 206.297 379.991 206.241 379.762 206.026C379.434 205.718 379.418 205.206 379.727 204.878C380.486 204.072 381.243 203.263 381.998 202.452C382.306 202.122 382.82 202.104 383.149 202.408C383.479 202.713 383.499 203.227 383.19 203.557C382.434 204.371 381.674 205.181 380.913 205.989C380.82 206.086 380.707 206.157 380.586 206.199L380.587 206.202ZM158.017 281.539C157.855 281.595 157.675 281.6 157.501 281.546C156.438 281.206 155.375 280.889 154.344 280.601C153.911 280.482 153.659 280.034 153.782 279.601C153.903 279.17 154.353 278.917 154.786 279.039C155.836 279.332 156.917 279.657 158.002 280.001C158.431 280.136 158.665 280.596 158.527 281.022C158.446 281.276 158.251 281.461 158.017 281.542L158.017 281.539ZM82.5999 307.031C82.3535 307.116 82.0715 307.082 81.8483 306.919C81.4858 306.652 81.4111 306.145 81.6796 305.783C82.3489 304.884 83.0431 303.991 83.7453 303.13C84.0303 302.782 84.5433 302.728 84.8913 303.011C85.2394 303.294 85.2927 303.806 85.0077 304.153C84.3216 304.995 83.64 305.867 82.9878 306.748C82.8861 306.886 82.7497 306.982 82.6008 307.034L82.5999 307.031ZM274.106 239.72C274.027 239.748 273.94 239.763 273.852 239.765C273.402 239.771 273.032 239.416 273.026 238.965C273.011 237.876 272.972 236.773 272.908 235.684C272.883 235.237 273.225 234.853 273.675 234.826C274.123 234.8 274.509 235.142 274.534 235.589C274.597 236.701 274.639 237.829 274.653 238.941C274.657 239.301 274.427 239.609 274.104 239.721L274.106 239.72ZM388.48 197.635C388.208 197.729 387.896 197.677 387.668 197.472C387.334 197.172 387.306 196.658 387.607 196.325C388.348 195.501 389.087 194.679 389.824 193.851C390.121 193.514 390.637 193.484 390.973 193.783C391.309 194.082 391.339 194.593 391.039 194.929C390.299 195.757 389.56 196.586 388.816 197.41C388.72 197.515 388.603 197.593 388.477 197.636L388.48 197.635ZM227.374 253.189C227.069 253.294 226.716 253.213 226.491 252.953C225.756 252.107 225.039 251.233 224.357 250.349C224.082 249.994 224.15 249.484 224.506 249.209C224.865 248.933 225.374 249.001 225.649 249.355C226.314 250.213 227.011 251.066 227.726 251.887C228.021 252.226 227.984 252.74 227.642 253.033C227.561 253.104 227.472 253.155 227.377 253.188L227.374 253.189ZM146.689 278.905C146.574 278.945 146.449 278.959 146.32 278.943C145.251 278.809 144.151 278.703 143.053 278.63C142.603 278.6 142.265 278.213 142.297 277.766C142.33 277.32 142.718 276.979 143.166 277.01C144.296 277.086 145.425 277.194 146.526 277.335C146.973 277.389 147.286 277.796 147.23 278.242C147.191 278.559 146.97 278.81 146.688 278.908L146.689 278.905ZM90.2703 298.287C89.9803 298.387 89.6464 298.319 89.419 298.086C89.1066 297.764 89.1151 297.249 89.4383 296.936C90.2419 296.16 91.0747 295.394 91.9148 294.657C92.2518 294.36 92.7691 294.393 93.0636 294.729C93.3581 295.065 93.3264 295.58 92.9885 295.875C92.168 296.594 91.3556 297.344 90.569 298.103C90.4806 298.188 90.3782 298.249 90.2678 298.288L90.2703 298.287ZM396.186 188.902C395.921 188.993 395.615 188.947 395.389 188.75C395.049 188.458 395.01 187.945 395.303 187.606C396.028 186.768 396.749 185.926 397.467 185.085C397.759 184.743 398.273 184.7 398.616 184.991C398.958 185.282 399 185.795 398.707 186.137C397.987 186.981 397.264 187.824 396.538 188.665C396.439 188.779 396.317 188.859 396.186 188.904L396.186 188.902ZM135.059 278.577C134.99 278.601 134.917 278.615 134.841 278.621C133.756 278.69 132.653 278.785 131.563 278.907C131.115 278.956 130.714 278.637 130.666 278.189C130.617 277.742 130.939 277.342 131.387 277.293C132.502 277.168 133.632 277.069 134.743 277C135.193 276.97 135.579 277.312 135.606 277.758C135.629 278.131 135.395 278.461 135.059 278.577ZM99.2849 290.928C98.9461 291.045 98.5611 290.929 98.3484 290.621C98.0939 290.251 98.1892 289.746 98.5585 289.492C99.4786 288.862 100.425 288.242 101.38 287.654C101.762 287.419 102.264 287.534 102.503 287.916C102.739 288.298 102.621 288.797 102.238 289.036C101.308 289.612 100.379 290.217 99.4814 290.831C99.4183 290.873 99.3526 290.907 99.2858 290.93L99.2849 290.928ZM123.541 280.276C123.512 280.286 123.487 280.294 123.457 280.299C122.393 280.547 121.321 280.823 120.268 281.118C119.836 281.239 119.384 280.989 119.264 280.558C119.143 280.127 119.397 279.681 119.828 279.555C120.904 279.252 122.002 278.969 123.09 278.716C123.529 278.613 123.965 278.886 124.068 279.323C124.163 279.731 123.931 280.141 123.541 280.276ZM109.395 285.157C109.005 285.292 108.569 285.113 108.392 284.733C108.202 284.326 108.38 283.844 108.786 283.655C109.801 283.181 110.837 282.728 111.871 282.302C112.287 282.135 112.762 282.328 112.934 282.741C113.106 283.155 112.905 283.631 112.491 283.803C111.482 284.218 110.466 284.663 109.475 285.123C109.448 285.136 109.423 285.147 109.398 285.156L109.395 285.157ZM273.07 228.156C273.026 228.172 272.984 228.183 272.938 228.191C272.495 228.264 272.075 227.965 272 227.524C271.821 226.449 271.619 225.365 271.393 224.298C271.302 223.859 271.584 223.43 272.023 223.335C272.463 223.243 272.896 223.523 272.987 223.961C273.217 225.05 273.426 226.16 273.607 227.258C273.672 227.653 273.438 228.032 273.071 228.159L273.07 228.156ZM220.657 243.73C220.295 243.856 219.883 243.712 219.686 243.367C219.13 242.4 218.593 241.403 218.091 240.408C217.889 240.008 218.051 239.52 218.452 239.318C218.857 239.118 219.343 239.276 219.545 239.676C220.033 240.647 220.555 241.618 221.097 242.559C221.32 242.948 221.185 243.445 220.793 243.669C220.748 243.696 220.7 243.715 220.654 243.731L220.657 243.73ZM403.699 180.003C403.44 180.092 403.14 180.05 402.915 179.864C402.567 179.581 402.519 179.068 402.805 178.722C403.51 177.869 404.211 177.013 404.912 176.155C405.197 175.807 405.71 175.753 406.058 176.036C406.406 176.32 406.459 176.831 406.174 177.179C405.472 178.04 404.769 178.899 404.061 179.754C403.962 179.874 403.836 179.958 403.7 180.005L403.699 180.003ZM411.012 170.941C410.758 171.029 410.468 170.989 410.241 170.812C409.887 170.537 409.828 170.025 410.105 169.671C410.79 168.801 411.475 167.931 412.155 167.057C412.433 166.704 412.945 166.638 413.299 166.914C413.653 167.19 413.717 167.7 413.44 168.054C412.757 168.928 412.071 169.804 411.383 170.675C411.283 170.801 411.154 170.892 411.01 170.942L411.012 170.941ZM270.307 216.886C270.307 216.886 270.297 216.89 270.294 216.891C269.866 217.031 269.406 216.8 269.267 216.373C269.136 215.968 268.999 215.563 268.86 215.162C268.642 214.533 268.414 213.898 268.179 213.275C268.022 212.854 268.233 212.386 268.656 212.228C269.081 212.061 269.545 212.282 269.705 212.702C269.945 213.338 270.177 213.985 270.4 214.629C270.543 215.041 270.682 215.454 270.817 215.868C270.955 216.29 270.726 216.744 270.308 216.889L270.307 216.886ZM215.855 233.171C215.429 233.319 214.966 233.095 214.819 232.67C214.455 231.617 214.113 230.538 213.805 229.464C213.682 229.032 213.94 228.582 214.365 228.457C214.797 228.334 215.248 228.582 215.374 229.013C215.675 230.058 216.007 231.109 216.362 232.137C216.509 232.561 216.284 233.023 215.858 233.17L215.855 233.171ZM418.124 161.72C417.878 161.805 417.593 161.772 417.368 161.603C417.008 161.335 416.938 160.824 417.207 160.465C417.873 159.581 418.538 158.695 419.199 157.805C419.468 157.446 419.979 157.369 420.338 157.635C420.701 157.902 420.773 158.409 420.507 158.77C419.844 159.661 419.18 160.55 418.509 161.437C418.409 161.572 418.272 161.666 418.126 161.716L418.124 161.72ZM425.031 152.346C424.789 152.429 424.512 152.399 424.289 152.239C423.924 151.979 423.839 151.469 424.104 151.106C424.751 150.206 425.397 149.307 426.036 148.404C426.297 148.039 426.804 147.95 427.172 148.209C427.541 148.468 427.627 148.974 427.366 149.342C426.722 150.246 426.077 151.151 425.429 152.051C425.325 152.192 425.187 152.292 425.033 152.345L425.031 152.346ZM265.861 206.167C265.484 206.298 265.056 206.134 264.869 205.769C264.372 204.795 263.848 203.822 263.315 202.878C263.094 202.488 263.233 201.993 263.624 201.769C264.013 201.548 264.511 201.683 264.736 202.075C265.282 203.04 265.818 204.032 266.327 205.03C266.531 205.429 266.37 205.92 265.969 206.121C265.935 206.139 265.899 206.154 265.864 206.166L265.861 206.167ZM213.109 221.901C213.061 221.918 213.013 221.929 212.961 221.938C212.515 222.004 212.102 221.697 212.037 221.253C211.876 220.146 211.743 219.023 211.641 217.913C211.601 217.466 211.929 217.069 212.378 217.028C212.827 216.987 213.222 217.315 213.264 217.761C213.362 218.841 213.493 219.936 213.65 221.013C213.708 221.405 213.473 221.773 213.111 221.898L213.109 221.901ZM259.785 196.278C259.456 196.392 259.077 196.285 258.861 195.991C258.214 195.109 257.54 194.234 256.86 193.389C256.578 193.04 256.634 192.528 256.985 192.246C257.336 191.965 257.849 192.019 258.131 192.368C258.828 193.23 259.517 194.125 260.178 195.031C260.444 195.392 260.364 195.9 259.999 196.167C259.933 196.216 259.859 196.252 259.785 196.278ZM212.533 210.313C212.438 210.346 212.335 210.362 212.23 210.358C211.78 210.339 211.433 209.958 211.453 209.51C211.506 208.392 211.59 207.263 211.707 206.154C211.754 205.708 212.153 205.384 212.602 205.427C213.049 205.472 213.373 205.87 213.33 206.318C213.217 207.396 213.135 208.496 213.082 209.582C213.065 209.923 212.839 210.207 212.533 210.313ZM252.124 187.559C251.85 187.654 251.535 187.599 251.308 187.391C250.492 186.645 249.655 185.936 248.821 185.287C248.467 185.012 248.403 184.501 248.68 184.148C248.957 183.794 249.469 183.729 249.823 184.004C250.692 184.68 251.562 185.416 252.41 186.191C252.742 186.494 252.762 187.009 252.46 187.339C252.366 187.443 252.25 187.515 252.127 187.558L252.124 187.559ZM214.28 198.844C214.129 198.896 213.962 198.905 213.794 198.86C213.362 198.74 213.109 198.292 213.23 197.861C213.539 196.766 213.893 195.681 214.283 194.639C214.439 194.218 214.908 194.004 215.33 194.159C215.751 194.314 215.965 194.781 215.809 195.202C215.433 196.203 215.093 197.245 214.797 198.295C214.723 198.562 214.521 198.76 214.278 198.845L214.28 198.844ZM242.466 181.174C242.284 181.237 242.079 181.236 241.885 181.157C240.872 180.737 239.851 180.394 238.849 180.139C238.414 180.029 238.15 179.588 238.263 179.151C238.374 178.717 238.817 178.452 239.255 178.564C240.333 178.838 241.432 179.206 242.519 179.657C242.935 179.829 243.129 180.306 242.956 180.721C242.863 180.942 242.683 181.102 242.47 181.175L242.466 181.174ZM219.13 188.32C218.892 188.402 218.62 188.373 218.397 188.218C218.029 187.962 217.938 187.455 218.198 187.087C218.872 186.127 219.593 185.227 220.344 184.409C220.649 184.077 221.164 184.054 221.496 184.357C221.828 184.66 221.851 185.174 221.546 185.506C220.842 186.27 220.166 187.117 219.534 188.017C219.433 188.164 219.29 188.265 219.133 188.319L219.13 188.32ZM231.074 179.89C231.041 179.902 231.01 179.912 230.975 179.919C230.897 179.934 230.823 179.952 230.745 179.97C229.791 180.185 228.852 180.487 227.955 180.869C227.538 181.042 227.065 180.853 226.887 180.439C226.713 180.027 226.905 179.551 227.32 179.373C228.308 178.954 229.342 178.619 230.389 178.383C230.475 178.365 230.557 178.345 230.643 178.327C231.082 178.235 231.516 178.515 231.607 178.953C231.692 179.359 231.459 179.754 231.076 179.887L231.074 179.89Z" fill="white"/>
</g>
</mask>
<g mask="url(#mask0_81_52)">
<rect x="-4" y="-66.0396" width="531" height="446.422" fill="#D9D9D9"/>
</g>
<path d="M101 476C85.5006 448.5 63.6175 402.4 65.4996 358" stroke="#D9D9D9" stroke-width="1.7" stroke-dasharray="5 9"/>
<defs>
<clipPath id="clip0_81_52">
<rect width="553.631" height="255.283" fill="white" transform="matrix(0.909585 -0.415519 0.25333 0.96738 0.291992 230.044)"/>
</clipPath>
</defs>
</svg>
