<svg width="520" height="127" viewBox="0 0 520 127" fill="none" xmlns="http://www.w3.org/2000/svg">
<g clip-path="url(#clip0_45_210)">
<mask id="mask0_45_210" style="mask-type:luminance" maskUnits="userSpaceOnUse" x="0" y="0" width="520" height="127">
<path d="M519.63 0H0.849609V126.26H519.63V0Z" fill="white"/>
</mask>
<g mask="url(#mask0_45_210)">
<path d="M206.18 101.23H222.48L192.78 16.81H173.89L144.19 101.23H160.49L167.45 80.44H199.18L206.18 101.23ZM171.6 68.12L183.01 34.15H183.66L195.07 68.12H171.6ZM238.6 64.15V101.24H223.69V37.96H237.95V48.72H238.69C240.16 45.18 242.49 42.37 245.69 40.29C248.89 38.22 252.87 37.18 257.58 37.18C261.95 37.18 265.75 38.13 269.04 39.99C272.28 41.85 274.83 44.57 276.6 48.12C278.42 51.66 279.28 55.94 279.24 61V101.24H264.33V63.25C264.33 59.01 263.25 55.73 261.04 53.31C258.84 50.93 255.85 49.72 252.01 49.72C249.42 49.72 247.08 50.28 245.05 51.45C243.02 52.57 241.46 54.22 240.29 56.38C239.21 58.5 238.6 61.09 238.6 64.16V64.15ZM312.13 126.26C306.77 126.26 302.19 125.53 298.34 124.1C294.49 122.67 291.42 120.73 289.09 118.31C286.76 115.89 285.11 113.21 284.25 110.27L297.69 107.03C298.29 108.28 299.16 109.49 300.33 110.7C301.5 111.91 303.05 112.95 305 113.77C306.95 114.59 309.45 114.98 312.44 114.98C316.68 114.98 320.18 113.94 322.94 111.91C325.71 109.88 327.09 106.51 327.09 101.84V89.87H326.36C325.58 91.43 324.46 92.98 322.99 94.63C321.52 96.27 319.58 97.61 317.2 98.69C314.78 99.77 311.8 100.33 308.17 100.33C303.33 100.33 298.92 99.16 294.94 96.87C291.01 94.58 287.85 91.12 285.56 86.58C283.23 82 282.06 76.29 282.06 69.38C282.06 62.47 283.23 56.54 285.56 51.74C287.89 46.94 291.01 43.31 294.98 40.8C298.96 38.29 303.37 37.08 308.21 37.08C311.93 37.08 315 37.68 317.37 38.94C319.79 40.19 321.69 41.71 323.12 43.44C324.55 45.17 325.63 46.81 326.36 48.37H327.18V37.91H341.88V102.23C341.88 107.63 340.58 112.13 337.99 115.67C335.4 119.21 331.89 121.85 327.4 123.62C322.9 125.39 317.8 126.26 312.14 126.26H312.13ZM312.26 88.61C315.42 88.61 318.1 87.83 320.34 86.32C322.54 84.76 324.27 82.56 325.4 79.71C326.57 76.81 327.13 73.36 327.13 69.34C327.13 65.32 326.57 61.86 325.4 58.88C324.28 55.9 322.59 53.56 320.39 51.88C318.18 50.24 315.46 49.37 312.26 49.37C309.06 49.37 306.17 50.23 303.92 51.96C301.72 53.69 300.03 56.07 298.91 59.05C297.79 62.08 297.22 65.49 297.22 69.29C297.22 73.09 297.78 76.55 298.95 79.45C300.07 82.35 301.76 84.59 304.01 86.19C306.22 87.79 308.98 88.61 312.27 88.61H312.26ZM387.05 74.61V37.95H401.96V101.23H387.48V89.99H386.83C385.4 93.53 383.07 96.43 379.78 98.68C376.54 100.93 372.52 102.05 367.76 102.05C363.61 102.05 359.94 101.14 356.78 99.28C353.62 97.42 351.12 94.74 349.34 91.15C347.57 87.61 346.66 83.28 346.66 78.23V37.94H361.62V75.94C361.62 79.96 362.7 83.16 364.91 85.49C367.11 87.87 370.01 89.03 373.56 89.03C375.76 89.03 377.88 88.51 379.96 87.43C382.03 86.35 383.72 84.75 385.06 82.63C386.4 80.47 387.05 77.79 387.05 74.59V74.61ZM421.76 16.81V101.23H406.85V16.81H421.76ZM445.45 102.49C441.43 102.49 437.84 101.76 434.64 100.33C431.44 98.9 428.89 96.74 427.07 93.93C425.21 91.12 424.3 87.62 424.3 83.47C424.3 79.88 424.95 76.94 426.29 74.61C427.63 72.28 429.4 70.42 431.69 68.99C433.98 67.61 436.53 66.53 439.43 65.79C442.28 65.06 445.27 64.54 448.33 64.19C452.05 63.8 455.03 63.46 457.36 63.15C459.65 62.85 461.34 62.33 462.42 61.68C463.46 60.99 464.02 59.95 464.02 58.52V58.26C464.02 55.15 463.11 52.77 461.25 51.04C459.39 49.35 456.75 48.49 453.3 48.49C449.63 48.49 446.77 49.27 444.61 50.87C442.49 52.47 441.07 54.33 440.29 56.53L426.37 54.54C427.45 50.69 429.27 47.49 431.82 44.86C434.33 42.27 437.44 40.32 441.07 39.03C444.74 37.73 448.76 37.08 453.17 37.08C456.24 37.08 459.26 37.43 462.29 38.16C465.32 38.89 468.08 40.06 470.59 41.7C473.1 43.34 475.09 45.55 476.64 48.36C478.15 51.17 478.93 54.67 478.93 58.86V101.22H464.58V92.53H464.1C463.19 94.3 461.94 95.94 460.3 97.46C458.66 98.97 456.63 100.23 454.16 101.13C451.61 102.04 448.76 102.47 445.43 102.47L445.45 102.49ZM449.34 91.55C452.32 91.55 454.92 90.95 457.12 89.78C459.32 88.57 461.01 87.01 462.22 85.02C463.43 83.03 463.99 80.87 463.99 78.54V71.06C463.51 71.45 462.74 71.79 461.61 72.14C460.49 72.49 459.28 72.74 457.89 73C456.51 73.26 455.17 73.48 453.83 73.65C452.49 73.82 451.32 74 450.33 74.13C448.13 74.43 446.09 74.91 444.36 75.6C442.59 76.29 441.2 77.24 440.21 78.45C439.17 79.66 438.7 81.26 438.7 83.16C438.7 85.93 439.69 88 441.73 89.38C443.68 90.85 446.23 91.54 449.34 91.54V91.55ZM483.49 101.23V37.95H497.97V48.5H498.62C499.79 44.83 501.78 42.02 504.59 40.03C507.4 38.04 510.64 37.05 514.27 37.05C515.09 37.05 516.04 37.09 517.04 37.14C518.08 37.23 518.94 37.31 519.63 37.44V51.14C518.98 50.92 517.99 50.71 516.65 50.53C515.35 50.36 514.03 50.27 512.72 50.27C510 50.27 507.58 50.87 505.41 52.04C503.25 53.21 501.56 54.81 500.31 56.88C499.06 58.95 498.45 61.33 498.45 64.01V101.23H483.49ZM118.17 20.7L113.93 87.22L73.4296 0L118.17 20.7ZM90.1196 106.72L59.5096 124.18L28.8996 106.72L35.1196 91.63H83.8796L90.0996 106.72H90.1196ZM59.5096 33.11L75.5496 72.1H43.4696L59.5096 33.11ZM5.03961 87.23L0.849609 20.7L45.5896 0L5.03961 87.23Z" fill="url(#paint0_linear_45_210)"/>
<path d="M206.18 101.23H222.48L192.78 16.81H173.89L144.19 101.23H160.49L167.45 80.44H199.18L206.18 101.23ZM171.6 68.12L183.01 34.15H183.66L195.07 68.12H171.6ZM238.6 64.15V101.24H223.69V37.96H237.95V48.72H238.69C240.16 45.18 242.49 42.37 245.69 40.29C248.89 38.22 252.87 37.18 257.58 37.18C261.95 37.18 265.75 38.13 269.04 39.99C272.28 41.85 274.83 44.57 276.6 48.12C278.42 51.66 279.28 55.94 279.24 61V101.24H264.33V63.25C264.33 59.01 263.25 55.73 261.04 53.31C258.84 50.93 255.85 49.72 252.01 49.72C249.42 49.72 247.08 50.28 245.05 51.45C243.02 52.57 241.46 54.22 240.29 56.38C239.21 58.5 238.6 61.09 238.6 64.16V64.15ZM312.13 126.26C306.77 126.26 302.19 125.53 298.34 124.1C294.49 122.67 291.42 120.73 289.09 118.31C286.76 115.89 285.11 113.21 284.25 110.27L297.69 107.03C298.29 108.28 299.16 109.49 300.33 110.7C301.5 111.91 303.05 112.95 305 113.77C306.95 114.59 309.45 114.98 312.44 114.98C316.68 114.98 320.18 113.94 322.94 111.91C325.71 109.88 327.09 106.51 327.09 101.84V89.87H326.36C325.58 91.43 324.46 92.98 322.99 94.63C321.52 96.27 319.58 97.61 317.2 98.69C314.78 99.77 311.8 100.33 308.17 100.33C303.33 100.33 298.92 99.16 294.94 96.87C291.01 94.58 287.85 91.12 285.56 86.58C283.23 82 282.06 76.29 282.06 69.38C282.06 62.47 283.23 56.54 285.56 51.74C287.89 46.94 291.01 43.31 294.98 40.8C298.96 38.29 303.37 37.08 308.21 37.08C311.93 37.08 315 37.68 317.37 38.94C319.79 40.19 321.69 41.71 323.12 43.44C324.55 45.17 325.63 46.81 326.36 48.37H327.18V37.91H341.88V102.23C341.88 107.63 340.58 112.13 337.99 115.67C335.4 119.21 331.89 121.85 327.4 123.62C322.9 125.39 317.8 126.26 312.14 126.26H312.13ZM312.26 88.61C315.42 88.61 318.1 87.83 320.34 86.32C322.54 84.76 324.27 82.56 325.4 79.71C326.57 76.81 327.13 73.36 327.13 69.34C327.13 65.32 326.57 61.86 325.4 58.88C324.28 55.9 322.59 53.56 320.39 51.88C318.18 50.24 315.46 49.37 312.26 49.37C309.06 49.37 306.17 50.23 303.92 51.96C301.72 53.69 300.03 56.07 298.91 59.05C297.79 62.08 297.22 65.49 297.22 69.29C297.22 73.09 297.78 76.55 298.95 79.45C300.07 82.35 301.76 84.59 304.01 86.19C306.22 87.79 308.98 88.61 312.27 88.61H312.26ZM387.05 74.61V37.95H401.96V101.23H387.48V89.99H386.83C385.4 93.53 383.07 96.43 379.78 98.68C376.54 100.93 372.52 102.05 367.76 102.05C363.61 102.05 359.94 101.14 356.78 99.28C353.62 97.42 351.12 94.74 349.34 91.15C347.57 87.61 346.66 83.28 346.66 78.23V37.94H361.62V75.94C361.62 79.96 362.7 83.16 364.91 85.49C367.11 87.87 370.01 89.03 373.56 89.03C375.76 89.03 377.88 88.51 379.96 87.43C382.03 86.35 383.72 84.75 385.06 82.63C386.4 80.47 387.05 77.79 387.05 74.59V74.61ZM421.76 16.81V101.23H406.85V16.81H421.76ZM445.45 102.49C441.43 102.49 437.84 101.76 434.64 100.33C431.44 98.9 428.89 96.74 427.07 93.93C425.21 91.12 424.3 87.62 424.3 83.47C424.3 79.88 424.95 76.94 426.29 74.61C427.63 72.28 429.4 70.42 431.69 68.99C433.98 67.61 436.53 66.53 439.43 65.79C442.28 65.06 445.27 64.54 448.33 64.19C452.05 63.8 455.03 63.46 457.36 63.15C459.65 62.85 461.34 62.33 462.42 61.68C463.46 60.99 464.02 59.95 464.02 58.52V58.26C464.02 55.15 463.11 52.77 461.25 51.04C459.39 49.35 456.75 48.49 453.3 48.49C449.63 48.49 446.77 49.27 444.61 50.87C442.49 52.47 441.07 54.33 440.29 56.53L426.37 54.54C427.45 50.69 429.27 47.49 431.82 44.86C434.33 42.27 437.44 40.32 441.07 39.03C444.74 37.73 448.76 37.08 453.17 37.08C456.24 37.08 459.26 37.43 462.29 38.16C465.32 38.89 468.08 40.06 470.59 41.7C473.1 43.34 475.09 45.55 476.64 48.36C478.15 51.17 478.93 54.67 478.93 58.86V101.22H464.58V92.53H464.1C463.19 94.3 461.94 95.94 460.3 97.46C458.66 98.97 456.63 100.23 454.16 101.13C451.61 102.04 448.76 102.47 445.43 102.47L445.45 102.49ZM449.34 91.55C452.32 91.55 454.92 90.95 457.12 89.78C459.32 88.57 461.01 87.01 462.22 85.02C463.43 83.03 463.99 80.87 463.99 78.54V71.06C463.51 71.45 462.74 71.79 461.61 72.14C460.49 72.49 459.28 72.74 457.89 73C456.51 73.26 455.17 73.48 453.83 73.65C452.49 73.82 451.32 74 450.33 74.13C448.13 74.43 446.09 74.91 444.36 75.6C442.59 76.29 441.2 77.24 440.21 78.45C439.17 79.66 438.7 81.26 438.7 83.16C438.7 85.93 439.69 88 441.73 89.38C443.68 90.85 446.23 91.54 449.34 91.54V91.55ZM483.49 101.23V37.95H497.97V48.5H498.62C499.79 44.83 501.78 42.02 504.59 40.03C507.4 38.04 510.64 37.05 514.27 37.05C515.09 37.05 516.04 37.09 517.04 37.14C518.08 37.23 518.94 37.31 519.63 37.44V51.14C518.98 50.92 517.99 50.71 516.65 50.53C515.35 50.36 514.03 50.27 512.72 50.27C510 50.27 507.58 50.87 505.41 52.04C503.25 53.21 501.56 54.81 500.31 56.88C499.06 58.95 498.45 61.33 498.45 64.01V101.23H483.49ZM118.17 20.7L113.93 87.22L73.4296 0L118.17 20.7ZM90.1196 106.72L59.5096 124.18L28.8996 106.72L35.1196 91.63H83.8796L90.0996 106.72H90.1196ZM59.5096 33.11L75.5496 72.1H43.4696L59.5096 33.11ZM5.03961 87.23L0.849609 20.7L45.5896 0L5.03961 87.23Z" fill="url(#paint1_radial_45_210)"/>
</g>
</g>
<defs>
<linearGradient id="paint0_linear_45_210" x1="0.849609" y1="63.13" x2="519.63" y2="63.13" gradientUnits="userSpaceOnUse">
<stop stop-color="#F0070C"/>
<stop offset="0.53" stop-color="#CC26D5"/>
<stop offset="1" stop-color="#7702FF"/>
</linearGradient>
<radialGradient id="paint1_radial_45_210" cx="0" cy="0" r="1" gradientUnits="userSpaceOnUse" gradientTransform="translate(158.455 -37.2868) rotate(118.12) scale(109.069)">
<stop stop-color="#FF41F8"/>
<stop offset="0.71" stop-color="#FF41F8" stop-opacity="0.5"/>
<stop offset="1" stop-color="#FF41F8" stop-opacity="0"/>
</radialGradient>
<clipPath id="clip0_45_210">
<rect width="518.78" height="126.26" fill="white" transform="translate(0.849609)"/>
</clipPath>
</defs>
</svg>
