<svg width="85" height="24" viewBox="0 0 85 24" fill="none" xmlns="http://www.w3.org/2000/svg">
<g clip-path="url(#clip0_244_806)">
<path d="M20.5469 0.0090332V18.5195L22.8653 18.5286V9.71788H28.4665V7.38576H22.8653V2.34115H30.1566V0.0090332H20.5469ZM34.342 3.76573C35.1825 3.76573 35.855 3.06704 35.855 2.21424C35.855 1.36145 35.1737 0.662751 34.342 0.662751C33.5104 0.662751 32.829 1.36145 32.829 2.21424C32.829 3.06704 33.5104 3.76573 34.342 3.76573ZM33.165 6.0975V18.5195H35.4834V6.0975H33.165Z" fill="white"/>
<path fill-rule="evenodd" clip-rule="evenodd" d="M44.0938 5.73462C41.0056 5.73462 38.8555 8.4112 38.8555 11.5871C38.8555 14.7629 41.0056 17.4395 44.0938 17.4395C45.5096 17.4395 46.6687 16.8768 47.5183 15.9696V17.6121C47.5183 19.6719 45.9431 21.3869 43.8817 21.3869C43.1384 21.3869 42.404 21.0965 41.8199 20.6791L40.652 22.748C41.5812 23.3651 42.6873 23.719 43.8728 23.719C47.1644 23.719 49.8279 20.9877 49.8279 17.6124V6.09756H47.5183V7.20453C46.669 6.29699 45.5096 5.73462 44.0938 5.73462ZM41.1824 11.5871C41.1824 9.61788 42.6512 8.06639 44.3502 8.06639C46.0492 8.06639 47.518 9.61788 47.518 11.5871C47.518 13.5562 46.0492 15.1077 44.3502 15.1077C42.6512 15.1077 41.1824 13.5562 41.1824 11.5871Z" fill="white"/>
<path d="M58.2072 8.06674C56.8357 8.06674 55.7208 9.26435 55.7208 10.6708V18.5196H53.4023V6.09756H55.7208V7.23172C56.4022 6.33325 57.4021 5.73462 58.7118 5.73462C60.34 5.73462 61.5875 6.56022 62.3131 7.8307C63.1182 6.6059 64.4279 5.73462 66.0119 5.73462C68.6578 5.73462 70.3034 7.92135 70.3122 10.6255V18.5196H67.9938V10.6617C67.9938 9.25528 66.8789 8.05767 65.5074 8.05767C64.1358 8.05767 63.0209 9.25528 63.0209 10.6617V18.5196H60.7025V10.6617C60.6936 9.25528 59.5788 8.06674 58.2072 8.06674Z" fill="white"/>
<path fill-rule="evenodd" clip-rule="evenodd" d="M82.6827 7.50402C81.6474 6.40612 80.2316 5.73462 78.5945 5.73462C75.1435 5.73462 72.6836 8.73789 72.6836 12.3129C72.6836 15.888 75.1347 18.8913 78.5945 18.8913C80.2316 18.8913 81.6474 18.2107 82.6827 17.1219V18.5193H85.0011V6.09756H82.6827V7.50402ZM75.0109 12.3129C75.0109 9.94456 76.7806 8.06639 78.8512 8.06639C80.9218 8.06639 82.6915 9.9355 82.6915 12.3129C82.6915 14.6904 80.9218 16.5595 78.8512 16.5595C76.7806 16.5504 75.0109 14.6813 75.0109 12.3129Z" fill="white"/>
<path d="M7.79688 12.0046C7.79688 9.79977 9.54005 8.00317 11.6991 8.00317C13.8581 8.00317 15.6012 9.7907 15.6012 12.0046C15.6012 14.2186 13.8581 16.0061 11.6991 16.0061C9.54005 16.0061 7.79688 14.2095 7.79688 12.0046Z" fill="white"/>
<path d="M0 19.9985C0 17.7937 1.74318 15.9971 3.90218 15.9971H7.80436V19.9985C7.80436 22.2034 6.06118 24 3.90218 24C1.74318 24 0 22.2124 0 19.9985Z" fill="white"/>
<path d="M7.79688 0.00906489V8.00291H11.6991C13.8492 8.00291 15.6012 6.21538 15.6012 4.00145C15.6012 1.78753 13.8584 0 11.6994 0H7.79721V0.00906489H7.79688Z" fill="white"/>
<path d="M0 4.01049C0 6.21535 1.74318 8.01194 3.90218 8.01194H7.80436V0.0090332H3.90218C1.74318 0.0090332 0 1.79656 0 4.01049Z" fill="white"/>
<path d="M0 12.0046C0 14.2095 1.74318 16.0061 3.90218 16.0061H7.80436V8.00317H3.90218C1.74318 8.00283 0 9.79942 0 12.0046Z" fill="white"/>
</g>
<defs>
<clipPath id="clip0_244_806">
<rect width="85" height="24" fill="white"/>
</clipPath>
</defs>
</svg>
