<svg width="451" height="127" viewBox="0 0 451 127" fill="none" xmlns="http://www.w3.org/2000/svg">
<g clip-path="url(#clip0_45_218)">
<path d="M52.3999 66.3999C58.8599 62.6899 64.7799 59.2399 70.7599 55.8899C72.1799 55.0899 72.2099 53.9599 72.2099 52.6299C72.1899 45.4299 72.2799 38.2299 72.1599 31.0299C72.1199 28.7199 72.8399 27.3199 74.9299 26.1699C81.7999 22.3899 88.5899 18.4699 95.3299 14.4599C97.2099 13.3399 98.6799 13.1699 100.64 14.3399C107.46 18.4099 114.37 22.3499 121.31 26.2299C123.21 27.2899 124.09 28.5499 124.06 30.8099C123.94 38.6499 123.94 46.4999 124.06 54.3399C124.1 56.6099 123.2 57.8499 121.31 58.8999C114.93 62.4499 108.66 66.1999 102.27 69.7499C100.64 70.6599 100.08 71.7099 100.11 73.5399C100.21 80.7399 100.08 87.9399 100.19 95.1399C100.22 97.3399 99.4999 98.6699 97.5599 99.7799C82.6299 108.28 67.7399 116.86 52.8799 125.49C51.0499 126.55 49.6199 126.48 47.8399 125.44C32.9699 116.82 18.0799 108.25 3.14988 99.7499C1.29988 98.7199 0.629883 97.4999 0.629883 95.4099C0.689883 69.2999 0.689883 43.1799 0.629883 17.0699C0.629883 15.1399 1.16988 13.9199 2.92988 12.9399C10.0599 8.95992 17.1399 4.88992 24.1699 0.729919C25.8899 -0.290081 27.2399 -0.220081 28.9099 0.769919C35.8499 4.85992 42.8199 8.88992 49.8599 12.8099C51.8299 13.9099 52.4599 15.2699 52.4499 17.4599C52.3699 33.5799 52.4099 49.6899 52.4099 66.3999H52.3999ZM4.66988 18.9299C4.66988 44.4999 4.66988 69.4999 4.63988 94.4999C4.63988 95.8299 5.34988 96.3899 6.31988 96.9399C19.5399 104.52 32.7699 112.09 45.9499 119.74C48.1799 121.03 48.4199 120.12 48.3999 118.13C48.3399 112.33 48.2999 106.53 48.4199 100.73C48.4599 98.8499 47.7699 97.8599 46.1499 96.9699C39.9399 93.5699 33.8599 89.9099 27.6099 86.5899C25.2899 85.3599 24.4899 83.8999 24.5099 81.2999C24.6199 65.1899 24.5599 49.0899 24.5699 32.9799C24.5699 31.5799 24.6599 30.3299 23.0699 29.4499C17.0799 26.1299 11.1699 22.6499 4.66988 18.9199V18.9299ZM28.5399 80.1499C34.6599 76.6299 40.2499 73.3099 45.9599 70.1899C47.7999 69.1899 48.4899 68.0799 48.4699 65.9399C48.3599 51.2199 48.4199 36.4999 48.3899 21.7799C48.3899 20.9899 48.7899 20.0699 47.8299 19.2799C42.1899 22.4999 36.5399 25.7999 30.8199 28.9499C29.1099 29.8899 28.4699 30.9699 28.4799 32.9699C28.5799 47.5799 28.5299 62.1999 28.5299 76.8099C28.5299 77.7399 28.5299 78.6599 28.5299 80.1599L28.5399 80.1499ZM52.4099 121.1C66.8499 112.79 80.6699 104.81 94.5199 96.8899C95.7299 96.1999 96.0899 95.3499 96.0799 94.0399C96.0399 88.0299 96.0099 82.0299 96.0799 76.0199C96.0999 73.9199 95.5599 73.5899 93.7199 74.6499C80.5199 82.2299 67.2899 89.7399 54.0599 97.2699C53.0899 97.8199 52.3599 98.3399 52.3699 99.6899C52.4399 106.64 52.3999 113.59 52.3999 121.11L52.4099 121.1ZM30.5699 83.6099C36.8699 87.1699 42.5999 90.3099 48.2199 93.6299C49.8299 94.5799 50.9899 94.5199 52.5899 93.5999C65.5999 86.0899 78.6699 78.6899 91.7099 71.2299C92.3899 70.8399 93.3499 70.6999 93.6099 69.6199C87.6699 66.1999 81.6999 62.8099 75.7999 59.3199C74.5899 58.6099 73.7099 58.7499 72.5899 59.4099C68.6199 61.7599 64.5999 64.0199 60.5999 66.3199C50.7699 71.9799 40.9399 77.6499 30.5899 83.6199L30.5699 83.6099ZM46.3399 15.4699C39.8299 11.7199 33.6299 8.13992 27.4199 4.56992C26.8199 4.21992 26.2199 4.20992 25.5999 4.56992C19.4099 8.14992 13.2099 11.7199 6.69988 15.4699C13.1699 19.1999 19.2099 22.6499 25.2199 26.1799C26.1999 26.7499 26.9599 26.6699 27.8699 26.1399C33.8899 22.6499 39.9199 19.1799 46.3399 15.4699ZM78.2799 28.9599C84.8199 32.7299 90.7699 36.1499 96.7099 39.5999C97.6299 40.1399 98.4199 40.2399 99.3699 39.6799C105.37 36.1799 111.39 32.7199 117.92 28.9499C111.31 25.1399 105.12 21.5599 98.9199 17.9899C98.3099 17.6399 97.6899 17.7599 97.0899 18.0999C90.9799 21.6299 84.8699 25.1499 78.2899 28.9499L78.2799 28.9599ZM76.2799 32.4599C76.2799 39.9299 76.2999 46.8699 76.2599 53.8099C76.2599 55.0199 76.9899 55.4699 77.8499 55.9599C83.1599 58.9899 88.4899 61.9899 93.7399 65.1099C95.6399 66.2399 96.1099 65.7599 96.0899 63.7299C96.0299 57.7199 96.0599 51.7099 96.0799 45.6999C96.0799 44.6999 96.0399 43.7699 95.0299 43.1999C88.9199 39.7099 82.8199 36.2099 76.2899 32.4599H76.2799ZM100.14 66.4099C106.67 62.6599 112.6 59.2499 118.55 55.8699C119.49 55.3399 119.93 54.6699 119.93 53.5699C119.9 46.7299 119.92 39.8899 119.92 32.4699C113.3 36.2799 107.12 39.8399 100.93 43.3899C100.15 43.8399 100.14 44.5799 100.14 45.3399C100.14 52.1799 100.14 59.0199 100.14 66.4099Z" fill="#FE3225"/>
<path d="M325.76 56.5699C325.76 55.4999 325.84 54.8399 325.75 54.2199C325.4 51.9399 326.34 51.3499 328.58 51.3699C336.32 51.4199 336.32 51.3299 336.32 58.9799C336.32 70.3599 336.24 81.7399 336.38 93.1099C336.41 95.5899 335.68 96.4299 333.31 96.0699C332.57 95.9599 331.81 96.0499 331.06 96.0499C327.667 96.0499 325.837 94.3099 325.57 90.8299C321.18 95.5699 315.95 97.7499 309.72 97.1399C303.68 96.5499 298.63 93.9799 294.7 89.3099C286.86 79.9899 287.35 65.6699 295.82 56.9899C304.12 48.4899 315.41 48.2199 325.76 56.5699ZM299.65 73.6999C299.63 81.8799 305.11 87.9299 312.58 87.9699C320.01 88.0099 325.71 81.8999 325.74 73.8599C325.77 65.7099 320.29 59.7299 312.74 59.6899C305.11 59.6499 299.67 65.4699 299.65 73.6999Z" fill="#FE3225"/>
<path d="M240.76 90.83C231.51 99.21 219.79 99.21 211.39 91.07C202.38 82.33 201.74 67.72 209.93 58.07C217.87 48.72 229.41 48.06 240.61 56.32C241.103 53.06 243.103 51.43 246.61 51.43C247.04 51.43 247.48 51.49 247.9 51.43C250.63 50.96 251.5 51.88 251.46 54.82C251.27 67.58 251.3 80.35 251.44 93.12C251.47 95.57 250.78 96.44 248.4 96.06C247.67 95.94 246.9 96.04 246.15 96.04C242.81 96.04 241.017 94.31 240.77 90.85L240.76 90.83ZM227.91 59.69C220.32 59.6 214.69 65.5 214.62 73.6C214.55 81.68 220.14 87.88 227.56 87.98C234.93 88.07 240.83 81.88 240.93 73.96C241.03 65.99 235.37 59.79 227.9 59.7L227.91 59.69Z" fill="#FE3225"/>
<path d="M416.23 77.74C411.28 77.74 406.33 77.8299 401.38 77.6999C399.1 77.6399 398.88 78.5 399.5 80.3799C401.75 87.27 409.96 90.7899 417.3 87.9199C419.94 86.8899 422.25 85.2999 424.16 83.22C425.09 82.21 425.72 82.2699 426.83 83.0299C433.03 87.2799 433.12 87.88 426.91 92.47C418.16 98.93 408.84 98.7099 399.58 93.9199C391.41 89.6999 387.63 80.77 388.88 70.24C389.93 61.38 396.61 53.63 405.43 51.18C420.61 46.98 434.69 58.54 433.82 75.68C433.74 77.35 433.01 77.81 431.39 77.78C426.34 77.68 421.28 77.74 416.22 77.74H416.23ZM411.5 69.94C414.93 69.94 418.36 69.87 421.79 69.97C423.57 70.02 424.05 69.44 423.61 67.71C422.23 62.24 417.45 58.6 411.48 58.58C405.46 58.56 400.75 62.1599 399.39 67.6999C398.97 69.4199 399.41 70.02 401.21 69.96C404.64 69.86 408.07 69.93 411.5 69.93V69.94Z" fill="#FE3225"/>
<path d="M170.21 62.5701C170.21 52.3701 170.29 42.1701 170.15 31.9701C170.12 29.5501 170.79 28.8901 173.21 28.9101C181.32 28.9901 181.32 28.8901 181.32 36.8301C181.32 52.2901 181.37 67.7501 181.27 83.2101C181.25 85.5501 181.76 86.3701 184.26 86.2701C189.41 86.0601 194.58 86.2801 199.74 86.1701C201.61 86.1301 202.06 86.7601 202.1 88.5501C202.27 96.0401 202.33 96.0401 194.9 96.0401C187.7 96.0401 180.49 95.9101 173.29 96.1101C170.62 96.1801 170.13 95.2601 170.16 92.8401C170.28 82.7501 170.21 72.6601 170.21 62.5701Z" fill="#FE3225"/>
<path d="M365.39 84.58C368.24 77.23 371.08 69.89 373.93 62.54C374.59 60.84 375.21 59.13 375.89 57.44C376.68 55.47 376.8 52.35 378.45 51.81C381.18 50.92 384.4 51.29 387.38 51.5C389.21 51.63 388.11 53.03 387.8 53.86C385.22 60.67 382.59 67.46 379.98 74.27C377.49 80.77 374.96 87.26 372.55 93.79C371.95 95.43 371.17 96.18 369.31 96.07C365.78 95.86 361.57 97.07 358.88 95.53C356.15 93.97 355.94 89.38 354.66 86.11C350.53 75.53 346.55 64.9 342.36 54.34C341.37 51.84 341.8 51.32 344.45 51.36C351.88 51.47 351.89 51.36 354.51 58.16C357.89 66.94 361.25 75.73 364.62 84.52C364.88 84.54 365.13 84.56 365.39 84.58Z" fill="#FE3225"/>
<path d="M450.89 62.52C450.89 72.73 450.83 82.93 450.94 93.14C450.96 95.26 450.61 96.11 448.2 96.09C440.48 96.02 440.48 96.13 440.48 88.47C440.48 69.78 440.53 51.08 440.43 32.39C440.42 29.87 440.82 28.83 443.69 28.91C450.9 29.1 450.9 28.95 450.9 36.1C450.9 44.91 450.9 53.72 450.9 62.53L450.89 62.52Z" fill="#FE3225"/>
<path d="M259.65 73.3301C259.65 66.9901 259.73 60.6601 259.61 54.3301C259.57 52.2301 259.92 51.3201 262.35 51.3701C270.09 51.5301 277.83 51.5001 285.57 51.3901C287.58 51.3601 288.08 51.9701 288.1 53.9401C288.18 61.7501 288.25 61.7501 280.57 61.7501C277.88 61.7501 275.18 61.8901 272.51 61.7001C270.45 61.5601 270.02 62.2901 270.04 64.2301C270.14 73.8901 270.02 83.5601 270.13 93.2201C270.16 95.4001 269.68 96.1501 267.34 96.1401C259.66 96.0901 259.65 96.2001 259.65 88.4801C259.65 83.4301 259.65 78.3901 259.65 73.3401V73.3301Z" fill="#FE3225"/>
</g>
<defs>
<clipPath id="clip0_45_218">
<rect width="450.31" height="126.26" fill="white" transform="translate(0.629883)"/>
</clipPath>
</defs>
</svg>
