<svg width="436" height="126" viewBox="0 0 436 126" fill="none" xmlns="http://www.w3.org/2000/svg">
<g clip-path="url(#clip0_45_170)">
<path d="M0.000234375 111.91C0.360234 111.8 0.400234 111.49 0.430234 111.19C0.980234 106.85 1.51023 102.51 2.07023 98.1701C2.56023 94.3601 3.07023 90.5401 3.57023 86.7301C4.05023 82.9901 4.51023 79.2501 4.99023 75.5101C5.41023 72.2601 5.85023 69.0101 6.26023 65.7501C6.68023 62.5001 7.07023 59.2401 7.49023 55.9901C7.91023 52.7401 8.35023 49.4901 8.76023 46.2301C9.10023 43.5801 9.42023 40.9201 9.75023 38.2601C9.76023 38.1501 9.77023 38.0301 9.78023 37.9201C9.94023 36.1701 10.7402 35.0301 12.5302 34.5101C16.2902 33.4101 20.0102 32.1701 23.7502 30.9901C23.8902 30.9401 24.0402 30.8901 24.1802 30.8701C24.9802 30.7501 25.3402 30.2901 25.5402 29.4801C26.9102 23.9601 28.8802 18.6701 31.7302 13.7301C34.0202 9.77009 36.8202 6.24009 40.6002 3.58009C43.3302 1.65009 46.3302 0.320087 49.6702 0.0300866C52.6902 -0.229913 55.3102 0.800086 57.4002 3.06009C57.7602 3.45009 58.0502 3.81009 58.7002 3.79009C62.5202 3.69009 65.4202 5.49009 67.7702 8.32009C69.3002 10.1701 70.3702 12.2901 71.2402 14.5201C71.3802 14.8701 71.5302 15.2201 71.6402 15.5801C71.7702 16.0001 72.0202 16.0801 72.4202 15.9501C73.4302 15.6301 74.4402 15.3201 75.4502 15.0401C76.2102 14.8301 76.9902 14.6701 77.7402 15.1201C77.5002 15.3101 77.5302 15.5801 77.5102 15.8401C77.3902 17.7901 77.2602 19.7301 77.1602 21.6801C77.0402 24.1601 76.9302 26.6401 76.8402 29.1201C76.8202 29.7501 76.8402 30.4101 76.7402 31.0001C76.4702 32.6801 76.6902 34.3701 76.4302 36.0601C76.1802 37.6501 76.3002 39.2901 76.2202 40.9001C76.1202 43.0001 75.9202 45.1101 75.9302 47.2101C75.9302 48.9001 75.6302 50.5801 75.6702 52.2801C75.6802 52.7901 75.7602 53.3301 75.6602 53.8301C75.3002 55.5401 75.4202 57.2801 75.3302 58.9901C75.2002 61.6601 74.9002 64.3201 75.0102 67.0001C75.0102 67.0801 75.0102 67.1501 75.0102 67.2301C74.5802 69.0801 74.7902 70.9801 74.6402 72.8501C74.4202 75.6201 74.3002 78.4001 74.1802 81.1701C74.0802 83.5001 73.9502 85.8301 73.8902 88.1601C73.8702 88.9801 73.8702 89.8001 73.7702 90.6101C73.5602 92.2201 73.6902 93.8301 73.4902 95.4501C73.3002 97.0301 73.3002 98.6501 73.2602 100.25C73.2202 102.4 72.9102 104.53 72.9702 106.68C73.0202 108.33 72.6902 109.97 72.7202 111.64C72.7202 112.18 72.7702 112.77 72.6702 113.29C72.3702 114.85 72.4502 116.45 72.3802 118.01C72.2602 120.56 72.0102 123.12 72.0702 125.68C67.9202 124.91 63.7802 124.14 59.6302 123.37C53.7802 122.27 47.9302 121.17 42.0802 120.07C36.6402 119.05 31.2002 118.01 25.7502 117C19.4502 115.82 13.1602 114.66 6.86023 113.48C4.57023 113.05 2.28023 112.59 -0.00976562 112.14V111.91H0.000234375ZM20.4102 88.3301C19.3402 91.8601 18.3202 95.2101 17.2902 98.5601C17.1302 99.0701 17.2902 99.4301 17.6202 99.7801C18.4802 100.68 19.4202 101.5 20.4502 102.2C25.7702 105.85 31.6602 107.34 38.0402 106.64C43.1902 106.07 47.3502 103.66 50.1902 99.2601C52.5302 95.6401 53.4702 91.6201 53.5302 87.3301C53.6102 82.4401 51.9402 78.2601 48.6302 74.7001C46.6602 72.5801 44.3902 70.8501 41.9502 69.3201C40.6002 68.4701 39.3302 67.5301 38.2502 66.3601C37.4102 65.4601 36.8102 64.4201 36.7102 63.1601C36.5102 60.5901 37.9902 58.4101 40.5002 57.5001C42.8902 56.6401 45.3402 56.8301 47.7702 57.1701C49.6802 57.4401 51.5102 58.0301 53.2802 58.8201C53.9902 59.1401 54.0202 59.1101 54.2802 58.3401C55.6902 54.1601 57.0902 49.9801 58.4902 45.8001C58.8002 44.8801 58.7902 44.8701 57.8702 44.4901C55.9002 43.6801 53.8302 43.3401 51.7102 43.1601C47.1602 42.7701 42.7502 43.2901 38.4602 44.8401C33.5502 46.6101 29.5802 49.6201 26.8202 54.1001C24.6602 57.6201 23.5902 61.4601 23.5002 65.5901C23.4002 70.2501 24.9902 74.2201 28.2402 77.5501C29.5602 78.9101 31.0102 80.1101 32.5302 81.2301C33.7802 82.1501 34.9402 83.1701 35.8702 84.4301C36.9102 85.8401 37.5002 87.3901 37.3802 89.1701C37.2402 91.4301 35.7802 93.2101 33.6002 93.6701C32.6702 93.8701 31.7202 93.8401 30.7902 93.6501C27.6602 93.0201 24.9002 91.5901 22.3402 89.7301C21.7302 89.2901 21.1302 88.8401 20.4002 88.3001L20.4102 88.3301ZM30.3602 28.8101C30.5702 28.8601 30.6502 28.9001 30.7102 28.8801C33.6302 27.9801 36.5402 27.0701 39.4602 26.1801C40.0502 26.0001 40.2502 25.6501 40.3802 25.0701C41.2102 21.1401 42.4402 17.3501 44.4102 13.8301C46.1902 10.6501 48.4802 7.94009 51.6302 6.02009C52.1402 5.71009 52.6602 5.43009 53.2402 5.09009C52.7602 4.73009 52.3102 4.58009 51.8302 4.47009C50.5002 4.17009 49.2002 4.39009 47.9302 4.78009C44.3202 5.90009 41.4302 8.10009 39.0402 10.9601C34.7102 16.1701 32.2502 22.2901 30.3602 28.7801V28.8101ZM45.3402 24.3801C49.3002 23.1501 53.1502 21.9501 57.0002 20.7701C57.5202 20.6101 57.5602 20.2801 57.5802 19.8301C57.6402 17.5201 57.4602 15.2301 57.0502 12.9701C56.8102 11.6501 56.5802 10.3101 55.9502 9.03009C53.6602 9.99009 51.8502 11.4701 50.3302 13.3401C48.2002 15.9501 46.8602 18.9701 45.8502 22.1501C45.6402 22.8201 45.3402 23.4801 45.3402 24.3801ZM60.3302 8.15009C61.5102 11.7801 61.8102 15.4101 61.9402 19.1801C63.8002 18.6001 65.5902 18.0401 67.3702 17.4901C67.7302 17.3801 67.8502 17.1701 67.7302 16.8201C66.7902 14.0901 65.6502 11.4801 63.4302 9.51009C62.6002 8.77009 61.6302 8.30009 60.3302 8.15009Z" fill="#94BE47"/>
<path d="M72.0699 125.68C72.0099 123.12 72.2699 120.56 72.3799 118.01C72.4499 116.45 72.3699 114.86 72.6699 113.29C72.7699 112.77 72.7299 112.18 72.7199 111.64C72.6899 109.98 73.0299 108.34 72.9699 106.68C72.8999 104.53 73.2099 102.4 73.2599 100.25C73.2899 98.6501 73.2999 97.0301 73.4899 95.4501C73.6799 93.8401 73.5599 92.2201 73.7699 90.6101C73.8699 89.8001 73.8699 88.9801 73.8899 88.1601C73.9499 85.8301 74.0799 83.5001 74.1799 81.1701C74.2999 78.3901 74.4199 75.6101 74.6399 72.8501C74.7899 70.9801 74.5799 69.0801 75.0099 67.2301C75.0299 67.1601 75.0199 67.0801 75.0099 67.0001C74.8999 64.3201 75.1999 61.6601 75.3299 58.9901C75.4099 57.2801 75.2999 55.5301 75.6599 53.8301C75.7599 53.3401 75.6799 52.7901 75.6699 52.2801C75.6399 50.5801 75.9399 48.9001 75.9299 47.2101C75.9299 45.1001 76.1199 43.0001 76.2199 40.9001C76.2999 39.2801 76.1899 37.6501 76.4299 36.0601C76.6899 34.3701 76.4599 32.6801 76.7399 31.0001C76.8399 30.4101 76.8199 29.7501 76.8399 29.1201C76.9299 26.6401 77.0299 24.1601 77.1599 21.6801C77.2599 19.7301 77.3999 17.7901 77.5099 15.8401C77.5299 15.5801 77.4899 15.3101 77.7399 15.1201C78.2799 15.1801 78.5799 15.5901 78.9299 15.9301C80.9699 17.9501 83.0199 19.9501 85.0399 21.9901C85.5999 22.5601 86.1799 22.8301 87.0099 22.8701C89.9099 23.0201 92.8099 23.2701 95.6999 23.4901C96.6299 23.5601 96.8899 23.7701 97.0399 24.7001C97.5699 28.1301 98.0799 31.5601 98.5899 34.9901C99.2399 39.3501 99.8799 43.7201 100.52 48.0801C101.17 52.4801 101.81 56.8801 102.46 61.2901C103.26 66.6601 104.08 72.0301 104.88 77.4001C105.59 82.2101 106.28 87.0301 106.99 91.8401C107.64 96.2001 108.31 100.57 108.96 104.93C109.53 108.81 110.09 112.69 110.65 116.57C110.76 117.35 110.74 117.37 109.98 117.53C103.68 118.9 97.3799 120.25 91.0799 121.62C84.8899 122.96 78.7099 124.32 72.5199 125.66C72.3799 125.69 72.2199 125.66 72.0699 125.66V125.68Z" fill="#5F8D3E"/>
<path d="M290.46 53.5898C290.94 53.4598 291.08 53.0798 291.32 52.7998C294.17 49.4598 297.55 46.8598 301.82 45.6298C305.93 44.4398 309.97 44.6298 313.8 46.6598C317.33 48.5398 319.34 51.6698 320.54 55.3898C321.7 58.9698 321.85 62.6598 321.59 66.3698C321.21 71.9198 319.83 77.2298 317.33 82.2098C314.56 87.7598 310.75 92.4098 305.38 95.6498C301.13 98.2198 296.5 99.3998 291.55 99.1598C289.05 99.0398 286.6 98.5998 284.37 97.3598C283.69 96.9798 283.62 97.0098 283.46 97.8498C283.03 100.03 282.63 102.22 282.22 104.41C281.36 108.97 280.51 113.53 279.64 118.09C279.44 119.12 279.43 119.12 278.35 119.12C274.12 119.12 269.89 119.12 265.66 119.12C265.32 119.12 264.98 119.18 264.58 119.01C264.98 116.92 265.37 114.82 265.77 112.72C267.09 105.87 268.42 99.0198 269.74 92.1598C270.99 85.6798 272.22 79.1998 273.49 72.7198C274.78 66.1298 276.03 59.5298 276.82 52.8598C277.07 50.6898 277.42 48.5198 277.69 46.3498C277.75 45.8698 277.92 45.7098 278.4 45.7098C282.4 45.7198 286.41 45.7298 290.41 45.7098C291.04 45.7098 291.06 45.9598 291 46.4598C290.77 48.5998 290.56 50.7398 290.35 52.8798C290.33 53.0998 290.26 53.3198 290.46 53.5798V53.5898ZM306.1 66.3798C306.1 64.4798 306.02 62.5998 305.32 60.7998C304.26 58.0598 301.93 56.9298 299.16 57.4298C297.05 57.8098 295.46 59.0698 294.08 60.6198C291.64 63.3598 290.22 66.6298 289.28 70.1298C288.46 73.1898 288.05 76.3398 287.44 79.4498C287.06 81.3698 286.73 83.3098 286.36 85.2298C286.13 86.4298 286.14 86.4298 287.21 87.1198C289.76 88.7498 294.14 89.1498 297.25 86.8198C298.63 85.7898 299.82 84.5898 300.78 83.1798C304.25 78.1198 305.9 72.4798 306.09 66.3898L306.1 66.3798Z" fill="#010101"/>
<path d="M192.25 98.2902C192.57 96.6402 192.88 94.9902 193.2 93.3302C194.82 85.1502 196.46 76.9802 198.05 68.8002C198.38 67.1002 198.56 65.3702 198.75 63.6402C198.85 62.7002 198.84 61.7502 198.68 60.8202C198.16 57.8902 195.94 56.4502 193.03 57.1602C191.4 57.5602 190.1 58.5102 188.94 59.6802C186.97 61.6702 185.63 64.0602 184.54 66.6202C183.29 69.5502 182.63 72.6502 182.03 75.7602C180.63 83.0202 179.19 90.2702 177.76 97.5202C177.59 98.3902 177.57 98.4002 176.69 98.4002C172.35 98.4002 168 98.4002 163.66 98.4002C163.62 98.4002 163.58 98.4002 163.55 98.4002C162.71 98.3802 162.71 98.3802 162.86 97.5902C163.15 96.0702 163.43 94.5502 163.73 93.0302C164.99 86.5102 166.25 80.0002 167.5 73.4802C169.15 64.8902 170.8 56.3002 172.45 47.7002C173.67 41.3302 174.89 34.9602 176.1 28.5902C176.42 26.9202 176.74 25.2602 177.04 23.5902C177.12 23.1502 177.27 22.9302 177.76 22.9302C182.44 22.9502 187.12 22.9602 191.81 22.9702C191.85 22.9702 191.88 22.9902 192.05 23.0502C190.14 32.9202 188.22 42.8102 186.29 52.7202C186.94 52.7902 187.09 52.3102 187.35 52.0302C189.4 49.7702 191.69 47.8302 194.5 46.5802C198.09 44.9802 201.82 44.4902 205.67 45.2702C209.85 46.1102 212.44 48.7102 213.55 52.7902C214.07 54.7002 214.18 56.6502 214.13 58.6302C214.04 62.3902 213.25 66.0402 212.55 69.7102C210.81 78.8202 209.09 87.9402 207.37 97.0602C207.11 98.4102 207.12 98.4102 205.77 98.4102C201.65 98.4102 197.54 98.4102 193.42 98.4102C193.05 98.4102 192.67 98.4902 192.24 98.2902H192.25Z" fill="#010101"/>
<path d="M268.24 66.6201C268.26 70.0801 267.63 74.1001 266.34 77.9901C264.2 84.4501 260.7 90.0101 255.2 94.1201C248.76 98.9401 241.51 100.71 233.62 99.0501C225.77 97.4001 221.1 92.3501 219.23 84.6601C218.09 79.9801 218.47 75.2801 219.46 70.6301C220.61 65.2001 222.86 60.2501 226.32 55.8901C230.76 50.3101 236.43 46.6701 243.48 45.3601C247.07 44.7001 250.7 44.6901 254.26 45.6101C260.93 47.3401 265.13 51.6701 267.2 58.1501C268.01 60.6801 268.29 63.3101 268.23 66.6101L268.24 66.6201ZM233.9 78.2801C233.88 80.4201 234.13 82.5101 235.1 84.4501C236.11 86.4901 237.74 87.6801 240.03 87.9601C242.47 88.2601 244.47 87.3701 246.19 85.7401C248.03 84.0001 249.27 81.8501 250.28 79.5501C251.78 76.1401 252.7 72.5701 253.16 68.8901C253.43 66.7201 253.66 64.5401 253.22 62.3501C252.81 60.3301 252.04 58.5201 250.29 57.3001C248.02 55.7201 244.89 55.7901 242.41 57.4501C240.71 58.5901 239.47 60.1501 238.45 61.8901C235.5 66.9601 234.16 72.4701 233.91 78.2801H233.9Z" fill="#010101"/>
<path d="M387.37 46.2799C387.71 46.0999 387.98 46.1599 388.24 46.1599C392.85 46.1599 397.46 46.1599 402.06 46.1599C403.03 46.1599 403.06 46.1599 403.17 47.1999C403.51 50.3099 403.83 53.4299 404.16 56.5399C404.59 60.5899 405.04 64.6399 405.45 68.6999C405.74 71.5899 405.96 74.4899 406.23 77.3799C406.37 78.8499 406.55 80.3099 406.71 81.7699C406.73 81.9499 406.74 82.1699 406.99 82.1899C407.21 82.2099 407.29 82.0299 407.36 81.8399C408.16 79.6899 409.01 77.5499 409.77 75.3799C412.61 67.3499 415.8 59.4599 418.83 51.4999C419.43 49.9199 420.06 48.3399 420.65 46.7499C420.8 46.3399 420.99 46.1499 421.45 46.1499C426.02 46.1599 430.58 46.1499 435.18 46.1499C435.43 46.8899 435.12 47.4499 434.85 48.0099C432.88 52.1599 430.91 56.3199 428.94 60.4699C424.38 70.0299 419.97 79.6599 415.26 89.1499C411.95 95.8199 408.14 102.19 403.5 108.04C401.31 110.8 398.98 113.41 396.23 115.63C392.66 118.51 388.6 120.46 384.24 121.82C383.74 121.97 383.46 121.95 383.26 121.32C382.07 117.62 380.82 113.95 379.59 110.27C379.36 109.58 379.37 109.56 380.15 109.28C384.27 107.78 387.97 105.56 391.31 102.73C393.44 100.93 394.97 98.6399 396.27 96.1799C396.57 95.6099 396.56 95.0299 396.45 94.4199C394.22 82.6799 391.98 70.9299 389.75 59.1899C388.98 55.1499 388.22 51.1099 387.46 47.0699C387.41 46.8099 387.39 46.5499 387.36 46.2499L387.37 46.2799Z" fill="#010101"/>
<path d="M374.95 45.7098H385.2C384.93 47.2198 384.68 48.6198 384.43 50.0098C384.06 52.0498 383.66 54.0898 383.31 56.1298C383.22 56.6798 383.01 56.8698 382.43 56.8698C379.64 56.8398 376.84 56.8598 374.04 56.8598C372.76 56.8598 372.75 56.8598 372.53 58.0398C371.59 62.9698 370.67 67.8998 369.73 72.8198C368.25 80.5998 366.77 88.3798 365.28 96.1598C365.17 96.7198 365.04 97.2698 364.98 97.8298C364.93 98.2298 364.74 98.3398 364.38 98.3198C364.19 98.3098 364 98.3198 363.81 98.3198C359.54 98.3198 355.27 98.3198 351.01 98.3198C350.71 98.3198 350.41 98.3798 350.01 98.2098C352.62 84.4698 355.23 70.7198 357.86 56.8698H350.87C350.87 55.6698 351.21 54.5998 351.4 53.5098C351.8 51.1298 352.3 48.7698 352.71 46.3898C352.8 45.8698 352.99 45.6998 353.51 45.7098C355.32 45.7398 357.14 45.7198 358.95 45.7098C359.94 45.7098 359.96 45.7098 360.12 44.6898C360.52 42.1098 361.15 39.5898 362.03 37.1398C363.8 32.2598 366.57 28.1198 370.95 25.1898C374.16 23.0398 377.77 21.9898 381.59 21.7198C384.34 21.5298 387.1 21.6198 389.82 22.2098C391.85 22.6498 391.86 22.6698 391.3 24.6498C390.45 27.6598 389.6 30.6798 388.74 33.6898C388.53 34.4398 388.51 34.4398 387.75 34.2298C386.06 33.7698 384.35 33.4898 382.6 33.7998C380.48 34.1698 378.88 35.3698 377.64 37.0898C376.22 39.0698 375.55 41.3298 375.19 43.6998C375.09 44.3298 374.86 44.9498 374.95 45.6898V45.7098Z" fill="#010101"/>
<path d="M125.92 85.1699C128.86 86.8699 132.07 87.7999 135.42 88.2299C137.03 88.4399 138.66 88.4699 140.27 88.1099C144.25 87.2299 145.68 83.1699 143.11 79.9899C141.97 78.5799 140.48 77.6299 138.94 76.7399C137.31 75.7899 135.69 74.8199 134.22 73.6299C132.14 71.9399 130.37 69.9899 129.28 67.5299C127.64 63.8199 127.95 60.0799 129.4 56.4099C131.13 52.0299 134.39 49.0999 138.59 47.1899C143.06 45.1499 147.79 44.6199 152.64 44.9399C155.51 45.1299 158.33 45.6299 161.03 46.6699C161.24 46.7499 161.46 46.8199 161.66 46.9199C162.6 47.3899 162.73 47.1799 162.33 48.3899C161.4 51.2199 160.52 54.0599 159.63 56.8999C159.55 57.1499 159.5 57.4099 159.28 57.6799C157.54 57.0299 155.79 56.3799 153.94 56.0399C151.88 55.6599 149.82 55.4799 147.76 55.9599C146.56 56.2299 145.47 56.7299 144.57 57.5799C142.94 59.1099 142.73 61.4199 144.05 63.2199C144.78 64.2099 145.75 64.9399 146.77 65.5899C147.98 66.3599 149.24 67.0499 150.45 67.8099C152.48 69.0699 154.35 70.5199 155.97 72.2899C158.77 75.3199 159.76 78.8799 159.27 82.9399C158.43 89.9899 154.49 94.5799 148.06 97.1799C143.53 99.0099 138.79 99.4799 133.95 99.0899C130.81 98.8299 127.76 98.1999 124.84 96.9799C124.04 96.6399 123.27 96.2399 122.53 95.7899C122.24 95.6099 122.12 95.4099 122.26 95.0399C123.44 91.8199 124.6 88.5899 125.77 85.3699C125.79 85.3099 125.87 85.2599 125.93 85.1799L125.92 85.1699Z" fill="#010101"/>
<path d="M347.02 46.2299C346.09 51.1399 345.17 55.9899 344.25 60.8399C342.68 69.0999 341.11 77.3599 339.53 85.6199C338.78 89.5799 338.01 93.5399 337.26 97.5099C337.16 98.0499 337.01 98.3399 336.34 98.3399C331.77 98.2999 327.2 98.3199 322.63 98.3199C322.52 98.3199 322.41 98.2899 322.21 98.2499C322.58 96.2799 322.94 94.3299 323.31 92.3799C324.64 85.4199 325.98 78.4599 327.32 71.4999C328.79 63.8699 330.25 56.2499 331.72 48.6199C331.83 48.0599 331.99 47.5099 332.04 46.9499C332.09 46.3499 332.32 46.1299 332.96 46.1299C337.49 46.1599 342.02 46.1399 346.55 46.1499C346.66 46.1499 346.77 46.1799 347 46.2199L347.02 46.2299Z" fill="#010101"/>
<path d="M341.38 39.8899C340.36 39.9199 339.25 39.7599 338.2 39.2899C335.98 38.2899 334.77 36.4999 334.39 34.1599C333.53 28.9799 336.78 24.5599 341.97 23.8699C344.89 23.4799 348.71 24.4899 349.95 28.3699C351.59 33.4799 349.13 39.7099 341.96 39.8899C341.81 39.8899 341.66 39.8899 341.38 39.8899Z" fill="#010101"/>
<path d="M20.41 88.3301C21.14 88.8701 21.74 89.3201 22.35 89.7601C24.91 91.6201 27.67 93.0501 30.8 93.6801C31.73 93.8701 32.68 93.9001 33.61 93.7001C35.8 93.2401 37.25 91.4601 37.39 89.2001C37.5 87.4101 36.92 85.8601 35.88 84.4601C34.95 83.2001 33.79 82.1801 32.54 81.2601C31.02 80.1401 29.57 78.9301 28.25 77.5801C25.01 74.2501 23.41 70.2801 23.51 65.6201C23.6 61.4901 24.67 57.6501 26.83 54.1301C29.58 49.6501 33.55 46.6501 38.47 44.8701C42.75 43.3201 47.17 42.8001 51.72 43.1901C53.84 43.3701 55.91 43.7201 57.88 44.5201C58.8 44.8901 58.8 44.9101 58.5 45.8301C57.1 50.0101 55.7 54.1901 54.29 58.3701C54.03 59.1401 54 59.1601 53.29 58.8501C51.53 58.0601 49.69 57.4601 47.78 57.2001C45.35 56.8601 42.9 56.6701 40.51 57.5301C38 58.4401 36.51 60.6201 36.72 63.1901C36.82 64.4501 37.42 65.4801 38.26 66.3901C39.34 67.5601 40.62 68.5001 41.96 69.3501C44.4 70.8801 46.68 72.6101 48.64 74.7301C51.95 78.2901 53.62 82.4701 53.54 87.3601C53.47 91.6401 52.53 95.6701 50.2 99.2901C47.35 103.69 43.2 106.1 38.05 106.67C31.67 107.37 25.77 105.88 20.46 102.23C19.43 101.52 18.49 100.71 17.63 99.8101C17.29 99.4501 17.14 99.1001 17.3 98.5901C18.33 95.2501 19.35 91.8901 20.42 88.3601L20.41 88.3301Z" fill="#FEFFFE"/>
</g>
<defs>
<clipPath id="clip0_45_170">
<rect width="435.28" height="125.7" fill="white"/>
</clipPath>
</defs>
</svg>
