<svg width="140" height="30" viewBox="0 0 140 30" fill="none" xmlns="http://www.w3.org/2000/svg">
<g clip-path="url(#clip0_244_752)">
<path d="M41.0696 15.1377C39.7897 14.5844 38.7368 14.0828 38.7368 13.2513C38.7368 12.668 39.3986 12.1146 40.5145 12.1146C41.5154 12.1146 42.3796 12.3654 43.2685 12.7525C43.5201 12.8642 43.9084 12.8915 44.1026 12.5017L44.5484 11.613C44.7152 11.2804 44.5757 10.8906 44.2694 10.6698C43.6295 10.2527 42.2948 9.72656 40.5117 9.72656C37.394 9.72656 36.1195 11.613 36.1195 13.2213C36.1195 15.3286 37.7577 16.3835 39.7323 17.2722C41.5127 18.0764 42.4863 18.6298 42.4863 19.4912C42.4863 20.2136 41.8737 20.7397 40.7879 20.7397C39.2564 20.7397 38.3402 20.2136 37.5882 19.7965C37.2545 19.603 36.8935 19.6848 36.754 19.9628L36.1688 21.1568C36.0293 21.4349 36.1961 21.6829 36.3903 21.822C37.115 22.3208 38.5891 23.125 40.6211 23.125C43.4872 23.125 45.2129 21.3776 45.2129 19.3794C45.2129 16.9969 43.4353 16.1382 41.0696 15.1377Z" fill="white"/>
<path d="M24.0038 26.7151C22.6966 25.7338 20.7685 24.9868 18.7283 24.199C16.2997 23.2612 13.5457 22.1954 11.4782 20.557C9.13715 18.6979 7.99672 16.3535 7.99672 13.3903C7.99672 10.7297 9.10433 8.45616 11.1992 6.81236C13.5485 4.96956 17.1093 3.99364 21.4932 3.99364C22.7048 3.99364 23.8616 4.06724 24.9337 4.21445C25.0294 4.22808 25.1196 4.17628 25.1579 4.09178C25.199 4.00454 25.1771 3.90368 25.106 3.84098C22.3438 1.36302 18.7721 0 15.0526 0C11.0324 0 7.25284 1.55929 4.40859 4.39437C1.56707 7.22672 0 10.9941 0 14.9986C0 19.0032 1.56434 22.7733 4.40859 25.6056C7.2501 28.438 11.0297 30 15.0526 30C18.3017 30 21.3948 28.9832 24.0011 27.0613C24.0558 27.0204 24.0886 26.9577 24.0886 26.8896C24.0886 26.8214 24.0585 26.756 24.0038 26.7151Z" fill="white"/>
<path d="M30.0368 13.6136C30.0313 13.5564 30.004 13.5019 29.9602 13.4664C26.8206 10.8685 24.2799 9.80811 21.1923 9.80811C19.5459 9.80811 18.2824 10.138 17.44 10.7868C16.7098 11.3483 16.3242 12.1334 16.3242 13.0521C16.3242 15.6282 19.483 16.8031 23.1422 18.1634C25.0265 18.864 26.9765 19.5891 28.7651 20.5787C28.7979 20.5977 28.8334 20.6059 28.869 20.6059C28.8936 20.6059 28.9182 20.6005 28.9428 20.5923C29.0003 20.5705 29.0495 20.5269 29.0714 20.4669C29.7551 18.7222 30.1024 16.8822 30.1024 14.9985C30.0997 14.5569 30.0805 14.0907 30.0368 13.6136Z" fill="white"/>
<path d="M116.538 22.9695C116.923 22.9259 117.189 22.6451 117.189 22.2962V15.7891C117.189 12.4607 116.781 9.88184 112.482 9.88184C110.012 9.88184 108.095 10.547 107.863 10.6342C107.543 10.7487 107.34 10.9532 107.428 11.4166L107.69 12.5179C107.778 12.8941 108.038 13.1558 108.445 13.0686C109.143 12.8668 110.652 12.4307 112.192 12.4307C113.877 12.4307 114.399 13.3875 114.342 15.5002C114.342 15.5002 113.034 15.094 111.64 15.094C108.183 15.094 106.266 16.9477 106.266 19.4093C106.266 22.1899 108.035 23.1304 110.562 23.1304C112.624 23.1304 114.746 23.1058 115.63 23.0486L116.538 22.9695ZM114.312 20.6088C113.904 21.2739 112.452 21.1076 111.205 21.0831C109.81 21.0531 109.113 20.5679 109.113 19.3793C109.113 17.9891 110.302 17.1794 111.872 17.1794C113.092 17.1794 114.139 17.5284 114.312 17.6429V20.6088Z" fill="white"/>
<path d="M138.47 9.72943C139.315 9.72943 139.999 9.05065 139.999 8.21103C139.999 7.37141 139.315 6.69263 138.47 6.69263C137.625 6.69263 136.941 7.37141 136.941 8.21103C136.941 9.05065 137.625 9.72943 138.47 9.72943ZM138.47 6.91616C139.179 6.91616 139.758 7.49953 139.758 8.21103C139.758 8.92252 139.181 9.50589 138.47 9.50589C137.759 9.50589 137.185 8.92252 137.185 8.21103C137.185 7.49953 137.762 6.91616 138.47 6.91616Z" fill="white"/>
<path d="M137.951 8.97958H138.093C138.115 8.97958 138.134 8.9605 138.134 8.93869V8.37985H138.468L138.755 8.95232C138.763 8.9714 138.777 8.97958 138.802 8.97958H138.966C139.004 8.97958 139.018 8.94414 139.004 8.91688L138.703 8.35805C138.895 8.28172 139.029 8.11543 139.029 7.9137C139.029 7.652 138.813 7.44482 138.55 7.44482H137.951C137.927 7.44482 137.91 7.46391 137.91 7.48571V8.93869C137.91 8.9605 137.927 8.97958 137.951 8.97958ZM138.14 7.65745H138.531C138.673 7.65745 138.799 7.77467 138.799 7.91915C138.799 8.07181 138.673 8.19176 138.531 8.19176H138.14V7.65745Z" fill="white"/>
<path d="M53.7617 9.72904C51.7297 9.72904 50.3377 10.8385 50.0341 11.0621V5.34012C50.0341 5.03481 49.7278 4.72949 49.4215 4.72949H47.8626C47.529 4.72949 47.25 5.03481 47.25 5.34012V22.5169C47.25 22.8494 47.529 23.1275 47.8626 23.1275H49.3941C49.7852 23.1275 50.0341 22.8767 50.0341 22.5169V14.2243C50.313 13.6709 51.4261 12.3651 53.4007 12.3651C55.0717 12.3651 55.9605 13.6136 55.9605 15.7209V22.5196C55.9605 22.8522 56.2395 23.1302 56.5731 23.1302H58.132C58.4383 23.1302 58.7446 22.8522 58.7446 22.5196V15.7781C58.7419 12.2833 57.4073 9.72904 53.7617 9.72904Z" fill="white"/>
<path d="M86.3611 15.9119C86.2079 11.5584 84.3783 9.72925 80.1639 9.72925C78.1401 9.72925 75.7252 10.3344 75.3697 10.4898C74.9321 10.6779 74.6094 10.9014 74.6094 11.2068V27.5166C74.6094 27.8492 74.8883 28.1273 75.222 28.1273H76.5128C76.9313 28.1273 77.1801 27.8765 77.1801 27.5166V22.9069C77.5685 23.0078 79.5677 23.1768 81.2359 23.125C84.2115 23.0323 86.2079 20.8787 86.3747 17.2422C86.3966 16.7461 86.3939 16.0591 86.3611 15.612V15.9119ZM83.6727 17.2395C83.6153 19.7065 82.896 20.7969 80.812 20.9114C79.781 20.9687 77.347 20.6825 77.347 20.6825C77.2458 20.6497 77.1774 20.6061 77.1774 20.5134V15.5139L77.1747 12.6788C77.1747 12.6025 77.2321 12.5398 77.3087 12.5316C77.5958 12.5016 78.6488 12.1636 80.1639 12.1636C82.7018 12.1636 83.5961 12.5343 83.6782 15.7374C83.6836 16.16 83.6836 16.7515 83.6727 17.2395Z" fill="white"/>
<path d="M104.791 10.0073H103.624C103.29 10.0073 102.817 10.0073 102.65 10.3971L100.591 17.7738H100.536L97.0846 10.0346C97.0299 9.86828 96.833 9.72925 96.5294 9.72925H96.3353C96.0836 9.72925 95.8895 9.86828 95.8074 10.0346L92.326 17.7465H92.2713L90.1572 10.3971C90.1025 10.1463 89.8236 10.0073 89.602 10.0073H87.931C87.4853 10.0073 87.2911 10.3399 87.4853 10.7297L91.243 22.7951C91.2977 22.9887 91.4946 23.1277 91.7708 23.1277H91.9376C92.2166 23.1277 92.3834 22.9887 92.4381 22.8224L96.39 14.1127H96.4446L100.369 22.8224C100.454 22.9887 100.648 23.1277 100.924 23.1277H101.036C101.315 23.1277 101.564 22.9887 101.622 22.7951L105.295 10.7297C105.489 10.3399 105.237 10.0073 104.791 10.0073Z" fill="white"/>
<path d="M125.319 9.88184C125.25 9.88184 125.187 9.88729 125.119 9.89001C125.007 9.89001 124.897 9.88184 124.78 9.88184C124.113 9.88184 123.473 9.90364 122.874 9.93363C121.72 9.97997 121.036 10.0672 120.549 10.1217C120.549 10.1217 120.237 10.1517 119.874 10.1981C119.63 10.228 119.452 10.3289 119.343 10.4679C119.269 10.547 119.223 10.6479 119.223 10.7705V22.5143C119.223 22.8469 119.502 23.1249 119.835 23.1249H121.115C121.643 23.1249 122.007 23.0704 122.007 22.5143V14.5761V12.7551C122.007 12.6787 122.127 12.5833 122.193 12.5424C122.507 12.3543 123.262 12.218 124.78 12.218C124.928 12.218 125.023 12.2208 125.133 12.2235C125.48 12.2562 126.03 12.3625 126.207 12.4634C126.486 12.6024 126.82 12.5179 126.987 12.1581L127.654 11.0704C128.073 10.2144 126.544 9.88184 125.319 9.88184Z" fill="white"/>
<path d="M134.126 9.72925C130.259 9.72925 127.727 12.8097 127.727 16.4135C127.727 20.0173 130.259 23.125 134.153 23.125C136.295 23.125 137.993 22.3481 138.912 21.5439C139.3 21.2113 139.191 20.9605 138.967 20.6852L138.215 19.5212C137.993 19.1886 137.742 19.2704 137.463 19.4666C136.683 20.02 135.792 20.5489 134.318 20.5489C132.064 20.5489 130.505 18.7742 130.478 17.0541H139.355C139.634 17.0541 139.91 16.8306 139.94 16.498C139.968 16.2772 139.995 15.8328 139.995 15.6093C139.995 12.199 137.465 9.72925 134.126 9.72925ZM130.62 14.9987C130.814 13.3903 132.039 12.0873 134.071 12.0873C135.964 12.0873 137.189 13.4476 137.244 14.9987H130.62Z" fill="white"/>
<path d="M72.3779 13.6929C72.088 12.867 71.6805 12.1582 71.1581 11.5694C70.6358 10.9805 70.0095 10.5253 69.2847 10.2063C68.56 9.8874 67.5317 9.72656 66.6784 9.72656C65.8251 9.72656 64.7996 9.8874 64.0748 10.2063C63.3501 10.5253 62.7266 10.9805 62.2015 11.5694C61.6791 12.1582 61.2716 12.867 60.9817 13.6929C60.6918 14.5189 60.5469 15.4322 60.5469 16.4299C60.5469 17.4276 60.6918 18.3599 60.9817 19.1777C61.2716 19.9955 61.6791 20.6988 62.2015 21.2877C62.7238 21.8765 63.3501 22.3317 64.0748 22.6507C64.7996 22.9696 65.8251 23.1277 66.6784 23.1277C67.5317 23.1277 68.56 22.9696 69.2847 22.6507C70.0095 22.3317 70.633 21.8765 71.1581 21.2877C71.6805 20.6988 72.088 19.9955 72.3779 19.1777C72.6678 18.3599 72.8127 17.444 72.8127 16.4299C72.8127 15.4158 72.6678 14.5189 72.3779 13.6929ZM66.6073 20.9197C64.2854 20.9197 63.1149 18.9596 63.1149 16.5416C63.1149 14.1237 64.2827 12.1636 66.6073 12.1636C68.9319 12.1636 70.0997 14.1237 70.0997 16.5416C70.0997 18.9596 68.9292 20.9197 66.6073 20.9197Z" fill="white"/>
</g>
<defs>
<clipPath id="clip0_244_752">
<rect width="140" height="30" fill="white"/>
</clipPath>
</defs>
</svg>
