<svg width="588" height="127" viewBox="0 0 588 127" fill="none" xmlns="http://www.w3.org/2000/svg">
<g clip-path="url(#clip0_45_196)">
<path d="M172.68 63.7002C167.29 61.4002 162.92 59.2202 162.92 55.7802C162.92 53.3702 165.67 50.9602 170.38 50.9602C174.63 50.9602 178.19 51.9902 181.97 53.6002C183 54.0602 184.61 54.1702 185.53 52.5702L187.37 48.7802C188.06 47.4002 187.48 45.6802 186.22 44.7602C183.58 43.0402 177.96 40.7402 170.49 40.7402C157.4 40.7402 152.01 48.6602 152.01 55.4302C152.01 64.2702 158.9 68.7402 167.16 72.5302C174.62 75.8602 178.75 78.2702 178.75 81.8302C178.75 84.9302 176.22 87.1102 171.63 87.1102C165.2 87.1102 161.41 84.9302 158.2 83.0902C156.82 82.2902 155.33 82.6302 154.64 83.7802L152.23 88.8302C151.66 89.9802 152.34 91.0102 153.15 91.5802C156.13 93.6502 162.33 97.0902 170.94 97.0902C182.99 97.0902 190.22 89.7402 190.22 81.3602C189.99 71.6002 182.53 67.9302 172.66 63.6802L172.68 63.7002Z" fill="#189EFF"/>
<path d="M101.06 112.49C95.5498 108.36 87.5198 105.26 78.9098 101.93C68.6898 98.03 57.0998 93.55 48.4898 86.55C38.6198 78.74 33.7998 68.87 33.7998 56.36C33.7998 45.11 38.3898 35.58 47.2298 28.7C57.0998 20.89 72.0198 16.88 90.3898 16.88C95.4398 16.88 100.38 17.22 104.85 17.8C105.19 17.8 105.65 17.69 105.77 17.23C106 16.89 105.88 16.43 105.54 16.2C94.0598 5.74 79.0198 0 63.4098 0C46.5398 0 30.6998 6.54 18.7598 18.48C6.81979 30.42 0.279785 46.26 0.279785 63.13C0.279785 80 6.81979 95.84 18.7598 107.78C30.6998 119.72 46.5398 126.26 63.4098 126.26C77.0698 126.26 90.0398 122.01 100.94 113.86C101.17 113.63 101.28 113.4 101.28 113.17C101.39 112.94 101.28 112.71 101.05 112.48L101.06 112.49Z" fill="#189EFF"/>
<path d="M126.31 57.2801C126.31 57.0501 126.2 56.8201 125.97 56.7101C112.88 45.8101 102.21 41.3301 89.2398 41.3301C82.3498 41.3301 77.0698 42.7101 73.5098 45.4601C70.4098 47.8701 68.7998 51.0801 68.7998 54.9901C68.7998 65.7801 82.1098 70.8301 97.3798 76.5701C105.3 79.5501 113.45 82.5401 121.03 86.7901C121.14 86.9001 121.26 86.9001 121.49 86.9001C121.6 86.9001 121.72 86.9001 121.83 86.7901C122.06 86.6801 122.29 86.5601 122.4 86.2201C125.27 78.8701 126.76 71.0701 126.76 63.1501C126.65 61.3101 126.53 59.3601 126.3 57.3001L126.31 57.2801Z" fill="#189EFF"/>
<path d="M489.37 96.7598C490.98 96.5298 492.12 95.3798 492.12 93.8898V66.4598C492.12 52.4598 490.4 41.5498 472.38 41.5498C462.05 41.5498 454.01 44.2998 452.98 44.7598C451.6 45.2198 450.8 46.1398 451.14 48.0898L452.29 52.6798C452.63 54.2898 453.78 55.3198 455.5 54.9798C458.37 54.1798 464.8 52.3398 471.23 52.3398C478.35 52.3398 480.53 56.3598 480.3 65.3098C480.3 65.3098 474.79 63.5898 468.94 63.5898C454.48 63.5898 446.44 71.3998 446.44 81.7298C446.44 93.4398 453.9 97.4598 464.46 97.4598C473.07 97.4598 482.02 97.3498 485.69 97.1198L489.36 96.7798L489.37 96.7598ZM480.07 86.7798C478.35 89.5298 472.26 88.8498 466.98 88.7298C461.13 88.6198 458.26 86.5498 458.26 81.6098C458.26 75.7598 463.31 72.3098 469.85 72.3098C475.02 72.3098 479.38 73.7998 480.07 74.2598V86.7698V86.7798Z" fill="#189EFF"/>
<path d="M581.42 40.9801C584.98 40.9801 587.85 38.1101 587.85 34.5501C587.85 30.9901 584.98 28.1201 581.42 28.1201C577.86 28.1201 574.99 30.9901 574.99 34.5501C574.99 38.1101 577.86 40.9801 581.42 40.9801ZM581.42 29.1501C584.4 29.1501 586.81 31.5601 586.81 34.6601C586.81 37.7601 584.4 40.1701 581.42 40.1701C578.44 40.1701 576.03 37.7601 576.03 34.6601C576.03 31.5601 578.44 29.1501 581.42 29.1501Z" fill="#189EFF"/>
<path d="M579.24 37.7602H579.81C579.92 37.7602 580.04 37.6502 580.04 37.5302V35.2302H581.42L582.57 37.6402C582.57 37.7502 582.68 37.7502 582.8 37.7502H583.49C583.6 37.7502 583.72 37.6402 583.6 37.5202L582.34 35.2202C583.14 34.8802 583.72 34.1902 583.72 33.3802C583.72 32.2302 582.8 31.4302 581.65 31.4302H579.12C579.01 31.4302 578.89 31.5402 578.89 31.6602V37.7402C579.043 37.7402 579.156 37.7402 579.23 37.7402L579.24 37.7602ZM580.05 32.2502H581.66C582.23 32.2502 582.81 32.7102 582.81 33.4002C582.81 34.0902 582.24 34.5502 581.66 34.5502H580.05V32.2502Z" fill="#189EFF"/>
<path d="M225.94 40.9802C217.45 40.9802 211.59 45.6902 210.33 46.6002V22.5002C210.33 21.2402 209.07 19.9702 207.8 19.9702H201.14C199.76 19.9702 198.61 21.2302 198.61 22.5002V94.8102C198.61 96.1902 199.76 97.3402 201.14 97.3402H207.57C209.18 97.3402 210.21 96.3102 210.21 94.8102V59.9202C211.36 57.6202 216.06 52.1102 224.33 52.1102C231.33 52.1102 235.12 57.3902 235.12 66.2302V94.8102C235.12 96.1902 236.27 97.3402 237.65 97.3402H244.19C245.45 97.3402 246.72 96.1902 246.72 94.8102V66.4602C246.83 51.7702 241.21 40.9802 225.94 40.9802Z" fill="#189EFF"/>
<path d="M362.76 67.0302C362.07 48.6602 354.5 40.9702 336.7 40.9702C328.21 40.9702 318.11 43.5002 316.61 44.1802C314.77 44.9802 313.4 45.9002 313.4 47.1602V115.91C313.4 117.29 314.55 118.44 315.93 118.44H321.32C323.04 118.44 324.07 117.41 324.07 115.91V96.5102C325.68 96.9702 334.06 97.6602 341.06 97.4302C353.57 97.0902 361.95 88.0202 362.64 72.6402C362.87 70.4602 362.75 67.0202 362.75 67.0202L362.76 67.0302ZM351.4 72.5402C351.17 82.9902 348.19 87.5802 339.35 88.0402C334.99 88.2702 324.77 87.1202 324.77 87.1202C324.31 87.0102 324.08 86.7802 324.08 86.4302V53.3702C324.08 53.0302 324.31 52.8002 324.65 52.8002C325.8 52.6902 330.27 51.3102 336.59 51.3102C347.26 51.3102 350.94 52.9202 351.4 66.3502C351.51 68.0702 351.51 70.6002 351.4 72.5502V72.5402Z" fill="#189EFF"/>
<path d="M440.13 42.1302H435.19C433.81 42.1302 431.75 42.1302 431.06 43.7402L422.45 74.8502H422.22L407.76 42.2502C407.53 41.5602 406.73 40.9902 405.46 40.9902H404.66C403.63 40.9902 402.82 41.5602 402.48 42.2502L387.9 74.7302H387.67L378.83 43.7402C378.6 42.7102 377.45 42.1302 376.53 42.1302H369.53C367.69 42.1302 366.89 43.5102 367.69 45.2302L383.42 96.0802C383.65 96.8802 384.45 97.4602 385.6 97.4602H386.29C387.44 97.4602 388.13 96.8902 388.36 96.2002L405 59.4702H405.23L421.53 96.0902C421.87 96.7802 422.68 97.3502 423.83 97.3502H424.29C425.44 97.3502 426.47 96.7802 426.7 95.9702L442.2 45.2402C443 43.5202 441.97 42.1402 440.13 42.1402V42.1302Z" fill="#189EFF"/>
<path d="M526.21 41.6702H524.03C521.28 41.6702 518.52 41.7802 516 41.9002C511.18 42.1302 508.31 42.4702 506.24 42.7002C506.24 42.7002 504.98 42.8102 503.37 43.0402C502.34 43.1502 501.65 43.6102 501.19 44.1902C500.85 44.5302 500.73 44.9902 500.73 45.4502V94.8102C500.73 96.1902 501.88 97.3402 503.26 97.3402H508.65C510.83 97.3402 512.44 97.1102 512.44 94.8102V61.4102V53.7202C512.44 53.3802 512.9 53.0302 513.24 52.8002C514.5 52.0002 517.72 51.4202 524.14 51.4202H525.63C527.12 51.5302 529.42 51.9902 530.11 52.4502C531.26 53.0202 532.64 52.6802 533.44 51.1902L536.19 46.6002C537.8 43.0402 531.37 41.6602 526.2 41.6602L526.21 41.6702Z" fill="#189EFF"/>
<path d="M563.17 40.9802C546.99 40.9802 536.31 53.9502 536.31 69.1002C536.31 84.2502 546.98 97.3402 563.28 97.3402C572.23 97.3402 579.35 94.1302 583.25 90.6802C584.86 89.3002 584.4 88.2702 583.48 87.0102L580.27 82.0702C579.35 80.6902 578.32 81.0402 577.06 81.8402C573.85 84.1402 570.06 86.4302 563.86 86.4302C554.45 86.4302 547.91 78.9702 547.79 71.7402H585.09C586.24 71.7402 587.39 70.8202 587.5 69.4402C587.61 68.5202 587.73 66.6902 587.73 65.6502C587.84 51.4202 577.17 40.9702 563.17 40.9702V40.9802ZM548.48 63.1302C549.28 56.3602 554.45 50.8502 562.94 50.8502C570.86 50.8502 576.03 56.5902 576.25 63.1302H548.47H548.48Z" fill="#189EFF"/>
<path d="M303.99 57.6199C302.73 54.1799 301.12 51.1899 298.82 48.6699C296.52 46.1499 294 44.3099 291.01 42.9299C288.02 41.5499 283.66 40.8599 280.11 40.8599C276.56 40.8599 272.19 41.5499 269.21 42.9299C266.23 44.3099 263.59 46.1399 261.29 48.6699C259.11 51.1999 257.39 54.1799 256.12 57.6199C254.85 61.0599 254.28 64.9699 254.28 69.0999C254.28 73.2299 254.85 77.2499 256.12 80.6899C257.39 84.1299 259.1 87.1199 261.29 89.5299C263.47 92.0599 266.11 93.8899 269.21 95.2699C272.31 96.6499 276.56 97.3399 280.11 97.3399C283.66 97.3399 288.03 96.6499 291.01 95.2699C293.99 93.8899 296.63 92.0599 298.82 89.5299C301 86.9999 302.72 84.1399 303.99 80.6899C305.26 77.2399 305.83 73.3399 305.83 69.0999C305.83 64.8599 305.26 61.1799 303.99 57.6199ZM279.78 88.0399C270.02 88.0399 265.09 79.7799 265.09 69.5599C265.09 59.3399 270.03 51.0799 279.78 51.0799C289.53 51.0799 294.47 59.3399 294.47 69.5599C294.47 79.7799 289.53 88.0399 279.78 88.0399Z" fill="#189EFF"/>
</g>
<defs>
<clipPath id="clip0_45_196">
<rect width="587.57" height="126.26" fill="white" transform="translate(0.279785)"/>
</clipPath>
</defs>
</svg>
