<svg width="77" height="27" viewBox="0 0 77 27" fill="none" xmlns="http://www.w3.org/2000/svg">
<g clip-path="url(#clip0_244_799)">
<path fill-rule="evenodd" clip-rule="evenodd" d="M25.3409 0H31.5715L15.8335 26.9927L0 0H6.37748L15.8408 16.2497L25.3409 0Z" fill="white"/>
<path fill-rule="evenodd" clip-rule="evenodd" d="M19.4558 0H25.385L15.8335 16.2863L6.35547 0H12.1892L15.8262 6.26734L19.4558 0Z" fill="#EAEAEA"/>
<path fill-rule="evenodd" clip-rule="evenodd" d="M35.2969 5.33122C35.2969 5.13377 35.4071 4.96556 35.6275 4.83393C35.8479 4.70229 36.083 4.63647 36.3255 4.63647C36.6635 4.63647 36.8692 4.7608 36.95 5.01676L40.5061 16.8421L44.0402 5.01676C44.1357 4.76811 44.3341 4.63647 44.6427 4.63647C44.8998 4.63647 45.1349 4.70961 45.3627 4.85587C45.5831 5.00213 45.6933 5.17033 45.6933 5.35316C45.6933 5.36779 45.6933 5.38972 45.686 5.41166C45.686 5.44092 45.6786 5.46286 45.6786 5.49211L41.5788 18.7362C41.4319 19.1237 41.0719 19.3139 40.5061 19.3139C39.9404 19.3139 39.5951 19.1237 39.4775 18.7362L35.341 5.49211C35.3116 5.41166 35.3042 5.36047 35.3042 5.33122H35.2969ZM45.855 15.5257V10.348C45.855 10.1871 45.9358 10.0482 46.1048 9.93117C46.2738 9.81416 46.4722 9.74834 46.6999 9.74834C46.913 9.74834 47.104 9.81416 47.273 9.93848C47.442 10.0628 47.5228 10.2018 47.5228 10.348V15.5257C47.5228 16.1254 47.7506 16.6592 48.2061 17.1419C48.6617 17.6246 49.2054 17.8586 49.8446 17.8586C50.4838 17.8586 51.0055 17.6246 51.461 17.1492C51.9165 16.6739 52.1443 16.14 52.1443 15.5257V10.3261C52.1443 10.1798 52.2251 10.0482 52.3941 9.93117C52.5631 9.81416 52.7615 9.74834 52.9892 9.74834C53.2317 9.74834 53.4301 9.80684 53.5844 9.91654C53.7387 10.0262 53.8195 10.1652 53.8195 10.3261V15.5257C53.8195 16.5495 53.4227 17.4417 52.6366 18.2023C51.8504 18.9629 50.9173 19.3505 49.8372 19.3505C48.7572 19.3505 47.8094 18.9702 47.0232 18.2023C46.237 17.4417 45.8403 16.5495 45.8403 15.5257H45.855ZM55.2008 15.4818V13.3903C55.2008 12.3664 55.5975 11.4889 56.3837 10.7429C57.1699 9.99698 58.1177 9.63133 59.2198 9.63133C60.3219 9.63133 61.1815 9.98236 61.9456 10.6771C62.7098 11.3718 63.0992 12.2494 63.0992 13.2952C63.0992 13.6828 63.0551 13.9899 62.9596 14.224C62.8641 14.458 62.7171 14.6189 62.5261 14.7213C62.3277 14.8236 62.1514 14.8821 61.9824 14.9114C61.8134 14.9406 61.5856 14.948 61.3064 14.948H56.8833V15.5476C56.8833 16.2789 57.1478 16.864 57.6842 17.3028C58.2132 17.7416 58.9038 17.961 59.7561 17.961C60.197 17.961 60.5864 17.8951 60.917 17.7635C61.2476 17.6319 61.5121 17.5002 61.7179 17.3759C61.9162 17.2516 62.0779 17.1858 62.2028 17.1858C62.3938 17.1858 62.5555 17.2662 62.6877 17.4344C62.82 17.6026 62.8861 17.7708 62.8861 17.939C62.8861 18.2462 62.5775 18.5533 61.9677 18.8751C61.3578 19.1969 60.6011 19.3505 59.6974 19.3505C58.3748 19.3505 57.3021 18.9921 56.4645 18.2827C55.6269 17.5734 55.2155 16.6373 55.2155 15.4818H55.2008ZM56.876 13.8291H60.6084C60.9611 13.8291 61.1962 13.7852 61.3138 13.6974C61.4313 13.6097 61.4974 13.4415 61.4974 13.1928C61.4974 12.5931 61.277 12.0739 60.8288 11.6205C60.388 11.1671 59.8369 10.9404 59.1904 10.9404C58.5438 10.9404 58.0148 11.1525 57.5519 11.5693C57.0964 11.9861 56.8686 12.5054 56.8686 13.1124V13.8291H56.876ZM63.9368 18.2681C63.9368 17.9756 64.0396 17.7269 64.238 17.5222C64.4364 17.3174 64.6862 17.215 64.9874 17.215C65.2887 17.215 65.5091 17.3174 65.7148 17.5222C65.9132 17.7269 66.0161 17.9756 66.0161 18.2681C66.0161 18.5606 65.9132 18.7873 65.7148 18.9921C65.5164 19.1969 65.274 19.2993 64.9874 19.2993C64.7009 19.2993 64.4437 19.1969 64.238 18.9921C64.0396 18.7873 63.9368 18.546 63.9368 18.2681ZM65.4283 23.0289C65.4283 22.8169 65.4944 22.6414 65.6266 22.5024C65.7589 22.3635 65.9205 22.2903 66.1116 22.2903C66.6332 22.2903 66.9786 22.1002 67.1402 21.7126C67.3018 21.325 67.3827 20.7473 67.3827 19.9794V10.3188C67.3827 10.1432 67.4635 10.0043 67.6178 9.90191C67.7721 9.79222 67.9704 9.74102 68.2129 9.74102C68.4554 9.74102 68.6537 9.79222 68.8154 9.90191C68.977 10.0116 69.0578 10.1506 69.0578 10.3188V19.9794C69.0578 21.1348 68.8301 22.049 68.3745 22.7291C67.919 23.4092 67.221 23.7456 66.2953 23.7456C65.7148 23.7456 65.4283 23.5043 65.4283 23.0289ZM67.1696 6.20148C67.1696 5.95283 67.2724 5.73344 67.4708 5.5433C67.6692 5.36047 67.919 5.2654 68.2202 5.2654C68.5215 5.2654 68.7419 5.36047 68.9476 5.5433C69.146 5.72613 69.2489 5.94552 69.2489 6.20148C69.2489 6.45744 69.146 6.67683 68.9476 6.86697C68.7493 7.05711 68.5068 7.15218 68.2202 7.15218C67.9337 7.15218 67.6912 7.05711 67.4855 6.86697C67.2798 6.67683 67.1696 6.45013 67.1696 6.20148ZM70.3142 17.8293C70.3142 17.6538 70.373 17.4856 70.4832 17.3247C70.6008 17.1565 70.733 17.0761 70.8947 17.0761C71.0049 17.0761 71.1592 17.1565 71.3576 17.3174C71.5559 17.4783 71.8498 17.6319 72.2245 17.7854C72.5993 17.939 73.0474 18.0122 73.5544 18.0122C74.2304 18.0122 74.7153 17.8951 75.0165 17.6538C75.3178 17.4125 75.4721 17.1126 75.4721 16.7543C75.4721 16.3155 75.3031 15.9645 74.9651 15.7085C74.6271 15.4526 74.2157 15.2551 73.7307 15.1235C73.2458 14.9918 72.7609 14.8456 72.276 14.6847C71.7911 14.5238 71.3796 14.2605 71.0416 13.8876C70.7037 13.5146 70.5347 13.0246 70.5347 12.4176C70.5347 11.6644 70.8065 11.0062 71.3502 10.4577C71.8939 9.90923 72.7242 9.63133 73.841 9.63133C74.5536 9.63133 75.2076 9.74102 75.8027 9.96042C76.3978 10.1798 76.6917 10.4285 76.6917 10.7064C76.6917 10.8672 76.6256 11.0428 76.5007 11.2475C76.3758 11.445 76.2141 11.5474 76.0231 11.5474C75.9717 11.5474 75.7072 11.4523 75.2443 11.2622C74.7814 11.072 74.3185 10.9769 73.863 10.9769C73.2458 10.9769 72.7829 11.1232 72.4817 11.4084C72.1805 11.6936 72.0262 12.0154 72.0262 12.3737C72.0262 12.7321 72.1952 13.0392 72.5331 13.2513C72.8711 13.4634 73.2826 13.6316 73.7748 13.7486C74.2671 13.8656 74.752 14.0119 75.2369 14.1874C75.7219 14.3629 76.1333 14.6554 76.4713 15.0723C76.8093 15.4891 76.9783 16.0303 76.9783 16.6958C76.9783 17.5222 76.6844 18.1657 76.0892 18.6484C75.4941 19.1237 74.6712 19.3651 73.6058 19.3651C72.6874 19.3651 71.9086 19.2042 71.262 18.8751C70.6155 18.5533 70.2922 18.2096 70.2922 17.8513L70.3142 17.8293Z" fill="white"/>
</g>
<defs>
<clipPath id="clip0_244_799">
<rect width="77" height="27" fill="white"/>
</clipPath>
</defs>
</svg>
