<svg width="120" height="45" viewBox="0 0 120 45" fill="none" xmlns="http://www.w3.org/2000/svg">
<mask id="mask0_153_260" style="mask-type:alpha" maskUnits="userSpaceOnUse" x="0" y="0" width="120" height="45">
<rect width="120" height="45" fill="#D9D9D9"/>
</mask>
<g mask="url(#mask0_153_260)">
<mask id="mask1_153_260" style="mask-type:luminance" maskUnits="userSpaceOnUse" x="12" y="0" width="91" height="26">
<path d="M102.462 0H12V25.7471H102.462V0Z" fill="white"/>
</mask>
<g mask="url(#mask1_153_260)">
<path d="M92.1379 9.38414C95.0332 7.16756 98.9799 7.60628 101.055 10.3254C101.896 11.4247 102.218 12.7333 102.337 14.0877C102.561 16.6537 102.401 19.2274 102.439 21.796C102.457 22.8801 102.426 23.9667 102.449 25.0508C102.457 25.4283 102.383 25.5609 101.972 25.5482C100.923 25.515 99.8739 25.515 98.8275 25.5482C98.3831 25.5609 98.2434 25.4691 98.2459 24.987C98.2713 21.541 98.2586 18.0949 98.2586 14.6489C98.2586 14.4933 98.251 14.3351 98.2434 14.177C98.1393 12.3609 96.9989 11.4808 95.1983 11.8252C93.2909 12.1925 92.1735 13.5291 92.1531 15.5671C92.1227 18.7683 92.1277 21.9695 92.1455 25.1706C92.1455 25.6272 92.049 25.765 91.5766 25.7471C90.5303 25.7063 89.4788 25.7114 88.4325 25.7471C88.0185 25.7599 87.9575 25.6221 87.9575 25.2497C87.9677 16.9904 87.9677 8.73371 87.9575 0.474425C87.9575 0.124974 88.0185 -0.00766449 88.402 0.00508918C89.4839 0.035698 90.5684 0.035698 91.6528 0.00508918C92.0516 -0.00766449 92.143 0.107119 92.1404 0.497381C92.1227 3.24452 92.1303 5.99167 92.1303 8.73881V9.3867V9.38159L92.1379 9.38414Z" fill="#18323C"/>
<path d="M16.0075 13.0931C16.0024 15.6286 16.6805 17.7712 18.3669 19.4929C20.2234 21.3881 22.5193 22.0054 25.1175 21.6228C27.0527 21.3397 28.6908 20.4928 30.0344 19.0848C30.2731 18.8348 30.3645 18.9037 30.5499 19.095C31.2788 19.8449 32.0179 20.5872 32.7595 21.3243C32.9144 21.4774 32.9779 21.5667 32.7899 21.7784C29.1759 25.8162 23.0374 26.9487 18.3059 24.3521C14.6741 22.3548 12.7211 19.169 12.1522 15.1031C11.7585 12.2998 12.109 9.58841 13.4627 7.08359C15.4919 3.31105 18.6488 1.20925 22.9587 0.949072C25.4679 0.798579 27.8426 1.29087 30.0318 2.55604C31.1112 3.17842 32.0509 3.9819 32.9474 4.8415C33.1658 5.05066 33.0998 5.15779 32.922 5.33124C32.2337 6.00463 31.5353 6.66782 30.8902 7.37693C30.5652 7.73658 30.3925 7.78504 30.0344 7.39988C29.0997 6.38724 27.967 5.64753 26.6591 5.19095C22.7123 3.8161 18.1256 5.44857 16.5434 9.90471C16.1599 10.9862 15.9795 12.0958 16.0024 13.088L16.0075 13.0931Z" fill="#18323C"/>
<path d="M54.1568 24.296C52.544 25.5739 50.7586 25.8137 48.8691 25.6836C45.9636 25.4846 43.5864 23.3241 42.982 20.3117C42.8245 19.521 42.761 18.7226 42.761 17.9166C42.761 14.8914 42.7687 11.8662 42.7534 8.83851C42.7534 8.45335 42.8144 8.2901 43.2537 8.30796C44.3001 8.34367 45.3516 8.33857 46.3979 8.31051C46.7967 8.3003 46.9262 8.39468 46.9236 8.82065C46.9033 11.8637 46.9109 14.9067 46.916 17.9497C46.916 18.2992 46.9313 18.6486 46.9617 18.9955C47.1573 21.23 48.6481 22.314 50.8373 21.8218C53.0774 21.3167 54.1441 19.9317 54.1542 17.483C54.1644 14.6134 54.1695 11.7463 54.1441 8.87932C54.139 8.41254 54.2609 8.2952 54.7206 8.31051C55.7669 8.34622 56.8158 8.33091 57.8648 8.31561C58.1797 8.31051 58.3194 8.36152 58.3194 8.73138C58.3067 14.2741 58.3067 19.8194 58.3194 25.3622C58.3194 25.6606 58.2356 25.7422 57.9409 25.7397C56.8057 25.7244 55.6704 25.7218 54.5352 25.7397C54.238 25.7448 54.1339 25.6606 54.1568 25.3596C54.1822 25.0357 54.1618 24.7066 54.1618 24.296H54.1568Z" fill="#18323C"/>
<path d="M85.9541 10.9019C85.1135 11.6901 84.2626 12.4655 83.4423 13.2741C83.1452 13.5674 82.9648 13.5241 82.7134 13.2307C81.0575 11.2998 77.3876 11.3381 75.6174 13.0955C74.1774 14.5265 73.7736 17.1487 74.7819 19.128C76.0924 21.7043 79.1502 22.5001 81.8296 20.9671C82.302 20.6967 82.7134 20.3524 83.0487 20.0004C84.0087 20.9595 84.9585 21.9083 85.9058 22.8547C81.215 27.2496 75.4066 26.0354 72.5749 22.9771C69.5043 19.6662 69.3393 13.723 72.9584 10.3408C76.0416 7.45842 81.6036 6.77482 85.9566 10.8968L85.9541 10.9019Z" fill="#18323C"/>
<path d="M62.2836 19.0159C62.2836 16.9421 62.2734 14.8658 62.2937 12.7921C62.2988 12.4018 62.2074 12.2794 61.8086 12.2998C61.0594 12.3355 60.3077 12.2998 59.5559 12.3151C59.3146 12.3202 59.2207 12.2615 59.2232 11.9988C59.2359 10.879 59.2359 9.75924 59.2232 8.64202C59.2232 8.38695 59.3095 8.31553 59.5559 8.31808C60.3254 8.33083 61.0924 8.30532 61.862 8.33083C62.1997 8.34103 62.2988 8.25176 62.2963 7.89976C62.2759 6.08618 62.3013 4.27261 62.281 2.46159C62.2759 2.09428 62.3597 1.99225 62.7331 1.99991C63.8328 2.02541 64.935 2.02286 66.0322 1.99991C66.37 1.9948 66.4741 2.07898 66.4716 2.43098C66.4538 4.2318 66.4716 6.03262 66.4538 7.83344C66.4487 8.20585 66.5173 8.35379 66.9312 8.33338C67.6627 8.29512 68.3992 8.33338 69.1306 8.31553C69.41 8.31043 69.5345 8.37164 69.5319 8.68283C69.5167 9.7822 69.5091 10.8816 69.5294 11.9809C69.5345 12.287 69.4126 12.3176 69.1637 12.3151C68.4119 12.3023 67.6601 12.3329 66.9109 12.3023C66.53 12.287 66.4563 12.4171 66.4563 12.7717C66.469 16.8988 66.4563 21.0258 66.4766 25.1504C66.4766 25.6299 66.3598 25.7651 65.8823 25.7473C64.836 25.709 63.7871 25.7166 62.7407 25.7473C62.3699 25.7575 62.2785 25.6503 62.281 25.2932C62.2963 23.2016 62.2886 21.11 62.2886 19.0184L62.2836 19.0159Z" fill="#18323C"/>
<path d="M35.5276 12.8583C35.5276 8.74908 35.5327 4.6373 35.52 0.528061C35.52 0.1429 35.5835 -0.0126948 36.0178 0.00260962C37.0819 0.0383199 38.1486 0.028117 39.2153 0.00771109C39.5633 5.88802e-05 39.6877 0.0689288 39.6877 0.45409C39.675 8.72868 39.675 17.0007 39.6877 25.2753C39.6877 25.6273 39.6217 25.7574 39.2382 25.7472C38.1562 25.7191 37.0718 25.7115 35.9899 25.7497C35.5632 25.765 35.52 25.6069 35.5226 25.2447C35.5353 21.1176 35.5302 16.988 35.5302 12.8609L35.5276 12.8583Z" fill="#18323C"/>
<path d="M81.7991 16.8272C81.8093 18.4444 80.5445 19.7453 78.9597 19.7504C77.3622 19.7555 76.0492 18.4725 76.0314 16.8859C76.0136 15.3019 77.3521 13.9628 78.9546 13.9628C80.5572 13.9628 81.7915 15.256 81.8017 16.8272H81.7991Z" fill="#EE4537"/>
</g>
<path d="M26.9528 44.9027C27.1715 44.2026 27.3903 43.5026 27.6112 42.8026C27.8364 42.0896 28.0616 41.3788 28.2996 40.6701C28.3618 40.487 28.3382 40.3858 28.1731 40.2673C27.045 39.4595 25.9255 38.6389 24.8059 37.8204C24.7437 37.7751 24.6837 37.7256 24.6279 37.6351C24.9818 37.6351 25.3357 37.6351 25.6917 37.6351C26.8091 37.6351 27.9286 37.6287 29.046 37.633C29.1897 37.633 29.2476 37.5877 29.2926 37.452C29.743 36.0756 30.1998 34.7014 30.6545 33.325C30.6738 33.2625 30.6974 33.2022 30.7189 33.1376C30.8025 33.1527 30.7939 33.2259 30.8089 33.2733C31.2743 34.6454 31.7419 36.0153 32.1987 37.3896C32.2502 37.5446 32.3167 37.6007 32.4861 37.6007C33.9123 37.6007 35.3364 37.6093 36.7626 37.6157C36.8119 37.6157 36.8634 37.62 36.9599 37.6243C36.7969 37.7471 36.6704 37.8419 36.5417 37.9367C35.4608 38.7315 34.3798 39.5263 33.2968 40.3168C33.1788 40.403 33.1467 40.4762 33.1938 40.6227C33.6292 41.956 34.0539 43.2915 34.4828 44.627C34.5064 44.7002 34.5278 44.7756 34.5557 44.8682C34.4678 44.8596 34.4249 44.8101 34.3777 44.7756C33.2239 43.9463 32.07 43.1192 30.9205 42.2856C30.8046 42.2016 30.7317 42.2037 30.6181 42.2856C29.4621 43.1321 28.2996 43.9722 27.1394 44.8144C27.0879 44.8532 27.03 44.8833 26.9742 44.9156C26.9678 44.9092 26.9614 44.9027 26.9549 44.8962L26.9528 44.9027Z" fill="#EE4537"/>
<path d="M12 37.6372C12.3732 37.6372 12.7313 37.6372 13.0874 37.6372C14.1919 37.6372 15.2964 37.6286 16.4031 37.6372C16.5768 37.6372 16.6347 37.5747 16.684 37.4218C17.1258 36.0626 17.5762 34.7078 18.0223 33.3508C18.0459 33.2775 18.0738 33.2043 18.1167 33.0858C18.2368 33.4369 18.344 33.7471 18.4491 34.0573C18.8287 35.1817 19.2126 36.3039 19.5858 37.4283C19.6308 37.5661 19.6973 37.6049 19.8367 37.6049C21.2544 37.6049 22.6741 37.6157 24.0918 37.6221C24.154 37.6221 24.2162 37.6221 24.332 37.6221C24.2398 37.6975 24.1883 37.7428 24.1347 37.7837C22.9808 38.6324 21.827 39.4832 20.6688 40.3275C20.5466 40.4159 20.5209 40.4891 20.568 40.6334C21.0077 41.9861 21.4409 43.341 21.8763 44.6937C21.8935 44.7497 21.9106 44.8035 21.9321 44.8682C21.8549 44.8854 21.8184 44.8316 21.7777 44.8014C20.6195 43.97 19.4592 43.1385 18.3054 42.3006C18.1831 42.2101 18.1059 42.2144 17.9858 42.3006C16.8406 43.1407 15.6889 43.9721 14.5393 44.8057C14.4771 44.8509 14.4256 44.9134 14.3163 44.9242C14.3935 44.6765 14.4643 44.4417 14.5393 44.2069C14.9211 43.0157 15.3007 41.8224 15.691 40.6334C15.7425 40.4783 15.721 40.3943 15.5859 40.2974C14.4449 39.4746 13.3083 38.6431 12.1716 37.8138C12.1158 37.7729 12.0472 37.7449 12 37.6394L12 37.6372Z" fill="#EE4537"/>
<path d="M39.5507 44.9349C39.6944 44.4826 39.836 44.0389 39.9775 43.5995C40.295 42.6129 40.6081 41.6264 40.9319 40.642C40.9855 40.4805 40.9662 40.3922 40.8204 40.2866C39.6837 39.4681 38.5535 38.641 37.4211 37.816C37.3632 37.7751 37.3074 37.732 37.2388 37.6803C37.3138 37.62 37.3846 37.6415 37.4511 37.6415C38.8494 37.6351 40.2499 37.6286 41.6483 37.6329C41.8113 37.6329 41.8713 37.579 41.9206 37.4304C42.3689 36.054 42.8257 34.6798 43.2804 33.3034C43.2997 33.2431 43.3233 33.1827 43.3554 33.0858C43.4176 33.2581 43.4691 33.3981 43.5163 33.5403C43.9538 34.8306 44.3913 36.123 44.8224 37.4153C44.8717 37.5618 44.9425 37.6006 45.0883 37.6006C46.5146 37.6006 47.9386 37.6092 49.3649 37.6178C49.4206 37.6178 49.4807 37.5984 49.5472 37.648C49.4871 37.6954 49.4313 37.7384 49.3756 37.7794C48.2196 38.628 47.0658 39.4789 45.9076 40.3232C45.7875 40.4116 45.7575 40.4826 45.8047 40.627C46.2443 41.9732 46.6754 43.3216 47.1086 44.67C47.1301 44.7368 47.1687 44.7992 47.1537 44.8962C46.7676 44.6183 46.3902 44.3491 46.0127 44.0777C45.1891 43.4853 44.3634 42.8951 43.5442 42.2985C43.4241 42.2123 43.349 42.2058 43.2246 42.2963C42.0686 43.145 40.9062 43.985 39.7459 44.8251C39.6902 44.866 39.643 44.9242 39.5465 44.9349H39.5507Z" fill="#EE4537"/>
<path d="M56.1145 33.0365C56.3376 33.6956 56.5456 34.303 56.7515 34.9105C57.0303 35.7355 57.3134 36.5604 57.5858 37.3897C57.6308 37.5297 57.6994 37.5664 57.8389 37.5664C59.2436 37.5664 60.6505 37.575 62.0553 37.5836C62.1175 37.5836 62.2076 37.5491 62.2333 37.6137C62.2655 37.6999 62.1604 37.7236 62.1068 37.7624C60.9594 38.6089 59.8098 39.4554 58.656 40.2955C58.5402 40.3795 58.5187 40.4506 58.5638 40.5863C59.0056 41.939 59.4388 43.2917 59.8742 44.6465C59.8935 44.7068 59.9128 44.7672 59.9342 44.8382C59.8399 44.8339 59.7927 44.7736 59.7391 44.7327C58.5895 43.9077 57.4421 43.0849 56.2968 42.2556C56.1832 42.1737 56.1102 42.1716 55.9944 42.2556C54.8384 43.1021 53.676 43.9422 52.5157 44.7844C52.4578 44.8253 52.3999 44.8662 52.3356 44.9093C52.3077 44.8145 52.357 44.7435 52.3806 44.6724C52.8181 43.3046 53.2556 41.939 53.6996 40.5733C53.7446 40.4312 53.7275 40.3558 53.6031 40.2653C52.4557 39.4382 51.3147 38.6046 50.1737 37.771C50.118 37.7301 50.0472 37.7042 50 37.5987C50.3732 37.5987 50.7292 37.5987 51.0852 37.5987C52.1962 37.5987 53.3093 37.59 54.4202 37.5965C54.5746 37.5965 54.6325 37.5427 54.6776 37.4026C55.1301 36.0198 55.5869 34.6391 56.0437 33.2584C56.063 33.2024 56.0802 33.1464 56.1188 33.0387L56.1145 33.0365Z" fill="#EE4537"/>
<path d="M26.9723 44.9221C26.9723 44.9221 26.9528 44.9458 26.9506 44.9436C26.9311 44.9285 26.9376 44.9156 26.9528 44.9027C26.9593 44.9092 26.9658 44.9156 26.9701 44.9221H26.9723Z" fill="#EE4537"/>
<path d="M74.4366 37.5019C73.1026 37.4954 71.7686 37.4868 70.4346 37.4846C70.2952 37.4846 70.2287 37.4458 70.1815 37.308C69.7247 35.9402 69.2614 34.5746 68.796 33.2089C68.7724 33.1422 68.7681 33.0603 68.6974 33C68.6759 33.0625 68.6588 33.112 68.6416 33.1615C68.1826 34.5487 67.7237 35.9359 67.269 37.3274C67.224 37.4695 67.1596 37.5169 67.0074 37.5169C65.8964 37.5126 64.7833 37.5169 63.6724 37.5191C63.3163 37.5191 62.9625 37.5191 62.6064 37.5191C62.6601 37.6139 62.7201 37.6612 62.7823 37.7065C63.9147 38.5315 65.045 39.3586 66.1816 40.1771C66.3103 40.2697 66.3404 40.3451 66.2889 40.4981C65.8428 41.8637 65.4053 43.2293 64.9699 44.5971C64.9484 44.666 64.8948 44.7328 64.9313 44.8254C64.9956 44.7802 65.0535 44.7414 65.1114 44.6983C66.2674 43.8604 67.4234 43.0247 68.5751 42.1803C68.6952 42.092 68.7703 42.0856 68.8947 42.176C70.04 43.0075 71.1895 43.8303 72.3369 44.6553C72.3905 44.694 72.4377 44.7479 72.5278 44.7587C72.5021 44.679 72.4828 44.6165 72.4635 44.5562C72.0302 43.2078 71.5991 41.8594 71.1595 40.5131C71.1144 40.3731 71.1316 40.2977 71.256 40.2073C72.3155 39.4383 74.606 37.7862 74.606 37.7862V37.5105C74.5481 37.5083 74.488 37.5019 74.4301 37.5019H74.4366ZM72.2511 38.833L71.9144 37.896H73.5615L72.2511 38.833Z" fill="#EE4537"/>
<path d="M74.2173 37.4996L74.3803 37.9541L75.0001 37.4996H74.2173Z" fill="#EE4537"/>
<path d="M84.28 42.9V41.71L87.71 35.2H89.11L85.68 41.71H89.39V39.19H89.46H90.65V41.71H92.12V42.9H90.65V45H89.39V42.9H84.28ZM93.0575 44.972C92.8988 44.8133 92.8195 44.6127 92.8195 44.37C92.8195 44.1273 92.8988 43.9267 93.0575 43.768C93.2161 43.6093 93.4168 43.53 93.6595 43.53C93.9021 43.53 94.1028 43.6093 94.2615 43.768C94.4201 43.9267 94.4995 44.1273 94.4995 44.37C94.4995 44.6127 94.4201 44.8133 94.2615 44.972C94.1028 45.1307 93.9021 45.21 93.6595 45.21C93.4168 45.21 93.2161 45.1307 93.0575 44.972ZM95.2689 36.39V35.2H101.779V36.39L97.7189 45H96.3889L100.449 36.404V36.39H95.2689Z" fill="black"/>
</g>
</svg>
