<?xml version="1.0" encoding="UTF-8"?>
<svg width="120px" height="60px" viewBox="0 0 120 60" version="1.1" xmlns="http://www.w3.org/2000/svg" xmlns:xlink="http://www.w3.org/1999/xlink">
    <title>Group 2</title>
    <defs>
        <rect id="path-1" x="0" y="0" width="120" height="60"></rect>
        <polygon id="path-3" points="94 0 0 0 0 27 94 27"></polygon>
    </defs>
    <g id="Page-1" stroke="none" stroke-width="1" fill="none" fill-rule="evenodd">
        <g id="Group-2">
            <mask id="mask-2" fill="white">
                <use xlink:href="#path-1"></use>
            </mask>
            <g id="Rectangle"></g>
            <g id="clutch" mask="url(#mask-2)">
                <g transform="translate(12.000000, 2.000000)">
                    <g id="Clipped" stroke-width="1" fill="none" fill-rule="evenodd">
                        <mask id="mask-4" fill="white">
                            <use xlink:href="#path-3"></use>
                        </mask>
                        <g id="Path"></g>
                        <g id="Group" mask="url(#mask-4)" fill-rule="nonzero">
                            <g transform="translate(0.000813, 0.001483)" id="Path">
                                <path d="M83.2714041,9.8392406 C86.2798036,7.51477685 90.3809863,7.97485685 92.5372611,10.8262593 C93.4106888,11.9791256 93.7458801,13.3513331 93.8697044,14.7716681 C94.1020415,17.4625893 93.9359438,20.1615093 93.9755543,22.8550968 C93.9938617,23.9918981 93.9622398,25.1313993 93.985873,26.2682006 C93.9938617,26.6640881 93.9173036,26.8031718 93.4899098,26.7898068 C92.3997894,26.7550106 91.3100019,26.7550106 90.2225444,26.7898068 C89.7608659,26.8031718 89.6157384,26.7068831 89.6184013,26.2013418 C89.6446973,22.5875943 89.6313829,18.9738806 89.6313829,15.3601331 C89.6313829,15.1969856 89.6237271,15.0311381 89.6157384,14.8652906 C89.5075585,12.9607781 88.3225727,12.0379518 86.45156,12.3990768 C84.4697044,12.7842656 83.3083517,14.1858693 83.2873815,16.3230881 C83.2557597,19.6800318 83.2607526,23.0369756 83.2793928,26.3939193 C83.2793928,26.8727306 83.1792016,27.0171468 82.6882313,26.9984493 C81.6011067,26.9556543 80.5083234,26.9609868 79.4211988,26.9984493 C78.9908092,27.0118143 78.9275656,26.8673643 78.9275656,26.4768431 C78.9382172,17.8156481 78.9382172,9.1571531 78.9275656,0.495958096 C78.9275656,0.129504308 78.9908092,-0.00958828421 79.3895769,0.00378599704 C80.5136492,0.0358841708 81.6403843,0.0358841708 82.7674523,0.00378599704 C83.1818645,-0.00958828421 83.2767299,0.110780146 83.274067,0.520031971 C83.2557597,3.40085435 83.2634155,6.28168685 83.2634155,9.1624856 L83.2634155,9.84190685 L83.2634155,9.8365406 L83.2714041,9.8392406 Z" fill="#18323C"></path>
                                <path d="M4.16368035,13.7285231 C4.15842114,16.3873143 4.86302171,18.6341868 6.61536944,20.4397443 C8.54449975,22.4271468 10.9301825,23.0744718 13.6299197,22.6732518 C15.6408673,22.3763193 17.3430529,21.4882893 18.739106,20.0117606 C18.9871541,19.7496243 19.0821527,19.8218493 19.2748128,20.0224593 C20.0322051,20.8088681 20.8001825,21.5872443 21.5707894,22.3602881 C21.7317611,22.5207693 21.7977342,22.6143918 21.6024445,22.8363993 C17.8471046,27.0707081 11.4685522,28.2583368 6.55202596,25.5353193 C2.77819225,23.4409293 0.748774187,20.1000168 0.157628026,15.8363118 C-0.25142276,12.8966193 0.112764662,10.0532493 1.51937114,7.42655435 C3.62797355,3.47044685 6.90828729,1.26635922 11.3867349,0.993524221 C13.9941032,0.835709221 16.4616032,1.35195597 18.7364431,2.67868535 C19.8580522,3.3313496 20.8345005,4.17393185 21.7660791,5.0753606 C21.9930238,5.29470185 21.9244211,5.40702185 21.7396832,5.58893435 C21.0244976,6.2950856 20.2987604,6.9905381 19.6284445,7.73415185 C19.290657,8.1113081 19.1112115,8.1621356 18.739106,7.75824935 C17.7679169,6.6963056 16.5909197,5.9205956 15.2318142,5.4418181 C11.1307646,4.00005185 6.36465839,5.71198685 4.72052383,10.3849443 C4.32202242,11.5190793 4.13465485,12.6826443 4.15842114,13.7231568 L4.16368035,13.7285231 Z" fill="#18323C"></path>
                                <path d="M43.8047186,25.4766281 C42.1287625,26.8167393 40.2737271,27.0681768 38.3101789,26.9317593 C35.2911279,26.7231168 32.8209318,24.4575131 32.1928227,21.2985131 C32.0292214,20.4693093 31.9632483,19.6320731 31.9632483,18.7868043 C31.9632483,15.6144393 31.9711704,12.4420406 31.9553262,9.26700935 C31.9553262,8.86308935 32.0186697,8.69190935 32.4752221,8.7106406 C33.5625798,8.74806935 34.6550302,8.74273685 35.7424877,8.71330685 C36.156567,8.7026081 36.2913758,8.8015631 36.2887129,9.2482781 C36.2674098,12.4393743 36.2753985,15.6304706 36.2807243,18.8216006 C36.2807243,19.1880243 36.2967016,19.5544818 36.3283234,19.9182731 C36.5313687,22.2614343 38.0805047,23.3982693 40.3552781,22.8820293 C42.6829764,22.3523906 43.7914041,20.8999593 43.8020557,18.3320906 C43.8123744,15.3228731 43.8177002,12.3163218 43.7914041,9.30980435 C43.7860784,8.82029435 43.9128985,8.69724185 44.3905543,8.71330685 C45.4776789,8.7507356 46.5677993,8.73470435 47.6575869,8.71863935 C47.9847894,8.71330685 48.1299169,8.7668006 48.1299169,9.1546556 C48.1169353,14.9671143 48.1169353,20.7822393 48.1299169,26.5947318 C48.1299169,26.9076618 48.0430401,26.9932856 47.7368078,26.9905856 C46.5571478,26.9745543 45.3774877,26.9718881 44.1978277,26.9905856 C43.8889325,26.9959518 43.7807526,26.9076618 43.8047186,26.5920318 C43.8310146,26.2523381 43.8100444,25.9072781 43.8100444,25.4766281 L43.8047186,25.4766281 Z" fill="#18323C"></path>
                                <path d="M76.8455189,11.4308906 C75.9717583,12.2574281 75.0876789,13.0706006 74.2352214,13.9185018 C73.9266591,14.2261331 73.7392583,14.1806381 73.4779622,13.8730406 C71.7574027,11.8481756 67.9438121,11.8883043 66.1044211,13.7312906 C64.6082101,15.2318831 64.1884721,17.9816306 65.2363192,20.0573231 C66.5980543,22.7589093 69.7752143,23.5934793 72.5595982,21.9858656 C73.0505685,21.7023318 73.4779622,21.3412406 73.826135,20.9721168 C74.82372,21.9778668 75.8109863,22.9729181 76.7952568,23.9652693 C71.9208376,28.5740681 65.8853985,27.3008156 62.9429056,24.0936543 C59.7524311,20.6216906 59.5806747,14.3892806 63.3413404,10.8424256 C66.5451294,7.8198431 72.3245982,7.1029931 76.8478489,11.4255581 L76.8455189,11.4308906 Z" fill="#18323C"></path>
                                <path d="M52.249407,19.9395693 C52.249407,17.7649218 52.2390883,15.5875743 52.2600585,13.4129268 C52.2653843,13.0036743 52.170186,12.8752893 51.7561067,12.8966868 C50.9775444,12.9341493 50.1963192,12.8966868 49.4150939,12.9127181 C49.1644495,12.9180843 49.0669211,12.8565581 49.0695311,12.5810568 C49.0825656,11.4067931 49.0825656,10.2325293 49.0695311,9.06093185 C49.0695311,8.7934631 49.1591237,8.71857185 49.4150939,8.7212381 C50.2146265,8.7346031 51.0118291,8.7078731 51.8113617,8.7346031 C52.1625302,8.74530185 52.2653843,8.65167935 52.2627214,8.2825556 C52.2414183,6.3807431 52.2680472,4.47889685 52.2467441,2.5797641 C52.2414183,2.19458547 52.3286279,2.08759122 52.7167441,2.09561697 C53.8594566,2.12236385 55.004499,2.11969085 56.1445486,2.09561697 C56.4957172,2.0902676 56.6038971,2.17853735 56.6012342,2.54766785 C56.5829268,4.43610185 56.6012342,6.32454935 56.5829268,8.21299685 C56.577601,8.60355185 56.6488333,8.75866685 57.07889,8.73726935 C57.8388121,8.69717435 58.6043928,8.73726935 59.3643149,8.71857185 C59.6545699,8.7132056 59.7840529,8.7773981 59.7814302,9.10372685 C59.7654126,10.2565931 59.757424,11.4094593 59.7787271,12.5623256 C59.7840529,12.8833218 59.6572328,12.9154181 59.3985996,12.9127181 C58.6173744,12.8993531 57.836482,12.9314493 57.0579197,12.8993531 C56.6618149,12.8833218 56.5855897,13.0197393 56.5855897,13.3915293 C56.5985713,17.7194606 56.5855897,22.0473581 56.60656,26.3726231 C56.60656,26.8754981 56.4850656,27.0172481 55.9891024,26.9985168 C54.9016449,26.9584218 53.8118574,26.9664206 52.7243999,26.9985168 C52.3392795,27.0092156 52.2440812,26.8968956 52.2467441,26.5224056 C52.2627214,24.3290268 52.2547328,22.1356481 52.2547328,19.9422693 L52.249407,19.9395693 Z" fill="#18323C"></path>
                                <path d="M24.4473758,13.4823506 C24.4473758,9.1731506 24.452635,4.86128435 24.4394537,0.552094471 C24.4394537,0.148189658 24.5054268,-0.0149766742 24.95672,0.00107246666 C26.0624516,0.0385203833 27.1708461,0.0278210258 28.2792405,0.00642217579 C28.6407944,-0.00160238891 28.7701109,0.0706186583 28.7701109,0.474523471 C28.7569296,9.1517531 28.7569296,17.8263131 28.7701109,26.5035393 C28.7701109,26.8726631 28.7015083,27.0090806 28.3030068,26.9983818 C27.1787682,26.9689856 26.0518999,26.9609531 24.9276612,27.0010818 C24.4843234,27.0171131 24.4394537,26.8512656 24.4420833,26.4714431 C24.4552979,22.1435456 24.4500054,17.8129481 24.4500054,13.4850168 L24.4473758,13.4823506 Z" fill="#18323C"></path>
                                <path d="M72.5279764,17.6444006 C72.5386279,19.3402706 71.2241591,20.7044456 69.5774948,20.7097941 C67.917516,20.7151443 66.553118,19.3697006 66.5348107,17.7059268 C66.5161704,16.0448531 67.9068645,14.6405493 69.572169,14.6405493 C71.2374735,14.6405493 72.5199877,15.9966918 72.5306393,17.6444006 L72.5279764,17.6444006 Z" fill="#EE4537"></path>
                            </g>
                        </g>
                    </g>
                    <path d="M23.7704497,55.979307 C24.1252526,54.8498121 24.480021,53.7206622 24.8383095,52.5911673 C25.2035001,51.4409795 25.5687252,50.2945853 25.9548291,49.1512951 C26.0557035,48.8557296 26.0174313,48.6925995 25.7495949,48.5015338 C23.9200184,47.1985624 22.104384,45.874553 20.2887152,44.5539925 C20.1878409,44.481222 20.0904521,44.4012089 20,44.255323 C20.5739104,44.255323 21.1478553,44.255323 21.7252512,44.255323 C23.5374345,44.255323 25.3530688,44.2449765 27.165252,44.2518742 C27.3983017,44.2518742 27.4922394,44.1787588 27.5652638,43.9597575 C28.295714,41.7393948 29.0365864,39.522481 29.7739732,37.3021183 C29.8052742,37.2014122 29.8435464,37.1041549 29.8783331,37 C30.0139595,37.0241419 30.0000518,37.1424371 30.0244162,37.2186564 C30.7791964,39.4321214 31.5374621,41.6421376 32.2783345,43.8590514 C32.3618155,44.1094371 32.4696264,44.1997967 32.7444339,44.1997967 C35.0573997,44.1997967 37.3671905,44.2135921 39.6800872,44.2239386 C39.7601517,44.2239386 39.8436672,44.2308363 40,44.2377339 C39.7356492,44.4360422 39.5306566,44.5888258 39.3218678,44.7416093 C37.5687321,46.0238877 35.8155964,47.3061662 34.0593547,48.581202 C33.8679247,48.7201902 33.8157447,48.8384854 33.8922546,49.0747309 C34.5984094,51.2257719 35.2868948,53.3799169 35.9826274,55.5344067 C36.0209341,55.6527019 36.0557897,55.774101 36.1009986,55.9237807 C35.95847,55.9096404 35.8887587,55.8299722 35.8121453,55.774101 C33.940949,54.4362963 32.0696492,53.1019404 30.205286,51.757238 C30.0174451,51.6216986 29.8991774,51.6251475 29.7148566,51.757238 C27.8400367,53.1229783 25.9548291,54.4780273 24.0730726,55.8368699 C23.9895916,55.8992939 23.8956884,55.9479225 23.8052363,56 C23.7948141,55.9896535 23.7843919,55.979307 23.7739352,55.9689604 L23.7704497,55.979307 Z" id="Path" fill="#EE4537" fill-rule="nonzero"></path>
                    <path d="M0,44.3047098 C0.605218658,44.3047098 1.1860868,44.3047098 1.76347975,44.3047098 C3.55477485,44.3047098 5.34610447,44.2909849 7.14088512,44.3047098 C7.42262776,44.3047098 7.51653047,44.2045184 7.5965255,43.9588435 C8.31302973,41.7776213 9.04347616,39.6032615 9.76695149,37.4251273 C9.80522349,37.3077798 9.85043207,37.1900892 9.92000497,37 C10.1147815,37.5634052 10.2887137,38.0612742 10.4591259,38.5591433 C11.0747909,40.3636183 11.6973924,42.1646621 12.3026007,43.9694803 C12.3756591,44.1904504 12.4834695,44.2528985 12.7095815,44.2528985 C15.0086966,44.2528985 17.3112973,44.2700545 19.610447,44.2803482 C19.7113208,44.2803482 19.8121946,44.2803482 20,44.2803482 C19.8504321,44.40147 19.7669515,44.4742117 19.6800199,44.5397479 C17.8086952,45.9019395 15.9374051,47.2672193 14.0591439,48.6225485 C13.8608818,48.7642576 13.8191243,48.8819482 13.8956683,49.1135551 C14.6086869,51.2844837 15.311318,53.4588435 16.0174001,55.6301152 C16.0452155,55.7196699 16.0730653,55.8061365 16.1078173,55.9101022 C15.9826137,55.9375519 15.9234974,55.8510853 15.8574101,55.8027052 C13.9791488,54.4683064 12.0974021,53.1339076 10.2260774,51.7892152 C10.0278154,51.6440748 9.90261174,51.6509373 9.70783523,51.7892152 C7.85045278,53.1373388 5.98261368,54.4717376 4.11826013,55.8095677 C4.01738632,55.8823094 3.93390575,55.9825008 3.75652246,56 C3.88172607,55.6023224 3.99650755,55.2255752 4.11826013,54.848828 C4.73737611,52.936956 5.35304105,51.0216528 5.98609922,49.1135551 C6.0695798,48.864449 6.03479335,48.7296023 5.81565252,48.5741684 C3.96520665,47.2534944 2.12173877,45.9190956 0.278260885,44.588128 C0.187826123,44.5225918 0.0765219072,44.4776429 0,44.308141 L0,44.3047098 Z" id="Path" fill="#EE4537" fill-rule="nonzero"></path>
                    <path d="M43.5688847,56 C43.7909341,55.2746103 44.0093702,54.5632758 44.2278063,53.8584548 C44.7178915,52.2767213 45.2010788,50.6946449 45.7010183,49.1163395 C45.7837941,48.8571738 45.7542313,48.7155925 45.5288972,48.5465863 C43.7741818,47.23396 42.0296492,45.9076212 40.2815034,44.5847106 C40.1921581,44.5192335 40.1060975,44.4499856 40,44.3670251 C40.1159518,44.2703522 40.2253341,44.3049762 40.3278184,44.3049762 C42.4865584,44.2946918 44.6482548,44.2844075 46.8069948,44.2912637 C47.0586069,44.2912637 47.151237,44.2048751 47.2274433,43.966621 C47.9192124,41.7595987 48.6244489,39.5560046 49.3264008,37.3486396 C49.3559636,37.2519667 49.3924243,37.1552937 49.4420241,37 C49.5382674,37.2763063 49.6177584,37.500848 49.6903515,37.7288178 C50.3656968,39.7976869 51.0410421,41.8699841 51.7065332,43.9422813 C51.7827395,44.1771074 51.8921218,44.2394991 52.1171274,44.2394991 C54.3188977,44.2394991 56.5170548,44.2532116 58.7184966,44.2669241 C58.8045572,44.2669241 58.8975157,44.236071 59,44.3152605 C58.9073699,44.3913648 58.8213094,44.4602699 58.7352489,44.5260898 C56.9506423,45.8870525 55.1696489,47.2511006 53.3817575,48.6052071 C53.1964974,48.7467884 53.1501824,48.8606019 53.2227754,49.0919999 C53.901734,51.2506856 54.5672251,53.4131423 55.2356724,55.5752562 C55.2688484,55.6822135 55.3286309,55.7823145 55.3053092,55.9379511 C54.7094549,55.4922958 54.1267396,55.0603529 53.5440243,54.6253248 C52.2728247,53.6753933 50.9980119,52.7292328 49.7333817,51.7724452 C49.5481216,51.634292 49.4321698,51.6240077 49.2403402,51.769017 C47.4557336,53.129637 45.6612728,54.4768873 43.8704251,55.8237947 C43.7843646,55.8896146 43.711443,55.9828594 43.5623152,56 L43.5688847,56 Z" id="Path" fill="#EE4537" fill-rule="nonzero"></path>
                    <path d="M69.4920487,37 C69.8382351,38.0547763 70.1609681,39.0267579 70.4807281,39.9987395 C70.9134611,41.319006 71.3531311,42.6392725 71.7759542,43.9663816 C71.845654,44.1904745 71.9523507,44.2489781 72.1687173,44.2489781 C74.3495596,44.2489781 76.533375,44.2630053 78.7142174,44.2766904 C78.8106739,44.2766904 78.950734,44.221608 78.990704,44.3249302 C79.040584,44.4628072 78.8774007,44.5007833 78.7941574,44.5627082 C77.013015,45.9175295 75.2282389,47.2720086 73.4371866,48.6165661 C73.2574868,48.7510219 73.2241234,48.8646079 73.2941535,49.0818583 C73.9799197,51.2464932 74.6524728,53.4111281 75.3283291,55.5795264 C75.3583892,55.6760061 75.3881189,55.7724858 75.4214823,55.8860718 C75.2751459,55.8792293 75.2018125,55.7827496 75.1185692,55.7174034 C73.3341235,54.3971369 71.5526508,53.0802917 69.7748117,51.7531827 C69.5984152,51.6221482 69.4851118,51.6187269 69.3054119,51.7531827 C67.5110563,53.108004 65.7064605,54.4522193 63.9051679,55.7998559 C63.815318,55.8655443 63.7254681,55.9308904 63.6257083,56 C63.582435,55.8484379 63.6587413,55.7345098 63.695408,55.6209237 C64.3745676,53.4319978 65.0537273,51.2464932 65.7431272,49.0609886 C65.8128269,48.8334744 65.7864005,48.7130458 65.5931571,48.5683263 C63.8120147,47.2446385 62.0407822,45.910687 60.2695497,44.5763933 C60.1830031,44.5110471 60.0730031,44.4696498 60,44.3006392 C60.5790695,44.3006392 61.1317125,44.3006392 61.6846859,44.3006392 C63.4090114,44.3006392 65.1369706,44.2869542 66.8616264,44.297218 C67.1014464,44.297218 67.1912963,44.2110021 67.2613264,43.9872513 C67.9636092,41.7740344 68.6728289,39.5645809 69.3820486,37.3551274 C69.4121087,37.2654902 69.4385352,37.1758531 69.4986553,37.0034213 L69.4920487,37 Z" id="Path" fill="#EE4537" fill-rule="nonzero"></path>
                    <path d="M24.5785813,56.4951786 C24.5785813,56.4951786 24.4878813,56.6051786 24.4777813,56.5951786 C24.3870813,56.5251786 24.4172813,56.4641786 24.4878813,56.4041786 C24.5180813,56.4341786 24.5482813,56.4641786 24.5684813,56.4951786 L24.5785813,56.4951786 Z" id="Path" fill="#EE4537" fill-rule="nonzero"></path>
                    <path d="M97.731469,44.2330736 C95.6192722,44.2227686 93.5070755,44.2086851 91.3948787,44.2052501 C91.1741914,44.2052501 91.0690701,44.1430767 90.9942722,43.9215194 C90.2708895,41.7238081 89.5373989,39.5298754 88.8005391,37.3355992 C88.7631402,37.2284273 88.7564016,37.0968669 88.6442049,37 C88.6105121,37.1003019 88.583221,37.1796504 88.5559299,37.2593423 C87.8291779,39.488312 87.1027628,41.7169382 86.3827493,43.9527778 C86.3113208,44.1812051 86.2095687,44.2571186 85.9683288,44.2571186 C84.2092318,44.2502486 82.4467655,44.2571186 80.6876685,44.2605536 C80.1239892,44.2605536 79.5636792,44.2605536 79,44.2605536 C79.0849057,44.4130675 79.1799191,44.4889809 79.2786388,44.5618028 C81.0714286,45.8873682 82.861186,47.2163687 84.6610512,48.5312856 C84.8648922,48.6803645 84.9123989,48.8012764 84.8308625,49.0472222 C84.1243261,51.2411549 83.4316038,53.4354311 82.7422507,55.6331423 C82.708221,55.7437492 82.6233154,55.8512646 82.6812668,56 C82.7830189,55.9271781 82.8746631,55.8650046 82.9663073,55.7956177 C84.7968329,54.4494423 86.6270216,53.1067019 88.4508086,51.749878 C88.6408356,51.6080126 88.7597709,51.5977076 88.9568733,51.743008 C90.7702156,53.0788784 92.5902965,54.4010088 94.4070081,55.7265742 C94.4919137,55.7887477 94.5667116,55.8753096 94.7092318,55.8924846 C94.6684636,55.7647027 94.6381402,55.6644008 94.6074798,55.5671904 C93.921496,53.4007376 93.2388814,51.2342849 92.5427898,49.0712672 C92.4713612,48.8462748 92.4986523,48.7253629 92.6954178,48.5797191 C94.3729784,47.3444941 98,44.6899282 98,44.6899282 L98,44.2468136 C97.9083558,44.2433786 97.8130054,44.2330736 97.7213612,44.2330736 L97.731469,44.2330736 Z M94.2712264,46.3717029 L93.7382075,44.8664871 L96.3460243,44.8664871 L94.2712264,46.3717029 Z" id="Shape" fill="#EE4537" fill-rule="nonzero"></path>
                    <polygon id="Path" fill="#EE4537" fill-rule="nonzero" points="98 44 98.2082654 45 99 44"></polygon>
                </g>
            </g>
        </g>
    </g>
</svg>