<svg width="359" height="174" viewBox="0 0 359 174" fill="none" xmlns="http://www.w3.org/2000/svg">
<g clip-path="url(#clip0_42_76)">
<mask id="mask0_42_76" style="mask-type:luminance" maskUnits="userSpaceOnUse" x="0" y="0" width="283" height="80">
<path d="M282.4 0H0V80H282.4V0Z" fill="white"/>
</mask>
<g mask="url(#mask0_42_76)">
<path d="M250.171 29.1577C259.209 22.2704 271.53 23.6336 278.008 32.0822C280.632 35.4981 281.639 39.5639 282.011 43.7723C282.709 51.7454 282.21 59.7422 282.329 67.7232C282.384 71.0915 282.289 74.4678 282.36 77.8361C282.384 79.0091 282.154 79.4212 280.87 79.3816C277.595 79.2785 274.321 79.2785 271.054 79.3816C269.667 79.4212 269.231 79.1359 269.239 77.638C269.318 66.9306 269.278 56.2233 269.278 45.5159C269.278 45.0325 269.255 44.5411 269.231 44.0497C268.906 38.4067 265.346 35.6724 259.725 36.7424C253.771 37.8837 250.282 42.0366 250.219 48.3691C250.124 58.3156 250.139 68.2621 250.195 78.2086C250.195 79.6273 249.894 80.0552 248.419 79.9998C245.153 79.873 241.87 79.8888 238.604 79.9998C237.311 80.0394 237.121 79.6114 237.121 78.4543C237.153 52.7915 237.153 27.1367 237.121 1.4739C237.121 0.388111 237.311 -0.0240152 238.509 0.0156123C241.886 0.110718 245.271 0.110718 248.657 0.0156123C249.902 -0.0240152 250.187 0.332632 250.179 1.54523C250.124 10.081 250.147 18.6168 250.147 27.1525V29.1656V29.1497L250.171 29.1577Z" fill="#18323C"/>
<path d="M12.5112 40.6815C12.4954 48.5594 14.6122 55.2168 19.8767 60.5666C25.6723 66.4552 32.8395 68.3732 40.9502 67.1844C46.9916 66.3046 52.1054 63.6734 56.2995 59.2985C57.0447 58.5218 57.3301 58.7358 57.9089 59.3302C60.1843 61.6603 62.4915 63.9666 64.8066 66.2571C65.2902 66.7326 65.4884 67.01 64.9017 67.6678C53.6197 80.2139 34.4569 83.7328 19.6864 75.6646C8.34884 69.459 2.25195 59.56 0.475996 46.9268C-0.752897 38.2166 0.341215 29.7918 4.56702 22.009C10.9018 10.2872 20.7567 3.75657 34.2111 2.94817C42.0443 2.48057 49.4573 4.01019 56.2915 7.94124C59.6611 9.87506 62.5946 12.3716 65.3933 15.0425C66.0751 15.6924 65.869 16.0252 65.314 16.5642C63.1654 18.6565 60.9851 20.7171 58.9713 22.9204C57.9565 24.0379 57.4174 24.1885 56.2995 22.9918C53.3818 19.8453 49.8458 17.5469 45.7627 16.1283C33.4421 11.8564 19.1235 16.9288 14.1841 30.7746C12.9869 34.135 12.424 37.5826 12.4954 40.6656L12.5112 40.6815Z" fill="#18323C"/>
<path d="M131.603 75.4907C126.568 79.4614 120.995 80.2064 115.096 79.8022C106.026 79.184 98.6049 72.4711 96.7179 63.1111C96.2264 60.6542 96.0282 58.1735 96.0282 55.669C96.0282 46.2694 96.052 36.8697 96.0044 27.4622C96.0044 26.2654 96.1947 25.7582 97.5663 25.8137C100.833 25.9246 104.115 25.9088 107.382 25.8216C108.626 25.7899 109.031 26.0831 109.023 27.4067C108.959 36.8618 108.983 46.3169 108.999 55.7721C108.999 56.8578 109.047 57.9436 109.142 59.0215C109.752 65.9642 114.406 69.3326 121.24 67.803C128.233 66.2337 131.563 61.9302 131.595 54.3217C131.626 45.4055 131.642 36.4972 131.563 27.589C131.547 26.1386 131.928 25.774 133.363 25.8216C136.629 25.9325 139.904 25.885 143.178 25.8374C144.161 25.8216 144.597 25.9801 144.597 27.1293C144.558 44.3514 144.558 61.5814 144.597 78.8036C144.597 79.7308 144.336 79.9845 143.416 79.9765C139.872 79.929 136.328 79.9211 132.784 79.9765C131.856 79.9924 131.531 79.7308 131.603 78.7956C131.682 77.7891 131.619 76.7667 131.619 75.4907H131.603Z" fill="#18323C"/>
<path d="M230.866 33.8737C228.241 36.3227 225.585 38.7321 223.024 41.2444C222.097 42.1559 221.534 42.0211 220.749 41.1097C215.58 35.1101 204.123 35.229 198.597 40.6897C194.102 45.1359 192.841 53.2833 195.989 59.4335C200.08 67.4382 209.625 69.911 217.99 65.1477C219.465 64.3076 220.749 63.2377 221.795 62.144C224.792 65.124 227.758 68.0723 230.715 71.0126C216.071 84.6683 197.939 80.8957 189.099 71.393C179.514 61.1057 178.998 42.6393 190.296 32.1301C199.921 23.1743 217.284 21.0503 230.873 33.8579L230.866 33.8737Z" fill="#18323C"/>
<path d="M156.973 59.0846C156.973 52.6412 156.942 46.1898 157.005 39.7464C157.021 38.5338 156.735 38.1534 155.491 38.2168C153.152 38.3278 150.805 38.2168 148.458 38.2643C147.705 38.2802 147.412 38.0979 147.42 37.2816C147.459 33.8023 147.459 30.323 147.42 26.8516C147.42 26.0591 147.689 25.8372 148.458 25.8451C150.86 25.8847 153.255 25.8055 155.657 25.8847C156.712 25.9164 157.021 25.639 157.013 24.5453C156.949 18.9103 157.029 13.2752 156.965 7.64814C156.949 6.50687 157.211 6.18985 158.377 6.21363C161.81 6.29288 165.25 6.28496 168.675 6.21363C169.73 6.19778 170.055 6.45932 170.047 7.55304C169.992 13.1484 170.047 18.7438 169.992 24.3392C169.976 25.4964 170.19 25.956 171.482 25.8926C173.765 25.7738 176.065 25.8926 178.348 25.8372C179.22 25.8213 179.609 26.0115 179.601 26.9784C179.553 30.3943 179.529 33.8102 179.593 37.2261C179.609 38.1772 179.228 38.2723 178.451 38.2643C176.104 38.2247 173.758 38.3198 171.419 38.2247C170.229 38.1772 170 38.5814 170 39.683C170.039 52.5065 170 65.3299 170.063 78.1455C170.063 79.6355 169.698 80.0555 168.208 80C164.941 79.8812 161.667 79.9049 158.4 80C157.243 80.0317 156.957 79.6989 156.965 78.5893C157.013 72.0904 156.989 65.5915 156.989 59.0926L156.973 59.0846Z" fill="#18323C"/>
<path d="M73.4486 39.9521C73.4486 27.1841 73.4644 14.4082 73.4248 1.64023C73.4248 0.443475 73.623 -0.0399808 74.9788 0.00757221C78.3007 0.118529 81.6306 0.0868272 84.9605 0.0234232C86.0467 -0.000353288 86.4352 0.213635 86.4352 1.41039C86.3956 27.1207 86.3956 52.8231 86.4352 78.5334C86.4352 79.6271 86.2291 80.0313 85.0319 79.9996C81.6544 79.9125 78.269 79.8887 74.8915 80.0076C73.5596 80.0551 73.4248 79.5637 73.4327 78.4383C73.4724 65.6149 73.4565 52.7835 73.4565 39.96L73.4486 39.9521Z" fill="#18323C"/>
<path d="M217.895 52.2841C217.927 57.3089 213.978 61.3509 209.031 61.3667C204.044 61.3826 199.945 57.3961 199.89 52.4664C199.834 47.5447 204.012 43.3838 209.015 43.3838C214.018 43.3838 217.871 47.402 217.903 52.2841H217.895Z" fill="#EE4537"/>
</g>
<path d="M70.2702 173.799C71.2983 170.524 72.3263 167.25 73.3645 163.975C74.4227 160.64 75.481 157.316 76.5998 154.001C76.8921 153.144 76.7812 152.671 76.0051 152.117C70.7036 148.339 65.4425 144.5 60.1813 140.671C59.889 140.46 59.6068 140.228 59.3447 139.805C61.0077 139.805 62.6708 139.805 64.3439 139.805C69.595 139.805 74.8561 139.775 80.1072 139.795C80.7825 139.795 81.0547 139.583 81.2663 138.948C83.3829 132.51 85.5297 126.082 87.6664 119.644C87.7571 119.352 87.868 119.07 87.9688 118.768C88.3618 118.838 88.3215 119.181 88.3921 119.402C90.5792 125.82 92.7764 132.228 94.9232 138.656C95.1651 139.382 95.4775 139.644 96.2738 139.644C102.976 139.644 109.669 139.684 116.371 139.714C116.603 139.714 116.845 139.734 117.298 139.754C116.532 140.329 115.938 140.772 115.333 141.215C110.253 144.933 105.173 148.651 100.084 152.348C99.5293 152.751 99.3781 153.094 99.5998 153.779C101.646 160.016 103.641 166.262 105.657 172.509C105.768 172.852 105.869 173.204 106 173.638C105.587 173.597 105.385 173.366 105.163 173.204C99.7409 169.325 94.3185 165.456 88.9162 161.557C88.3719 161.164 88.0292 161.174 87.4951 161.557C82.0625 165.517 76.5998 169.446 71.1471 173.386C70.9052 173.567 70.6331 173.708 70.371 173.859C70.3408 173.829 70.3106 173.799 70.2803 173.769L70.2702 173.799Z" fill="#EE4537"/>
<path d="M0 139.815C1.75373 139.815 3.4369 139.815 5.11 139.815C10.3006 139.815 15.4913 139.775 20.692 139.815C21.5084 139.815 21.7805 139.523 22.0123 138.807C24.0885 132.45 26.2051 126.113 28.3015 119.765C28.4124 119.423 28.5434 119.08 28.745 118.526C29.3094 120.168 29.8134 121.619 30.3072 123.07C32.0912 128.329 33.8953 133.578 35.649 138.838C35.8607 139.482 36.1731 139.664 36.8283 139.664C43.4904 139.664 50.1626 139.714 56.8248 139.744C57.1171 139.744 57.4094 139.744 57.9536 139.744C57.5202 140.097 57.2783 140.309 57.0264 140.5C51.6039 144.47 46.1815 148.449 40.7389 152.399C40.1644 152.812 40.0434 153.155 40.2652 153.83C42.3313 160.157 44.3673 166.494 46.4133 172.822C46.4939 173.083 46.5746 173.335 46.6753 173.638C46.3125 173.718 46.1412 173.466 45.9497 173.325C40.5071 169.436 35.0544 165.547 29.6319 161.628C29.0574 161.205 28.6946 161.225 28.1302 161.628C22.7481 165.557 17.3357 169.446 11.9334 173.345C11.6411 173.557 11.3992 173.849 10.8852 173.9C11.248 172.741 11.5806 171.643 11.9334 170.545C13.7274 164.973 15.5114 159.391 17.3458 153.83C17.5877 153.104 17.4869 152.711 16.8519 152.258C11.4899 148.409 6.14812 144.52 0.806311 140.641C0.54426 140.45 0.221736 140.319 0 139.825L0 139.815Z" fill="#EE4537"/>
<path d="M129.473 173.95C130.149 171.834 130.814 169.759 131.479 167.703C132.971 163.089 134.442 158.474 135.964 153.87C136.216 153.114 136.126 152.701 135.44 152.208C130.098 148.379 124.787 144.51 119.465 140.651C119.193 140.46 118.931 140.258 118.608 140.016C118.961 139.734 119.294 139.835 119.606 139.835C126.178 139.805 132.759 139.775 139.331 139.795C140.097 139.795 140.379 139.543 140.611 138.848C142.717 132.41 144.864 125.982 147.001 119.543C147.091 119.261 147.202 118.979 147.353 118.526C147.646 119.332 147.888 119.987 148.109 120.652C150.165 126.687 152.221 132.732 154.247 138.777C154.479 139.462 154.812 139.644 155.497 139.644C162.2 139.644 168.892 139.684 175.594 139.724C175.856 139.724 176.139 139.634 176.451 139.865C176.169 140.087 175.907 140.288 175.645 140.48C170.212 144.45 164.79 148.429 159.347 152.379C158.783 152.792 158.642 153.124 158.863 153.799C160.93 160.096 162.956 166.404 164.991 172.711C165.092 173.023 165.274 173.315 165.203 173.769C163.389 172.469 161.615 171.209 159.841 169.94C155.971 167.169 152.09 164.409 148.24 161.618C147.676 161.215 147.323 161.185 146.739 161.608C141.306 165.577 135.843 169.507 130.391 173.436C130.129 173.628 129.907 173.9 129.453 173.95H129.473Z" fill="#EE4537"/>
<path d="M207.313 118.294C208.361 121.377 209.338 124.218 210.306 127.059C211.616 130.918 212.947 134.777 214.227 138.656C214.438 139.311 214.761 139.482 215.416 139.482C222.018 139.482 228.629 139.523 235.231 139.563C235.523 139.563 235.947 139.402 236.068 139.704C236.219 140.107 235.725 140.218 235.473 140.399C230.081 144.359 224.678 148.318 219.256 152.248C218.712 152.641 218.611 152.973 218.823 153.608C220.899 159.935 222.935 166.262 224.981 172.6C225.072 172.882 225.162 173.164 225.263 173.496C224.82 173.476 224.598 173.194 224.346 173.003C218.944 169.144 213.551 165.295 208.169 161.416C207.635 161.033 207.292 161.023 206.748 161.416C201.316 165.376 195.853 169.305 190.4 173.244C190.128 173.436 189.856 173.627 189.554 173.829C189.423 173.386 189.654 173.053 189.765 172.721C191.821 166.323 193.877 159.935 195.964 153.547C196.175 152.882 196.095 152.53 195.51 152.107C190.118 148.238 184.756 144.339 179.394 140.439C179.132 140.248 178.799 140.127 178.578 139.633C180.331 139.633 182.004 139.633 183.678 139.633C188.898 139.633 194.129 139.593 199.35 139.623C200.076 139.623 200.348 139.371 200.56 138.717C202.686 132.248 204.833 125.79 206.98 119.332C207.071 119.07 207.151 118.808 207.333 118.304L207.313 118.294Z" fill="#EE4537"/>
<path d="M70.3608 173.89C70.3608 173.89 70.2701 174 70.26 173.99C70.1693 173.92 70.1995 173.859 70.2701 173.799C70.3003 173.829 70.3305 173.859 70.3507 173.89H70.3608Z" fill="#EE4537"/>
<path d="M293.416 139.18C287.147 139.15 280.878 139.109 274.609 139.099C273.954 139.099 273.642 138.918 273.42 138.273C271.273 131.875 269.096 125.488 266.909 119.1C266.798 118.788 266.778 118.405 266.445 118.123C266.345 118.415 266.264 118.646 266.183 118.878C264.026 125.367 261.87 131.855 259.733 138.364C259.521 139.029 259.219 139.25 258.503 139.25C253.282 139.23 248.051 139.25 242.83 139.26C241.157 139.26 239.494 139.26 237.821 139.26C238.073 139.704 238.355 139.925 238.648 140.137C243.969 143.996 249.281 147.865 254.623 151.693C255.228 152.127 255.369 152.479 255.127 153.195C253.03 159.582 250.974 165.97 248.928 172.368C248.827 172.69 248.575 173.003 248.747 173.436C249.049 173.224 249.321 173.043 249.593 172.841C255.026 168.922 260.458 165.013 265.871 161.063C266.435 160.65 266.788 160.62 267.373 161.043C272.755 164.932 278.157 168.781 283.549 172.64C283.801 172.821 284.023 173.073 284.446 173.123C284.325 172.751 284.235 172.459 284.144 172.176C282.108 165.869 280.082 159.562 278.016 153.265C277.804 152.61 277.885 152.258 278.469 151.834C283.448 148.238 294.213 140.51 294.213 140.51V139.22C293.941 139.21 293.658 139.18 293.386 139.18H293.416ZM283.146 145.406L281.564 141.024H289.304L283.146 145.406Z" fill="#EE4537"/>
<path d="M292.389 139.17L293.155 141.296L296.067 139.17H292.389Z" fill="#EE4537"/>
</g>
<defs>
<clipPath id="clip0_42_76">
<rect width="359" height="174" fill="white"/>
</clipPath>
</defs>
</svg>
