<?xml version="1.0" encoding="UTF-8"?>
<svg width="120px" height="60px" viewBox="0 0 120 60" version="1.1" xmlns="http://www.w3.org/2000/svg" xmlns:xlink="http://www.w3.org/1999/xlink">
    <title>Group 2</title>
    <defs>
        <rect id="path-1" x="0" y="0" width="120" height="60"></rect>
        <polygon id="path-3" points="99 0 0 0 0 32 99 32"></polygon>
        <path d="M13.3574491,9.7913983e-15 L4.64255093,9.7913983e-15 C2.07834136,9.7913983e-15 0,2.07839384 0,4.64253861 L0,13.3574614 C0,15.9216062 2.07834136,18 4.64255093,18 L13.3574491,18 C15.9216586,18 18,15.9216062 18,13.3574614 L18,4.64253861 C18,2.07839384 15.9216586,9.7913983e-15 13.3574491,9.7913983e-15 Z" id="path-5"></path>
    </defs>
    <g id="Page-1" stroke="none" stroke-width="1" fill="none" fill-rule="evenodd">
        <g id="Group-2">
            <mask id="mask-2" fill="white">
                <use xlink:href="#path-1"></use>
            </mask>
            <g id="Rectangle"></g>
            <g id="glassdoor" mask="url(#mask-2)">
                <g transform="translate(10.680400, 1.394821)">
                    <g id="Clipped" stroke-width="1" fill="none" fill-rule="evenodd" transform="translate(0.319600, -0.394821)">
                        <mask id="mask-4" fill="white">
                            <use xlink:href="#path-3"></use>
                        </mask>
                        <g id="Path"></g>
                        <g id="Group" mask="url(#mask-4)" fill="#01AD33" fill-rule="nonzero">
                            <path d="M0,13.6920982 C0,10.6930806 0,7.69723395 0,4.69825075 C0,2.70735028 1.04616014,1.08737958 2.7939355,0.345551056 C3.3452087,0.114127359 3.92466154,0.00317019905 4.51663979,0 C9.00199137,0 13.4873092,0 17.9726608,0 C20.3844515,0 22.4047515,1.94650237 22.4830564,4.31148643 C22.4893006,4.53656183 22.4392125,4.5936062 22.2136809,4.59043516 C16.4347459,4.58409306 10.6589499,4.58409306 4.87998125,4.58409306 C4.63882243,4.58409306 4.51663979,4.7014218 4.51663979,4.93918139 L4.51663979,23.1044205 C4.51663979,23.5197243 4.51663979,23.5228953 4.10945434,23.5228953 L0.41032102,23.5228953 C0.137817626,23.5228953 0,23.3865748 0,23.1171047 L0,13.6889272 L0,13.6920982 Z" id="Path"></path>
                            <path d="M22.48012,18.3110728 C22.48012,21.3925032 22.4989199,24.4771047 22.4738759,27.5585351 C22.4550759,30.0186127 20.4441928,32 18.0073242,32 C13.5219726,32 9.03665479,32 4.55444215,32 C2.3211832,32 0.47943859,30.4466006 0.081647703,28.2242826 C0.0503254078,28.049944 0.0440610163,27.8692288 0.0190032815,27.6916846 C-0.0060544534,27.5046618 0.0377966248,27.4285567 0.253919482,27.4285567 C2.03301781,27.4380698 3.81213201,27.4348988 5.59434465,27.4317277 C9.64429402,27.4317277 13.6911382,27.4317277 17.7410876,27.4380698 C17.9728633,27.4380698 18.0136021,27.3746833 18.0136021,27.1590866 C18.0073242,21.0628178 18.0073242,14.9665144 18.0073242,8.87021112 C18.0073242,8.62293839 18.1263341,8.49613098 18.3643878,8.49613098 L22.0885955,8.49613098 C22.3516932,8.49613098 22.483259,8.63245153 22.483259,8.90826368 L22.483259,18.3079018 L22.48012,18.3110728 Z" id="Path"></path>
                            <path d="M38.9398087,18.5330116 C38.3133696,19.3477639 37.4958935,19.6457734 36.5562348,19.617234 C35.0934183,19.5728393 33.9502344,18.7676346 33.5146972,17.3029901 C33.2672605,16.4692115 33.2515995,15.6196122 33.4395312,14.776355 C33.5898969,14.1010944 33.8999437,13.5050754 34.391712,13.0073589 C35.5068817,11.8787764 37.7871742,11.7075743 38.9458841,13.276829 C38.9458841,13.013701 38.952297,12.7886256 38.9458841,12.5635502 C38.9364335,12.3638087 39.024189,12.2909091 39.2186012,12.2940801 C39.6475905,12.3004222 40.079955,12.3067643 40.511982,12.2909091 C40.7657979,12.281396 40.8285768,12.3891771 40.8285768,12.6237656 C40.8221639,14.7921758 40.8285768,16.9606204 40.8221639,19.1290306 C40.8221639,19.5379922 40.7688356,19.9437829 40.6561035,20.3400259 C40.3742734,21.316467 39.7697731,22.0138906 38.8145884,22.3214132 C37.3234202,22.8001034 35.8450778,22.7842482 34.4386274,21.9885567 C34.2695293,21.8934252 34.1254078,21.7602757 33.9627227,21.6524946 C33.8341271,21.5669108 33.8341271,21.4591297 33.8999437,21.3450065 C34.1348584,20.9328738 34.3728108,20.5207411 34.6141384,20.1117794 C34.7268704,19.9215855 34.8426402,20.0420508 34.9428839,20.1276346 C35.3219201,20.4573546 35.7542846,20.6729168 36.2430152,20.7743559 C36.7567223,20.878966 37.2670542,20.8662818 37.768273,20.7204481 C38.4824677,20.5112279 38.8928933,19.9944851 38.9458841,19.2336407 C38.9617476,19.0149074 38.9458841,18.7961396 38.9458841,18.5330116 L38.9398087,18.5330116 Z M38.9617476,15.9176217 C38.9617476,14.7604998 38.2316895,13.9869711 37.1323833,13.9869711 C36.0236265,13.9869711 35.2436152,14.7795261 35.2469795,15.9081086 C35.2469795,17.0493753 36.0141759,17.8482723 37.1104444,17.8577854 C38.2161635,17.8672986 38.9583724,17.0842568 38.9583724,15.9144507 L38.9617476,15.9176217 Z" id="Shape"></path>
                            <path d="M73.4034127,13.3371133 L73.4034127,9.93233951 C73.4034127,9.37437312 73.3251078,9.3870573 73.9609976,9.3933994 C74.2991937,9.39657044 74.6377274,9.42193882 74.9728858,9.40925463 C75.2233265,9.39974149 75.2861054,9.49483843 75.2861054,9.73576907 C75.2796925,12.484343 75.2827302,15.2360534 75.2827302,17.9846273 C75.2827302,18.4126153 75.2732796,18.8374321 75.2861054,19.2653856 C75.2921808,19.4651271 75.2169136,19.5443688 75.0228389,19.5411978 C74.5685355,19.5348557 74.111532,19.5380267 73.6541909,19.5411978 C73.4786799,19.5411978 73.3878867,19.4841534 73.400375,19.2875829 C73.4128633,19.0593365 73.400375,18.827919 73.400375,18.593296 C73.3031689,18.5774752 73.2970936,18.6694011 73.2592912,18.7137958 C72.0378024,20.1752348 69.6353272,20.0452564 68.5046315,18.4506678 C67.5619351,17.1223438 67.5430339,14.8207841 68.4421901,13.4639207 C69.5695106,11.7646876 72.1380461,11.6093753 73.400375,13.3307712 L73.4034127,13.3371133 Z M73.4597787,15.9557087 C73.4692293,14.811271 72.7081193,13.9996898 71.6182636,13.9870056 C70.5186199,13.9743214 69.720045,14.7890737 69.7136232,15.9271693 C69.7105944,17.0399311 70.487568,17.8578199 71.5649353,17.8736751 C72.6517532,17.8895304 73.4503281,17.0779492 73.4597787,15.9525377 L73.4597787,15.9557087 Z" id="Shape"></path>
                            <path d="M80.2348397,12.119815 C82.095256,12.1103662 83.5266829,13.156536 83.9779486,14.8367428 C84.4572286,16.6152176 83.7491093,18.4190607 82.2238515,19.2464972 C80.5544722,20.1531754 78.1644853,19.7790607 77.0901556,18.1178802 C76.2693043,16.8466351 76.2099006,15.483464 76.855241,14.1329427 C77.4752672,12.8363292 78.5904369,12.2403447 79.984399,12.1389056 C80.0782299,12.1325636 80.1690231,12.1262215 80.231802,12.1230504 L80.2348397,12.119815 Z M80.2567785,17.8357983 C81.3655353,17.8420681 82.1705232,17.0590607 82.1769717,15.9716674 C82.1830114,14.8177165 81.4124508,14.0029642 80.3131446,13.9902801 C79.2074255,13.9775959 78.4088506,14.786006 78.3929871,15.9209306 C78.3804988,17.0305213 79.1574723,17.8325894 80.2567785,17.8357983 Z" id="Shape"></path>
                            <path d="M85.1650103,15.9145541 C85.1585974,13.6922361 86.7371836,12.1261525 88.9860866,12.1198259 C91.2069754,12.1135028 92.8169511,13.6954072 92.8200081,15.8828436 C92.8264017,18.1178458 91.2383649,19.7156398 89.0049878,19.7220009 C86.7655353,19.728324 85.168048,18.1463852 85.1616351,15.911383 L85.1650103,15.9145541 Z M88.9611101,17.835701 C90.0793175,17.8388626 90.8812676,17.0431366 90.8873803,15.9208962 C90.8937559,14.814511 90.0732421,13.9870745 88.967523,13.9902365 C87.8898181,13.9902365 87.0912432,14.8018268 87.0881946,15.8986988 C87.0848303,17.0209737 87.8678792,17.8325205 88.9580724,17.835701 L88.9611101,17.835701 Z" id="Shape"></path>
                            <path d="M50.1407838,18.5899871 C49.3543596,19.7629642 47.791637,19.9690478 46.7297956,19.4364498 C45.896456,19.017975 45.5238327,18.2951831 45.5393587,17.3758208 C45.5552222,16.4406032 46.1033565,15.7178113 46.9991374,15.365894 C47.440615,15.1915554 47.904369,15.1757001 48.3617101,15.1249634 C48.8062254,15.0773977 49.2510782,15.0488927 49.695931,15.0076691 C49.8650291,14.9918139 50.0591037,14.9918139 50.1188449,14.7984489 C50.1782486,14.5987075 50.1468592,14.3926583 49.9997,14.2214563 C49.871442,14.0756226 49.7053816,13.9932098 49.5237952,13.9488152 C49.0036752,13.8283498 48.4869304,13.8473761 47.9792987,14.0217492 C47.6694543,14.1295304 47.4031502,14.303869 47.2310144,14.5987075 C47.1493343,14.7381991 47.0555035,14.7635674 46.9238702,14.6652994 C46.5792612,14.4053425 46.2316145,14.1517277 45.8809301,13.8981129 C45.7523345,13.8061525 45.7712357,13.7142266 45.8370523,13.5905903 C46.1563473,12.9946058 46.6545284,12.6205256 47.271517,12.411271 C48.2456029,12.0815855 49.2416276,12.043533 50.2376524,12.3066609 C51.311982,12.5919862 51.9887118,13.476467 52.0136884,14.6969754 C52.0450778,16.2408617 52.0231389,17.787919 52.0261766,19.3318397 C52.0261766,19.5156915 51.9448341,19.5695993 51.7787737,19.5695993 C51.3153572,19.5664283 50.8485655,19.5632572 50.3851491,19.5695993 C50.1971498,19.5695993 50.1282955,19.4934942 50.1374086,19.3096424 C50.1468592,19.0908746 50.1374086,18.8689703 50.1374086,18.5899871 L50.1407838,18.5899871 Z M50.1407838,16.5800948 C50.2126758,16.3486773 50.0780049,16.3201379 49.8586162,16.3518483 C49.4859929,16.4088927 49.1069567,16.4469453 48.7343334,16.5008186 C48.4430527,16.5420422 48.1453591,16.5515554 47.8824302,16.7069022 C47.6191637,16.862249 47.4875305,17.0936665 47.5094693,17.4043257 C47.5314082,17.7086773 47.7038815,17.9020767 47.9732233,18.0161999 C48.1234202,18.0795864 48.2834052,18.0890995 48.4430527,18.1049548 C49.3543596,18.1841965 50.1282955,17.5057992 50.1407838,16.5769237 L50.1407838,16.5800948 Z" id="Shape"></path>
                            <path d="M63.7374836,12.1228436 C64.8462404,12.1291857 65.7356085,12.3415769 66.4906432,12.9882981 C66.6533283,13.1277897 66.6816801,13.2355709 66.5405963,13.409944 C66.2901556,13.7206032 66.0522033,14.04081 65.8172886,14.3641534 C65.7045565,14.5195002 65.6073505,14.5448686 65.4443278,14.4180612 C64.8303769,13.9361999 64.1165198,13.8252477 63.3645228,13.8949763 C63.2582036,13.9044894 63.151547,13.9520551 63.0546784,13.9995864 C62.9011063,14.0756915 62.8039002,14.1961568 62.8103131,14.3831797 C62.8163885,14.5638949 62.9260829,14.6621629 63.0732421,14.7224128 C63.5589349,14.9252908 64.0756797,14.9950539 64.5829739,15.1155192 C65.0089256,15.2169582 65.4288018,15.3405946 65.8108757,15.568841 C66.5689481,16.0221973 66.8258016,16.7386471 66.744459,17.5724257 C66.6313895,18.7168634 66.0771798,19.31919 64.9525595,19.5791469 C63.8063379,19.8422749 62.6786799,19.7757174 61.5824114,19.3223611 C61.2347647,19.1796984 60.9340334,18.9673072 60.6646915,18.7041792 C60.5489218,18.586885 60.5330583,18.4917536 60.6427527,18.3554675 C60.9151322,18.0098923 61.1783986,17.6548384 61.4352522,17.2966135 C61.5574348,17.1285825 61.6543034,17.1380956 61.8018001,17.2712452 C62.5001313,17.9052822 63.3395462,18.0764843 64.2478155,17.9781818 C64.3544722,17.9655321 64.4607913,17.9211374 64.5579974,17.8735717 C64.7270954,17.7879879 64.8273392,17.6421542 64.8212638,17.4424472 C64.8148509,17.2458768 64.695706,17.1380956 64.5299831,17.062025 C64.2353272,16.9288755 63.9190699,16.8749677 63.6088881,16.8020681 C63.1015938,16.6847393 62.5878867,16.5864713 62.1116445,16.3582249 C61.2627789,15.9492632 60.8368273,15.2835157 60.8746297,14.3229642 C60.9120945,13.3718914 61.4102756,12.7568807 62.255766,12.4018268 C62.7789237,12.183059 63.3300956,12.1323567 63.7405213,12.1260146 L63.7374836,12.1228436 Z" id="Path"></path>
                            <path d="M56.5111569,12.1353899 C57.6013501,12.1290478 58.4971311,12.3477811 59.2582411,13.0008445 C59.4212638,13.1403361 59.4492781,13.2481172 59.3051566,13.4193193 C59.0513407,13.7268074 58.8133883,14.0470142 58.5784737,14.3703576 C58.4687793,14.5193623 58.3719107,14.5447307 58.2247515,14.4274364 C57.6202513,13.9455752 56.9185449,13.831452 56.1729608,13.8853253 C56.0916182,13.8916674 56.0038627,13.9106937 55.9285955,13.9424041 C55.7405963,14.0184748 55.5779111,14.1262559 55.5748734,14.3608789 C55.5748734,14.5859543 55.7345209,14.6842223 55.9161073,14.7508143 C56.4453403,14.9473503 57.0063004,15.0170788 57.5510594,15.1597415 C57.7859741,15.2231624 58.0178511,15.2992331 58.2433152,15.3943645 C59.2737671,15.8318311 59.6214138,16.6814649 59.4995687,17.7307712 C59.3834615,18.7135545 58.7914495,19.2905127 57.8767673,19.5314433 C56.6711419,19.8484791 55.4746297,19.7914003 54.3125445,19.3031969 C53.9898744,19.1700474 53.7080443,18.9735114 53.4511907,18.7294097 C53.3101069,18.5962602 53.2851303,18.4757949 53.4167635,18.314106 C53.6861054,17.9780439 53.9459966,17.6293322 54.2028502,17.2806204 C54.3155822,17.1316157 54.4094131,17.1252736 54.5504969,17.255252 C55.2616539,17.9114864 56.1135571,18.0826885 57.0407275,17.9685653 C57.1564973,17.95271 57.2692293,17.9083154 57.3694731,17.8417579 C57.6766173,17.6356743 57.6637915,17.252081 57.3320083,17.08405 C56.9499344,16.8938561 56.5300581,16.8336062 56.1196325,16.7448514 C55.6248266,16.6370702 55.136096,16.5166049 54.6882055,16.259819 C53.9304707,15.825489 53.591937,15.1660836 53.6358147,14.2911159 C53.6736171,13.4890478 54.0432027,12.9025765 54.7415338,12.5284963 C55.3305016,12.2114606 55.9663979,12.1227057 56.5081193,12.1290478 L56.5111569,12.1353899 Z" id="Path"></path>
                            <path d="M95.8016501,13.44486 C96.4095256,12.3416458 97.543259,11.9865575 98.6425652,12.186299 C98.8869304,12.2306592 99.0060754,12.3606377 98.9996625,12.6237656 C98.9905494,13.083464 98.9996625,13.546299 98.9966248,14.0059974 C98.9966248,14.2881172 98.952747,14.3198277 98.6864429,14.2596122 C98.2075005,14.1517966 97.7312582,14.1613098 97.2614288,14.3008014 C96.3626102,14.5702714 95.8833302,15.2709005 95.8738796,16.3424386 C95.8674667,17.3061611 95.864429,18.2699181 95.8769173,19.2368117 C95.8769173,19.4745713 95.8050253,19.5538475 95.5731483,19.5475054 C95.144159,19.5348212 94.7117945,19.5379922 94.2828052,19.5475054 C94.0759047,19.5506764 93.9820739,19.4935976 93.9820739,19.259009 C93.9881493,17.030349 93.9881493,14.80486 93.9820739,12.5762344 C93.9820739,12.3638087 94.0570036,12.2909091 94.263904,12.2940801 C94.6868179,12.3035933 95.1063566,12.3035933 95.5292706,12.2940801 C95.7203075,12.2940801 95.808063,12.3606377 95.8016501,12.5635502 C95.792537,12.8361913 95.8016501,13.1056614 95.8016501,13.448031 L95.8016501,13.44486 Z" id="Path"></path>
                            <path d="M44.2645415,14.4721413 L44.2645415,19.2084446 C44.2645415,19.5349591 44.239565,19.560422 43.9233077,19.560422 C43.5003938,19.560422 43.0774798,19.5539854 42.6579411,19.560422 C42.4446278,19.5634985 42.3538346,19.4873934 42.3538346,19.262318 C42.3572098,16.0699354 42.3572098,12.8775528 42.3538346,9.68513572 C42.3538346,9.47274451 42.4321395,9.39984489 42.6390399,9.40618699 C43.0869304,9.41570013 43.5348209,9.41570013 43.9796737,9.40618699 C44.1987249,9.39984489 44.2709544,9.48225765 44.2709544,9.704162 C44.2645415,11.2924429 44.2675792,12.8807238 44.2675792,14.4657992 L44.2645415,14.4721413 Z" id="Path"></path>
                        </g>
                    </g>
                    <path d="M12.6770751,39.6051786 L3.9621241,39.6051786 C1.39812716,39.6051786 -0.680400409,41.6835725 -0.680400409,44.2477173 L-0.680400409,52.96264 C-0.680400409,55.5267848 1.39812716,57.6051786 3.9621241,57.6051786 L12.6770751,57.6051786 C15.2410652,57.6051786 17.3195996,55.5267848 17.3195996,52.96264 L17.3195996,44.2477173 C17.3195996,41.6835725 15.2410652,39.6051786 12.6770751,39.6051786 Z" id="Path" fill="#3CA93C" fill-rule="nonzero"></path>
                    <path d="M6.81502009,46.4943826 C7.45003431,44.8566635 8.05758252,43.1953334 8.80585972,41.6051786 C9.58160293,43.1850677 10.1513854,44.8669292 10.8172989,46.4978045 C12.64681,46.7014072 14.4900541,46.6979853 16.3195996,46.8947443 C14.9397414,48.0540824 13.5392838,49.1867297 12.1319596,50.3125333 C12.4717485,52.0960251 13.1067627,53.8182649 13.4259864,55.6051786 C11.9053993,54.6186462 10.3504796,53.6827579 8.82302598,52.706149 C7.27497281,53.6625687 5.73721941,54.6357557 4.19259949,55.598677 C4.549589,53.8216868 5.11593819,52.0960251 5.51409238,50.3258787 C4.1067682,49.1969954 2.69259812,48.06777 1.31959959,46.8947443 C3.14568434,46.6945634 4.98894221,46.7014072 6.81845334,46.4943826 L6.81502009,46.4943826 Z" id="Path" fill="#FEFEFE" fill-rule="nonzero"></path>
                    <path d="M94.6770487,39.6051786 L85.9621505,39.6051786 C83.397941,39.6051786 81.3195996,41.6835725 81.3195996,44.2477173 L81.3195996,52.96264 C81.3195996,55.5267848 83.397941,57.6051786 85.9621505,57.6051786 L94.6770487,57.6051786 C97.2412582,57.6051786 99.3195996,55.5267848 99.3195996,52.96264 L99.3195996,44.2477173 C99.3195996,41.6835725 97.2412582,39.6051786 94.6770487,39.6051786 Z" id="Path" fill="#3CA93C" fill-rule="nonzero"></path>
                    <g id="Clipped" stroke-width="1" fill="none" fill-rule="evenodd" transform="translate(81.319600, 39.605179)">
                        <mask id="mask-6" fill="white">
                            <use xlink:href="#path-5"></use>
                        </mask>
                        <g id="Path"></g>
                        <polygon id="Path" fill="#EEF2F3" fill-rule="nonzero" mask="url(#mask-6)" points="19.4541902 -1.37939482 14.3920103 -1.37939482 14.3920103 18.9150032 19.4541902 18.9150032"></polygon>
                    </g>
                    <path d="M88.8149074,46.4943826 C89.4500642,44.8566635 90.0577548,43.1953334 90.8058665,41.6051786 C91.5817877,43.1850677 92.1513689,44.8669292 92.8174252,46.4978045 C94.6470201,46.7014072 96.4900047,46.6979853 98.3195996,46.8947443 C96.9397644,48.0540824 95.5393295,49.1867297 94.1320281,50.3125333 C94.4719228,52.0960251 95.1067362,53.8182649 95.4260313,55.6051786 C93.9054316,54.6186462 92.3504991,53.6827579 90.8230329,52.706149 C89.274967,53.6625687 87.7372009,54.6357557 86.1925682,55.598677 C86.5496293,53.8216868 87.1157772,52.0960251 87.5140377,50.3258787 C86.1067362,49.1969954 84.6925682,48.06777 83.3195996,46.8947443 C85.1457612,46.6945634 86.9887458,46.7014072 88.8183407,46.4943826 L88.8149074,46.4943826 Z" id="Path" fill="#FEFEFE" fill-rule="nonzero"></path>
                    <path d="M74.6770487,39.6051786 L65.9621505,39.6051786 C63.3982824,39.6051786 61.3195996,41.6835725 61.3195996,44.2477173 L61.3195996,52.96264 C61.3195996,55.5267848 63.3982824,57.6051786 65.9621505,57.6051786 L74.6770487,57.6051786 C77.2412582,57.6051786 79.3195996,55.5267848 79.3195996,52.96264 L79.3195996,44.2477173 C79.3195996,41.6835725 77.2412582,39.6051786 74.6770487,39.6051786 Z" id="Path" fill="#3CA93C" fill-rule="nonzero"></path>
                    <path d="M67.8149074,46.4943826 C68.4500642,44.8566635 69.0577548,43.1953334 69.8058665,41.6051786 C70.5817877,43.1850677 71.1513689,44.8669292 71.8174252,46.4978045 C73.6470201,46.7014072 75.490348,46.6979853 77.3195996,46.8947443 C75.9397644,48.0540824 74.5393295,49.1867297 73.1320281,50.3125333 C73.4719228,52.0960251 74.1067362,53.8182649 74.4260313,55.6051786 C72.9054316,54.6186462 71.3504991,53.6827579 69.8230329,52.706149 C68.274967,53.6625687 66.7372009,54.6357557 65.1925682,55.598677 C65.5496293,53.8216868 66.1161205,52.0960251 66.5140377,50.3258787 C65.1067362,49.1969954 63.6925682,48.06777 62.3195996,46.8947443 C64.1457612,46.6945634 65.9890892,46.7014072 67.8183407,46.4943826 L67.8149074,46.4943826 Z" id="Path" fill="#FEFEFE" fill-rule="nonzero"></path>
                    <path d="M53.6771367,39.6051786 L44.9620625,39.6051786 C42.398243,39.6051786 40.3195996,41.6835725 40.3195996,44.2477173 L40.3195996,52.96264 C40.3195996,55.5267848 42.398243,57.6051786 44.9620625,57.6051786 L53.6771367,57.6051786 C56.2409562,57.6051786 58.3195996,55.5267848 58.3195996,52.96264 L58.3195996,44.2477173 C58.3195996,41.6835725 56.2409562,39.6051786 53.6771367,39.6051786 Z" id="Path" fill="#3CA93C" fill-rule="nonzero"></path>
                    <path d="M47.815125,46.4943826 C48.4499239,44.8566635 49.0576006,43.1953334 49.8060384,41.6051786 C50.5815986,43.1850677 51.1515101,44.8669292 51.8172078,46.4978045 C53.6467608,46.7014072 55.4900466,46.6979853 57.3195996,46.8947443 C55.939796,48.0540824 54.5393931,49.1867297 53.1317806,50.3125333 C53.4716675,52.0960251 54.1068098,53.8182649 54.4260975,55.6051786 C52.9055326,54.6186462 51.3506357,53.6827579 49.8232045,52.706149 C48.275174,53.6625687 46.7374431,54.6357557 45.1928458,55.598677 C45.5495554,53.8216868 46.1160336,52.0960251 46.514285,50.3258787 C45.1070158,49.1969954 43.6928801,48.06777 42.3195996,46.8947443 C44.1457194,46.6945634 45.9890052,46.7014072 47.8185582,46.4943826 L47.815125,46.4943826 Z" id="Path" fill="#FEFEFE" fill-rule="nonzero"></path>
                    <path d="M33.6770497,39.6051786 L24.9621153,39.6051786 C22.39813,39.6051786 20.3195996,41.6835725 20.3195996,44.2477173 L20.3195996,52.96264 C20.3195996,55.5267848 22.39813,57.6051786 24.9621153,57.6051786 L33.6770497,57.6051786 C36.2409326,57.6051786 38.3195996,55.5267848 38.3195996,52.96264 L38.3195996,44.2477173 C38.3195996,41.6835725 36.2409326,39.6051786 33.6770497,39.6051786 Z" id="Path" fill="#3CA93C" fill-rule="nonzero"></path>
                    <path d="M26.8150288,46.4943826 C27.4500424,44.8566635 28.0575901,43.1953334 28.8058666,41.6051786 C29.5816091,43.1850677 30.151391,44.8669292 30.8173039,46.4978045 C32.6468134,46.7014072 34.4900215,46.6979853 36.3195996,46.8947443 C34.939777,48.0540824 33.539355,49.1867297 32.1319291,50.3125333 C32.471752,52.0960251 33.1067657,53.8182649 33.4260578,55.6051786 C31.9054033,54.6186462 30.3504851,53.6827579 28.8230328,52.706149 C27.2749811,53.6625687 25.7372291,54.6357557 24.1926106,55.598677 C24.5495654,53.8216868 25.1159484,52.0960251 25.5141023,50.3258787 C24.1067794,49.1969954 22.69259,48.06777 21.3195996,46.8947443 C23.1456758,46.6945634 24.9889526,46.7014072 26.818462,46.4943826 L26.8150288,46.4943826 Z" id="Path" fill="#FEFEFE" fill-rule="nonzero"></path>
                </g>
            </g>
        </g>
    </g>
</svg>