<svg width="316" height="174" viewBox="0 0 316 174" fill="none" xmlns="http://www.w3.org/2000/svg">
<mask id="mask0_43_98" style="mask-type:luminance" maskUnits="userSpaceOnUse" x="0" y="0" width="294" height="93">
<path d="M293.315 0H0V92.84H293.315V0Z" fill="white"/>
</mask>
<g mask="url(#mask0_43_98)">
<path d="M0 39.7242C0 31.0233 0 22.3316 0 13.6308C0 7.8547 3.09954 3.15476 8.27781 1.00253C9.91111 0.331112 11.6279 0.00919754 13.3818 0C26.6709 0 39.9599 0 53.249 0C60.3946 0 66.3803 5.64729 66.6123 12.5087C66.6308 13.1617 66.4824 13.3272 65.8142 13.318C48.6925 13.2996 31.5801 13.2996 14.4583 13.2996C13.7438 13.2996 13.3818 13.64 13.3818 14.3298V67.0317C13.3818 68.2366 13.3818 68.2458 12.1754 68.2458H1.21569C0.408323 68.2458 0 67.8503 0 67.0685V39.715V39.7242Z" fill="#01AD33"/>
<path d="M66.6036 53.125C66.6036 62.065 66.6593 71.0142 66.5851 79.9542C66.5294 87.0915 60.5716 92.84 53.3517 92.84C40.0626 92.84 26.7736 92.84 13.4938 92.84C6.87715 92.84 1.42047 88.3332 0.241904 81.8857C0.149103 81.3799 0.130543 80.8556 0.0563025 80.3405C-0.017938 79.7979 0.111983 79.5771 0.752307 79.5771C6.02338 79.6047 11.2945 79.5955 16.5748 79.5863C28.5739 79.5863 40.5638 79.5863 52.5629 79.6047C53.2496 79.6047 53.3703 79.4208 53.3703 78.7953C53.3517 61.1085 53.3517 43.4216 53.3517 25.7347C53.3517 25.0173 53.7043 24.6494 54.4096 24.6494H65.4436C66.2231 24.6494 66.6129 25.0449 66.6129 25.8451V53.1158L66.6036 53.125Z" fill="#01AD33"/>
<path d="M115.37 53.7689C113.514 56.1327 111.092 56.9973 108.308 56.9145C103.974 56.7857 100.587 54.4496 99.2966 50.2003C98.5635 47.7813 98.5171 45.3164 99.0739 42.8699C99.5194 40.9108 100.438 39.1816 101.895 37.7376C105.199 34.4633 111.955 33.9666 115.388 38.5194C115.388 37.756 115.407 37.103 115.388 36.45C115.36 35.8705 115.62 35.659 116.196 35.6682C117.467 35.6866 118.748 35.705 120.028 35.659C120.78 35.6314 120.966 35.9441 120.966 36.6247C120.947 42.9158 120.966 49.207 120.947 55.4981C120.947 56.6846 120.789 57.8619 120.455 59.0115C119.62 61.8444 117.829 63.8678 114.999 64.76C110.581 66.1488 106.201 66.1028 102.034 63.7943C101.533 63.5183 101.106 63.132 100.624 62.8193C100.243 62.571 100.243 62.2583 100.438 61.9272C101.134 60.7315 101.839 59.5358 102.554 58.3493C102.888 57.7975 103.231 58.147 103.528 58.3953C104.651 59.3519 105.932 59.9773 107.38 60.2716C108.902 60.5751 110.414 60.5383 111.899 60.1152C114.015 59.5082 115.231 58.009 115.388 55.8016C115.435 55.167 115.388 54.5323 115.388 53.7689H115.37ZM115.435 46.181C115.435 42.8239 113.272 40.5797 110.015 40.5797C106.73 40.5797 104.419 42.8791 104.429 46.1534C104.429 49.4645 106.702 51.7823 109.95 51.8099C113.226 51.8375 115.425 49.5657 115.425 46.1718L115.435 46.181Z" fill="#01AD33"/>
<path d="M217.478 38.6943V28.8162C217.478 27.1974 217.246 27.2342 219.13 27.2526C220.132 27.2618 221.135 27.3354 222.128 27.2986C222.87 27.271 223.056 27.5469 223.056 28.2459C223.037 36.2202 223.046 44.2036 223.046 52.1779C223.046 53.4196 223.018 54.6521 223.056 55.8937C223.074 56.4732 222.851 56.7031 222.276 56.6939C220.93 56.6755 219.576 56.6847 218.221 56.6939C217.701 56.6939 217.432 56.5284 217.469 55.9581C217.506 55.2959 217.469 54.6245 217.469 53.9438C217.181 53.8979 217.163 54.1646 217.051 54.2934C213.432 58.5334 206.314 58.1563 202.964 53.53C200.171 49.6762 200.115 42.9988 202.779 39.0622C206.119 34.1323 213.729 33.6817 217.469 38.6759L217.478 38.6943ZM217.645 46.2915C217.673 42.9712 215.418 40.6166 212.189 40.5798C208.931 40.543 206.565 42.9068 206.546 46.2087C206.537 49.4371 208.839 51.81 212.031 51.856C215.251 51.902 217.617 49.5474 217.645 46.2823V46.2915Z" fill="#01AD33"/>
<path d="M237.718 35.1628C243.23 35.1352 247.471 38.1704 248.808 43.0451C250.228 48.2049 248.13 53.4383 243.611 55.8389C238.665 58.4694 231.584 57.384 228.401 52.5645C225.969 48.8763 225.793 44.9214 227.705 41.0032C229.542 37.2414 232.846 35.5123 236.976 35.218C237.254 35.1996 237.523 35.1812 237.709 35.172L237.718 35.1628ZM237.783 51.746C241.068 51.7643 243.453 49.4926 243.472 46.3378C243.49 42.9899 241.207 40.6261 237.95 40.5893C234.674 40.5525 232.308 42.8979 232.261 46.1906C232.224 49.4098 234.526 51.7368 237.783 51.746Z" fill="#01AD33"/>
<path d="M252.325 46.1721C252.306 39.7246 256.983 35.181 263.646 35.1627C270.226 35.1443 274.996 39.7338 275.005 46.0801C275.024 52.5644 270.319 57.2 263.702 57.2184C257.067 57.2368 252.334 52.6472 252.315 46.1629L252.325 46.1721ZM263.572 51.7458C266.885 51.755 269.261 49.4464 269.279 46.1905C269.298 42.9806 266.867 40.58 263.591 40.5892C260.398 40.5892 258.032 42.9438 258.023 46.1261C258.013 49.3821 260.333 51.7366 263.563 51.7458H263.572Z" fill="#01AD33"/>
<path d="M148.556 53.9342C146.226 57.3373 141.596 57.9352 138.45 56.39C135.981 55.1759 134.877 53.0789 134.923 50.4116C134.97 47.6983 136.594 45.6013 139.248 44.5803C140.556 44.0745 141.93 44.0285 143.285 43.8813C144.602 43.7433 145.92 43.6606 147.238 43.541C147.739 43.495 148.314 43.495 148.491 42.934C148.667 42.3545 148.574 41.7567 148.138 41.26C147.758 40.8369 147.266 40.5978 146.728 40.469C145.187 40.1195 143.656 40.1747 142.152 40.6806C141.234 40.9933 140.445 41.4991 139.935 42.3545C139.693 42.7592 139.415 42.8328 139.025 42.5477C138.004 41.7935 136.974 41.0577 135.935 40.3219C135.554 40.0551 135.61 39.7884 135.805 39.4297C136.751 37.7006 138.227 36.6153 140.055 36.0082C142.941 35.0517 145.892 34.9413 148.843 35.7047C152.026 36.5325 154.031 39.0986 154.105 42.6396C154.198 47.1188 154.133 51.6072 154.142 56.0865C154.142 56.6199 153.901 56.7763 153.409 56.7763C152.036 56.7671 150.653 56.7579 149.28 56.7763C148.723 56.7763 148.519 56.5555 148.546 56.0221C148.574 55.3874 148.546 54.7436 148.546 53.9342H148.556ZM148.556 48.103C148.769 47.4316 148.37 47.3488 147.72 47.4408C146.616 47.6063 145.493 47.7167 144.389 47.873C143.526 47.9926 142.644 48.0202 141.865 48.4709C141.085 48.9216 140.695 49.593 140.76 50.4943C140.825 51.3773 141.336 51.9384 142.134 52.2695C142.579 52.4534 143.053 52.481 143.526 52.527C146.226 52.7569 148.519 50.7887 148.556 48.0938V48.103Z" fill="#01AD33"/>
<path d="M188.84 35.1714C192.125 35.1898 194.76 35.806 196.997 37.6823C197.479 38.087 197.563 38.3997 197.145 38.9056C196.403 39.8069 195.698 40.7359 195.002 41.674C194.668 42.1247 194.38 42.1983 193.897 41.8304C192.078 40.4324 189.963 40.1105 187.735 40.3128C187.42 40.3404 187.104 40.4784 186.817 40.6163C186.362 40.8371 186.074 41.1866 186.093 41.7292C186.111 42.2535 186.436 42.5386 186.872 42.7134C188.311 43.302 189.842 43.5044 191.345 43.8539C192.607 44.1482 193.851 44.5069 194.983 45.1691C197.229 46.4844 197.99 48.563 197.749 50.982C197.414 54.3023 195.772 56.0498 192.44 56.804C189.044 57.5674 185.703 57.3743 182.455 56.059C181.425 55.6451 180.534 55.0289 179.736 54.2655C179.393 53.9252 179.346 53.6492 179.671 53.2538C180.478 52.2512 181.258 51.2211 182.019 50.1818C182.381 49.6943 182.668 49.7219 183.105 50.1082C185.174 51.9477 187.661 52.4444 190.352 52.1592C190.668 52.1225 190.983 51.9937 191.271 51.8557C191.772 51.6074 192.069 51.1843 192.051 50.6049C192.032 50.0346 191.679 49.7219 191.188 49.5012C190.315 49.1149 189.378 48.9585 188.459 48.747C186.956 48.4066 185.434 48.1215 184.023 47.4593C181.508 46.2728 180.246 44.3413 180.358 41.5545C180.469 38.7952 181.945 37.0109 184.45 35.9808C186 35.3461 187.633 35.199 188.849 35.1806L188.84 35.1714Z" fill="#01AD33"/>
<path d="M167.43 35.2078C170.66 35.1894 173.314 35.824 175.569 37.7187C176.052 38.1234 176.135 38.4361 175.708 38.9328C174.956 39.8249 174.251 40.7539 173.555 41.692C173.23 42.1243 172.943 42.1979 172.507 41.8576C170.716 40.4596 168.637 40.1285 166.428 40.2848C166.187 40.3032 165.927 40.3584 165.704 40.4504C165.147 40.6711 164.665 40.9838 164.656 41.6645C164.656 42.3175 165.129 42.6026 165.667 42.7958C167.235 43.366 168.897 43.5683 170.511 43.9822C171.207 44.1662 171.894 44.3869 172.562 44.6629C175.615 45.9321 176.645 48.3971 176.284 51.4414C175.94 54.2927 174.186 55.9666 171.476 56.6656C167.904 57.5854 164.359 57.4198 160.916 56.0034C159.96 55.6171 159.125 55.0469 158.364 54.3387C157.946 53.9524 157.872 53.6029 158.262 53.1338C159.06 52.1588 159.83 51.1471 160.591 50.1354C160.925 49.7031 161.203 49.6847 161.621 50.0618C163.728 51.9657 166.252 52.4624 168.999 52.1313C169.342 52.0853 169.676 51.9565 169.973 51.7634C170.883 51.1655 170.845 50.0526 169.862 49.5651C168.73 49.0133 167.486 48.8385 166.27 48.581C164.804 48.2683 163.356 47.9188 162.029 47.1738C159.784 45.9137 158.781 44.0006 158.911 41.4621C159.023 39.1351 160.118 37.4336 162.187 36.3483C163.932 35.4285 165.816 35.171 167.421 35.1894L167.43 35.2078Z" fill="#01AD33"/>
<path d="M283.839 39.0069C285.64 35.8062 288.999 34.776 292.256 35.3555C292.98 35.4842 293.333 35.8613 293.314 36.6247C293.287 37.9584 293.314 39.3012 293.305 40.6349C293.305 41.4534 293.175 41.5454 292.386 41.3707C290.967 41.0579 289.556 41.0855 288.164 41.4902C285.501 42.272 284.081 44.3047 284.053 47.4135C284.034 50.2095 284.025 53.0056 284.062 55.8108C284.062 56.5006 283.849 56.7306 283.162 56.7122C281.891 56.6754 280.61 56.6846 279.339 56.7122C278.726 56.7214 278.448 56.5558 278.448 55.8752C278.466 49.4093 278.466 42.9526 278.448 36.4868C278.448 35.8705 278.67 35.659 279.283 35.6682C280.536 35.6958 281.779 35.6958 283.032 35.6682C283.598 35.6682 283.858 35.8613 283.839 36.45C283.812 37.241 283.839 38.0228 283.839 39.0161V39.0069Z" fill="#01AD33"/>
<path d="M131.146 41.9873V55.7285C131.146 56.6758 131.072 56.7494 130.135 56.7494C128.882 56.7494 127.629 56.731 126.386 56.7494C125.754 56.7586 125.485 56.5378 125.485 55.8848C125.495 46.6229 125.495 37.361 125.485 28.099C125.485 27.4828 125.717 27.2713 126.33 27.2897C127.657 27.3173 128.984 27.3173 130.302 27.2897C130.951 27.2713 131.165 27.5104 131.165 28.1542C131.146 32.7622 131.155 37.3702 131.155 41.9689L131.146 41.9873Z" fill="#01AD33"/>
</g>
<path d="M39.1213 119.095H13.597C6.08758 119.095 0 125.128 0 132.571V157.868C0 165.311 6.08758 171.344 13.597 171.344H39.1213C46.6307 171.344 52.7183 165.311 52.7183 157.868V132.571C52.7183 125.128 46.6307 119.095 39.1213 119.095Z" fill="#3CA93C"/>
<path d="M20.5255 139.051C22.3751 134.265 24.1447 129.41 26.3242 124.763C28.5837 129.38 30.2433 134.295 32.1829 139.061C37.5117 139.656 42.8805 139.646 48.2094 140.221C44.1903 143.609 40.1112 146.919 36.0121 150.209C37.0018 155.421 38.8514 160.454 39.7812 165.676C35.3522 162.793 30.8232 160.058 26.3742 157.204C21.8652 159.999 17.3862 162.843 12.8872 165.657C13.927 160.464 15.5766 155.421 16.7363 150.248C12.6372 146.949 8.51816 143.649 4.51904 140.221C9.83786 139.636 15.2067 139.656 20.5355 139.051H20.5255Z" fill="#FEFEFE"/>
<path d="M280.088 119.095H254.564C247.054 119.095 240.967 125.128 240.967 132.571V157.868C240.967 165.311 247.054 171.344 254.564 171.344H280.088C287.598 171.344 293.685 165.311 293.685 157.868V132.571C293.685 125.128 287.598 119.095 280.088 119.095Z" fill="#3CA93C"/>
<mask id="mask1_43_98" style="mask-type:luminance" maskUnits="userSpaceOnUse" x="240" y="119" width="54" height="53">
<path d="M280.088 119.095H254.564C247.054 119.095 240.967 125.128 240.967 132.571V157.868C240.967 165.311 247.054 171.344 254.564 171.344H280.088C287.598 171.344 293.685 165.311 293.685 157.868V132.571C293.685 125.128 287.598 119.095 280.088 119.095Z" fill="white"/>
</mask>
<g mask="url(#mask1_43_98)">
<path d="M297.944 115.091H283.118V174H297.944V115.091Z" fill="#EEF2F3"/>
</g>
<path d="M261.492 139.051C263.342 134.265 265.112 129.41 267.291 124.763C269.551 129.38 271.21 134.295 273.15 139.061C278.479 139.656 283.847 139.646 289.176 140.221C285.157 143.609 281.078 146.919 276.979 150.209C277.969 155.421 279.818 160.454 280.748 165.676C276.319 162.793 271.79 160.058 267.341 157.204C262.832 159.999 258.353 162.843 253.854 165.657C254.894 160.464 256.543 155.421 257.703 150.248C253.604 146.949 249.485 143.649 245.486 140.221C250.805 139.636 256.173 139.656 261.502 139.051H261.492Z" fill="#FEFEFE"/>
<path d="M219.851 119.095H194.327C186.818 119.095 180.73 125.128 180.73 132.571V157.868C180.73 165.311 186.818 171.344 194.327 171.344H219.851C227.361 171.344 233.448 165.311 233.448 157.868V132.571C233.448 125.128 227.361 119.095 219.851 119.095Z" fill="#3CA93C"/>
<path d="M201.255 139.051C203.105 134.265 204.875 129.41 207.054 124.763C209.314 129.38 210.973 134.295 212.913 139.061C218.242 139.656 223.611 139.646 228.939 140.221C224.92 143.609 220.841 146.919 216.742 150.209C217.732 155.421 219.581 160.454 220.511 165.676C216.082 162.793 211.553 160.058 207.104 157.204C202.595 159.999 198.116 162.843 193.617 165.657C194.657 160.464 196.307 155.421 197.466 150.248C193.367 146.949 189.248 143.649 185.249 140.221C190.568 139.636 195.937 139.656 201.265 139.051H201.255Z" fill="#FEFEFE"/>
<path d="M159.605 119.095H134.08C126.571 119.095 120.483 125.128 120.483 132.571V157.868C120.483 165.311 126.571 171.344 134.08 171.344H159.605C167.114 171.344 173.202 165.311 173.202 157.868V132.571C173.202 125.128 167.114 119.095 159.605 119.095Z" fill="#3CA93C"/>
<path d="M141.009 139.051C142.858 134.265 144.628 129.41 146.808 124.763C149.067 129.38 150.727 134.295 152.666 139.061C157.995 139.656 163.364 139.646 168.693 140.221C164.674 143.609 160.595 146.919 156.495 150.209C157.485 155.421 159.335 160.454 160.265 165.676C155.836 162.793 151.307 160.058 146.858 157.204C142.349 159.999 137.87 162.843 133.371 165.657C134.41 160.464 136.06 155.421 137.22 150.248C133.121 146.949 129.002 143.649 125.002 140.221C130.321 139.636 135.69 139.656 141.019 139.051H141.009Z" fill="#FEFEFE"/>
<path d="M99.3679 119.095H73.8436C66.3342 119.095 60.2466 125.128 60.2466 132.571V157.868C60.2466 165.311 66.3342 171.344 73.8436 171.344H99.3679C106.877 171.344 112.965 165.311 112.965 157.868V132.571C112.965 125.128 106.877 119.095 99.3679 119.095Z" fill="#3CA93C"/>
<path d="M80.7721 139.051C82.6217 134.265 84.3913 129.41 86.5708 124.763C88.8303 129.38 90.4899 134.295 92.4295 139.061C97.7583 139.656 103.127 139.646 108.456 140.221C104.437 143.609 100.358 146.919 96.2586 150.209C97.2484 155.421 99.098 160.454 100.028 165.676C95.5988 162.793 91.0698 160.058 86.6208 157.204C82.1118 159.999 77.6328 162.843 73.1338 165.657C74.1735 160.464 75.8232 155.421 76.9829 150.248C72.8838 146.949 68.7647 143.649 64.7656 140.221C70.0844 139.636 75.4533 139.656 80.7821 139.051H80.7721Z" fill="#FEFEFE"/>
</svg>
