<svg width="120" height="45" viewBox="0 0 120 45" fill="none" xmlns="http://www.w3.org/2000/svg">
<mask id="mask0_153_261" style="mask-type:alpha" maskUnits="userSpaceOnUse" x="0" y="0" width="120" height="45">
<rect width="120" height="45" fill="#D9D9D9"/>
</mask>
<g mask="url(#mask0_153_261)">
</g>
<g clip-path="url(#clip0_153_261)">
<mask id="mask1_153_261" style="mask-type:luminance" maskUnits="userSpaceOnUse" x="14" y="0" width="91" height="30">
<path d="M105 0H14V30H105V0Z" fill="white"/>
</mask>
<g mask="url(#mask1_153_261)">
<path d="M14 11.994C14 9.36691 14 6.74262 14 4.11556C14 2.37158 14.9202 0.952521 16.4575 0.302696C16.9424 0.099973 17.4521 0.00277703 17.9728 0C21.9181 0 25.8634 0 29.8086 0C31.93 0 33.7071 1.7051 33.7759 3.77676C33.7814 3.97393 33.7374 4.02391 33.539 4.02114C28.4559 4.01558 23.3755 4.01558 18.2924 4.01558C18.0803 4.01558 17.9728 4.11833 17.9728 4.32661V20.239C17.9728 20.6028 17.9728 20.6055 17.6147 20.6055H14.3609C14.1212 20.6055 14 20.4861 14 20.2501V11.9912V11.994Z" fill="#01AD33"/>
<path d="M33.7734 16.0402C33.7734 18.7395 33.79 21.4415 33.7679 24.1408C33.7514 26.2957 31.9826 28.0314 29.8392 28.0314C25.8939 28.0314 21.9486 28.0314 18.0061 28.0314C16.0418 28.0314 14.4218 26.6706 14.0719 24.7239C14.0443 24.5712 14.0388 24.4129 14.0168 24.2574C13.9947 24.0936 14.0333 24.0269 14.2234 24.0269C15.7883 24.0352 17.3532 24.0325 18.9208 24.0297C22.4831 24.0297 26.0427 24.0297 29.605 24.0352C29.8089 24.0352 29.8447 23.9797 29.8447 23.7909C29.8392 18.4506 29.8392 13.1104 29.8392 7.77019C29.8392 7.55359 29.9439 7.4425 30.1533 7.4425H33.429C33.6605 7.4425 33.7762 7.56192 33.7762 7.80352V16.0374L33.7734 16.0402Z" fill="#01AD33"/>
<path d="M44.9493 17.5435C44.3238 18.3434 43.5075 18.6359 42.5693 18.6079C41.1087 18.5643 39.9671 17.7738 39.5324 16.336C39.2853 15.5175 39.2697 14.6834 39.4573 13.8556C39.6075 13.1927 39.9171 12.6076 40.4081 12.1189C41.5215 11.011 43.7984 10.8429 44.9556 12.3835C44.9556 12.1252 44.9618 11.9042 44.9556 11.6832C44.9462 11.4872 45.0338 11.4156 45.2277 11.4187C45.6561 11.4249 46.0877 11.4311 46.5193 11.4156C46.7727 11.4062 46.8352 11.5121 46.8352 11.7424C46.829 13.8711 46.8352 15.9999 46.829 18.1286C46.829 18.5301 46.7758 18.9285 46.6632 19.3175C46.3817 20.2761 45.7781 20.9607 44.8242 21.2626C43.3355 21.7326 41.8593 21.717 40.455 20.9358C40.2861 20.8425 40.1423 20.7118 39.9796 20.606C39.8514 20.5219 39.8514 20.4161 39.9171 20.3041C40.1517 19.8995 40.3894 19.4949 40.6302 19.0934C40.7428 18.9067 40.8585 19.0249 40.9586 19.109C41.337 19.4326 41.7686 19.6443 42.2565 19.7439C42.7694 19.8466 43.2792 19.8341 43.7796 19.691C44.4927 19.4856 44.9024 18.9783 44.9556 18.2313C44.9712 18.0166 44.9556 17.8018 44.9556 17.5435H44.9493ZM44.9712 14.976C44.9712 13.84 44.2425 13.0806 43.1447 13.0806C42.0376 13.0806 41.2588 13.8587 41.2619 14.9666C41.2619 16.087 42.0282 16.8713 43.1228 16.8806C44.2269 16.89 44.9681 16.1212 44.9681 14.9728L44.9712 14.976Z" fill="#01AD33"/>
<path d="M79.663 12.3804V8.98273C79.663 8.42594 79.5847 8.43859 80.2207 8.44492C80.559 8.44808 80.8973 8.47339 81.2325 8.46074C81.4832 8.45125 81.5458 8.54615 81.5458 8.78659C81.5395 11.5294 81.5427 14.2754 81.5427 17.0182C81.5427 17.4453 81.5333 17.8693 81.5458 18.2963C81.5521 18.4956 81.4769 18.5747 81.2827 18.5716C80.8284 18.5652 80.371 18.5684 79.9137 18.5716C79.7382 18.5716 79.6474 18.5146 79.6599 18.3185C79.6724 18.0907 79.6599 17.8598 79.6599 17.6257C79.5628 17.6098 79.5565 17.7016 79.5189 17.7459C78.2972 19.2043 75.8944 19.0746 74.7634 17.4833C73.8205 16.1578 73.8017 13.861 74.7008 12.507C75.8286 10.8113 78.3974 10.6563 79.6599 12.3741L79.663 12.3804ZM79.7194 14.9935C79.7288 13.8515 78.9676 13.0416 77.8774 13.029C76.7778 13.0163 75.9789 13.8293 75.9727 14.9651C75.9696 16.0755 76.7465 16.8917 77.8241 16.9075C78.9112 16.9233 79.71 16.1135 79.7194 14.9904V14.9935Z" fill="#01AD33"/>
<path d="M86.201 11.2578C88.0124 11.2484 89.406 12.2804 89.8452 13.938C90.3117 15.6925 89.6226 17.472 88.1374 18.2882C86.5121 19.1827 84.1853 18.8136 83.1393 17.1749C82.3404 15.9208 82.2824 14.576 82.9106 13.2437C83.5144 11.9646 84.6 11.3766 85.9571 11.2765C86.0485 11.2703 86.137 11.264 86.198 11.2609L86.201 11.2578ZM86.2224 16.8965C87.3019 16.9028 88.0856 16.1303 88.0917 15.0576C88.0978 13.9192 87.3476 13.1154 86.2773 13.1029C85.2008 13.0904 84.4232 13.8879 84.4079 15.0075C84.3957 16.1021 85.152 16.8934 86.2224 16.8965Z" fill="#01AD33"/>
<path d="M90.9308 15.004C90.9247 12.8101 92.4717 11.264 94.6757 11.2577C96.852 11.2514 98.4298 12.8132 98.4329 14.9727C98.439 17.1792 96.8827 18.7566 94.6941 18.7628C92.4994 18.7691 90.9339 17.2073 90.9277 15.0009L90.9308 15.004ZM94.6511 16.9006C95.747 16.9038 96.5328 16.1182 96.5389 15.0103C96.5451 13.918 95.7408 13.1011 94.6573 13.1043C93.6013 13.1043 92.8186 13.9055 92.8155 14.9884C92.8125 16.0963 93.5799 16.8975 94.6481 16.9006H94.6511Z" fill="#01AD33"/>
<path d="M56.1808 17.6495C55.3856 18.8108 53.8045 19.0148 52.7304 18.4875C51.8876 18.0732 51.5105 17.3577 51.5264 16.4475C51.5422 15.5217 52.0967 14.8061 53.0029 14.4578C53.4496 14.2851 53.9186 14.2695 54.3812 14.2192C54.8311 14.1722 55.281 14.1439 55.7309 14.1031C55.902 14.0874 56.0985 14.0874 56.1587 13.896C56.2189 13.6983 56.1872 13.4943 56.0383 13.3248C55.9084 13.1804 55.7404 13.0988 55.5567 13.0549C55.0307 12.9356 54.5079 12.9545 53.9946 13.1271C53.6809 13.2338 53.4116 13.4064 53.2373 13.6983C53.155 13.8364 53.0599 13.8615 52.9268 13.7642C52.5783 13.5068 52.2266 13.2557 51.8717 13.0047C51.7418 12.9137 51.7608 12.8226 51.8274 12.7002C52.1505 12.1102 52.6543 11.7399 53.2785 11.5327C54.2639 11.2063 55.2715 11.1687 56.2791 11.4292C57.3659 11.7116 58.0502 12.5873 58.0756 13.7956C58.1073 15.324 58.0851 16.8555 58.0883 18.3839C58.0883 18.566 58.0059 18.6193 57.838 18.6193C57.369 18.6162 56.8969 18.613 56.428 18.6193C56.2379 18.6193 56.1682 18.544 56.1777 18.362C56.1872 18.1454 56.1777 17.9257 56.1777 17.6495H56.1808ZM56.1808 15.6598C56.2537 15.4307 56.1175 15.4024 55.8957 15.4338C55.5186 15.4903 55.1352 15.528 54.7582 15.5813C54.4635 15.6221 54.1625 15.6315 53.8964 15.7853C53.6302 15.9391 53.4971 16.1682 53.5193 16.4758C53.5415 16.7771 53.7158 16.9685 53.9883 17.0815C54.1404 17.1443 54.3019 17.1537 54.4635 17.1694C55.3856 17.2478 56.1682 16.5762 56.1808 15.6566V15.6598Z" fill="#01AD33"/>
<path d="M69.8979 11.2577C71.0742 11.2639 72.0179 11.4734 72.8187 12.1112C72.9915 12.2488 73.0214 12.355 72.8718 12.527C72.606 12.8334 72.3535 13.1491 72.1043 13.468C71.9846 13.6212 71.8816 13.6462 71.7088 13.5212C71.0575 13.046 70.2999 12.9366 69.5024 13.0053C69.3895 13.0147 69.2765 13.0616 69.1735 13.1085C69.0106 13.1835 68.9076 13.3023 68.9143 13.4868C68.9209 13.665 69.0372 13.7619 69.1934 13.8213C69.7085 14.0214 70.2567 14.0902 70.795 14.209C71.247 14.309 71.6922 14.431 72.0976 14.6561C72.9018 15.1031 73.1742 15.8097 73.0878 16.6319C72.9682 17.7606 72.3801 18.3546 71.1871 18.6109C69.971 18.8704 68.7747 18.8048 67.6117 18.3577C67.2429 18.217 66.9239 18.0075 66.6381 17.748C66.5152 17.6324 66.4985 17.5386 66.6148 17.4041C66.9039 17.0634 67.1831 16.7132 67.4555 16.3599C67.5851 16.1942 67.6881 16.2036 67.8443 16.3349C68.5853 16.9602 69.4759 17.129 70.4395 17.0321C70.5525 17.0196 70.6654 16.9758 70.7685 16.9289C70.9479 16.8445 71.0542 16.7007 71.0476 16.5038C71.0409 16.3099 70.9147 16.2036 70.7386 16.1286C70.4262 15.9973 70.0906 15.9441 69.7616 15.8722C69.2233 15.7565 68.6784 15.6596 68.1733 15.4345C67.2728 15.0312 66.8209 14.3747 66.8607 13.4274C66.9006 12.4895 67.4289 11.883 68.3261 11.5328C68.8811 11.3171 69.4659 11.2671 69.9012 11.2608L69.8979 11.2577Z" fill="#01AD33"/>
<path d="M62.404 11.2643C63.56 11.258 64.51 11.474 65.3172 12.1189C65.4899 12.2567 65.5198 12.3631 65.367 12.5322C65.098 12.8358 64.8455 13.152 64.5964 13.4713C64.4801 13.6185 64.3772 13.6435 64.221 13.5277C63.5799 13.0518 62.8359 12.9391 62.0453 12.9924C61.9589 12.9986 61.8659 13.0174 61.7862 13.0487C61.5869 13.1238 61.4142 13.2303 61.4108 13.4619C61.4108 13.6842 61.5802 13.7813 61.7729 13.847C62.3343 14.0411 62.9289 14.11 63.5069 14.2509C63.756 14.3135 64.0018 14.3886 64.241 14.4825C65.3338 14.9145 65.7025 15.7535 65.573 16.7898C65.4501 17.7603 64.8223 18.33 63.8523 18.568C62.5734 18.881 61.3045 18.8247 60.0722 18.3426C59.73 18.2111 59.4311 18.017 59.1587 17.7759C59.0092 17.6444 58.9826 17.5255 59.1221 17.3658C59.4078 17.034 59.6835 16.6896 59.9559 16.3452C60.0755 16.1981 60.1751 16.1918 60.3246 16.3202C61.0787 16.9682 61.9822 17.1373 62.9654 17.0246C63.0883 17.0089 63.2079 16.9651 63.3142 16.8993C63.6397 16.6959 63.6264 16.3171 63.2743 16.1511C62.8691 15.9633 62.424 15.9038 61.9888 15.8162C61.464 15.7097 60.9458 15.5908 60.4708 15.3372C59.6669 14.9083 59.3082 14.2571 59.3547 13.3931C59.3945 12.601 59.7865 12.0219 60.5273 11.6525C61.1517 11.3394 61.8261 11.2517 62.4007 11.258L62.404 11.2643Z" fill="#01AD33"/>
<path d="M102.01 12.5852C102.578 11.4684 103.638 11.109 104.666 11.3112C104.894 11.3561 105.005 11.4877 105 11.754C104.991 12.2193 105 12.6878 104.997 13.1532C104.997 13.4388 104.956 13.4708 104.707 13.4099C104.259 13.3008 103.814 13.3104 103.375 13.4516C102.534 13.7244 102.086 14.4335 102.078 15.5182C102.072 16.4937 102.069 17.4693 102.08 18.448C102.08 18.6887 102.013 18.7689 101.796 18.7625C101.395 18.7497 100.991 18.7529 100.59 18.7625C100.397 18.7657 100.309 18.7079 100.309 18.4705C100.315 16.2145 100.315 13.9618 100.309 11.7059C100.309 11.4909 100.379 11.4171 100.573 11.4203C100.968 11.4299 101.36 11.4299 101.755 11.4203C101.934 11.4203 102.016 11.4877 102.01 11.6931C102.001 11.969 102.01 12.2418 102.01 12.5884V12.5852Z" fill="#01AD33"/>
<path d="M50.5816 13.592V18.4052C50.5816 18.7371 50.5571 18.7629 50.2474 18.7629C49.8335 18.7629 49.4196 18.7564 49.0088 18.7629C48.8003 18.7661 48.7114 18.6888 48.7114 18.46C48.7145 15.2158 48.7145 11.9715 48.7114 8.72725C48.7114 8.5114 48.7881 8.4373 48.9904 8.44374C49.4288 8.45341 49.8672 8.45341 50.3026 8.44374C50.5172 8.4373 50.5877 8.52106 50.5877 8.74658C50.5816 10.3607 50.5847 11.9747 50.5847 13.5856L50.5816 13.592Z" fill="#01AD33"/>
</g>
<path d="M22.6585 33H17.0094C15.3473 33 14 34.3581 14 36.0333V41.7275C14 43.4028 15.3473 44.7609 17.0094 44.7609H22.6585C24.3206 44.7609 25.6679 43.4028 25.6679 41.7275V36.0333C25.6679 34.3581 24.3206 33 22.6585 33Z" fill="#3CA93C"/>
<path d="M18.5426 37.492C18.952 36.4147 19.3437 35.3218 19.826 34.2758C20.3261 35.3151 20.6934 36.4214 21.1227 37.4942C22.3021 37.628 23.4904 37.6258 24.6698 37.7552C23.7802 38.518 22.8774 39.2629 21.9702 40.0034C22.1893 41.1766 22.5986 42.3096 22.8044 43.4851C21.8242 42.836 20.8218 42.2204 19.8371 41.5781C18.8391 42.207 17.8478 42.8472 16.8521 43.4806C17.0822 42.3119 17.4473 41.1766 17.704 40.0123C16.7968 39.2696 15.8851 38.5269 15 37.7552C16.1772 37.6236 17.3654 37.628 18.5448 37.492H18.5426Z" fill="#FEFEFE"/>
<path d="M75.9906 33H70.3414C68.6794 33 67.332 34.3581 67.332 36.0333V41.7275C67.332 43.4028 68.6794 44.7609 70.3414 44.7609H75.9906C77.6526 44.7609 78.9999 43.4028 78.9999 41.7275V36.0333C78.9999 34.3581 77.6526 33 75.9906 33Z" fill="#3CA93C"/>
<mask id="mask2_153_261" style="mask-type:luminance" maskUnits="userSpaceOnUse" x="67" y="33" width="12" height="12">
<path d="M75.9906 33H70.3414C68.6794 33 67.332 34.3581 67.332 36.0333V41.7275C67.332 43.4028 68.6794 44.7609 70.3414 44.7609H75.9906C77.6526 44.7609 78.9999 43.4028 78.9999 41.7275V36.0333C78.9999 34.3581 77.6526 33 75.9906 33Z" fill="white"/>
</mask>
<g mask="url(#mask2_153_261)">
<path d="M79.9432 32.099H76.6616V45.3587H79.9432V32.099Z" fill="#EEF2F3"/>
</g>
<path d="M71.8752 37.492C72.2845 36.4147 72.6762 35.3218 73.1586 34.2758C73.6586 35.3151 74.026 36.4214 74.4552 37.4942C75.6346 37.628 76.8229 37.6258 78.0023 37.7552C77.1128 38.518 76.21 39.2629 75.3027 40.0034C75.5218 41.1766 75.9311 42.3096 76.1369 43.4851C75.1567 42.836 74.1543 42.2204 73.1696 41.5781C72.1717 42.207 71.1803 42.8472 70.1846 43.4806C70.4147 42.3119 70.7798 41.1766 71.0365 40.0123C70.1293 39.2696 69.2176 38.5269 68.3325 37.7552C69.5097 37.6236 70.698 37.628 71.8774 37.492H71.8752Z" fill="#FEFEFE"/>
<path d="M62.6585 33H57.0094C55.3473 33 54 34.3581 54 36.0333V41.7275C54 43.4028 55.3473 44.7609 57.0094 44.7609H62.6585C64.3206 44.7609 65.6679 43.4028 65.6679 41.7275V36.0333C65.6679 34.3581 64.3206 33 62.6585 33Z" fill="#3CA93C"/>
<path d="M58.5426 37.492C58.952 36.4147 59.3437 35.3218 59.826 34.2758C60.3261 35.3151 60.6934 36.4214 61.1227 37.4942C62.3021 37.628 63.4904 37.6258 64.6698 37.7552C63.7802 38.518 62.8774 39.2629 61.9702 40.0034C62.1893 41.1766 62.5986 42.3096 62.8044 43.4851C61.8242 42.836 60.8218 42.2204 59.8371 41.5781C58.8391 42.207 57.8478 42.8472 56.8521 43.4806C57.0822 42.3119 57.4473 41.1766 57.704 40.0123C56.7968 39.2696 55.8851 38.5269 55 37.7552C56.1772 37.6236 57.3654 37.628 58.5448 37.492H58.5426Z" fill="#FEFEFE"/>
<path d="M49.3246 33H43.6754C42.0134 33 40.666 34.3581 40.666 36.0333V41.7275C40.666 43.4028 42.0134 44.7609 43.6754 44.7609H49.3246C50.9866 44.7609 52.3339 43.4028 52.3339 41.7275V36.0333C52.3339 34.3581 50.9866 33 49.3246 33Z" fill="#3CA93C"/>
<path d="M45.2086 37.492C45.618 36.4147 46.0097 35.3218 46.4921 34.2758C46.9921 35.3151 47.3595 36.4214 47.7887 37.4942C48.9681 37.628 50.1564 37.6258 51.3358 37.7552C50.4463 38.518 49.5435 39.2629 48.6362 40.0034C48.8553 41.1766 49.2646 42.3096 49.4704 43.4851C48.4902 42.836 47.4878 42.2204 46.5031 41.5781C45.5052 42.207 44.5138 42.8472 43.5181 43.4806C43.7482 42.3119 44.1133 41.1766 44.37 40.0123C43.4628 39.2696 42.5511 38.5269 41.666 37.7552C42.8432 37.6236 44.0315 37.628 45.2109 37.492H45.2086Z" fill="#FEFEFE"/>
<path d="M35.9925 33H30.3433C28.6813 33 27.334 34.3581 27.334 36.0333V41.7275C27.334 43.4028 28.6813 44.7609 30.3433 44.7609H35.9925C37.6545 44.7609 39.0019 43.4028 39.0019 41.7275V36.0333C39.0019 34.3581 37.6545 33 35.9925 33Z" fill="#3CA93C"/>
<path d="M31.8766 37.492C32.286 36.4147 32.6776 35.3218 33.16 34.2758C33.6601 35.3151 34.0274 36.4214 34.4567 37.4942C35.6361 37.628 36.8244 37.6258 38.0038 37.7552C37.1142 38.518 36.2114 39.2629 35.3042 40.0034C35.5233 41.1766 35.9326 42.3096 36.1384 43.4851C35.1581 42.836 34.1558 42.2204 33.1711 41.5781C32.1731 42.207 31.1818 42.8472 30.1861 43.4806C30.4162 42.3119 30.7813 41.1766 31.038 40.0123C30.1307 39.2696 29.2191 38.5269 28.334 37.7552C29.5112 37.6236 30.6994 37.628 31.8788 37.492H31.8766Z" fill="#FEFEFE"/>
<path d="M88.28 42.9V41.71L91.71 35.2H93.11L89.68 41.71H93.39V39.19H93.46H94.65V41.71H96.12V42.9H94.65V45H93.39V42.9H88.28ZM97.0575 44.972C96.8988 44.8133 96.8195 44.6127 96.8195 44.37C96.8195 44.1273 96.8988 43.9267 97.0575 43.768C97.2161 43.6093 97.4168 43.53 97.6595 43.53C97.9021 43.53 98.1028 43.6093 98.2615 43.768C98.4201 43.9267 98.4995 44.1273 98.4995 44.37C98.4995 44.6127 98.4201 44.8133 98.2615 44.972C98.1028 45.1307 97.9021 45.21 97.6595 45.21C97.4168 45.21 97.2161 45.1307 97.0575 44.972ZM99.2689 36.39V35.2H105.779V36.39L101.719 45H100.389L104.449 36.404V36.39H99.2689Z" fill="black"/>
</g>
<defs>
<clipPath id="clip0_153_261">
<rect width="92" height="45" fill="white" transform="translate(14)"/>
</clipPath>
</defs>
</svg>
