<svg width="75" height="25" viewBox="0 0 75 25" fill="none" xmlns="http://www.w3.org/2000/svg">
<mask id="mask0_2733_520" style="mask-type:luminance" maskUnits="userSpaceOnUse" x="0" y="0" width="75" height="25">
<path d="M74.8985 0H0V25H74.8985V0Z" fill="white"/>
</mask>
<g mask="url(#mask0_2733_520)">
<path d="M12.8513 11.5239C11.8623 11.5239 10.8732 11.5239 9.88665 11.5263C9.75871 11.5263 9.71197 11.4941 9.71443 11.3579C9.71935 10.5852 9.71935 9.81244 9.71443 9.03971C9.71443 8.90101 9.76117 8.87377 9.88911 8.87377C12.716 8.87624 15.5428 8.87624 18.3697 8.87377C18.4952 8.87377 18.537 8.90597 18.5567 9.03723C18.7092 10.0502 18.692 11.0607 18.5444 12.0687C18.3525 13.3789 17.9564 14.6198 17.1863 15.7021C15.8824 17.5373 14.1405 18.7237 11.9434 19.1744C10.1081 19.5509 8.27762 19.5088 6.51606 18.8302C3.06182 17.5027 0.8574 15.0259 0.16852 11.3232C-0.355521 8.51217 0.355502 5.94876 2.12199 3.71724C3.70887 1.71357 5.77797 0.490075 8.28746 0.118567C11.0208 -0.287615 13.5106 0.336519 15.6757 2.12966C15.8504 2.27579 16.0152 2.4343 16.185 2.58538C16.2588 2.64977 16.2612 2.69683 16.1899 2.76866C15.6314 3.33087 15.0729 3.89309 14.5194 4.46026C14.4283 4.55437 14.3816 4.49245 14.3201 4.43549C13.6952 3.8708 13.0038 3.40765 12.2165 3.11044C8.2604 1.61946 3.918 3.86337 3.02737 8.18029C2.50087 10.7288 3.16023 12.9802 4.9956 14.8228C6.07567 15.9076 7.40176 16.5268 8.9173 16.6903C10.3812 16.8488 11.7934 16.6556 13.1022 15.9225C14.6522 15.0532 15.6093 13.7529 15.8996 11.9647C15.9472 11.6675 15.8258 11.5189 15.5355 11.5189H12.8538L12.8513 11.5239Z" fill="#4285F3"/>
<path d="M58.1775 13.3467C58.1775 15.1845 58.1898 17.0247 58.1726 18.8624C58.1603 20.0364 57.9339 21.1707 57.3754 22.2134C56.6767 23.5236 55.5991 24.3557 54.1844 24.7396C52.9026 25.0889 51.6208 25.1062 50.3587 24.6579C48.7669 24.0907 47.6475 22.9911 46.9291 21.4555C46.8774 21.3441 46.8897 21.297 47.0078 21.2475C47.6942 20.9651 48.3806 20.6753 49.0621 20.3781C49.1901 20.3212 49.2368 20.3459 49.2983 20.4723C49.7879 21.4778 50.5211 22.2258 51.6307 22.4462C52.8214 22.6815 53.931 22.4809 54.7946 21.5199C55.2645 20.9973 55.4687 20.3484 55.5647 19.6599C55.6385 19.1447 55.604 18.6271 55.609 18.1119C55.609 18.0698 55.6286 18.0154 55.5745 17.9931C55.5155 17.9683 55.4835 18.0178 55.449 18.055C54.5929 18.9961 53.498 19.3875 52.2679 19.3924C50.8729 19.3974 49.6452 18.8921 48.5848 17.9856C47.3867 16.9627 46.6314 15.6575 46.4395 14.0823C46.127 11.5164 47.025 9.44591 49.1015 7.93511C50.1004 7.20943 51.2395 6.86516 52.477 6.91965C53.626 6.97166 54.6371 7.36298 55.4441 8.22488C55.4786 8.26203 55.5081 8.31404 55.5671 8.29671C55.6336 8.27442 55.6065 8.21002 55.6065 8.16544C55.6089 7.92272 55.6114 7.68 55.6065 7.43729C55.604 7.32831 55.6409 7.29364 55.7467 7.29364C56.5094 7.29611 57.2696 7.29859 58.0323 7.29364C58.1947 7.29364 58.1775 7.3828 58.1775 7.4893C58.1775 9.44343 58.1775 11.3976 58.1775 13.3517H58.1726L58.1775 13.3467ZM49.0917 12.9406C49.0917 14.1492 49.382 15.026 50.0167 15.7739C51.4437 17.4581 54.0344 17.2971 55.1833 15.4123C56.0272 14.0278 56.0395 12.5591 55.3088 11.1251C54.3591 9.26758 52.1227 8.797 50.4989 10.0874C49.5197 10.8651 49.1113 11.9301 49.0941 12.9406H49.0917Z" fill="#4285F3"/>
<path d="M39.237 6.91456C42.7404 6.91951 45.4098 9.62656 45.4049 13.1707C45.4 16.6778 42.6863 19.4071 39.2124 19.3997C35.7286 19.3923 33.0371 16.6555 33.0469 13.1286C33.0567 9.59932 35.736 6.9096 39.237 6.91456ZM35.7508 13.141C35.7508 13.411 35.768 13.6785 35.8196 13.9435C35.8688 14.2011 35.9402 14.4512 36.0361 14.6939C36.9883 17.1335 40.0317 17.718 41.7514 15.7713C42.6888 14.7088 42.8905 13.4333 42.5657 12.0785C41.9827 9.65629 39.269 8.58387 37.2884 9.99312C36.2231 10.751 35.7778 11.8482 35.7557 13.141H35.7508Z" fill="#FABC06"/>
<path d="M25.8936 19.3997C22.4197 19.4046 19.7134 16.6728 19.7109 13.1633C19.7109 9.61913 22.3779 6.91703 25.8863 6.91455C29.3922 6.91208 32.0739 9.61913 32.069 13.1559C32.064 16.6703 29.37 19.3972 25.8936 19.3997ZM22.4173 12.8612C22.4148 13.8246 22.5526 14.4363 22.838 15.0035C23.9205 17.1632 26.7105 17.6115 28.3293 15.858C29.4045 14.6939 29.6037 13.2971 29.1461 11.811C28.445 9.53244 25.778 8.63092 23.8983 10.0228C22.8675 10.7881 22.4345 11.8655 22.4173 12.8562V12.8612Z" fill="#E94336"/>
<path d="M63.5586 13.1263C63.5758 11.5635 63.9965 10.1369 65.0102 8.93817C66.1739 7.56359 67.6673 6.8924 69.4534 6.91716C71.5324 6.94441 73.0159 7.99454 74.0886 9.73319C74.4281 10.283 74.6446 10.8873 74.8858 11.4842C74.9399 11.6155 74.8538 11.618 74.7824 11.6477C73.3948 12.2297 72.0072 12.8142 70.6221 13.3963C69.3747 13.9213 68.1273 14.4464 66.8775 14.964C66.7151 15.0309 66.7053 15.0854 66.7865 15.234C67.5467 16.5962 68.7572 17.0816 70.1891 16.9033C71.2224 16.7745 71.9949 16.2073 72.5928 15.3727C72.6936 15.229 72.7551 15.2365 72.8855 15.3256C73.4785 15.7368 74.0739 16.1405 74.6742 16.5367C74.8021 16.6209 74.7923 16.6705 74.7111 16.7795C73.3653 18.5825 71.5914 19.5138 69.3526 19.3825C66.8726 19.2364 65.0938 17.9906 64.0605 15.6872C63.7259 14.9417 63.5488 13.9659 63.5611 13.1337L63.5586 13.1263ZM69.4338 9.32454C69.3526 9.33197 69.2074 9.32949 69.0647 9.35673C67.3991 9.66137 66.2625 11.0434 66.2378 12.782C66.2378 12.9306 66.2674 12.9554 66.4051 12.896C67.0694 12.6111 67.7386 12.3313 68.4054 12.0514C69.4657 11.6056 70.5261 11.1548 71.5914 10.7165C71.7489 10.6521 71.7366 10.5901 71.6677 10.4713C71.5545 10.2706 71.4167 10.0898 71.2396 9.94124C70.7352 9.51277 70.1448 9.33444 69.4313 9.32454H69.4338Z" fill="#E94336"/>
<path d="M62.419 9.84964C62.419 12.8316 62.419 15.8111 62.4239 18.7931C62.4239 18.9788 62.3747 19.0259 62.1951 19.0234C61.4717 19.0135 60.746 19.011 60.0226 19.0234C59.8357 19.0259 59.7815 18.9838 59.7815 18.7856C59.7889 13.2824 59.7865 7.77911 59.7865 2.27831C59.7865 1.82507 59.7963 1.37183 59.7815 0.918595C59.7766 0.740271 59.8357 0.710551 59.9931 0.713027C60.7164 0.720458 61.4422 0.717981 62.1655 0.717981C62.3353 0.717981 62.419 0.807143 62.419 0.985467V9.85212V9.84964Z" fill="#34A753"/>
</g>
</svg>
