<svg width="304" height="174" viewBox="0 0 304 174" fill="none" xmlns="http://www.w3.org/2000/svg">
<g clip-path="url(#clip0_42_55)">
<mask id="mask0_42_55" style="mask-type:luminance" maskUnits="userSpaceOnUse" x="0" y="0" width="304" height="102">
<path d="M304 0H0V101.471H304V0Z" fill="white"/>
</mask>
<g mask="url(#mask0_42_55)">
<path d="M52.1563 46.7748C48.142 46.7748 44.1277 46.7748 40.1233 46.7849C39.6041 46.7849 39.4143 46.6542 39.4243 46.1013C39.4443 42.9649 39.4443 39.8285 39.4243 36.6921C39.4243 36.1292 39.614 36.0186 40.1333 36.0186C51.6071 36.0286 63.0808 36.0286 74.5546 36.0186C75.0639 36.0186 75.2337 36.1493 75.3135 36.6821C75.9327 40.7936 75.8628 44.895 75.2636 48.9864C74.4847 54.3042 72.877 59.3406 69.7514 63.7335C64.4589 71.1825 57.3889 75.9977 48.4715 77.8272C41.022 79.3552 33.5926 79.1843 26.4427 76.4299C12.4225 71.0417 3.47516 60.9892 0.67911 45.9606C-1.44788 34.5509 1.43804 24.1465 8.6079 15.0891C15.0488 6.95659 23.4469 1.99062 33.6325 0.482737C44.7268 -1.16589 54.8325 1.36736 63.6201 8.64543C64.3291 9.23853 64.9981 9.88189 65.6872 10.4951C65.9867 10.7565 65.9967 10.9475 65.7071 11.239C63.4403 13.5209 61.1735 15.8029 58.9267 18.1049C58.5572 18.4869 58.3675 18.2356 58.1179 18.0044C55.5815 15.7124 52.7754 13.8326 49.5799 12.6262C33.5227 6.5746 15.8976 15.6822 12.2827 33.2039C10.1457 43.548 12.8219 52.6857 20.2714 60.1649C24.6552 64.5679 30.0376 67.081 36.1889 67.7445C42.1305 68.3879 47.8624 67.6038 53.1749 64.6282C59.466 61.0998 63.3505 55.8222 64.5288 48.5642C64.7219 47.3579 64.2292 46.7547 63.0509 46.7547H52.1663L52.1563 46.7748Z" fill="#4285F3"/>
<path d="M236.126 54.1736C236.126 61.6326 236.176 69.1016 236.106 76.5607C236.056 81.3256 235.138 85.9297 232.871 90.1618C230.035 95.4796 225.661 98.8573 219.919 100.415C214.716 101.833 209.514 101.903 204.391 100.084C197.93 97.7816 193.387 93.3183 190.471 87.0857C190.261 86.6333 190.311 86.4423 190.79 86.2413C193.576 85.0953 196.362 83.9191 199.129 82.7128C199.648 82.4816 199.838 82.5821 200.087 83.0948C202.074 87.1762 205.05 90.212 209.554 91.1067C214.387 92.0617 218.891 91.2475 222.396 87.3471C224.303 85.226 225.132 82.5922 225.521 79.7976C225.821 77.7066 225.681 75.6057 225.701 73.5147C225.701 73.3438 225.781 73.1227 225.561 73.0322C225.321 72.9317 225.192 73.1327 225.052 73.2835C221.577 77.1035 217.133 78.6918 212.14 78.7119C206.478 78.732 201.495 76.6813 197.191 73.002C192.328 68.8503 189.262 63.5526 188.484 57.1592C187.215 46.7447 190.86 38.3408 199.288 32.2087C203.343 29.2633 207.966 27.866 212.989 28.0871C217.652 28.2982 221.757 29.8866 225.032 33.3848C225.172 33.5356 225.292 33.7467 225.531 33.6764C225.801 33.5859 225.691 33.3245 225.691 33.1436C225.701 32.1584 225.711 31.1733 225.691 30.1881C225.681 29.7458 225.831 29.6051 226.26 29.6051C229.356 29.6151 232.441 29.6252 235.537 29.6051C236.196 29.6051 236.126 29.967 236.126 30.3992C236.126 38.3307 236.126 46.2622 236.126 54.1937H236.106L236.126 54.1736ZM199.248 52.5249C199.248 57.4306 200.427 60.9892 203.003 64.0251C208.795 70.8608 219.31 70.2074 223.973 62.5574C227.399 56.938 227.448 50.9768 224.483 45.1564C220.628 37.617 211.551 35.707 204.96 40.9444C200.986 44.1009 199.328 48.4235 199.258 52.5249H199.248Z" fill="#4285F3"/>
<path d="M159.255 28.0669C173.475 28.087 184.31 39.0745 184.29 53.4597C184.27 67.6942 173.255 78.7721 159.155 78.7419C145.015 78.7118 134.091 67.6037 134.13 53.2888C134.17 38.9639 145.045 28.0468 159.255 28.0669ZM145.105 53.3391C145.105 54.4348 145.175 55.5205 145.385 56.5961C145.584 57.6416 145.874 58.6569 146.263 59.6421C150.128 69.5438 162.48 71.9162 169.461 64.0149C173.265 59.7024 174.084 54.5253 172.766 49.0265C170.399 39.1951 159.385 34.8424 151.346 40.5623C147.022 43.6384 145.215 48.0917 145.125 53.3391H145.105Z" fill="#FABC06"/>
<path d="M105.101 78.7419C91.0013 78.762 80.0168 67.674 80.0068 53.4295C80.0068 39.0443 90.8315 28.077 105.071 28.0669C119.301 28.0568 130.186 39.0443 130.166 53.3994C130.146 67.664 119.211 78.7319 105.101 78.7419ZM90.9913 52.2031C90.9813 56.1136 91.5405 58.5966 92.6989 60.8986C97.0927 69.6645 108.417 71.484 114.987 64.3667C119.351 59.642 120.16 53.9724 118.303 47.9408C115.457 38.6925 104.632 35.0333 97.0028 40.6829C92.8187 43.7891 91.0612 48.162 90.9913 52.183V52.2031Z" fill="#E94336"/>
<path d="M257.965 53.2787C258.035 46.9355 259.743 41.1452 263.857 36.2798C268.58 30.7006 274.642 27.9764 281.892 28.0769C290.33 28.1875 296.351 32.4498 300.705 39.5067C302.083 41.7383 302.962 44.1912 303.94 46.6138C304.16 47.1466 303.811 47.1567 303.521 47.2773C297.889 49.6397 292.257 52.0121 286.635 54.3744C281.572 56.5056 276.509 58.6367 271.436 60.7377C270.777 61.0091 270.737 61.2303 271.067 61.8334C274.152 67.3624 279.065 69.3327 284.877 68.6089C289.071 68.0861 292.207 65.7841 294.633 62.3964C295.043 61.8133 295.293 61.8435 295.822 62.2054C298.228 63.8741 300.645 65.5127 303.082 67.1211C303.601 67.4629 303.561 67.6639 303.231 68.1063C297.769 75.4245 290.569 79.2043 281.482 78.6715C271.416 78.0784 264.197 73.022 260.002 63.6731C258.644 60.6472 257.925 56.6865 257.975 53.3089L257.965 53.2787ZM281.812 37.848C281.482 37.8782 280.893 37.8681 280.314 37.9787C273.553 39.2152 268.94 44.8245 268.84 51.8814C268.84 52.4846 268.96 52.5851 269.519 52.3438C272.215 51.1878 274.931 50.0518 277.638 48.9159C281.941 47.1064 286.245 45.2769 290.569 43.4976C291.208 43.2362 291.158 42.9849 290.879 42.5023C290.419 41.6881 289.86 40.9542 289.141 40.3511C287.094 38.612 284.698 37.8882 281.802 37.848H281.812Z" fill="#E94336"/>
<path d="M253.342 39.9795C253.342 52.0828 253.342 64.1761 253.362 76.2794C253.362 77.0333 253.162 77.2243 252.433 77.2143C249.497 77.174 246.551 77.164 243.616 77.2143C242.857 77.2243 242.637 77.0534 242.637 76.2492C242.667 53.9124 242.657 31.5756 242.657 9.2488C242.657 7.40918 242.697 5.56956 242.637 3.72994C242.617 3.00615 242.857 2.88552 243.496 2.89558C246.432 2.92573 249.377 2.91568 252.313 2.91568C253.002 2.91568 253.342 3.27757 253.342 4.00136V39.9896V39.9795Z" fill="#34A753"/>
</g>
<path d="M78.5888 173.799C79.6074 170.532 80.626 167.265 81.6545 163.998C82.703 160.671 83.7515 157.353 84.86 154.046C85.1496 153.191 85.0397 152.719 84.2708 152.166C79.0182 148.396 73.8056 144.566 68.593 140.746C68.3034 140.535 68.0238 140.304 67.7642 139.882C69.4118 139.882 71.0595 139.882 72.7172 139.882C77.9198 139.882 83.1324 139.852 88.3351 139.872C89.0041 139.872 89.2737 139.661 89.4834 139.027C91.5805 132.604 93.7075 126.19 95.8245 119.767C95.9143 119.475 96.0242 119.194 96.124 118.892C96.5135 118.962 96.4736 119.304 96.5435 119.525C98.7104 125.929 100.887 132.322 103.014 138.736C103.254 139.46 103.564 139.721 104.352 139.721C110.993 139.721 117.624 139.761 124.264 139.791C124.494 139.791 124.734 139.812 125.183 139.832C124.424 140.405 123.835 140.847 123.236 141.289C118.203 144.999 113.17 148.708 108.127 152.397C107.578 152.799 107.428 153.141 107.648 153.825C109.675 160.047 111.652 166.28 113.649 172.513C113.759 172.854 113.859 173.206 113.989 173.638C113.579 173.598 113.38 173.367 113.16 173.206C107.788 169.336 102.415 165.476 97.0627 161.585C96.5235 161.193 96.184 161.203 95.6547 161.585C90.2723 165.536 84.86 169.457 79.4576 173.387C79.218 173.568 78.9483 173.709 78.6887 173.86C78.6588 173.829 78.6288 173.799 78.5988 173.769L78.5888 173.799Z" fill="#F9BC15"/>
<path d="M8.96729 139.892C10.7048 139.892 12.3725 139.892 14.0301 139.892C19.1729 139.892 24.3156 139.852 29.4683 139.892C30.2771 139.892 30.5468 139.6 30.7764 138.887C32.8335 132.544 34.9306 126.22 37.0076 119.887C37.1175 119.546 37.2473 119.204 37.447 118.651C38.0062 120.289 38.5055 121.737 38.9948 123.185C40.7623 128.432 42.5498 133.669 44.2873 138.917C44.497 139.56 44.8066 139.741 45.4557 139.741C52.0563 139.741 58.667 139.791 65.2677 139.822C65.5572 139.822 65.8468 139.822 66.3861 139.822C65.9567 140.173 65.717 140.385 65.4674 140.576C60.095 144.536 54.7226 148.507 49.3302 152.448C48.761 152.86 48.6412 153.202 48.8609 153.875C50.908 160.188 52.9251 166.511 54.9522 172.824C55.0321 173.086 55.112 173.337 55.2119 173.638C54.8524 173.719 54.6826 173.468 54.4929 173.327C49.1005 169.447 43.6982 165.566 38.3258 161.656C37.7566 161.234 37.3971 161.254 36.8379 161.656C31.5054 165.576 26.143 169.457 20.7906 173.347C20.501 173.558 20.2613 173.85 19.752 173.9C20.1115 172.744 20.4411 171.648 20.7906 170.552C22.568 164.993 24.3355 159.424 26.153 153.875C26.3926 153.151 26.2928 152.759 25.6637 152.307C20.3512 148.467 15.0587 144.587 9.76616 140.716C9.50652 140.525 9.18697 140.395 8.96729 139.902V139.892Z" fill="#F9BC15"/>
<path d="M137.246 173.95C137.915 171.839 138.574 169.768 139.233 167.717C140.711 163.113 142.169 158.509 143.677 153.915C143.926 153.161 143.836 152.749 143.157 152.257C137.865 148.437 132.602 144.576 127.33 140.726C127.06 140.535 126.801 140.334 126.481 140.093C126.83 139.812 127.16 139.912 127.47 139.912C133.98 139.882 140.501 139.852 147.012 139.872C147.771 139.872 148.05 139.621 148.28 138.927C150.367 132.503 152.494 126.09 154.611 119.666C154.701 119.385 154.811 119.103 154.961 118.651C155.25 119.455 155.49 120.109 155.71 120.772C157.747 126.793 159.784 132.825 161.791 138.857C162.021 139.54 162.35 139.721 163.029 139.721C169.67 139.721 176.3 139.761 182.941 139.802C183.201 139.802 183.48 139.711 183.79 139.942C183.51 140.163 183.251 140.364 182.991 140.555C177.609 144.516 172.236 148.487 166.844 152.428C166.285 152.84 166.145 153.171 166.365 153.845C168.412 160.128 170.419 166.421 172.436 172.714C172.536 173.025 172.716 173.317 172.646 173.769C170.848 172.472 169.091 171.216 167.333 169.949C163.499 167.185 159.654 164.43 155.839 161.646C155.28 161.244 154.931 161.213 154.352 161.636C148.969 165.596 143.557 169.517 138.154 173.437C137.895 173.628 137.675 173.9 137.226 173.95H137.246Z" fill="#F9BC15"/>
<path d="M214.367 118.419C215.405 121.496 216.374 124.33 217.333 127.165C218.631 131.015 219.949 134.865 221.217 138.736C221.427 139.389 221.746 139.56 222.395 139.56C228.936 139.56 235.487 139.6 242.028 139.64C242.317 139.64 242.737 139.48 242.856 139.781C243.006 140.183 242.517 140.294 242.267 140.475C236.925 144.425 231.572 148.376 226.2 152.297C225.661 152.689 225.561 153.02 225.771 153.654C227.828 159.967 229.845 166.28 231.872 172.603C231.962 172.884 232.052 173.166 232.152 173.497C231.712 173.477 231.492 173.196 231.243 173.005C225.89 169.155 220.548 165.315 215.216 161.444C214.686 161.062 214.347 161.052 213.807 161.444C208.425 165.395 203.013 169.316 197.61 173.246C197.341 173.437 197.071 173.628 196.772 173.829C196.642 173.387 196.871 173.055 196.981 172.723C199.018 166.34 201.056 159.967 203.123 153.593C203.332 152.93 203.252 152.578 202.673 152.156C197.331 148.296 192.018 144.405 186.706 140.515C186.446 140.324 186.117 140.203 185.897 139.711C187.635 139.711 189.292 139.711 190.95 139.711C196.123 139.711 201.305 139.671 206.478 139.701C207.197 139.701 207.466 139.449 207.676 138.796C209.783 132.342 211.91 125.899 214.037 119.455C214.127 119.193 214.207 118.932 214.387 118.429L214.367 118.419Z" fill="#F9BC15"/>
<path d="M78.6691 173.889C78.6691 173.889 78.5791 174 78.5691 173.99C78.4791 173.919 78.5091 173.859 78.5791 173.799C78.6091 173.829 78.6391 173.859 78.6591 173.889H78.6691Z" fill="#F9BC15"/>
<path d="M299.666 139.258C293.455 139.228 287.244 139.188 281.032 139.178C280.383 139.178 280.074 138.997 279.854 138.354C277.727 131.97 275.57 125.597 273.403 119.224C273.293 118.912 273.273 118.53 272.944 118.249C272.844 118.54 272.764 118.771 272.684 119.002C270.547 125.476 268.41 131.95 266.293 138.444C266.084 139.108 265.784 139.329 265.075 139.329C259.902 139.309 254.72 139.329 249.547 139.339C247.889 139.339 246.242 139.339 244.584 139.339C244.834 139.781 245.113 140.002 245.403 140.213C250.675 144.064 255.938 147.924 261.23 151.744C261.83 152.176 261.969 152.528 261.73 153.242C259.653 159.615 257.616 165.988 255.588 172.372C255.489 172.693 255.239 173.005 255.409 173.437C255.708 173.226 255.978 173.045 256.247 172.844C261.63 168.934 267.012 165.033 272.375 161.093C272.934 160.68 273.283 160.65 273.863 161.072C279.195 164.953 284.547 168.793 289.89 172.643C290.14 172.824 290.359 173.075 290.779 173.126C290.659 172.754 290.569 172.462 290.479 172.181C288.462 165.888 286.455 159.595 284.408 153.312C284.198 152.658 284.278 152.307 284.857 151.884C289.79 148.296 300.455 140.585 300.455 140.585V139.299C300.185 139.289 299.906 139.258 299.636 139.258H299.666ZM285.097 148.627L282.321 141.098H295.602L285.087 148.627H285.097Z" fill="#F9BC15"/>
<path d="M298.658 139.258L299.417 141.369L302.293 139.258H298.658Z" fill="#F9BC15"/>
</g>
<defs>
<clipPath id="clip0_42_55">
<rect width="304" height="174" fill="white"/>
</clipPath>
</defs>
</svg>
