<?xml version="1.0" encoding="UTF-8"?>
<svg width="120px" height="60px" viewBox="0 0 120 60" version="1.1" xmlns="http://www.w3.org/2000/svg" xmlns:xlink="http://www.w3.org/1999/xlink">
    <title>Group 2</title>
    <defs>
        <rect id="path-1" x="0" y="0" width="120" height="60"></rect>
        <polygon id="path-3" points="102 0 0 0 0 34 102 34"></polygon>
    </defs>
    <g id="Page-1" stroke="none" stroke-width="1" fill="none" fill-rule="evenodd">
        <g id="Group-2">
            <mask id="mask-2" fill="white">
                <use xlink:href="#path-1"></use>
            </mask>
            <g id="Rectangle"></g>
            <g id="google" mask="url(#mask-2)">
                <g transform="translate(9.000000, 2.000000)">
                    <g id="Clipped" stroke-width="1" fill="none" fill-rule="evenodd">
                        <mask id="mask-4" fill="white">
                            <use xlink:href="#path-3"></use>
                        </mask>
                        <g id="Path"></g>
                        <g id="Group" mask="url(#mask-4)" fill-rule="nonzero">
                            <g transform="translate(-0.001638, -0.000164)">
                                <path d="M17.5014493,15.6730482 C16.154546,15.6730482 14.8076427,15.6730482 13.4640611,15.6764324 C13.2898558,15.6764324 13.2261729,15.6326386 13.2295282,15.4473778 C13.2362387,14.3964608 13.2362387,13.3455438 13.2295282,12.2946268 C13.2295282,12.1060153 13.2931775,12.0689564 13.4674164,12.0689564 C17.3171782,12.0723071 21.1669065,12.0723071 25.0166683,12.0689564 C25.1875519,12.0689564 25.2445243,12.1127502 25.2712993,12.2912761 C25.4790572,13.6689209 25.4556039,15.0431815 25.2545565,16.4140915 C24.993215,18.1959326 24.4537894,19.8834847 23.4050683,21.3554185 C21.6292953,23.8513632 19.2571243,25.4647976 16.2651019,26.0778102 C13.7655986,26.5897988 11.2728394,26.5325352 8.87385979,25.6096153 C4.16971373,23.8041852 1.16764571,20.4358829 0.229497351,15.4002333 C-0.484163767,11.5771725 0.484138338,8.09095874 2.88981505,5.05608573 C5.0509065,2.33111662 7.86869005,0.66716357 11.2862269,0.161915549 C15.0086565,-0.39049172 18.3993848,0.458327154 21.3478558,2.8969981 C21.585744,3.09572878 21.8102111,3.31130012 22.0414223,3.51676907 C22.1419124,3.60435666 22.1452677,3.66835524 22.0480993,3.76602847 C21.2875282,4.53062722 20.5269572,5.29525948 19.7730966,6.06659316 C19.6491197,6.19459032 19.5854703,6.11038695 19.5017229,6.03291852 C18.650694,5.26493554 17.7091736,4.63506888 16.6369993,4.2308391 C11.2493861,2.20312281 5.33570123,5.2548164 4.12280715,11.1258318 C3.40578742,14.5918408 4.30372294,17.65362 6.80322623,20.1596838 C8.2741065,21.6350019 10.0800433,22.4770691 12.1439664,22.6993887 C14.1375295,22.9149735 16.0607328,22.6522442 17.8432164,21.6552067 C19.954046,20.4729418 21.2573979,18.7045705 21.6527486,16.2726244 C21.7175387,15.8684282 21.5522249,15.6663133 21.1568743,15.6663133 L17.5048045,15.6663133 L17.5014493,15.6730482 Z" id="Path" fill="#4285F3"></path>
                                <path d="M79.2281249,18.1521723 C79.2281249,20.6514677 79.2449012,23.1541137 79.2214144,25.6534426 C79.2046381,27.2500229 78.8966249,28.7927238 78.1359868,30.2107782 C77.1844341,31.9926193 75.716842,33.124389 73.7902499,33.6463292 C72.0445065,34.1214601 70.2990986,34.144915 68.5801973,33.5354207 C66.4123618,32.763953 64.8880657,31.2684301 63.909671,29.180066 C63.8392104,29.0284798 63.8559868,28.9644812 64.0167039,28.8971319 C64.9514802,28.5131405 65.8862565,28.1190298 66.8146578,27.7148335 C66.988796,27.6373651 67.052546,27.6710398 67.136092,27.8428307 C67.8027828,29.2103899 68.8013091,30.2275988 70.3125197,30.5273869 C71.9341183,30.8473798 73.4453289,30.5745649 74.6213486,29.2676536 C75.2611973,28.5569342 75.5393486,27.674424 75.6698683,26.7380343 C75.7705262,26.0374006 75.7235525,25.3334497 75.7302631,24.632816 C75.7302631,24.5755524 75.7571052,24.5014682 75.6832894,24.4711442 C75.6027631,24.4374696 75.5594802,24.5048189 75.5125065,24.5553476 C74.3465525,25.8353192 72.8554736,26.3675126 71.1801907,26.3742476 C69.2804407,26.3809825 67.6085131,25.6938522 66.1644078,24.4610251 C64.5327433,23.0699104 63.5040197,21.2948042 63.2429802,19.1525606 C62.8171973,15.6629626 64.0401907,12.8470585 66.8680065,10.792369 C68.2285657,9.80545057 69.7797039,9.33725571 71.4650525,9.41133994 C73.0296118,9.48207345 74.4069473,10.0143004 75.505796,11.1864461 C75.5527697,11.2369748 75.5930328,11.3077084 75.6732236,11.2841529 C75.7638157,11.2538289 75.7269078,11.1662413 75.7269078,11.105627 C75.7302631,10.7755149 75.7336183,10.4454364 75.7269078,10.1153243 C75.7235525,9.96712238 75.7738815,9.91997787 75.9178223,9.91997787 C76.9566118,9.92332858 77.9917104,9.9267128 79.0304999,9.91997787 C79.2516118,9.91997787 79.2281249,10.0412401 79.2281249,10.1860578 C79.2281249,12.8436743 79.2281249,15.5012908 79.2281249,18.1589072 L79.2214144,18.1589072 L79.2281249,18.1521723 Z M66.8545854,17.5997406 C66.8545854,19.2434989 67.250171,20.4358829 68.1144868,21.4531253 C70.0578552,23.7435708 73.5859144,23.5246354 75.1504736,20.9613414 C76.2999868,19.0784429 76.3164275,17.081017 75.321592,15.1307691 C74.0281381,12.6045341 70.9825657,11.9645482 68.7711118,13.7194496 C67.4377302,14.7771016 66.8814275,16.2254799 66.8579407,17.5997406 L66.8545854,17.5997406 Z" id="Shape" fill="#4285F3"></path>
                                <path d="M53.4358815,9.40456221 C58.2070657,9.41130643 61.8424933,13.0929002 61.8357921,17.912965 C61.8290723,22.6825347 58.1332499,26.3944188 53.4023289,26.3843203 C48.6579868,26.3742141 44.9926973,22.6522107 45.0057479,17.8557014 C45.0192039,13.0558413 48.6680525,9.39783657 53.4358815,9.40456221 Z M48.6881841,17.8725555 C48.6881841,18.2396929 48.711671,18.6034796 48.7821315,18.963882 C48.8489012,19.3141989 48.9462039,19.6543966 49.0767236,19.9845086 C50.3735328,23.3022822 54.5179539,24.0972049 56.8602631,21.4497075 C58.1366052,20.0047134 58.4114012,18.2700168 57.9691775,16.4275278 C57.1749868,13.1333098 53.4794999,11.6748458 50.7822039,13.591419 C49.3313881,14.6221312 48.725092,16.1143033 48.6948947,17.8725555 L48.6881841,17.8725555 Z" id="Shape" fill="#FABC06"></path>
                                <path d="M35.2657894,26.3843088 C30.534969,26.3910346 26.8493802,22.6757662 26.8460249,17.9028459 C26.8460249,13.082781 30.4779966,9.40795572 35.2557236,9.40456917 C40.0302631,9.40118728 43.682467,13.082781 43.6757657,17.8927602 C43.669046,22.6724155 40.0000657,26.380949 35.2657894,26.3843088 Z M30.5315695,17.4919147 C30.5282585,18.8022102 30.7158848,19.6341918 31.1045585,20.4055255 C32.578794,23.3427253 36.3783947,23.9523871 38.5828025,21.5675856 C40.0470394,19.9844751 40.3184802,18.084756 39.6954078,16.0637411 C38.7404999,12.964903 35.1084275,11.7388108 32.5486302,13.6318285 C31.1447545,14.6726264 30.555067,16.1378588 30.5315695,17.4851798 L30.5315695,17.4919147 Z" id="Shape" fill="#E94336"></path>
                                <path d="M86.5556841,17.8523172 C86.579171,15.7268941 87.1522499,13.7867319 88.5326052,12.156477 C90.117296,10.2870483 92.1512565,9.37424756 94.5838223,9.40792221 C97.4149933,9.44498107 99.4351973,10.8731546 100.896079,13.2377179 C101.358434,13.9854626 101.653362,14.8073585 101.981506,15.6191018 C102.055322,15.7976276 101.938224,15.8010119 101.840921,15.8414214 C99.9512368,16.6329934 98.0615525,17.4279161 96.1752236,18.2194546 C94.4764539,18.9335581 92.7776841,19.6476281 91.0755591,20.3516125 C90.8544473,20.4425508 90.8410262,20.5166686 90.9517499,20.7187499 C91.9868486,22.5713581 93.6352894,23.2315487 95.5853683,22.9890242 C96.9925657,22.813849 98.0447762,22.0425153 98.8587631,20.907395 C98.9963289,20.712015 99.0802104,20.7221342 99.2577039,20.8433964 C100.06498,21.4025295 100.875947,21.951577 101.693625,22.4905054 C101.867763,22.6050327 101.854342,22.672382 101.743618,22.8206175 C99.9109736,25.2727348 97.4951841,26.5392366 94.4462565,26.3607107 C91.0688486,26.16198 88.6466841,24.4677265 87.2391512,21.3351802 C86.7835065,20.3212886 86.5422631,18.9941725 86.5590394,17.8624363 L86.5556841,17.8523172 Z M94.5569802,12.6819355 C94.4462565,12.6920546 94.2486315,12.6886704 94.0543618,12.7257293 C91.7858683,13.1400447 90.2380854,15.019559 90.2045328,17.3841223 C90.2045328,17.5862372 90.244796,17.6199118 90.4323552,17.5390592 C91.3369341,17.151717 92.2482236,16.7710762 93.1564933,16.3904689 C94.6002631,15.7841578 96.0443683,15.1711452 97.4951841,14.5749532 C97.7095854,14.4873656 97.6928091,14.4031622 97.5991973,14.2414569 C97.4448552,13.968642 97.257296,13.7227333 97.0160525,13.520652 C96.3292302,12.9379298 95.5253091,12.6954053 94.5536249,12.6819355 L94.5569802,12.6819355 Z" id="Shape" fill="#E94336"></path>
                                <path d="M85.004546,13.3961395 C85.004546,17.4516056 85.004546,21.503721 85.0112565,25.5591871 C85.0112565,25.8117972 84.9441512,25.8757958 84.6995525,25.872581 C83.7144473,25.8589417 82.7259868,25.855591 81.741217,25.872581 C81.4865525,25.8757958 81.4127368,25.8185321 81.4127368,25.549068 C81.4228025,18.0646517 81.4194473,10.5802355 81.4194473,3.09916996 C81.4194473,2.48276645 81.4328683,1.86636295 81.4127368,1.24995944 C81.4060262,1.00743833 81.4865525,0.967018701 81.7009539,0.97020311 C82.6860591,0.980491911 83.6741841,0.977124446 84.6592894,0.977124446 C84.890467,0.977124446 85.004546,1.09838333 85.004546,1.34090444 L85.004546,13.3995238 L85.004546,13.3961395 Z" id="Path" fill="#34A753"></path>
                            </g>
                        </g>
                    </g>
                    <path d="M26.3933625,55.9800247 C26.7126795,54.9102023 27.0319965,53.8403799 27.354417,52.7705574 C27.6831073,51.6810872 28.0117975,50.5945641 28.359297,49.5116431 C28.4500826,49.2316621 28.4156304,49.0770994 28.1745909,48.8960122 C26.5279734,47.6614758 24.8938954,46.4072915 23.2598173,45.1563819 C23.1690317,45.0872871 23.081381,45.0116431 23,44.8734536 C23.5164998,44.8734536 24.033031,44.8734536 24.552697,44.8734536 C26.1836402,44.8734536 27.8177182,44.8636297 29.4486928,44.870179 C29.658415,44.870179 29.7429309,44.8010843 29.8086689,44.5934726 C30.4660808,42.4901761 31.1328659,40.3898268 31.7965161,38.2865303 C31.8246672,38.1909111 31.8591193,38.0988939 31.8904052,38 C32.0125081,38.0229224 32,38.1349149 32.0219127,38.2072842 C32.7012059,40.3043589 33.3835399,42.3978315 34.050325,44.4981808 C34.1255617,44.7352642 34.2227424,44.8207321 34.4697695,44.8207321 C36.5516312,44.8207321 38.630358,44.8338306 40.7119062,44.8436545 C40.784008,44.8436545 40.8592447,44.8505312 41,44.8570805 C40.762064,45.0447169 40.5774206,45.1894557 40.3896424,45.3341944 C38.8118665,46.5490831 37.2340906,47.7636443 35.6531798,48.9716562 C35.4810759,49.1032965 35.434053,49.2152889 35.5030199,49.4392738 C36.1384564,51.4767501 36.7582186,53.5178286 37.3842505,55.558907 C37.4187339,55.670572 37.4500826,55.785839 37.4908358,55.9273032 C37.3623064,55.9142046 37.2999227,55.8385606 37.2309557,55.785839 C35.546908,54.5185563 33.8625468,53.2545481 32.1846747,51.9803886 C32.015643,51.852023 31.9092144,51.8552976 31.7432862,51.9803886 C30.0559782,53.2741959 28.359297,54.5581793 26.6657192,55.8451099 C26.590608,55.9043807 26.5060607,55.950553 26.4246797,56 C26.4153065,55.9898486 26.4059019,55.9800247 26.3964973,55.9702008 L26.3933625,55.9800247 Z" id="Path" fill="#F9BC15" fill-rule="nonzero"></path>
                    <path d="M3,44.9202701 C3.54468527,44.9202701 4.06748607,44.9202701 4.58712067,44.9202701 C6.19931709,44.9202701 7.81148216,44.9072381 9.42678209,44.9202701 C9.68032967,44.9202701 9.76487688,44.8251371 9.83685329,44.5928433 C10.4817256,42.5263082 11.1391373,40.4659632 11.790248,38.402686 C11.8247001,38.291589 11.8653906,38.1801662 11.9279938,38 C12.1032952,38.5336567 12.2598189,39.0054119 12.4132076,39.477167 C12.9672943,41.1866278 13.5276508,42.8928306 14.0723329,44.6026172 C14.138071,44.8121052 14.2351263,44.8710746 14.4386101,44.8710746 C16.5078066,44.8710746 18.5801693,44.8873645 20.6493971,44.8974642 C20.7401514,44.8974642 20.8309369,44.8974642 21,44.8974642 C20.8653891,45.0118192 20.7902464,45.0808883 20.7120003,45.1431157 C19.0278275,46.4332748 17.3436546,47.7270177 15.6532121,49.0109866 C15.4747758,49.1452153 15.4372201,49.2566381 15.506093,49.4759 C16.1478305,51.5326612 16.7801633,53.5926804 17.415631,55.6494416 C17.4406786,55.7348006 17.4657261,55.8165759 17.4970434,55.914641 C17.3843451,55.9410306 17.3311152,55.8592554 17.2716469,55.8133179 C15.5812043,54.5492226 13.8876582,53.2848015 12.2034854,52.0109323 C12.0250491,51.8734457 11.9123508,51.8799616 11.7370494,52.0109323 C10.0653847,53.2880595 8.3843467,54.5524806 6.70644359,55.8198338 C6.615658,55.8885772 6.54051538,55.9837101 6.3808569,56 C6.49355516,55.6233778 6.59688019,55.2663035 6.70644359,54.9092291 C7.26363382,53.0981194 7.81772053,51.2837517 8.38748156,49.4759 C8.46259283,49.2400224 8.43130692,49.1123097 8.2340928,48.9650491 C6.56869778,47.7139858 4.90957249,46.4498905 3.25043466,45.1887274 C3.16904112,45.1265 3.06886663,45.0841463 3,44.923528 L3,44.9202701 Z" id="Path" fill="#F9BC15" fill-rule="nonzero"></path>
                    <path d="M46.3811443,56 C46.5912684,55.3128628 46.7982516,54.6387457 47.0052348,53.9711387 C47.4694551,52.4725221 47.9273936,50.9739055 48.4010365,49.4785439 C48.4792441,49.2331145 48.4509763,49.0990072 48.2377114,48.9388597 C46.575564,47.6954375 44.9225253,46.4386698 43.2666597,45.1854826 C43.1818563,45.1233115 43.1005078,45.0578853 43,44.979439 C43.1096163,44.8879727 43.2132649,44.920523 43.3106318,44.920523 C45.3553369,44.9107579 47.4034968,44.9009928 49.4485159,44.9075028 C49.6869078,44.9075028 49.774538,44.8258016 49.846778,44.5999023 C50.5022771,42.50887 51.1703397,40.4214181 51.8352615,38.3303857 C51.8635293,38.2389193 51.8980788,38.1471274 51.9451919,38 C52.0359629,38.2617046 52.1113438,38.4745836 52.1804429,38.6903922 C52.8202377,40.6502468 53.4600325,42.613682 54.0904046,44.5771171 C54.1626446,44.7994358 54.2659792,44.8583519 54.4792441,44.8583519 C56.5650945,44.8583519 58.6474899,44.871372 60.7333403,44.8847176 C60.8150029,44.8847176 60.9026331,44.8550968 61,44.9302881 C60.9120557,45.0022243 60.8307072,45.0676504 60.7490447,45.1298215 C59.0586295,46.4191396 57.3710412,47.7117127 55.6774852,48.9945207 C55.5019107,49.128628 55.4579385,49.2363696 55.5270376,49.4557587 C56.1699733,51.5008951 56.8003455,53.5492866 57.4338586,55.5976781 C57.4652672,55.6989096 57.5218029,55.7939565 57.4998168,55.9410839 C56.9350887,55.5189063 56.3832382,55.1100743 55.8310737,54.6976618 C54.6268649,53.797971 53.4192012,52.9012098 52.2209601,51.995009 C52.0453855,51.8641567 51.9357693,51.8540661 51.753913,51.9917539 C50.0631838,53.2807465 48.3633461,54.5570444 46.6663351,55.8330169 C46.5849867,55.895188 46.5158876,55.9837248 46.3748626,56 L46.3811443,56 Z" id="Path" fill="#F9BC15" fill-rule="nonzero"></path>
                    <path d="M70.9925719,38 C71.3204359,38.9995669 71.6265056,39.9201949 71.9294166,40.8411478 C72.3394046,42.0918246 72.7557098,43.3425014 73.1562219,44.6 C73.2225528,44.8121278 73.3233126,44.8676773 73.5283066,44.8676773 C75.5943555,44.8676773 77.663563,44.8806714 79.7296119,44.8936654 C79.8208959,44.8936654 79.9535576,44.8416892 79.9911451,44.9394694 C80.0385243,45.0700596 79.8840681,45.106118 79.8051028,45.1649161 C78.1177716,46.448078 76.4269659,47.7315647 74.7301589,49.0053059 C74.5599097,49.1326475 74.5283235,49.2401733 74.5946544,49.4461289 C75.2443811,51.4969139 75.8814734,53.547699 76.5217243,55.6017325 C76.5501519,55.6930157 76.5785794,55.7846237 76.6101655,55.8921494 C76.4711865,55.8856524 76.401697,55.7943692 76.3230476,55.7323227 C74.6322419,54.4816459 72.9449107,53.2342177 71.2607381,51.976719 C71.0933316,51.8526259 70.9862546,51.8493774 70.8156895,51.976719 C69.1157239,53.2602057 67.4062824,54.5339469 65.6996837,55.8106118 C65.614717,55.8726584 65.5294344,55.9347049 65.4349919,56 C65.3939299,55.8564158 65.4662622,55.7485652 65.5010069,55.6407147 C66.1444164,53.56719 66.7881418,51.4969139 67.4410272,49.4263129 C67.5070422,49.2109367 67.4817733,49.0965891 67.2988896,48.9595019 C65.6115584,47.7055766 63.9333872,46.4415809 62.2555318,45.1779101 C62.1734079,45.1158636 62.0694895,45.0765566 62,44.9167298 C62.548967,44.9167298 63.0723492,44.9167298 63.5960473,44.9167298 C65.2299979,44.9167298 66.8667913,44.9037358 68.5007419,44.9134813 C68.7278462,44.9134813 68.8128129,44.8316188 68.8791438,44.6194911 C69.5446636,42.522902 70.2165006,40.4298863 70.8883376,38.3365457 C70.9167652,38.2514348 70.9420341,38.1666486 70.9988891,38.0032485 L70.9925719,38 Z" id="Path" fill="#F9BC15" fill-rule="nonzero"></path>
                    <path d="M25.5779594,56.4941814 C25.5779594,56.4941814 25.4879594,56.6051814 25.4779594,56.5951814 C25.3879594,56.5241814 25.4179594,56.4641814 25.4879594,56.4041814 C25.5179594,56.4341814 25.5479594,56.4641814 25.5679594,56.4941814 L25.5779594,56.4941814 Z" id="Path" fill="#F9BC15" fill-rule="nonzero"></path>
                    <path d="M99.7458073,44.8522505 C97.744805,44.8424658 95.7438027,44.8294194 93.7424782,44.8261579 C93.5333894,44.8261579 93.4338387,44.7671233 93.3629611,44.5574038 C92.677704,42.475212 91.9827818,40.396608 91.2846378,38.3180039 C91.249199,38.2162427 91.2427556,38.0916504 91.1367615,38 C91.1045444,38.0949119 91.0787707,38.1702544 91.0529971,38.2455969 C90.3645183,40.3571429 89.6760394,42.4686888 88.994004,44.586758 C88.9266704,44.8033268 88.8300192,44.8754077 88.6016001,44.8754077 C86.935011,44.8688845 85.2655224,44.8754077 83.5989333,44.8786693 C83.0647742,44.8786693 82.534159,44.8786693 82,44.8786693 C82.0805427,45.0228311 82.1704283,45.0949119 82.2638578,45.1637312 C83.9623418,46.4197652 85.6579263,47.6787345 87.3628537,48.9246575 C87.5561561,49.0655577 87.6009379,49.1803653 87.5239391,49.413242 C86.8547905,51.4918461 86.1985288,53.5704501 85.5451665,55.6526419 C85.5132716,55.7573386 85.432729,55.8590998 85.487498,56 C85.583827,55.9311807 85.6708131,55.8721461 85.757477,55.8065884 C87.491722,54.5313112 89.2256448,53.2589693 90.9534463,51.9739074 C91.1335398,51.8392042 91.2459773,51.8294194 91.4328364,51.9670581 C93.1506506,53.2328767 94.8749083,54.4853229 96.5962664,55.7410307 C96.6768091,55.8000652 96.7473645,55.8819309 96.8826762,55.8985649 C96.8440157,55.7772342 96.8150203,55.6819961 96.786025,55.5903457 C96.1362066,53.5378343 95.48961,51.4853229 94.8301265,49.4360731 C94.7624707,49.2227658 94.7882443,49.1082844 94.9747812,48.9703196 C96.5640493,47.8000652 100,45.285062 100,45.285062 L100,44.865623 C99.9130139,44.8623614 99.8231283,44.8522505 99.7361422,44.8522505 L99.7458073,44.8522505 Z M95.0521022,47.9080235 L94.1577563,45.452381 L98.4365055,45.452381 L95.0488805,47.9080235 L95.0521022,47.9080235 Z" id="Shape" fill="#F9BC15" fill-rule="nonzero"></path>
                    <polygon id="Path" fill="#F9BC15" fill-rule="nonzero" points="100 46 100.208803 47 101 46"></polygon>
                </g>
            </g>
        </g>
    </g>
</svg>