<svg width="120" height="45" viewBox="0 0 120 45" fill="none" xmlns="http://www.w3.org/2000/svg">
<mask id="mask0_153_191" style="mask-type:alpha" maskUnits="userSpaceOnUse" x="0" y="0" width="120" height="45">
<rect width="120" height="45" fill="#D9D9D9"/>
</mask>
<g mask="url(#mask0_153_191)">
</g>
<g clip-path="url(#clip0_153_191)">
<mask id="mask1_153_191" style="mask-type:luminance" maskUnits="userSpaceOnUse" x="14" y="0" width="93" height="31">
<path d="M107 0H14V31H107V0Z" fill="white"/>
</mask>
<g mask="url(#mask1_153_191)">
<path d="M29.6019 14.1133C28.4011 14.1133 27.2002 14.1133 26.0024 14.1163C25.8471 14.1163 25.7903 14.0769 25.7933 13.9101C25.7993 12.9637 25.7993 12.0174 25.7933 11.0711C25.7933 10.9012 25.85 10.8679 26.0054 10.8679C29.4376 10.8709 32.8698 10.8709 36.3021 10.8679C36.4544 10.8679 36.5052 10.9073 36.5291 11.068C36.7143 12.3086 36.6934 13.5461 36.5142 14.7806C36.2812 16.3851 35.8002 17.9047 34.8653 19.2302C33.2821 21.4777 31.1672 22.9306 28.4996 23.4826C26.2712 23.9436 24.0488 23.8921 21.91 23.061C17.716 21.4352 15.0395 18.4021 14.2031 13.8676C13.5669 10.425 14.4302 7.28575 16.5749 4.55292C18.5017 2.09913 21.0138 0.600768 24.0607 0.145801C27.3795 -0.35163 30.4025 0.412715 33.0311 2.60869C33.2432 2.78764 33.4434 2.98176 33.6495 3.16678C33.7391 3.24564 33.7421 3.30327 33.6555 3.39123C32.9774 4.07975 32.2993 4.76827 31.6272 5.46285C31.5167 5.57811 31.4599 5.50228 31.3852 5.43252C30.6265 4.74097 29.7871 4.17378 28.8312 3.8098C24.0279 1.98387 18.7556 4.73187 17.6742 10.0186C17.035 13.1397 17.8355 15.8968 20.0639 18.1534C21.3753 19.4819 22.9854 20.2402 24.8254 20.4404C26.6028 20.6345 28.3174 20.3979 29.9066 19.5001C31.7885 18.4355 32.9505 16.8431 33.303 14.6532C33.3607 14.2892 33.2134 14.1072 32.8609 14.1072H29.6049L29.6019 14.1133Z" fill="#4285F3"/>
<path d="M84.6343 16.3457C84.6343 18.5962 84.6492 20.8498 84.6283 23.1004C84.6134 24.5381 84.3386 25.9273 83.6605 27.2042C82.8121 28.8087 81.5038 29.8279 79.7862 30.298C78.2299 30.7257 76.6735 30.7469 75.1411 30.1979C73.2085 29.5033 71.8493 28.1566 70.9771 26.2761C70.9143 26.1396 70.9293 26.082 71.0726 26.0213C71.9061 25.6755 72.7395 25.3207 73.5669 24.9567C73.7222 24.8869 73.779 24.9173 73.8537 25.0719C74.4481 26.3034 75.3383 27.2194 76.6855 27.4893C78.1313 27.7775 79.4785 27.5318 80.527 26.355C81.0975 25.715 81.3454 24.9203 81.4619 24.0771C81.5516 23.4462 81.5097 22.8123 81.5157 22.1814C81.5157 22.1298 81.5396 22.0631 81.4739 22.0358C81.4022 22.0055 81.3634 22.0661 81.3216 22.1116C80.282 23.2642 78.9527 23.7434 77.4592 23.7495C75.7655 23.7556 74.2749 23.1368 72.9874 22.0267C71.5327 20.774 70.6156 19.1756 70.3826 17.2465C70.0032 14.1042 71.0936 11.5685 73.6147 9.71832C74.8275 8.82962 76.2105 8.40801 77.7131 8.47474C79.1081 8.53844 80.3358 9.01767 81.3156 10.0732C81.3574 10.1187 81.3932 10.1824 81.4649 10.1612C81.5456 10.1339 81.5127 10.055 81.5127 10.0004C81.5157 9.70315 81.5187 9.40591 81.5127 9.10866C81.5097 8.9752 81.5546 8.93274 81.683 8.93274C82.609 8.93577 83.532 8.93881 84.4581 8.93274C84.6552 8.93274 84.6343 9.04193 84.6343 9.17236C84.6343 11.5655 84.6343 13.9586 84.6343 16.3517H84.6283L84.6343 16.3457ZM73.6028 15.8482C73.6028 17.3284 73.9552 18.4021 74.7259 19.3181C76.4585 21.3806 79.6039 21.1835 80.9989 18.8753C82.0235 17.1798 82.0385 15.3811 81.1513 13.625C79.9982 11.3501 77.2829 10.7738 75.3114 12.3541C74.1225 13.3065 73.6267 14.6107 73.6057 15.8482H73.6028Z" fill="#4285F3"/>
<path d="M61.6397 8.46876C65.8934 8.47482 69.1345 11.79 69.1285 16.1304C69.1225 20.4253 65.8277 23.7678 61.6099 23.7587C57.38 23.7496 54.1121 20.398 54.1241 16.0788C54.136 11.7567 57.389 8.46269 61.6397 8.46876ZM57.4069 16.094C57.4069 16.4246 57.4278 16.7522 57.4906 17.0767C57.5503 17.3922 57.6369 17.6985 57.7534 17.9958C58.9095 20.9834 62.6046 21.6992 64.6926 19.3152C65.8307 18.014 66.0756 16.4519 65.6813 14.7928C64.9734 11.8264 61.6786 10.5131 59.2739 12.2389C57.9805 13.1671 57.4398 14.5107 57.4129 16.094H57.4069Z" fill="#FABC06"/>
<path d="M45.4398 23.7587C41.222 23.7647 37.9361 20.4192 37.9331 16.1213C37.9331 11.7809 41.1712 8.47179 45.4309 8.46875C49.6875 8.46572 52.9435 11.7809 52.9376 16.1122C52.9316 20.4162 49.6607 23.7556 45.4398 23.7587ZM41.219 15.7513C41.216 16.9311 41.3833 17.6803 41.7298 18.3749C43.0441 21.0198 46.4315 21.5688 48.3971 19.4213C49.7025 17.9958 49.9444 16.2851 49.3888 14.4652C48.5375 11.6748 45.2994 10.5707 43.0172 12.2753C41.7656 13.2125 41.2399 14.5319 41.219 15.7452V15.7513Z" fill="#E94336"/>
<path d="M91.167 16.0758C91.1879 14.1619 91.6987 12.4148 92.9294 10.9468C94.3423 9.2634 96.1555 8.44143 98.3242 8.47176C100.848 8.50512 102.65 9.79116 103.952 11.9204C104.364 12.5938 104.627 13.3338 104.92 14.0648C104.986 14.2256 104.881 14.2286 104.794 14.265C103.11 14.9778 101.425 15.6936 99.7431 16.4064C98.2286 17.0494 96.7141 17.6924 95.1967 18.3263C94.9995 18.4082 94.9876 18.475 95.0861 18.657C96.0092 20.3252 97.4788 20.9197 99.2174 20.7013C100.472 20.5436 101.41 19.849 102.136 18.8268C102.258 18.6509 102.333 18.66 102.491 18.7692C103.211 19.2727 103.934 19.7671 104.663 20.2524C104.818 20.3555 104.806 20.4162 104.708 20.5496C103.074 22.7577 100.92 23.8982 98.2017 23.7374C95.1907 23.5585 93.031 22.0328 91.7764 19.212C91.3701 18.299 91.155 17.104 91.17 16.0849L91.167 16.0758ZM98.3003 11.4199C98.2017 11.429 98.0255 11.426 97.8522 11.4594C95.8299 11.8324 94.4499 13.5249 94.42 15.6542C94.42 15.8362 94.4558 15.8665 94.6231 15.7937C95.4297 15.4449 96.2422 15.1021 97.0517 14.7594C98.3391 14.2134 99.6266 13.6614 100.92 13.1246C101.111 13.0457 101.096 12.9699 101.013 12.8243C100.875 12.5786 100.708 12.3572 100.493 12.1752C99.8805 11.6505 99.1636 11.4321 98.2973 11.4199H98.3003Z" fill="#E94336"/>
<path d="M89.7841 12.0627C89.7841 15.7146 89.7841 19.3634 89.7901 23.0153C89.7901 23.2428 89.7303 23.3004 89.5123 23.2974C88.6341 23.2853 87.7529 23.2822 86.8746 23.2974C86.6476 23.3004 86.5819 23.2489 86.5819 23.0062C86.5908 16.2666 86.5879 9.52706 86.5879 2.79051C86.5879 2.23545 86.5998 1.68039 86.5819 1.12533C86.5759 0.906945 86.6476 0.870548 86.8388 0.873581C87.717 0.88268 88.5982 0.879647 89.4764 0.879647C89.6825 0.879647 89.7841 0.988839 89.7841 1.20722V12.0658V12.0627Z" fill="#34A753"/>
</g>
<path d="M29.6981 44.6338C29.9277 43.8907 30.1574 43.1477 30.3893 42.4047C30.6257 41.6479 30.8622 40.8935 31.1121 40.1413C31.1774 39.947 31.1526 39.8395 30.9792 39.7138C29.7949 38.8564 28.6195 37.9853 27.4442 37.1166C27.3789 37.0686 27.3159 37.016 27.2573 36.9199C27.6288 36.9199 28.0004 36.9199 28.3741 36.9199C29.5472 36.9199 30.7226 36.9131 31.8956 36.9177C32.0465 36.9177 32.1073 36.8696 32.1546 36.7256C32.6274 35.2647 33.107 33.8061 33.5844 32.3451C33.6046 32.2788 33.6294 32.2148 33.6519 32.1462C33.7397 32.1622 33.7307 32.24 33.7465 32.2903C34.2351 33.7466 34.7259 35.2007 35.2055 36.6593C35.2595 36.8239 35.3293 36.8834 35.5072 36.8834C37.0045 36.8834 38.4996 36.8925 39.9969 36.8994C40.0487 36.8994 40.1028 36.9039 40.2041 36.9085C40.033 37.0388 39.9001 37.1394 39.765 37.24C38.6302 38.0837 37.4954 38.9273 36.3583 39.7663C36.2345 39.8578 36.2007 39.9355 36.2503 40.091C36.7073 41.5062 37.1532 42.9237 37.6035 44.3411C37.6282 44.4189 37.6508 44.4989 37.68 44.5972C37.5877 44.5881 37.5427 44.5355 37.4931 44.4989C36.2818 43.6187 35.0704 42.7408 33.8635 41.856C33.742 41.7668 33.6654 41.7691 33.5461 41.856C32.3325 42.7545 31.1121 43.6461 29.894 44.54C29.8399 44.5812 29.7791 44.6132 29.7206 44.6475C29.7138 44.6406 29.7071 44.6338 29.7003 44.6269L29.6981 44.6338Z" fill="#F9BC15"/>
<path d="M14 36.9223C14.3918 36.9223 14.7678 36.9223 15.1416 36.9223C16.3011 36.9223 17.4607 36.9131 18.6226 36.9223C18.8049 36.9223 18.8657 36.856 18.9175 36.6937C19.3814 35.251 19.8542 33.813 20.3225 32.3726C20.3473 32.2949 20.3766 32.2172 20.4216 32.0914C20.5477 32.4641 20.6603 32.7933 20.7706 33.1225C21.1691 34.316 21.5722 35.5071 21.9639 36.7005C22.0112 36.8468 22.081 36.888 22.2274 36.888C23.7157 36.888 25.2063 36.8994 26.6946 36.9063C26.7599 36.9063 26.8252 36.9063 26.9468 36.9063C26.8499 36.9863 26.7959 37.0343 26.7396 37.0778C25.5282 37.9785 24.3169 38.8816 23.101 39.7778C22.9727 39.8716 22.9457 39.9493 22.9952 40.1025C23.4568 41.5382 23.9116 42.9763 24.3687 44.4121C24.3867 44.4715 24.4047 44.5287 24.4272 44.5973C24.3462 44.6155 24.3079 44.5584 24.2651 44.5264C23.0492 43.6439 21.8311 42.7614 20.6197 41.872C20.4914 41.776 20.4103 41.7806 20.2842 41.872C19.0819 42.7637 17.8728 43.6462 16.6659 44.531C16.6006 44.579 16.5466 44.6453 16.4317 44.6567C16.5128 44.3938 16.5871 44.1446 16.6659 43.8954C17.0667 42.6311 17.4652 41.3645 17.875 40.1025C17.9291 39.9379 17.9065 39.8487 17.7647 39.7458C16.5668 38.8725 15.3735 37.99 14.1801 37.1098C14.1216 37.0663 14.0495 37.0366 14 36.9246V36.9223Z" fill="#F9BC15"/>
<path d="M42.9243 44.6681C43.0752 44.188 43.2238 43.717 43.3724 43.2507C43.7056 42.2035 44.0344 41.1564 44.3743 40.1116C44.4306 39.9402 44.4104 39.8464 44.2573 39.7344C43.0639 38.8656 41.8773 37.9877 40.6885 37.1121C40.6277 37.0686 40.5691 37.0229 40.4971 36.968C40.5759 36.904 40.6502 36.9269 40.72 36.9269C42.188 36.92 43.6583 36.9131 45.1264 36.9177C45.2975 36.9177 45.3605 36.8606 45.4123 36.7028C45.8829 35.2419 46.3625 33.7833 46.8399 32.3223C46.8601 32.2583 46.8849 32.1943 46.9187 32.0914C46.984 32.2743 47.038 32.4229 47.0875 32.5738C47.5469 33.9433 48.0062 35.3151 48.4588 36.6868C48.5106 36.8423 48.5849 36.8834 48.738 36.8834C50.2353 36.8834 51.7304 36.8926 53.2277 36.9017C53.2862 36.9017 53.3493 36.8811 53.4191 36.9337C53.356 36.984 53.2975 37.0297 53.2389 37.0732C52.0253 37.974 50.814 38.877 49.5981 39.7733C49.472 39.867 49.4405 39.9424 49.49 40.0956C49.9516 41.5245 50.4042 42.9557 50.859 44.3869C50.8815 44.4578 50.922 44.5241 50.9063 44.627C50.501 44.3321 50.1047 44.0463 49.7084 43.7582C48.8438 43.1295 47.9769 42.503 47.1168 41.8698C46.9907 41.7783 46.9119 41.7714 46.7813 41.8675C45.5677 42.7683 44.3473 43.6599 43.1292 44.5515C43.0707 44.595 43.0211 44.6567 42.9198 44.6681H42.9243Z" fill="#F9BC15"/>
<path d="M60.3139 32.0388C60.548 32.7384 60.7664 33.3831 60.9826 34.0279C61.2753 34.9035 61.5725 35.7791 61.8585 36.6593C61.9058 36.8079 61.9778 36.8468 62.1242 36.8468C63.599 36.8468 65.076 36.856 66.5508 36.8651C66.6161 36.8651 66.7107 36.8285 66.7377 36.8971C66.7715 36.9886 66.6612 37.0137 66.6049 37.0549C65.4003 37.9534 64.1934 38.8519 62.982 39.7435C62.8604 39.8327 62.8379 39.9081 62.8852 40.0521C63.349 41.4879 63.8039 42.9237 64.2609 44.3617C64.2812 44.4258 64.3015 44.4898 64.324 44.5652C64.2249 44.5606 64.1754 44.4966 64.1191 44.4532C62.9122 43.5776 61.7076 42.7042 60.5053 41.824C60.3859 41.7371 60.3094 41.7348 60.1878 41.824C58.9742 42.7225 57.7538 43.6141 56.5357 44.5081C56.4749 44.5515 56.4141 44.5949 56.3465 44.6407C56.3173 44.5401 56.369 44.4646 56.3938 44.3892C56.8531 42.9374 57.3125 41.4879 57.7786 40.0384C57.8258 39.8875 57.8078 39.8075 57.6772 39.7115C56.4726 38.8336 55.2748 37.9488 54.0769 37.064C54.0184 37.0206 53.9441 36.9931 53.8945 36.8811C54.2863 36.8811 54.6601 36.8811 55.0338 36.8811C56.2002 36.8811 57.3688 36.872 58.5351 36.8788C58.6972 36.8788 58.758 36.8217 58.8053 36.6731C59.2804 35.2053 59.76 33.7398 60.2396 32.2743C60.2598 32.2149 60.2778 32.1554 60.3184 32.0411L60.3139 32.0388Z" fill="#F9BC15"/>
<path d="M29.7156 44.6538C29.7156 44.6538 29.6957 44.6782 29.6935 44.676C29.6736 44.6605 29.6803 44.6472 29.6957 44.6339C29.7024 44.6405 29.709 44.6472 29.7134 44.6538H29.7156Z" fill="#F9BC15"/>
<path d="M79.5464 36.7783C78.1458 36.7714 76.7453 36.7623 75.3448 36.76C75.1985 36.76 75.1287 36.7188 75.0792 36.5725C74.5996 35.1207 74.1132 33.6713 73.6246 32.2218C73.5998 32.1509 73.5953 32.064 73.521 32C73.4985 32.0663 73.4805 32.1189 73.4625 32.1715C72.9807 33.6438 72.4988 35.1162 72.0215 36.5931C71.9742 36.744 71.9066 36.7943 71.7468 36.7943C70.5804 36.7897 69.4118 36.7943 68.2455 36.7966C67.8717 36.7966 67.5002 36.7966 67.1265 36.7966C67.1828 36.8972 67.2458 36.9475 67.3111 36.9955C68.4999 37.8711 69.6865 38.749 70.8799 39.6178C71.015 39.7161 71.0465 39.7961 70.9925 39.9585C70.5241 41.408 70.0648 42.8574 69.6077 44.3092C69.5852 44.3824 69.5289 44.4532 69.5672 44.5516C69.6348 44.5035 69.6956 44.4624 69.7563 44.4167C70.97 43.5273 72.1836 42.6402 73.3927 41.744C73.5188 41.6503 73.5976 41.6434 73.7282 41.7395C74.9305 42.622 76.1374 43.4953 77.342 44.3709C77.3983 44.4121 77.4479 44.4692 77.5424 44.4807C77.5154 44.3961 77.4951 44.3298 77.4749 44.2658C77.02 42.8346 76.5675 41.4034 76.1059 39.9745C76.0586 39.8259 76.0766 39.7458 76.2072 39.6498C77.3195 38.8336 79.7242 37.0801 79.7242 37.0801V36.7874C79.6634 36.7851 79.6004 36.7783 79.5396 36.7783H79.5464ZM76.2613 38.9091L75.6353 37.1967H78.6299L76.259 38.9091H76.2613Z" fill="#F9BC15"/>
<path d="M79.3188 36.7782L79.49 37.2583L80.1384 36.7782H79.3188Z" fill="#F9BC15"/>
<path d="M87.28 42.9V41.71L90.71 35.2H92.11L88.68 41.71H92.39V39.19H92.46H93.65V41.71H95.12V42.9H93.65V45H92.39V42.9H87.28ZM96.0575 44.972C95.8988 44.8133 95.8195 44.6127 95.8195 44.37C95.8195 44.1273 95.8988 43.9267 96.0575 43.768C96.2161 43.6093 96.4168 43.53 96.6595 43.53C96.9021 43.53 97.1028 43.6093 97.2615 43.768C97.4201 43.9267 97.4995 44.1273 97.4995 44.37C97.4995 44.6127 97.4201 44.8133 97.2615 44.972C97.1028 45.1307 96.9021 45.21 96.6595 45.21C96.4168 45.21 96.2161 45.1307 96.0575 44.972ZM98.2689 36.39V35.2H104.779V36.39L100.719 45H99.3889L103.449 36.404V36.39H98.2689Z" fill="black"/>
</g>
<defs>
<clipPath id="clip0_153_191">
<rect width="91" height="45" fill="white" transform="translate(14)"/>
</clipPath>
</defs>
</svg>
