<svg width="65" height="13" viewBox="0 0 65 13" fill="none" xmlns="http://www.w3.org/2000/svg">
<path d="M16.0884 12.617C16.3106 11.895 16.5329 11.173 16.7573 10.451C16.9861 9.71572 17.2148 8.98262 17.4567 8.25175C17.5199 8.06292 17.4959 7.95851 17.3281 7.83632C16.1821 7.00326 15.0447 6.15687 13.9074 5.3127C13.8442 5.26605 13.7832 5.21495 13.7266 5.12165C14.0861 5.12165 14.4456 5.12165 14.8073 5.12165C15.9424 5.12165 17.0798 5.11499 18.2149 5.11943C18.3609 5.11943 18.4197 5.07278 18.4655 4.93282C18.923 3.51328 19.3871 2.09597 19.849 0.676426C19.8686 0.612002 19.8926 0.549799 19.9144 0.483154C19.9994 0.498705 19.9907 0.574237 20.0059 0.62311C20.4787 2.03821 20.9537 3.45108 21.4178 4.8684C21.4701 5.02835 21.5376 5.08611 21.7097 5.08611C23.1587 5.08611 24.6054 5.09499 26.0543 5.10166C26.1044 5.10166 26.1567 5.1061 26.2547 5.11054C26.0892 5.23717 25.9606 5.33492 25.8299 5.43266C24.7318 6.2524 23.6336 7.07213 22.5333 7.88742C22.4135 7.97628 22.3808 8.05181 22.4287 8.20287C22.871 9.57798 23.3025 10.9553 23.7382 12.3326C23.7622 12.4082 23.784 12.4859 23.8123 12.5815C23.723 12.5726 23.6794 12.5215 23.6315 12.4859C22.4593 11.6307 21.287 10.7776 20.1192 9.91787C20.0015 9.83123 19.9275 9.83346 19.812 9.91787C18.6376 10.7909 17.4567 11.6573 16.278 12.5259C16.2257 12.5659 16.1668 12.597 16.1102 12.6303C16.1036 12.6237 16.0971 12.617 16.0906 12.6103L16.0884 12.617Z" fill="#F9BC15"/>
<path d="M0.898438 5.12397C1.27755 5.12397 1.64141 5.12397 2.0031 5.12397C3.12519 5.12397 4.24728 5.11508 5.37154 5.12397C5.54803 5.12397 5.60686 5.05954 5.65697 4.90182C6.1058 3.50005 6.56336 2.10272 7.01655 0.703177C7.04052 0.627646 7.06884 0.552114 7.11242 0.429932C7.23443 0.792036 7.34337 1.11193 7.45013 1.43183C7.83578 2.59145 8.22579 3.74886 8.6049 4.90848C8.65066 5.05066 8.7182 5.09064 8.85983 5.09064C10.3 5.09064 11.7424 5.10175 13.1826 5.10841C13.2458 5.10841 13.309 5.10841 13.4266 5.10841C13.3329 5.18617 13.2806 5.23282 13.2262 5.27503C12.054 6.1503 10.8818 7.02779 9.70521 7.89862C9.58101 7.9897 9.55487 8.06524 9.6028 8.21408C10.0495 9.60918 10.4896 11.0065 10.9319 12.4016C10.9493 12.4594 10.9667 12.5149 10.9885 12.5815C10.9101 12.5993 10.873 12.5438 10.8317 12.5127C9.65509 11.6552 8.47635 10.7977 7.30415 9.93352C7.17996 9.84021 7.10152 9.84466 6.97951 9.93352C5.81602 10.7999 4.646 11.6574 3.47815 12.5171C3.41497 12.5638 3.36268 12.6282 3.25156 12.6393C3.32999 12.3838 3.4019 12.1417 3.47815 11.8995C3.86598 10.6711 4.25163 9.44034 4.64818 8.21408C4.70047 8.05413 4.67868 7.96749 4.54142 7.86752C3.38229 7.01891 2.22751 6.16141 1.07274 5.30613C1.01609 5.26392 0.946371 5.23504 0.898438 5.12619V5.12397Z" fill="#F9BC15"/>
<path d="M28.8878 12.6504C29.0338 12.1839 29.1776 11.7263 29.3214 11.2731C29.6439 10.2556 29.962 9.23819 30.291 8.22296C30.3455 8.05635 30.3258 7.96527 30.1777 7.85641C29.0229 7.01224 27.8747 6.15919 26.7243 5.30835C26.6654 5.26614 26.6088 5.22171 26.5391 5.1684C26.6153 5.10619 26.6872 5.12841 26.7548 5.12841C28.1754 5.12174 29.5981 5.11508 31.0187 5.11952C31.1843 5.11952 31.2453 5.06398 31.2954 4.9107C31.7508 3.49116 32.2149 2.07384 32.6768 0.654304C32.6964 0.592102 32.7204 0.529899 32.753 0.429932C32.8162 0.607652 32.8685 0.75205 32.9165 0.898669C33.3609 2.22935 33.8054 3.56225 34.2434 4.89515C34.2935 5.04621 34.3654 5.0862 34.5135 5.0862C35.9624 5.0862 37.4092 5.09509 38.8581 5.10397C38.9147 5.10397 38.9757 5.08398 39.0433 5.13507C38.9823 5.18395 38.9256 5.22838 38.869 5.27059C37.6946 6.14586 36.5224 7.02335 35.3458 7.89418C35.2238 7.98526 35.1933 8.05857 35.2412 8.20741C35.6879 9.59585 36.1258 10.9865 36.566 12.3772C36.5878 12.446 36.627 12.5105 36.6117 12.6104C36.2195 12.3239 35.8361 12.0462 35.4526 11.7663C34.6159 11.1553 33.7771 10.5467 32.9448 9.9313C32.8228 9.84244 32.7465 9.83577 32.6201 9.92907C31.4458 10.8043 30.2648 11.6707 29.0861 12.5371C29.0294 12.5793 28.9815 12.6393 28.8835 12.6504H28.8878Z" fill="#F9BC15"/>
<path d="M45.7118 0.378662C45.9384 1.05844 46.1497 1.6849 46.3589 2.31137C46.6422 3.1622 46.9298 4.01304 47.2065 4.86831C47.2522 5.01271 47.3219 5.05048 47.4636 5.05048C48.8907 5.05048 50.32 5.05937 51.7471 5.06825C51.8103 5.06825 51.9018 5.03271 51.928 5.09935C51.9606 5.18821 51.8539 5.21265 51.7994 5.25264C50.6337 6.12569 49.4659 6.99874 48.2937 7.86512C48.176 7.95176 48.1542 8.02507 48.2 8.16503C48.6488 9.56013 49.089 10.9552 49.5313 12.3526C49.5509 12.4148 49.5705 12.477 49.5923 12.5503C49.4964 12.5458 49.4485 12.4836 49.394 12.4414C48.2262 11.5906 47.0605 10.742 45.897 9.88669C45.7815 9.80227 45.7074 9.80005 45.5898 9.88669C44.4154 10.7597 43.2345 11.6261 42.0557 12.4947C41.9969 12.5369 41.9381 12.5791 41.8727 12.6236C41.8444 12.5258 41.8945 12.4525 41.9185 12.3792C42.363 10.9686 42.8074 9.56013 43.2585 8.15169C43.3042 8.00507 43.2868 7.92732 43.1604 7.83402C41.9947 6.98096 40.8356 6.12124 39.6765 5.26152C39.6198 5.21931 39.5479 5.19265 39.5 5.0838C39.8791 5.0838 40.2408 5.0838 40.6025 5.0838C41.7311 5.0838 42.8619 5.07492 43.9905 5.08158C44.1474 5.08158 44.2062 5.02604 44.252 4.88165C44.7117 3.45544 45.1758 2.03146 45.6399 0.607476C45.6595 0.549717 45.6769 0.491957 45.7162 0.380882L45.7118 0.378662Z" fill="#F9BC15"/>
<path d="M16.1079 12.6367C16.1079 12.6367 16.0884 12.6609 16.0863 12.6587C16.0669 12.6433 16.0733 12.6301 16.0884 12.6169C16.0949 12.6235 16.1014 12.6301 16.1057 12.6367H16.1079Z" fill="#F9BC15"/>
<path d="M64.3269 4.984C62.9717 4.97734 61.6165 4.96845 60.2613 4.96623C60.1196 4.96623 60.0521 4.92625 60.0042 4.78407C59.5401 3.37342 59.0695 1.96498 58.5967 0.55655C58.5727 0.487684 58.5683 0.403266 58.4964 0.341064C58.4746 0.405488 58.4572 0.456583 58.4398 0.507677C57.9735 1.93832 57.5072 3.36897 57.0453 4.80406C56.9996 4.95068 56.9342 4.99956 56.7795 4.99956C55.6509 4.99511 54.5201 4.99955 53.3915 5.00178C53.0298 5.00178 52.6703 5.00178 52.3086 5.00178C52.3631 5.09952 52.4241 5.14839 52.4873 5.19504C53.6377 6.04588 54.7859 6.89894 55.9407 7.74311C56.0714 7.83863 56.1019 7.91639 56.0496 8.07411C55.5964 9.48254 55.1519 10.891 54.7096 12.3016C54.6879 12.3727 54.6334 12.4416 54.6704 12.5371C54.7358 12.4905 54.7946 12.4505 54.8534 12.406C56.0278 11.5419 57.2022 10.6799 58.3722 9.8091C58.4943 9.71802 58.5705 9.71136 58.6969 9.80466C59.8604 10.6622 61.0282 11.5108 62.1939 12.3616C62.2483 12.4016 62.2963 12.4571 62.3878 12.4682C62.3616 12.386 62.342 12.3216 62.3224 12.2594C61.8823 10.8688 61.4444 9.4781 60.9977 8.08966C60.952 7.94526 60.9694 7.86751 61.0958 7.77421C62.1721 6.98113 64.4991 5.27724 64.4991 5.27724V4.99289C64.4402 4.99067 64.3792 4.984 64.3204 4.984H64.3269ZM61.148 7.05444L60.5423 5.39054H63.4402L61.1459 7.05444H61.148Z" fill="#F9BC15"/>
<path d="M64.1055 4.98389L64.2711 5.4504L64.8986 4.98389H64.1055Z" fill="#F9BC15"/>
</svg>
