<svg width="120" height="45" viewBox="0 0 120 45" fill="none" xmlns="http://www.w3.org/2000/svg">
<mask id="mask0_153_230" style="mask-type:alpha" maskUnits="userSpaceOnUse" x="0" y="0" width="120" height="45">
<rect width="120" height="45" fill="#D9D9D9"/>
</mask>
<g mask="url(#mask0_153_230)">
</g>
<g clip-path="url(#clip0_153_230)">
<mask id="mask1_153_230" style="mask-type:luminance" maskUnits="userSpaceOnUse" x="7" y="0" width="105" height="26">
<path d="M111.874 0H7V25.5457H111.874V0Z" fill="white"/>
</mask>
<g mask="url(#mask1_153_230)">
<path d="M24.9726 16.6473C25.3283 17.7204 25.684 18.7959 26.0373 19.869C26.4256 21.0483 26.8089 22.2302 27.1922 23.4095C27.2147 23.4779 27.2573 23.5411 27.2423 23.6449C27.1722 23.6019 27.1095 23.569 27.0494 23.526C24.6293 21.7797 22.2068 20.031 19.7867 18.2822C19.7416 18.2493 19.694 18.2214 19.6565 18.1835C19.5562 18.0898 19.4736 18.1126 19.3709 18.1886C18.8949 18.5403 18.4139 18.8845 17.9328 19.2287C15.9412 20.6687 13.9495 22.1062 11.9554 23.5437C11.9053 23.5791 11.8577 23.6272 11.7675 23.6373C11.8501 23.3817 11.9253 23.1312 12.008 22.8857C12.8823 20.2157 13.7591 17.5457 14.6335 14.8758C14.7186 14.6176 14.7161 14.6176 14.4982 14.4607C12.0856 12.717 9.67309 10.9733 7.26054 9.22959C7.18288 9.17139 7.10522 9.11065 7 9.03219C7.12276 8.98411 7.22046 9.00182 7.31315 9.00182C10.2794 9.00182 13.2456 9.00688 16.2092 9.00942C16.5976 9.00942 16.5224 9.05497 16.6401 8.70319C17.5671 5.87884 18.494 3.05449 19.421 0.227615C19.446 0.151692 19.4711 0.0757686 19.4986 -0.00268555C19.6038 0.0656455 19.6038 0.174469 19.6339 0.265577C20.4807 2.8495 21.3224 5.43596 22.1642 8.01988C22.2544 8.29574 22.3521 8.56906 22.4323 8.84745C22.4698 8.97905 22.54 9.01195 22.6677 9.00942C23.2615 9.00435 23.8552 9.00942 24.4465 9.00942H31.9897C31.9947 9.0246 31.9997 9.03979 32.0048 9.0575C31.8995 9.13595 31.7993 9.21947 31.6916 9.29539C29.3016 11.0214 26.9091 12.7474 24.5191 14.4759C24.454 14.524 24.3939 14.5797 24.3312 14.6328C24.0982 14.7011 23.9279 14.8732 23.74 15.0099C22.4272 15.9488 21.1195 16.8979 19.8118 17.8444C19.7567 17.8849 19.679 17.9051 19.6815 17.9987C19.7667 18.024 19.8418 17.9962 19.922 17.976C21.3274 17.6115 22.7329 17.2522 24.1358 16.8877C24.4164 16.8143 24.707 16.784 24.9676 16.6473H24.9726Z" fill="#01B67A"/>
<path d="M79.5017 20.869V25.3029C79.5017 25.5256 79.5468 25.5458 79.2687 25.5433C78.7126 25.5433 78.1564 25.5433 77.6002 25.5433C77.4098 25.5433 77.4098 25.5382 77.4048 25.3459C77.4048 25.3181 77.4048 25.2902 77.4048 25.2649V12.8843C77.4048 12.8388 77.4073 12.7932 77.4048 12.7477C77.3973 12.649 77.4299 12.6009 77.5401 12.6009C78.1063 12.606 78.6725 12.606 79.2362 12.6009C79.3589 12.6009 79.389 12.6515 79.389 12.7629C79.384 13.1146 79.389 13.469 79.389 13.8131C79.4341 13.8385 79.4491 13.8157 79.4641 13.7929C79.9176 13.0033 80.6341 12.5984 81.5034 12.4288C82.3351 12.2668 83.1594 12.3124 83.9585 12.5908C84.918 12.9248 85.642 13.5474 86.1306 14.4382C87.0725 16.1516 87.0525 18.7406 86.0629 20.4235C85.3364 21.6586 84.2416 22.2862 82.7986 22.3115C82.1247 22.3216 81.4733 22.2179 80.8571 21.9395C80.3911 21.7294 79.9978 21.4308 79.6796 21.0335C79.637 20.9803 79.612 20.9069 79.5067 20.869H79.5017ZM79.4366 17.3107C79.4366 17.9813 79.5193 18.4774 79.7222 18.9886C80.2057 20.216 81.328 20.8512 82.6257 20.6108C83.4625 20.4539 84.0162 19.9224 84.3644 19.1784C84.7176 18.4242 84.7552 17.6194 84.68 16.8096C84.6299 16.2731 84.4871 15.7568 84.2066 15.2886C83.6704 14.3876 82.8938 13.9372 81.8241 14.0131C80.7443 14.0915 80.0679 14.6761 79.6996 15.6581C79.4992 16.1921 79.4266 16.7463 79.4316 17.3132L79.4366 17.3107Z" fill="#1B1B1B"/>
<path d="M105.681 17.2879C105.691 18.0775 105.573 18.7988 105.3 19.4897C104.774 20.8285 103.812 21.7067 102.427 22.104C101.292 22.4279 100.152 22.4102 99.0398 22.0053C97.7271 21.527 96.8352 20.6134 96.3993 19.2898C95.9283 17.8498 95.9484 16.4123 96.5396 15.0077C97.1283 13.6056 98.2256 12.7831 99.7012 12.4643C100.671 12.2542 101.645 12.2846 102.59 12.606C104.161 13.1374 105.108 14.2409 105.508 15.8277C105.634 16.3212 105.696 16.8248 105.681 17.2904V17.2879ZM103.592 17.3132C103.599 17.093 103.569 16.8779 103.537 16.6628C103.457 16.101 103.291 15.5721 102.971 15.0937C102.014 13.6714 99.9267 13.6537 98.9321 14.9267C98.5588 15.405 98.3584 15.9491 98.2557 16.5363C98.1029 17.4347 98.1755 18.3129 98.5688 19.1379C99.0323 20.1123 99.8014 20.6741 100.916 20.6589C102.016 20.6437 102.76 20.0743 103.219 19.1075C103.487 18.5407 103.574 17.9333 103.592 17.3132Z" fill="#1B1B1B"/>
<path d="M45.1545 9.03766C45.1545 9.63745 45.1545 10.2448 45.1545 10.8497C45.1545 10.9408 45.1269 10.9864 45.0292 10.9813C44.9666 10.9788 44.9014 10.9813 44.8388 10.9813H41.0008C40.9607 11.0876 40.9757 11.1863 40.9757 11.2825C40.9757 14.7572 40.9757 18.2294 40.9757 21.7042C40.9757 21.9345 40.8605 22.0484 40.6275 22.0484C40.0538 22.0484 39.4776 22.0484 38.9039 22.0484C38.6684 22.0484 38.6659 22.0459 38.6659 21.8105C38.6659 20.0693 38.6659 18.3281 38.6659 16.587V11.3078C38.6659 11.2344 38.6634 11.1635 38.6659 11.0901C38.6684 11.0091 38.6308 10.9762 38.5506 10.9788C38.488 10.9813 38.4229 10.9788 38.3602 10.9788H34.7753C34.4997 10.9788 34.5147 11.0117 34.5147 10.7105C34.5147 10.2018 34.5172 9.69566 34.5122 9.18697C34.5122 9.05284 34.5398 8.97692 34.6926 8.99717C34.7452 9.00476 34.8028 8.99717 34.8579 8.99717C38.1774 8.99717 41.4993 8.99717 44.8187 8.99717C44.9265 8.99717 45.0367 8.97439 45.1595 9.03007L45.1545 9.03766Z" fill="#1B1B1B"/>
<path d="M68.3959 15.2658C68.0852 15.2658 67.7746 15.2658 67.4639 15.2658C67.3788 15.2658 67.3061 15.2658 67.281 15.1519C67.1382 14.4509 66.6272 14.1624 65.9808 14.051C65.4447 13.9574 64.9086 13.9852 64.385 14.1421C64.2372 14.1877 64.1019 14.2636 63.9716 14.3471C63.5457 14.623 63.5758 15.281 63.894 15.5619C64.1244 15.7644 64.3875 15.8985 64.6731 15.9997C65.2493 16.2047 65.8556 16.2958 66.4518 16.4249C66.9879 16.5413 67.514 16.678 68.0301 16.8627C68.4209 17.0044 68.7717 17.212 69.0723 17.4954C69.6811 18.0623 69.8639 18.7785 69.7838 19.5782C69.6886 20.5349 69.15 21.1954 68.3433 21.6687C67.737 22.023 67.0706 22.2027 66.3767 22.2811C65.4247 22.3874 64.4827 22.3444 63.5658 22.0356C62.9971 21.8433 62.4885 21.5523 62.0827 21.0992C61.5917 20.5551 61.3812 19.9022 61.3261 19.1885C61.3186 19.0898 61.3386 19.0265 61.4564 19.0392C61.4664 19.0392 61.4739 19.0392 61.4839 19.0392C62.0852 19.0392 62.6889 19.0392 63.2902 19.0392C63.3979 19.0392 63.4631 19.0594 63.4656 19.1809C63.4656 19.2442 63.4906 19.3049 63.5057 19.3657C63.6309 19.887 63.9366 20.254 64.4426 20.4539C64.7783 20.5855 65.1215 20.6614 65.4798 20.6665C65.9833 20.6741 66.4819 20.6285 66.9579 20.4488C67.4639 20.2565 67.717 19.8971 67.6919 19.4188C67.6794 19.1531 67.5767 18.9304 67.3712 18.7532C67.0456 18.4698 66.6522 18.3255 66.2439 18.2268C65.6677 18.0876 65.089 17.9737 64.5103 17.8396C64.0393 17.7308 63.5733 17.6093 63.1299 17.4144C62.6639 17.2094 62.2505 16.9361 61.9574 16.5084C61.1507 15.3392 61.5065 13.7524 62.7391 13.0033C63.3027 12.6616 63.9215 12.4921 64.5679 12.406C65.3695 12.2997 66.1687 12.3174 66.9604 12.5072C67.747 12.6945 68.4159 13.0716 68.912 13.722C69.2126 14.1143 69.3804 14.5597 69.4656 15.038C69.5057 15.2557 69.4957 15.2633 69.2652 15.2633C68.9721 15.2633 68.6815 15.2633 68.3884 15.2633L68.3959 15.2658Z" fill="#1B1B1B"/>
<path d="M57.8185 22.0179V20.7803C57.7258 20.8233 57.7033 20.8917 57.6632 20.9473C57.0394 21.8179 56.1826 22.2659 55.1154 22.3089C54.5843 22.3291 54.0607 22.2633 53.5496 22.1115C52.6552 21.8458 52.0916 21.2536 51.7909 20.3931C51.5955 19.8287 51.5304 19.2441 51.5279 18.6519C51.5204 16.7108 51.5254 14.7697 51.5279 12.8261C51.5279 12.6034 51.5279 12.6008 51.7458 12.6008C52.2945 12.6008 52.8406 12.6008 53.3893 12.6008C53.6749 12.6008 53.6398 12.5958 53.6398 12.8514C53.6398 14.6938 53.6398 16.5362 53.6398 18.3761C53.6398 18.6671 53.6498 18.9556 53.7049 19.2416C53.8628 20.0818 54.3287 20.5374 55.1755 20.6487C55.5764 20.7019 55.9797 20.669 56.3655 20.5348C57.1271 20.2716 57.5405 19.7149 57.7033 18.9506C57.7634 18.6646 57.7785 18.3761 57.7785 18.085C57.7785 16.3692 57.7785 14.6558 57.7785 12.94C57.7785 12.8767 57.7835 12.8134 57.7785 12.7502C57.7684 12.6388 57.8236 12.6084 57.9238 12.611C58.1142 12.6135 58.3071 12.611 58.5 12.611C58.9108 12.611 59.3217 12.6135 59.7325 12.611C59.8453 12.611 59.9079 12.6388 59.8929 12.7628C59.8879 12.816 59.8929 12.8716 59.8929 12.9273V21.7471C59.8929 21.9495 59.7927 22.0508 59.5897 22.0508C59.0962 22.0508 58.6052 22.0508 58.1117 22.0508C58.0215 22.0508 57.9288 22.0685 57.8261 22.0204L57.8185 22.0179Z" fill="#1C1C1C"/>
<path d="M111.874 20.4539C111.874 20.9651 111.874 21.4536 111.874 21.942C111.874 22.0356 111.829 22.066 111.744 22.0761C110.99 22.1622 110.236 22.2204 109.482 22.0812C109.204 22.0306 108.936 21.9395 108.693 21.7876C108.344 21.5674 108.131 21.2511 108.031 20.8563C107.929 20.4488 107.896 20.0338 107.896 19.6162C107.896 17.956 107.896 16.2958 107.896 14.6356V14.4711C107.893 14.1523 107.923 14.1902 107.623 14.1877C107.257 14.1877 106.894 14.1877 106.528 14.1877C106.313 14.1877 106.31 14.1852 106.308 13.9599C106.308 13.5778 106.308 13.1982 106.308 12.816C106.308 12.606 106.313 12.6034 106.513 12.6034C106.896 12.6034 107.28 12.6034 107.663 12.6034C107.868 12.6034 107.871 12.6009 107.871 12.3934C107.871 11.5936 107.871 10.7964 107.871 9.99672C107.871 9.77655 107.873 9.77402 108.091 9.77148C108.648 9.77148 109.204 9.77148 109.762 9.77148C109.97 9.77148 109.973 9.77402 109.973 9.97901C109.973 10.7231 109.973 11.4671 109.973 12.2112C109.973 12.2744 109.973 12.3377 109.973 12.401C109.978 12.5958 109.978 12.5984 110.171 12.6009C110.627 12.6034 111.083 12.6009 111.539 12.6009C111.601 12.6009 111.666 12.6034 111.729 12.6009C111.819 12.5958 111.862 12.6287 111.859 12.7249C111.857 13.1602 111.854 13.5955 111.859 14.0308C111.859 14.175 111.769 14.1624 111.679 14.1624C111.223 14.1624 110.767 14.1624 110.311 14.1624C109.933 14.1624 109.97 14.1194 109.97 14.4914C109.97 16.0529 109.97 17.6118 109.97 19.1733C109.97 19.3555 109.978 19.5352 109.993 19.7174C110.03 20.2135 110.268 20.464 110.764 20.4995C111.073 20.5222 111.386 20.5298 111.691 20.4691C111.734 20.459 111.782 20.459 111.867 20.4514L111.874 20.4539Z" fill="#1A1A1A"/>
<path d="M75.9416 20.4817C75.9416 20.8386 75.9441 21.2106 75.9416 21.5801C75.9416 21.7319 76.0042 21.9192 75.909 22.028C75.8113 22.1419 75.6159 22.0812 75.4631 22.1014C74.7992 22.1951 74.1328 22.2052 73.4764 22.066C72.5495 21.8686 72.1236 21.3827 72.0059 20.4185C71.9683 20.1122 71.9457 19.806 71.9482 19.4973C71.9507 17.8371 71.9482 16.1769 71.9482 14.5167C71.9482 14.4534 71.9432 14.3902 71.9482 14.3269C71.9583 14.2181 71.9057 14.1877 71.8029 14.1902C71.4372 14.1953 71.0739 14.1902 70.7082 14.1902C70.6455 14.1902 70.5804 14.1852 70.5178 14.1902C70.395 14.2029 70.3599 14.1472 70.3624 14.0308C70.3674 13.7853 70.3624 13.5398 70.3624 13.2969C70.3624 13.1425 70.3624 12.9881 70.3624 12.8337C70.3624 12.606 70.3649 12.6034 70.6054 12.6034C70.9787 12.6034 71.3545 12.6034 71.7278 12.6034C71.9307 12.6034 71.9357 12.5984 71.9357 12.3883C71.9357 11.6265 71.9357 10.8648 71.9357 10.103C71.9357 10.0397 71.9407 9.97648 71.9357 9.91321C71.9257 9.80691 71.9733 9.77148 72.0785 9.77148C72.3892 9.77655 72.6998 9.77148 73.0105 9.77148C73.2835 9.77148 73.5591 9.77148 73.8322 9.77148C74.0251 9.77148 74.0276 9.77655 74.0301 9.96382C74.0301 10.6724 74.0301 11.3785 74.0301 12.0871C74.0301 12.1783 74.0301 12.2694 74.0301 12.3605C74.0301 12.6034 74.0301 12.6034 74.2906 12.6034C74.7391 12.6034 75.185 12.6034 75.6309 12.6034C75.6861 12.6034 75.7412 12.6034 75.7963 12.6034C75.8865 12.6009 75.9266 12.6414 75.9266 12.7325C75.9266 13.1678 75.9241 13.6031 75.9266 14.0384C75.9266 14.1826 75.8263 14.1649 75.7387 14.1649C75.2827 14.1649 74.8268 14.1649 74.3708 14.1649C74.3082 14.1649 74.243 14.1674 74.1804 14.1649C74.0802 14.1599 74.0251 14.1953 74.0326 14.3041C74.0376 14.3573 74.0326 14.4129 74.0326 14.4686V19.1505C74.0326 19.3581 74.0351 19.5681 74.0677 19.7757C74.1428 20.2666 74.3608 20.4792 74.8593 20.507C75.16 20.5222 75.4606 20.5298 75.7587 20.4741C75.8113 20.464 75.8639 20.4463 75.9416 20.4843V20.4817Z" fill="#1B1B1B"/>
<path d="M94.4655 15.5289C94.4655 17.6066 94.4655 19.6819 94.4655 21.7597C94.4655 22.0912 94.5081 22.0482 94.1774 22.0507C93.6388 22.0507 93.1002 22.0507 92.5616 22.0507C92.3737 22.0507 92.3687 22.0456 92.3687 21.8533C92.3687 21.2636 92.3687 20.674 92.3687 20.0843C92.3687 16.4931 92.3687 12.9019 92.3687 9.30823C92.3687 8.97163 92.3186 9.00453 92.6718 9.002C93.1929 9.002 93.7115 9.002 94.2326 9.002C94.4856 9.002 94.4655 8.98682 94.4655 9.24243V15.5263V15.5289Z" fill="#1A1A1A"/>
<path d="M46.6528 14.3472C46.8532 13.9119 47.1162 13.5373 47.457 13.2159C48.2085 12.5149 49.0879 12.2137 50.1175 12.3833C50.2077 12.3985 50.2653 12.4111 50.2628 12.5275C50.2553 13.1349 50.2578 13.7423 50.2553 14.3497C50.2553 14.3649 50.2403 14.3826 50.2302 14.4003C50.0248 14.3775 49.8169 14.3497 49.6089 14.3345C48.657 14.2636 47.8954 14.6002 47.3567 15.3949C46.9233 16.0352 46.778 16.7565 46.778 17.5132C46.778 18.9101 46.778 20.3071 46.778 21.7041V21.9876C46.7054 22.0635 46.6277 22.0382 46.5601 22.0382C46.0114 22.0407 45.4653 22.0382 44.9166 22.0382C44.631 22.0382 44.6736 22.0357 44.6736 21.7826C44.6736 19.3429 44.6736 16.9007 44.6736 14.461C44.6736 13.9068 44.6736 13.3551 44.6736 12.8008C44.6736 12.606 44.6786 12.6009 44.864 12.6009C45.3926 12.6009 45.9237 12.6009 46.4523 12.6009C46.6453 12.6009 46.6478 12.6034 46.6478 12.7907C46.6478 13.307 46.6478 13.8258 46.6478 14.3421L46.6528 14.3472Z" fill="#1B1B1B"/>
<path d="M90.5071 17.3536V21.7369C90.5071 21.8002 90.5046 21.8634 90.5071 21.9267C90.5147 22.0229 90.462 22.0533 90.3744 22.0507C90.2466 22.0482 90.1188 22.0507 89.9911 22.0507C89.5176 22.0507 89.0416 22.0482 88.5681 22.0507C88.4554 22.0507 88.3952 22.0229 88.4078 21.8989C88.4128 21.8457 88.4078 21.7901 88.4078 21.7344V12.9146C88.4078 12.8691 88.4128 12.8235 88.4078 12.778C88.3877 12.6312 88.4554 12.5957 88.5931 12.5983C89.1593 12.6059 89.7255 12.5983 90.2917 12.6008C90.5046 12.6008 90.5046 12.6033 90.5046 12.8311C90.5046 14.3369 90.5046 15.8427 90.5046 17.3511L90.5071 17.3536Z" fill="#1A1A1A"/>
<path d="M24.9726 16.6476C24.7121 16.7817 24.419 16.8146 24.1409 16.888C22.738 17.2549 21.33 17.6118 19.9271 17.9762C19.8469 17.9965 19.7718 18.0268 19.6866 17.999C19.6841 17.9079 19.7617 17.8851 19.8169 17.8446C21.1246 16.8981 22.4323 15.9491 23.7451 15.0101C23.9355 14.876 24.1033 14.7014 24.3363 14.6331C24.5342 15.243 24.7296 15.8529 24.9275 16.4628C24.9476 16.5235 24.9576 16.5843 24.9751 16.645L24.9726 16.6476Z" fill="#01542A"/>
<path d="M89.4499 10.9838C89.1593 10.9838 88.8662 10.9838 88.5756 10.9838C88.4703 10.9838 88.4077 10.9737 88.4077 10.8395C88.4127 10.2701 88.4127 9.69816 88.4077 9.12874C88.4077 9.0351 88.4428 9.0022 88.5355 9.0022C89.1468 9.0022 89.7555 9.0022 90.3668 9.0022C90.4745 9.0022 90.5071 9.04269 90.5071 9.14645C90.5046 9.70828 90.5021 10.2701 90.5071 10.832C90.5071 10.9534 90.4645 10.9889 90.3493 10.9863C90.0486 10.9813 89.748 10.9863 89.4474 10.9863L89.4499 10.9838Z" fill="#1B1B1B"/>
</g>
<path d="M22.4366 30H8V44.5838H22.4366V30Z" fill="#00B67A"/>
<path d="M38.0773 30H23.6406V44.5838H38.0773V30Z" fill="#00B67A"/>
<path d="M53.7179 30H39.2812V44.5838H53.7179V30Z" fill="#00B67A"/>
<path d="M69.359 30H54.9224V44.5838H69.359V30Z" fill="#00B67A"/>
<path d="M85 30H77.7803V44.5838H85V30Z" fill="#DCDCE6"/>
<path d="M77.7827 30H70.563V44.5838H77.7827V30Z" fill="#00B67A"/>
<path d="M15.2193 39.828L17.4152 39.2666L18.3333 42.1234L15.2193 39.828ZM20.2731 36.1374H16.4071L15.2193 32.4604L14.0315 36.1374H10.1655L13.2931 38.4162L12.1053 42.0931L15.2329 39.8143L17.1591 38.4162L20.2731 36.1374Z" fill="white"/>
<path d="M30.8607 39.828L33.0566 39.2666L33.9747 42.1234L30.8607 39.828ZM35.9117 36.1374H32.0458L30.858 32.4604L29.6701 36.1374H25.8042L28.9318 38.4162L27.744 42.0931L30.8716 39.8143L32.7978 38.4162L35.9117 36.1374Z" fill="white"/>
<path d="M46.5013 39.828L48.6972 39.2666L49.6153 42.1234L46.5013 39.828ZM51.5524 36.1374H47.6864L46.4986 32.4604L45.3108 36.1374H41.4448L44.5724 38.4162L43.3846 42.0931L46.5122 39.8143L48.4384 38.4162L51.5524 36.1374Z" fill="white"/>
<path d="M62.1392 39.828L64.3351 39.2666L65.2532 42.1234L62.1392 39.828ZM67.193 36.1374H63.3271L62.1392 32.4604L60.9514 36.1374H57.0854L60.2131 38.4162L59.0252 42.0931L62.1528 39.8143L64.079 38.4162L67.193 36.1374Z" fill="white"/>
<path d="M77.7803 39.828L79.9762 39.2666L80.8943 42.1234L77.7803 39.828ZM82.8341 36.1374H78.9682L77.7803 32.4604L76.5925 36.1374H72.7266L75.8542 38.4162L74.6663 42.0931L77.794 39.8143L79.7201 38.4162L82.8341 36.1374Z" fill="white"/>
<path d="M93.28 42.9V41.71L96.71 35.2H98.11L94.68 41.71H98.39V39.19H98.46H99.65V41.71H101.12V42.9H99.65V45H98.39V42.9H93.28ZM102.057 44.972C101.899 44.8133 101.819 44.6127 101.819 44.37C101.819 44.1273 101.899 43.9267 102.057 43.768C102.216 43.6093 102.417 43.53 102.659 43.53C102.902 43.53 103.103 43.6093 103.261 43.768C103.42 43.9267 103.499 44.1273 103.499 44.37C103.499 44.6127 103.42 44.8133 103.261 44.972C103.103 45.1307 102.902 45.21 102.659 45.21C102.417 45.21 102.216 45.1307 102.057 44.972ZM104.269 36.39V35.2H110.779V36.39L106.719 45H105.389L109.449 36.404V36.39H104.269Z" fill="black"/>
</g>
<defs>
<clipPath id="clip0_153_230">
<rect width="105" height="45" fill="white" transform="translate(7)"/>
</clipPath>
</defs>
</svg>
