<svg width="418" height="174" viewBox="0 0 418 174" fill="none" xmlns="http://www.w3.org/2000/svg">
<g clip-path="url(#clip0_44_137)">
<mask id="mask0_44_137" style="mask-type:luminance" maskUnits="userSpaceOnUse" x="0" y="0" width="328" height="80">
<path d="M327.145 0H0V79.3741H327.145V0Z" fill="white"/>
</mask>
<g mask="url(#mask0_44_137)">
<path d="M56.0637 51.7261C57.1734 55.0602 58.2831 58.4022 59.385 61.7363C60.5963 65.4007 61.7919 69.073 62.9876 72.7373C63.0579 72.9497 63.1908 73.1462 63.1439 73.4686C62.9251 73.335 62.7297 73.2327 62.5422 73.0991C54.993 67.6732 47.4361 62.2396 39.8869 56.8059C39.7463 56.7037 39.5978 56.6172 39.4806 56.4992C39.168 56.2083 38.9101 56.2791 38.5897 56.515C37.1049 57.608 35.6044 58.6774 34.104 59.7469C27.8912 64.2212 21.6784 68.6876 15.4578 73.1541C15.3015 73.2642 15.153 73.4136 14.8716 73.4451C15.1295 72.6508 15.364 71.8724 15.6219 71.1096C18.3492 62.8136 21.0844 54.5176 23.8118 46.2216C24.0775 45.4196 24.0697 45.4196 23.3898 44.932C15.8641 39.5141 8.33843 34.0961 0.812743 28.6782C0.570483 28.4973 0.328223 28.3086 0 28.0648C0.382927 27.9154 0.687706 27.9705 0.976855 27.9705C10.2296 27.9705 19.4824 27.9862 28.7274 27.9941C29.9387 27.9941 29.7042 28.1356 30.0715 27.0426C32.963 18.2669 35.8545 9.49128 38.746 0.707765C38.8241 0.47186 38.9023 0.235956 38.9882 -0.0078125C39.3165 0.204502 39.3165 0.542632 39.4102 0.825717C42.0517 8.85434 44.6774 16.8908 47.3032 24.9195C47.5846 25.7766 47.8893 26.6258 48.1394 27.4908C48.2566 27.8997 48.4755 28.0019 48.874 27.9941C50.7261 27.9783 52.5782 27.9941 54.4225 27.9941H77.953C77.9687 28.0413 77.9843 28.0884 77.9999 28.1435C77.6717 28.3873 77.3591 28.6467 77.0231 28.8827C69.5677 34.2456 62.1045 39.6085 54.6492 44.9792C54.446 45.1286 54.2584 45.3016 54.0631 45.4668C53.3363 45.6791 52.8049 46.2138 52.2188 46.6384C48.1238 49.5558 44.0444 52.5046 39.9651 55.4455C39.7932 55.5713 39.5509 55.6343 39.5587 55.9252C39.8244 56.0038 40.0589 55.9173 40.3089 55.8544C44.6931 54.7221 49.0772 53.6055 53.4535 52.4731C54.3288 52.2451 55.2353 52.1507 56.048 51.7261H56.0637Z" fill="#01B67A"/>
<path d="M226.161 64.8425V78.6193C226.161 79.3113 226.302 79.3742 225.435 79.3663C223.7 79.3663 221.965 79.3663 220.23 79.3663C219.636 79.3663 219.636 79.3506 219.62 78.753C219.62 78.6665 219.62 78.58 219.62 78.5013V40.0331C219.62 39.8916 219.628 39.7501 219.62 39.6085C219.597 39.3018 219.699 39.1524 220.042 39.1524C221.809 39.1682 223.575 39.1682 225.333 39.1524C225.716 39.1524 225.81 39.3097 225.81 39.6557C225.794 40.7487 225.81 41.8496 225.81 42.919C225.95 42.9977 225.997 42.9269 226.044 42.8561C227.459 40.4027 229.694 39.1446 232.405 38.6177C235 38.1145 237.571 38.256 240.064 39.121C243.057 40.159 245.316 42.0934 246.839 44.8613C249.778 50.1849 249.715 58.2293 246.628 63.4585C244.362 67.2959 240.947 69.246 236.446 69.3246C234.344 69.3561 232.312 69.0337 230.389 68.1687C228.936 67.516 227.709 66.5881 226.716 65.3536C226.583 65.1884 226.505 64.9604 226.177 64.8425H226.161ZM225.958 53.7864C225.958 55.8702 226.216 57.4115 226.849 58.9999C228.357 62.8137 231.858 64.7874 235.907 64.0404C238.517 63.5528 240.244 61.9015 241.33 59.5896C242.432 57.2463 242.549 54.7457 242.315 52.2294C242.158 50.5624 241.713 48.9582 240.838 47.5035C239.165 44.7041 236.743 43.3044 233.406 43.5403C230.038 43.784 227.928 45.6005 226.779 48.6515C226.154 50.3107 225.927 52.0328 225.943 53.7943L225.958 53.7864Z" fill="#1B1B1B"/>
<path d="M307.826 53.7157C307.857 56.1691 307.49 58.4102 306.638 60.5569C304.997 64.7167 301.996 67.4453 297.675 68.6799C294.135 69.6864 290.579 69.6314 287.109 68.3732C283.014 66.887 280.232 64.0483 278.872 59.9357C277.403 55.4614 277.465 50.9949 279.31 46.6307C281.146 42.2743 284.569 39.7187 289.172 38.7279C292.196 38.0752 295.236 38.1696 298.183 39.1682C303.083 40.8196 306.037 44.2481 307.287 49.1785C307.678 50.7118 307.873 52.2767 307.826 53.7236V53.7157ZM301.309 53.7943C301.332 53.1102 301.238 52.4418 301.137 51.7734C300.887 50.0277 300.371 48.3843 299.37 46.8981C296.385 42.4788 289.875 42.4237 286.773 46.3791C285.609 47.8653 284.983 49.5559 284.663 51.3802C284.186 54.1718 284.413 56.9004 285.64 59.4639C287.086 62.4914 289.485 64.237 292.962 64.1899C296.393 64.1427 298.714 62.3734 300.144 59.3696C300.98 57.6081 301.254 55.7209 301.309 53.7943Z" fill="#1B1B1B"/>
<path d="M119.02 28.0811C119.02 29.9447 119.02 31.8319 119.02 33.7113C119.02 33.9944 118.934 34.136 118.629 34.1202C118.434 34.1124 118.23 34.1202 118.035 34.1202H106.063C105.938 34.4505 105.985 34.7572 105.985 35.056C105.985 45.8526 105.985 56.6413 105.985 67.4378C105.985 68.1534 105.625 68.5073 104.898 68.5073C103.109 68.5073 101.311 68.5073 99.5217 68.5073C98.7871 68.5073 98.7793 68.4994 98.7793 67.7681C98.7793 62.358 98.7793 56.9479 98.7793 51.5379V35.1346C98.7793 34.9066 98.7715 34.6864 98.7793 34.4584C98.7871 34.2067 98.6699 34.1045 98.4198 34.1124C98.2244 34.1202 98.0212 34.1124 97.8259 34.1124H86.6428C85.7832 34.1124 85.8301 34.2146 85.8301 33.2788C85.8301 31.6983 85.8379 30.1256 85.8223 28.545C85.8223 28.1282 85.9082 27.8923 86.3849 27.9552C86.549 27.9788 86.7288 27.9552 86.9007 27.9552C97.2554 27.9552 107.618 27.9552 117.973 27.9552C118.309 27.9552 118.652 27.8845 119.035 28.0575L119.02 28.0811Z" fill="#1B1B1B"/>
<path d="M191.518 47.4328C190.549 47.4328 189.58 47.4328 188.611 47.4328C188.345 47.4328 188.119 47.4328 188.041 47.0789C187.595 44.9007 186.001 44.0043 183.985 43.6583C182.312 43.3673 180.64 43.4538 179.007 43.9414C178.546 44.0829 178.124 44.3188 177.717 44.5783C176.389 45.4354 176.483 47.48 177.475 48.3528C178.194 48.9819 179.015 49.3986 179.905 49.7132C181.703 50.3501 183.594 50.6332 185.454 51.0343C187.126 51.396 188.767 51.8206 190.377 52.3946C191.596 52.835 192.691 53.4798 193.628 54.3605C195.527 56.1219 196.098 58.3473 195.848 60.8322C195.551 63.8046 193.871 65.8569 191.354 67.3274C189.463 68.4283 187.384 68.9866 185.22 69.2304C182.25 69.5606 179.311 69.427 176.451 68.4676C174.677 67.87 173.091 66.9657 171.825 65.5581C170.293 63.8675 169.637 61.8387 169.465 59.6212C169.441 59.3145 169.504 59.1179 169.871 59.1572C169.902 59.1572 169.926 59.1572 169.957 59.1572C171.833 59.1572 173.716 59.1572 175.592 59.1572C175.928 59.1572 176.131 59.2201 176.139 59.5976C176.139 59.7942 176.217 59.9829 176.264 60.1716C176.654 61.7915 177.608 62.9317 179.186 63.5529C180.234 63.9618 181.304 64.1977 182.422 64.2135C183.993 64.2371 185.548 64.0955 187.033 63.5372C188.611 62.9396 189.4 61.823 189.322 60.3368C189.283 59.5111 188.963 58.8191 188.322 58.2687C187.306 57.388 186.079 56.9397 184.805 56.6331C183.008 56.2006 181.203 55.8467 179.397 55.4299C177.928 55.0918 176.475 54.7144 175.091 54.1089C173.638 53.4719 172.348 52.6227 171.434 51.2937C168.918 47.6608 170.027 42.7304 173.872 40.4028C175.631 39.3412 177.561 38.8144 179.577 38.547C182.078 38.2168 184.571 38.2718 187.04 38.8616C189.494 39.4435 191.581 40.6151 193.128 42.636C194.066 43.8549 194.59 45.2389 194.855 46.7251C194.98 47.4013 194.949 47.4249 194.23 47.4249C193.316 47.4249 192.409 47.4249 191.495 47.4249L191.518 47.4328Z" fill="#1B1B1B"/>
<path d="M158.524 68.4124V64.5672C158.235 64.7008 158.165 64.9132 158.04 65.0862C156.094 67.7912 153.421 69.183 150.092 69.3167C148.435 69.3796 146.802 69.1752 145.208 68.7034C142.418 67.8777 140.659 66.0376 139.722 63.364C139.112 61.6105 138.909 59.794 138.901 57.954C138.878 51.9227 138.893 45.8914 138.901 39.8522C138.901 39.1602 138.901 39.1524 139.581 39.1524C141.292 39.1524 142.996 39.1524 144.707 39.1524C145.598 39.1524 145.489 39.1366 145.489 39.9309C145.489 45.6555 145.489 51.3801 145.489 57.0968C145.489 58.0012 145.52 58.8976 145.692 59.7862C146.184 62.3968 147.638 63.8123 150.279 64.1583C151.53 64.3234 152.788 64.2212 153.992 63.8044C156.367 62.9866 157.657 61.2566 158.165 58.8819C158.352 57.9933 158.399 57.0968 158.399 56.1925C158.399 50.8611 158.399 45.5375 158.399 40.2061C158.399 40.0095 158.415 39.8129 158.399 39.6163C158.368 39.2703 158.54 39.176 158.852 39.1838C159.446 39.1917 160.048 39.1838 160.65 39.1838C161.931 39.1838 163.213 39.1917 164.495 39.1838C164.846 39.1838 165.042 39.2703 164.995 39.6556C164.979 39.8208 164.995 39.9938 164.995 40.1668V67.571C164.995 68.2001 164.682 68.5146 164.049 68.5146C162.51 68.5146 160.978 68.5146 159.438 68.5146C159.157 68.5146 158.868 68.5697 158.548 68.4203L158.524 68.4124Z" fill="#1C1C1C"/>
<path d="M327.145 63.5531C327.145 65.1415 327.145 66.6592 327.145 68.1768C327.145 68.4678 327.004 68.5622 326.738 68.5936C324.386 68.861 322.034 69.0418 319.682 68.6093C318.814 68.4521 317.978 68.169 317.22 67.6972C316.134 67.0131 315.469 66.0301 315.157 64.8034C314.836 63.5374 314.735 62.2478 314.735 60.9503C314.735 55.7919 314.735 50.6334 314.735 45.475V44.9638C314.727 43.973 314.821 44.091 313.883 44.0831C312.742 44.0831 311.609 44.0831 310.468 44.0831C309.796 44.0831 309.788 44.0753 309.78 43.3754C309.78 42.188 309.78 41.0085 309.78 39.8211C309.78 39.1684 309.796 39.1606 310.421 39.1606C311.617 39.1606 312.812 39.1606 314.008 39.1606C314.649 39.1606 314.657 39.1527 314.657 38.5079C314.657 36.023 314.657 33.546 314.657 31.0612C314.657 30.3771 314.665 30.3692 315.344 30.3613C317.079 30.3613 318.814 30.3613 320.557 30.3613C321.206 30.3613 321.213 30.3692 321.213 31.0061C321.213 33.318 321.213 35.6299 321.213 37.9417C321.213 38.1383 321.213 38.3349 321.213 38.5315C321.229 39.137 321.229 39.1448 321.831 39.1527C323.253 39.1606 324.675 39.1527 326.098 39.1527C326.293 39.1527 326.496 39.1606 326.692 39.1527C326.973 39.137 327.106 39.2392 327.098 39.538C327.09 40.8905 327.082 42.2431 327.098 43.5956C327.098 44.0438 326.817 44.0045 326.535 44.0045C325.113 44.0045 323.691 44.0045 322.268 44.0045C321.088 44.0045 321.206 43.8708 321.206 45.0267C321.206 49.8785 321.206 54.7224 321.206 59.5742C321.206 60.1404 321.229 60.6987 321.276 61.2648C321.393 62.8061 322.136 63.5846 323.683 63.6947C324.644 63.7654 325.621 63.789 326.574 63.6003C326.707 63.5688 326.856 63.5688 327.121 63.5452L327.145 63.5531Z" fill="#1A1A1A"/>
<path d="M215.056 63.6396C215.056 64.7484 215.064 65.9043 215.056 67.0524C215.056 67.5242 215.252 68.1061 214.955 68.4442C214.65 68.7981 214.04 68.6093 213.564 68.6722C211.493 68.9632 209.414 68.9947 207.367 68.5622C204.475 67.9488 203.147 66.439 202.779 63.443C202.662 62.4915 202.592 61.5401 202.6 60.5807C202.607 55.4223 202.6 50.2638 202.6 45.1054C202.6 44.9088 202.584 44.7122 202.6 44.5156C202.631 44.1775 202.467 44.0831 202.146 44.091C201.005 44.1067 199.872 44.091 198.731 44.091C198.536 44.091 198.333 44.0753 198.137 44.091C197.754 44.1303 197.645 43.9573 197.653 43.5956C197.668 42.8328 197.653 42.0701 197.653 41.3152C197.653 40.8355 197.653 40.3558 197.653 39.8761C197.653 39.1684 197.661 39.1606 198.411 39.1606C199.575 39.1606 200.747 39.1606 201.912 39.1606C202.545 39.1606 202.56 39.1448 202.56 38.4922C202.56 36.1253 202.56 33.7584 202.56 31.3914C202.56 31.1949 202.576 30.9983 202.56 30.8017C202.529 30.4714 202.678 30.3613 203.006 30.3613C203.975 30.3771 204.944 30.3613 205.913 30.3613C206.765 30.3613 207.624 30.3613 208.476 30.3613C209.078 30.3613 209.086 30.3771 209.094 30.959C209.094 33.1607 209.094 35.3546 209.094 37.5564C209.094 37.8395 209.094 38.1226 209.094 38.4057C209.094 39.1606 209.094 39.1606 209.906 39.1606C211.305 39.1606 212.696 39.1606 214.087 39.1606C214.259 39.1606 214.431 39.1606 214.603 39.1606C214.884 39.1527 215.009 39.2785 215.009 39.5616C215.009 40.9141 215.002 42.2667 215.009 43.6192C215.009 44.0674 214.697 44.0123 214.423 44.0123C213.001 44.0123 211.579 44.0123 210.156 44.0123C209.961 44.0123 209.758 44.0202 209.563 44.0123C209.25 43.9966 209.078 44.1067 209.101 44.4448C209.117 44.61 209.101 44.783 209.101 44.956V59.5034C209.101 60.1482 209.109 60.8009 209.211 61.4457C209.445 62.9712 210.125 63.6318 211.68 63.7183C212.618 63.7654 213.556 63.789 214.486 63.616C214.65 63.5846 214.814 63.5295 215.056 63.6475V63.6396Z" fill="#1B1B1B"/>
<path d="M272.84 48.2502C272.84 54.7061 272.84 61.1542 272.84 67.6101C272.84 68.6402 272.973 68.5065 271.941 68.5144C270.261 68.5144 268.581 68.5144 266.9 68.5144C266.314 68.5144 266.299 68.4987 266.299 67.9011C266.299 66.0689 266.299 64.2367 266.299 62.4045C266.299 51.2462 266.299 40.0879 266.299 28.9217C266.299 27.8759 266.142 27.9781 267.244 27.9703C268.87 27.9703 270.487 27.9703 272.113 27.9703C272.902 27.9703 272.84 27.9231 272.84 28.7173V48.2423V48.2502Z" fill="#1A1A1A"/>
<path d="M123.693 44.5782C124.319 43.2257 125.139 42.0619 126.202 41.0633C128.546 38.8851 131.289 37.9493 134.501 38.4762C134.783 38.5233 134.962 38.5627 134.955 38.9244C134.931 40.8116 134.939 42.6989 134.931 44.5861C134.931 44.6333 134.884 44.6883 134.853 44.7434C134.212 44.6726 133.564 44.5861 132.915 44.5389C129.945 44.3187 127.57 45.3646 125.889 47.8337C124.537 49.8232 124.084 52.0643 124.084 54.4155C124.084 58.7561 124.084 63.0968 124.084 67.4374V68.3181C123.858 68.554 123.615 68.4754 123.404 68.4754C121.693 68.4832 119.989 68.4754 118.278 68.4754C117.387 68.4754 117.52 68.4675 117.52 67.6812C117.52 60.1008 117.52 52.5125 117.52 44.9321C117.52 43.21 117.52 41.4957 117.52 39.7736C117.52 39.1682 117.535 39.1524 118.114 39.1524C119.763 39.1524 121.419 39.1524 123.068 39.1524C123.67 39.1524 123.678 39.1603 123.678 39.7422C123.678 41.3463 123.678 42.9584 123.678 44.5625L123.693 44.5782Z" fill="#1B1B1B"/>
<path d="M260.492 53.9199V67.5395C260.492 67.7361 260.484 67.9327 260.492 68.1293C260.516 68.4281 260.352 68.5224 260.078 68.5146C259.679 68.5067 259.281 68.5146 258.882 68.5146C257.405 68.5146 255.921 68.5067 254.444 68.5146C254.092 68.5146 253.904 68.4281 253.943 68.0428C253.959 67.8776 253.943 67.7046 253.943 67.5316V40.1274C253.943 39.9858 253.959 39.8443 253.943 39.7027C253.881 39.2467 254.092 39.1366 254.522 39.1444C256.288 39.168 258.054 39.1444 259.82 39.1523C260.484 39.1523 260.484 39.1602 260.484 39.8679C260.484 44.5466 260.484 49.2254 260.484 53.9121L260.492 53.9199Z" fill="#1A1A1A"/>
<path d="M56.0637 51.7261C55.251 52.1429 54.3366 52.2451 53.4692 52.4732C49.0929 53.6134 44.7009 54.7221 40.3246 55.8545C40.0746 55.9174 39.8401 56.0117 39.5744 55.9252C39.5666 55.6422 39.8088 55.5714 39.9808 55.4456C44.0601 52.5046 48.1395 49.5558 52.2344 46.6385C52.8284 46.2217 53.352 45.6791 54.0787 45.4668C54.6961 47.3619 55.3057 49.257 55.923 51.1521C55.9856 51.3408 56.0168 51.5295 56.0715 51.7183L56.0637 51.7261Z" fill="#01542A"/>
<path d="M257.194 34.1278C256.288 34.1278 255.373 34.1278 254.467 34.1278C254.139 34.1278 253.943 34.0964 253.943 33.6796C253.959 31.9103 253.959 30.1332 253.943 28.3639C253.943 28.0729 254.053 27.9707 254.342 27.9707C256.249 27.9707 258.148 27.9707 260.055 27.9707C260.391 27.9707 260.492 28.0965 260.492 28.4189C260.484 30.1646 260.477 31.9103 260.492 33.656C260.492 34.0335 260.359 34.1435 260 34.1357C259.062 34.12 258.124 34.1357 257.187 34.1357L257.194 34.1278Z" fill="#1B1B1B"/>
</g>
<path d="M55.0982 118.559H0V174H55.0982V118.559Z" fill="#00B67A"/>
<path d="M114.793 118.559H59.6943V174H114.793V118.559Z" fill="#00B67A"/>
<path d="M174.486 118.559H119.388V174H174.486V118.559Z" fill="#00B67A"/>
<path d="M234.18 118.559H179.082V174H234.18V118.559Z" fill="#00B67A"/>
<path d="M293.875 118.559H266.321V174H293.875V118.559Z" fill="#DCDCE6"/>
<path d="M266.331 118.559H238.776V174H266.331V118.559Z" fill="#00B67A"/>
<path d="M27.5546 155.92L35.9353 153.786L39.4394 164.646L27.5546 155.92ZM46.8426 141.89H32.0881L27.5546 127.912L23.0212 141.89H8.2666L20.2033 150.553L15.6699 164.531L27.6066 155.868L34.9579 150.553L46.8426 141.89Z" fill="white"/>
<path d="M87.2486 155.92L95.6293 153.786L99.1334 164.646L87.2486 155.92ZM106.526 141.89H91.7717L87.2382 127.912L82.7048 141.89H67.9502L79.8869 150.553L75.3535 164.531L87.2902 155.868L94.6415 150.553L106.526 141.89Z" fill="white"/>
<path d="M146.942 155.92L155.323 153.786L158.827 164.646L146.942 155.92ZM166.22 141.89H151.465L146.932 127.912L142.398 141.89H127.644L139.58 150.553L135.047 164.531L146.984 155.868L154.335 150.553L166.22 141.89Z" fill="white"/>
<path d="M206.626 155.92L215.007 153.786L218.511 164.646L206.626 155.92ZM225.914 141.89H211.159L206.626 127.912L202.092 141.89H187.338L199.275 150.553L194.741 164.531L206.678 155.868L214.029 150.553L225.914 141.89Z" fill="white"/>
<path d="M266.32 155.92L274.701 153.786L278.205 164.646L266.32 155.92ZM285.608 141.89H270.854L266.32 127.912L261.787 141.89H247.032L258.969 150.553L254.435 164.531L266.372 155.868L273.724 150.553L285.608 141.89Z" fill="white"/>
</g>
<defs>
<clipPath id="clip0_44_137">
<rect width="418" height="174" fill="white"/>
</clipPath>
</defs>
</svg>
