<?xml version="1.0" encoding="UTF-8"?>
<svg width="120px" height="60px" viewBox="0 0 120 60" version="1.1" xmlns="http://www.w3.org/2000/svg" xmlns:xlink="http://www.w3.org/1999/xlink">
    <title>Group 2</title>
    <defs>
        <rect id="path-1" x="0" y="0" width="120" height="60"></rect>
        <polygon id="path-3" points="108 0 0 0 0 27 108 27"></polygon>
    </defs>
    <g id="Page-1" stroke="none" stroke-width="1" fill="none" fill-rule="evenodd">
        <g id="Group-2">
            <mask id="mask-2" fill="white">
                <use xlink:href="#path-1"></use>
            </mask>
            <g id="Rectangle"></g>
            <g id="trustpilot" mask="url(#mask-2)">
                <g transform="translate(5.000000, 1.000000)">
                    <g id="Clipped" stroke-width="1" fill="none" fill-rule="evenodd">
                        <mask id="mask-4" fill="white">
                            <use xlink:href="#path-3"></use>
                        </mask>
                        <g id="Path"></g>
                        <g id="Group" mask="url(#mask-4)" fill-rule="nonzero">
                            <g transform="translate(0.000000, -0.002658)">
                                <path d="M18.5082444,17.5978769 C18.8745883,18.7320088 19.2409323,19.868828 19.6047013,21.0029599 C20.0045863,22.2494471 20.3992884,23.4986216 20.7940234,24.7450747 C20.8172315,24.817325 20.8611056,24.8841667 20.8456226,24.9938347 C20.7733904,24.9483892 20.7088832,24.9135907 20.6469841,24.8681451 C18.1547754,23.0224637 15.6600248,21.1741631 13.1678161,19.3258284 C13.1214,19.2910639 13.0723759,19.26164 13.0336848,19.2215009 C12.9304865,19.122548 12.8453463,19.1466314 12.739573,19.2268755 C12.2493977,19.5986718 11.7540393,19.9624404 11.258714,20.3262429 C9.20768956,21.8482268 7.15666509,23.3675234 5.10306561,24.886854 C5.05146648,24.9243058 5.00244234,24.9751259 4.90954409,24.9858409 C4.99468431,24.7156508 5.07209953,24.4508692 5.15723976,24.1913941 C6.05760015,21.3694157 6.96056856,18.5474372 7.86096196,15.7254588 C7.94867719,15.4526494 7.94610219,15.4526494 7.72164759,15.2867867 C5.23719696,13.4438266 2.75275624,11.6008325 0.268309905,9.75787237 C0.188332892,9.69633719 0.108355879,9.63214874 0,9.54921741 C0.126415247,9.4983973 0.227031585,9.51714019 0.32248801,9.51714019 C3.377086,9.51714019 6.43170215,9.52248073 9.48374329,9.525168 C9.88362836,9.525168 9.80621315,9.57330083 9.92746947,9.20150449 C10.882037,6.21635064 11.8366046,3.23122401 12.7911721,0.243411799 C12.8169552,0.163166039 12.8427712,0.0829206189 12.8711293,0 C12.9795106,0.0722211842 12.9795106,0.187239937 13.0104437,0.283534509 C13.882479,3.01456165 14.7492983,5.74825463 15.6161506,8.47930795 C15.7090489,8.77086024 15.8096392,9.05972524 15.8922044,9.3539648 C15.9308955,9.49305677 16.0031607,9.52782126 16.134717,9.525168 C16.7461486,9.51979345 17.3575803,9.525168 17.9664369,9.525168 L25.7345336,9.525168 C25.7397166,9.54122362 25.7448666,9.55724522 25.7500167,9.57598811 C25.6416684,9.65891944 25.5384701,9.74715729 25.4275468,9.82743537 C22.9663042,11.6516866 20.5024867,13.4759378 18.0412771,15.3028423 C17.9741949,15.3536624 17.9122628,15.4125103 17.8477886,15.468705 C17.607851,15.5409213 17.4324205,15.7228055 17.238932,15.867238 C15.8870544,16.8596247 14.5403268,17.8626925 13.1936322,18.8630729 C13.136883,18.9058652 13.0568928,18.9272954 13.0594678,19.0262483 C13.1471831,19.052985 13.2245983,19.0235611 13.3071305,19.0021649 C14.7544813,18.6170002 16.2017992,18.2371761 17.6465421,17.8519774 C17.9355038,17.7744206 18.2347656,17.7423094 18.5030613,17.5978769 L18.5082444,17.5978769 Z" id="Path" fill="#01B67A"></path>
                                <path d="M74.662269,22.059569 L74.662269,26.7459037 C74.662269,26.9812954 74.7088172,27.0026915 74.4225955,27.0000043 C73.8498219,27.0000043 73.2770484,27.0000043 72.7042749,27.0000043 C72.5081783,27.0000043 72.5081783,26.9946637 72.5028963,26.7913833 C72.5028963,26.7619593 72.5028963,26.7325354 72.5028963,26.7057647 L72.5028963,13.6203703 C72.5028963,13.5722375 72.5055373,13.5241047 72.5028963,13.4759378 C72.4953033,13.3716104 72.5289764,13.3207903 72.6422106,13.3207903 C73.2255483,13.3261648 73.8085558,13.3261648 74.3889223,13.3207903 C74.5153617,13.3207903 74.5463938,13.3742976 74.5463938,13.4919935 C74.5411117,13.8637898 74.5463938,14.2382734 74.5463938,14.6020419 C74.5926118,14.6288126 74.6081279,14.6047292 74.6236439,14.5806458 C75.0907763,13.746094 75.8286142,13.318137 76.7235935,13.138906 C77.5802779,12.9677368 78.4290391,13.0158696 79.2520503,13.3101092 C80.2401259,13.6631967 80.985887,14.3212047 81.4886732,15.2627373 C82.4589219,17.0736202 82.4381238,19.8100141 81.419016,21.5887857 C80.6709441,22.8941208 79.5435541,23.5574695 78.0576442,23.5842062 C77.3637133,23.5949212 76.6928915,23.4852532 76.0580538,23.1910137 C75.5783766,22.9689904 75.1733085,22.6533547 74.8454905,22.2334255 C74.8015834,22.1772308 74.7758333,22.099674 74.6675511,22.059569 L74.662269,22.059569 Z M74.5952529,18.2987113 C74.5952529,19.0075395 74.6804261,19.5318301 74.8893977,20.0721424 C75.387232,21.3694497 76.543013,22.0408261 77.8797047,21.7867256 C78.741341,21.6208629 79.3114735,21.0591545 79.6699934,20.2727355 C80.0337954,19.4756355 80.0724205,18.625028 79.9951703,17.7690801 C79.9433401,17.2020311 79.7964328,16.6563443 79.50757,16.1615116 C78.9552645,15.2092639 78.1556924,14.7331401 77.0540525,14.8133842 C75.9421785,14.8962815 75.2456067,15.5141846 74.8662886,16.5520168 C74.6599581,17.1164125 74.5850189,17.7022043 74.5903009,18.3013985 L74.5952529,18.2987113 Z" id="Shape" fill="#1B1B1B"></path>
                                <path d="M101.622241,18.2746619 C101.632475,19.1092137 101.511318,19.8715493 101.230048,20.6017736 C100.688306,22.0167767 99.6975898,22.944941 98.271103,23.3649041 C97.1024469,23.7072765 95.9285088,23.6885676 94.7829617,23.2605767 C93.4310841,22.7550289 92.5126656,21.7894129 92.0636904,20.3904654 C91.5787311,18.8684815 91.5991991,17.3491509 92.2082868,15.8646188 C92.8144034,14.3827399 93.9444344,13.5134236 95.4640175,13.1763918 C96.4623271,12.9543685 97.4659188,12.9864797 98.4388085,13.3261648 C100.05644,13.8879072 101.03164,15.0541504 101.444301,16.7312818 C101.573382,17.2528512 101.637757,17.7851697 101.622241,18.2773491 L101.622241,18.2746619 Z M99.4707912,18.3013985 C99.4783842,18.0686942 99.4473521,17.8413303 99.4140091,17.6139665 C99.3314769,17.0201468 99.1611304,16.4611257 98.8306714,15.9555779 C97.8452368,14.4523029 95.6960981,14.43356 94.6720384,15.7790342 C94.2877684,16.284582 94.0811078,16.8596587 93.9754665,17.4802151 C93.8179951,18.4298094 93.8929343,19.3579737 94.2980024,20.2299773 C94.7753687,21.2598157 95.5673478,21.8536013 96.7152058,21.8375797 C97.8478779,21.8215241 98.6141069,21.2196767 99.0861911,20.1979 C99.3621789,19.5987058 99.4526342,18.9567534 99.4707912,18.3013985 Z" id="Shape" fill="#1B1B1B"></path>
                                <path d="M39.2919348,9.55476204 C39.2919348,10.1886867 39.2919348,10.8306392 39.2919348,11.4699384 C39.2919348,11.5662381 39.2635437,11.6144049 39.1628544,11.6090304 C39.0984793,11.6063771 39.031133,11.6090304 38.9667579,11.6090304 L35.0144554,11.6090304 C34.9731893,11.7213857 34.9887053,11.8257131 34.9887053,11.9273533 C34.9887053,15.5999392 34.9887053,19.2698379 34.9887053,22.9423897 C34.9887053,23.1858092 34.8698589,23.3061923 34.6298553,23.3061923 C34.0392548,23.3061923 33.4456831,23.3061923 32.8549836,23.3061923 C32.6124709,23.3061923 32.6098959,23.303505 32.6098959,23.054745 C32.6098959,21.2144382 32.6098959,19.3741313 32.6098959,17.5338585 L32.6098959,11.95409 C32.6098959,11.8765332 32.6073209,11.8016297 32.6098959,11.7240729 C32.6124709,11.6384543 32.5737798,11.6036898 32.4912146,11.6063771 C32.4267074,11.6090304 32.3596252,11.6063771 32.2951511,11.6063771 L28.6032872,11.6063771 C28.3195085,11.6063771 28.3349915,11.6411416 28.3349915,11.3228186 C28.3349915,10.7851936 28.3375665,10.2502219 28.3324165,9.71256288 C28.3324165,9.57078364 28.3607746,9.49053958 28.518147,9.51193573 C28.5723211,9.51996353 28.6316783,9.51193573 28.6884275,9.51193573 C32.1068126,9.51193573 35.5278057,9.51193573 38.9462899,9.51193573 C39.0572132,9.51193573 39.1704474,9.48788632 39.2968867,9.54673423 L39.2919348,9.55476204 Z" id="Path" fill="#1B1B1B"></path>
                                <path d="M63.2256156,16.1374622 C62.9057207,16.1374622 62.5858259,16.1374622 62.265931,16.1374622 C62.1781167,16.1374622 62.1035076,16.1374622 62.0777576,16.0170791 C61.9305201,15.2761397 61.4042947,14.971219 60.738755,14.8535232 C60.1864494,14.7545363 59.634474,14.7839602 59.0953736,14.9498229 C58.9431842,14.9979557 58.8038698,15.0781998 58.6695074,15.1664717 C58.2310963,15.4580239 58.2621284,16.1535178 58.5896162,16.4504106 C58.8269789,16.6644061 59.0980146,16.8061513 59.3918293,16.9131661 C59.985401,17.1298149 60.6096746,17.2261145 61.2237143,17.3625532 C61.7756897,17.4855896 62.3174311,17.6300221 62.8489385,17.8252747 C63.2513656,17.9750818 63.6128567,18.1944178 63.9221874,18.4939979 C64.5491021,19.0931581 64.7376056,19.8501531 64.6550734,20.69542 C64.5570252,21.7065156 64.0024087,22.4046287 63.1714744,22.9048359 C62.5472008,23.2793195 61.8608629,23.4692316 61.1464641,23.552163 C60.1659814,23.6644842 59.1957328,23.6190387 58.2515643,23.2926879 C57.6659157,23.0894075 57.1423314,22.7817996 56.7243883,22.3029885 C56.2186309,21.7279117 56.0020664,21.0377924 55.9452842,20.2834846 C55.9373611,20.1791571 55.9581592,20.1122814 56.0793165,20.1256498 C56.0895505,20.1256498 56.0974736,20.1256498 56.1077076,20.1256498 C56.7270293,20.1256498 57.3486619,20.1256498 57.9679836,20.1256498 C58.0789069,20.1256498 58.1459231,20.1470459 58.1485641,20.2754568 C58.1485641,20.3423325 58.1743141,20.406521 58.1898302,20.4707094 C58.3185804,21.0217368 58.6335234,21.4095887 59.1544667,21.620897 C59.5004417,21.7599889 59.8536796,21.840233 60.2227636,21.8456075 C60.741396,21.8536353 61.2547464,21.8054685 61.7449877,21.6155564 C62.265931,21.412276 62.5264027,21.0324519 62.5006526,20.5269041 C62.4877776,20.2460329 62.3821364,20.0106412 62.1705238,19.8234164 C61.8351129,19.5238363 61.4300448,19.371342 61.0094606,19.2670485 C60.4162191,19.1199288 59.8203365,18.9995457 59.2241239,18.8577664 C58.7391646,18.7427579 58.2594874,18.614381 57.8025891,18.4084133 C57.3229119,18.1917305 56.8970457,17.9028655 56.5953079,17.4507911 C55.7647037,16.215019 56.1308166,14.5378875 57.400162,13.746128 C57.9808586,13.3850127 58.6180073,13.2058157 59.2835471,13.1148566 C60.1091993,13.0025353 60.9322105,13.0212442 61.7472986,13.2218713 C62.5574348,13.4198112 63.2464137,13.8183442 63.757123,14.5057763 C64.0667838,14.9203989 64.2397714,15.3911822 64.3272555,15.89673 C64.3685216,16.1267471 64.3582876,16.1347749 64.120925,16.1347749 C63.8191872,16.1347749 63.5197604,16.1347749 63.2180226,16.1347749 L63.2256156,16.1374622 Z" id="Path" fill="#1B1B1B"></path>
                                <path d="M52.3333445,23.273911 L52.3333445,21.9659226 C52.2379373,22.0113682 52.2148283,22.0836184 52.1735622,22.1424663 C51.5311315,23.0626028 50.6486971,23.5360393 49.5496981,23.5815189 C49.0026747,23.602915 48.4635743,23.533386 47.9373489,23.3728979 C47.0162894,23.0920267 46.4355928,22.4660958 46.1262621,21.5566405 C45.9248835,20.9601676 45.8578673,20.3422645 45.8552263,19.7163677 C45.8476333,17.6647526 45.8525852,15.6131375 45.8552263,13.5588352 C45.8552263,13.3234435 45.8552263,13.3207824 46.0797139,13.3207824 C46.6445643,13.3207824 47.2071039,13.3207824 47.7719543,13.3207824 C48.0660991,13.3207824 48.0301151,13.3154157 48.0301151,13.5856059 C48.0301151,15.5328934 48.0301151,17.480181 48.0301151,19.4247814 C48.0301151,19.7324233 48.0403491,20.0373439 48.0971312,20.3396113 C48.2595546,21.2276364 48.739562,21.7091348 49.6114322,21.8268306 C50.0244234,21.8829913 50.4397255,21.8482268 50.8372006,21.7064475 C51.6212566,21.4282636 52.0471228,20.8397845 52.2148283,20.0320034 C52.2765624,19.729736 52.2920784,19.4247814 52.2920784,19.1171735 C52.2920784,17.3036373 52.2920784,15.4927544 52.2920784,13.6792183 C52.2920784,13.6123425 52.2973605,13.5454668 52.2920784,13.4785911 C52.2818444,13.3608953 52.3386266,13.3288181 52.4416268,13.3314713 C52.6377233,13.3341586 52.8364609,13.3314713 53.0351985,13.3314713 C53.4580935,13.3314713 53.8813187,13.3341586 54.3045439,13.3314713 C54.4204191,13.3314713 54.4851243,13.3608953 54.4696083,13.4919594 C54.4643262,13.5481541 54.4696083,13.607002 54.4696083,13.6658499 L54.4696083,22.9876992 C54.4696083,23.2016947 54.366278,23.3086755 54.1573064,23.3086755 C53.6492381,23.3086755 53.1434807,23.3086755 52.6350823,23.3086755 C52.5423161,23.3086755 52.4469089,23.3274184 52.3412676,23.2765983 L52.3333445,23.273911 Z" id="Path" fill="#1C1C1C"></path>
                                <path d="M108,21.620965 C108,22.1612773 108,22.6775401 108,23.193769 C108,23.2927559 107.953452,23.3248671 107.865638,23.3355482 C107.089175,23.4265074 106.312711,23.4880085 105.536248,23.3408887 C105.249697,23.2874154 104.973709,23.1911157 104.723471,23.0306276 C104.364951,22.7979232 104.145416,22.4635446 104.042415,22.0462687 C103.936444,21.6156245 103.903101,21.1769524 103.903101,20.7355931 C103.903101,18.9809048 103.903101,17.2261826 103.903101,15.4714943 L103.903101,15.2976038 C103.90046,14.960572 103.931492,15.000711 103.621831,14.9980238 C103.245154,14.9980238 102.871118,14.9980238 102.494441,14.9980238 C102.272595,14.9980238 102.269954,14.9953705 102.267313,14.7572916 C102.267313,14.353384 102.267313,13.9521637 102.267313,13.5482561 C102.267313,13.3262328 102.272595,13.3235796 102.478925,13.3235796 C102.873759,13.3235796 103.268263,13.3235796 103.663097,13.3235796 C103.87471,13.3235796 103.877351,13.3208923 103.877351,13.1015563 C103.877351,12.2562894 103.877351,11.4137097 103.877351,10.5684768 C103.877351,10.3357725 103.879992,10.3330852 104.10415,10.3303979 C104.676923,10.3303979 105.249697,10.3303979 105.825111,10.3303979 C106.039365,10.3303979 106.041676,10.3330852 106.041676,10.5497339 C106.041676,11.3361529 106.041676,12.1225719 106.041676,12.9089569 C106.041676,12.9758326 106.041676,13.0427084 106.041676,13.1095841 C106.046958,13.3155518 106.046958,13.318205 106.245695,13.3208923 C106.715139,13.3235796 107.184582,13.3208923 107.654355,13.3208923 C107.71873,13.3208923 107.785746,13.3235796 107.850452,13.3208923 C107.943218,13.3155518 107.987125,13.3503163 107.984484,13.4519565 C107.981843,13.9120247 107.979202,14.3721269 107.984484,14.8321951 C107.984484,14.9846554 107.891718,14.9712871 107.798621,14.9712871 C107.329178,14.9712871 106.859735,14.9712871 106.389962,14.9712871 C106.00041,14.9712871 106.039365,14.9258075 106.039365,15.319 C106.039365,16.9693948 106.039365,18.6171023 106.039365,20.267497 C106.039365,20.4600964 106.046958,20.6500085 106.062474,20.8425738 C106.101099,21.3668645 106.346385,21.6316801 106.857094,21.6691318 C107.174348,21.6931812 107.496884,21.7012091 107.811496,21.6370206 C107.855404,21.6263055 107.904593,21.6263055 107.992077,21.6182777 L108,21.620965 Z" id="Path" fill="#1A1A1A"></path>
                                <path d="M70.9961882,21.6503889 C70.9961882,22.0275598 70.9988293,22.4207523 70.9961882,22.8112916 C70.9961882,22.9717797 71.0608935,23.1697196 70.9628452,23.2847281 C70.8621559,23.4051112 70.6607773,23.3408887 70.503636,23.3622849 C69.8199392,23.4612718 69.1336013,23.4719869 68.4578276,23.3248671 C67.503095,23.1162122 67.0646839,22.6026366 66.9431964,21.5835132 C66.9045714,21.2598497 66.8814623,20.9362202 66.8841034,20.6098694 C66.8864143,18.8551812 66.8841034,17.1004589 66.8841034,15.3457707 C66.8841034,15.278895 66.8788213,15.2120193 66.8841034,15.1451435 C66.8943374,15.030135 66.8401962,14.9980238 66.7342249,15.000711 C66.3575479,15.0060516 65.9835119,15.000711 65.6068349,15.000711 C65.5424598,15.000711 65.4754436,14.9953705 65.4107384,15.000711 C65.284299,15.0140794 65.248315,14.9552315 65.250956,14.8321951 C65.2559079,14.57272 65.250956,14.313279 65.250956,14.0564912 C65.250956,13.8933158 65.250956,13.7301404 65.250956,13.566965 C65.250956,13.3262328 65.253597,13.3235796 65.5011937,13.3235796 C65.8854636,13.3235796 66.2723746,13.3235796 66.6569747,13.3235796 C66.8659463,13.3235796 66.8708982,13.318205 66.8708982,13.0962157 C66.8708982,12.2910879 66.8708982,11.48596 66.8708982,10.6807981 C66.8708982,10.6139564 66.8761803,10.5470807 66.8708982,10.480205 C66.8606642,10.3678497 66.9098534,10.3303979 67.0181357,10.3303979 C67.3380305,10.3357725 67.6579254,10.3303979 67.9778202,10.3303979 C68.25909,10.3303979 68.5426707,10.3303979 68.8239405,10.3303979 C69.022678,10.3303979 69.025319,10.3357725 69.0279601,10.5337124 C69.0279601,11.2826456 69.0279601,12.0289255 69.0279601,12.7778928 C69.0279601,12.8741924 69.0279601,12.9704921 69.0279601,13.0667918 C69.0279601,13.3235796 69.0279601,13.3235796 69.2960247,13.3235796 C69.7578749,13.3235796 70.2170842,13.3235796 70.6762934,13.3235796 C70.7330755,13.3235796 70.7898577,13.3235796 70.8466399,13.3235796 C70.9394061,13.3208923 70.9806722,13.3636846 70.9806722,13.4599843 C70.9806722,13.9200525 70.9783613,14.3801547 70.9806722,14.8402229 C70.9806722,14.9926832 70.877672,14.9739403 70.7872167,14.9739403 C70.3177735,14.9739403 69.8483303,14.9739403 69.3785569,14.9739403 C69.3141818,14.9739403 69.2471656,14.9766276 69.1827905,14.9739403 C69.0794602,14.9685998 69.022678,15.0060516 69.030271,15.1210601 C69.035553,15.1772548 69.030271,15.2361027 69.030271,15.2949506 L69.030271,20.2434136 C69.030271,20.4627497 69.032912,20.684773 69.0665852,20.904109 C69.1438353,21.4230251 69.3683229,21.6477357 69.8816733,21.6771596 C70.1913341,21.6931812 70.500995,21.7012091 70.8080148,21.6423611 C70.8621559,21.6316801 70.9162971,21.6129372 70.9961882,21.6530762 L70.9961882,21.6503889 Z" id="Path" fill="#1B1B1B"></path>
                                <path d="M90.0723532,16.4155101 C90.0723532,18.6115576 90.0723532,20.804952 90.0723532,23.0009995 C90.0723532,23.3513997 90.1162604,23.3059202 89.7755674,23.3086074 C89.220951,23.3086074 88.6663345,23.3086074 88.1113879,23.3086074 C87.9179324,23.3086074 87.9129805,23.3032669 87.9129805,23.0999865 C87.9129805,22.4767429 87.9129805,21.8534993 87.9129805,21.2302557 C87.9129805,17.4346334 87.9129805,13.6390112 87.9129805,9.84070166 C87.9129805,9.48496093 87.8611503,9.51972542 88.2249522,9.51707216 C88.7617417,9.51707216 89.2955601,9.51707216 89.8323496,9.51707216 C90.0928212,9.51707216 90.0723532,9.50101655 90.0723532,9.77117268 L90.0723532,16.4128228 L90.0723532,16.4155101 Z" id="Path" fill="#1A1A1A"></path>
                                <path d="M40.8346268,15.1664376 C41.0412875,14.7063694 41.3119932,14.3104897 41.6629201,13.9708046 C42.4367421,13.2298651 43.3422855,12.9115421 44.4026594,13.0907732 C44.4957557,13.1067948 44.5548488,13.1201971 44.5525379,13.2432335 C44.5446148,13.8851859 44.5472558,14.5271724 44.5446148,15.1691249 C44.5446148,15.1851805 44.5290987,15.2038894 44.5188647,15.2226323 C44.3072521,15.1985489 44.0933286,15.1691249 43.879075,15.1530693 C42.8985924,15.0781658 42.1145364,15.4339405 41.5595898,16.2738329 C41.1132556,16.9505838 40.9637072,17.7129194 40.9637072,18.5127068 C40.9637072,19.9892111 40.9637072,21.4657494 40.9637072,22.9422537 L40.9637072,23.2418338 C40.8890981,23.3220778 40.8088768,23.2953411 40.7392196,23.2953411 C40.1743692,23.2979944 39.6118296,23.2953411 39.0469792,23.2953411 C38.7528344,23.2953411 38.7967415,23.2926539 38.7967415,23.025185 C38.7967415,20.446626 38.7967415,17.8653797 38.7967415,15.2868207 C38.7967415,14.7010289 38.7967415,14.1178903 38.7967415,13.5320985 C38.7967415,13.3261648 38.8016934,13.3207903 38.992838,13.3207903 C39.5372205,13.3207903 40.0839139,13.3207903 40.6282963,13.3207903 C40.8270339,13.3207903 40.8296749,13.3234775 40.8296749,13.5214174 C40.8296749,14.0670702 40.8296749,14.6154443 40.8296749,15.1610971 L40.8346268,15.1664376 Z" id="Path" fill="#1B1B1B"></path>
                                <path d="M85.9959223,18.3441228 L85.9959223,22.9769841 C85.9959223,23.0438599 85.9932813,23.1107356 85.9959223,23.1776113 C86.0038454,23.2792515 85.9497043,23.3113287 85.859249,23.3086755 C85.7275275,23.3059882 85.5961363,23.3086755 85.4644149,23.3086755 C84.9768146,23.3086755 84.4869034,23.3059882 83.9993031,23.3086755 C83.8830977,23.3086755 83.8210335,23.2792515 83.8339085,23.1481873 C83.8391906,23.0919927 83.8339085,23.0331448 83.8339085,22.9742969 L83.8339085,13.6524476 C83.8339085,13.6042807 83.8391906,13.5561479 83.8339085,13.507981 C83.8134405,13.3528675 83.8830977,13.3154157 84.0250531,13.318069 C84.6080606,13.3260968 85.1910682,13.318069 85.7740757,13.3207562 C85.9932813,13.3207562 85.9932813,13.3234435 85.9932813,13.5641757 C85.9932813,15.1556885 85.9932813,16.7472354 85.9932813,18.3414695 L85.9959223,18.3441228 Z" id="Path" fill="#1A1A1A"></path>
                                <path d="M18.5082444,17.5978769 C18.2399486,17.7396561 17.9380788,17.7744206 17.6517251,17.8520114 C16.2069822,18.2398633 14.7570564,18.6170002 13.3123135,19.0021989 C13.2297813,19.0235951 13.1523661,19.0556723 13.0646508,19.0262483 C13.0620758,18.9299827 13.142033,18.9058992 13.1988152,18.863107 C14.5455098,17.8626925 15.8922374,16.8596247 17.244082,15.867272 C17.4401785,15.7254928 17.613034,15.5409213 17.8529386,15.468705 C18.0567602,16.1133447 18.2580067,16.7579845 18.4617952,17.4026243 C18.4824613,17.4668127 18.4927613,17.5310011 18.5108194,17.5952236 L18.5082444,17.5978769 Z" id="Path" fill="#01542A"></path>
                                <path d="M84.9071574,11.6116156 C84.6080606,11.6116156 84.3059928,11.6116156 84.006896,11.6116156 C83.8986138,11.6116156 83.8339085,11.6009345 83.8339085,11.4591553 C83.8391906,10.8573078 83.8391906,10.2528071 83.8339085,9.65095966 C83.8339085,9.55197272 83.8702227,9.51720823 83.9656299,9.51720823 C84.5951856,9.51720823 85.2221003,9.51720823 85.851656,9.51720823 C85.9625793,9.51720823 85.9959223,9.56000052 85.9959223,9.66966854 C85.9932813,10.2634882 85.9909704,10.8573078 85.9959223,11.4511275 C85.9959223,11.5795384 85.9520152,11.6169561 85.8334989,11.6143029 C85.5238381,11.6089623 85.2141772,11.6143029 84.9048465,11.6143029 L84.9071574,11.6116156 Z" id="Path" fill="#1B1B1B"></path>
                            </g>
                        </g>
                    </g>
                    <polygon id="Path" fill="#00B67A" fill-rule="nonzero" points="19 39 0 39 0 58 19 58"></polygon>
                    <polygon id="Path" fill="#00B67A" fill-rule="nonzero" points="39 39 20 39 20 58 39 58"></polygon>
                    <polygon id="Path" fill="#00B67A" fill-rule="nonzero" points="58 39 39 39 39 58 58 58"></polygon>
                    <polygon id="Path" fill="#00B67A" fill-rule="nonzero" points="78 39 59 39 59 58 78 58"></polygon>
                    <polygon id="Path" fill="#DCDCE6" fill-rule="nonzero" points="98 39 89 39 89 58 98 58"></polygon>
                    <polygon id="Path" fill="#00B67A" fill-rule="nonzero" points="89 39 80 39 80 58 89 58"></polygon>
                    <path d="M9.5,52.1494528 L12.3242716,51.452333 L13.5051431,55 L9.5,52.1494528 Z M16,47.5662329 L11.0277763,47.5662329 L9.5,43 L7.97225736,47.5662329 L3,47.5662329 L7.02263324,50.3961997 L5.49489061,54.9624326 L9.51752385,52.1324658 L11.9948906,50.3961997 L16,47.5662329 Z" id="Shape" fill="#FFFFFF" fill-rule="nonzero"></path>
                    <path d="M29.5035385,52.1494528 L32.3278247,51.452333 L33.5087023,55 L29.5035385,52.1494528 Z M36,47.5662329 L31.027818,47.5662329 L29.5000337,43 L27.9722831,47.5662329 L23,47.5662329 L27.0226541,50.3961997 L25.4949035,54.9624326 L29.5175576,52.1324658 L31.9949372,50.3961997 L36,47.5662329 Z" id="Shape" fill="#FFFFFF" fill-rule="nonzero"></path>
                    <path d="M48.50337,52.1494528 L51.3277426,51.452333 L52.5085805,55 L48.50337,52.1494528 Z M55,47.5662329 L50.0276078,47.5662329 L48.5,43 L46.9720552,47.5662329 L42,47.5662329 L46.0223973,50.3961997 L44.4947895,54.9624326 L48.5175238,52.1324658 L50.9947895,50.3961997 L55,47.5662329 Z" id="Shape" fill="#FFFFFF" fill-rule="nonzero"></path>
                    <path d="M68.5,52.1494528 L71.3243727,51.452333 L72.5052105,55 L68.5,52.1494528 Z M75,47.5662329 L70.0276078,47.5662329 L68.5,43 L66.9720552,47.5662329 L62,47.5662329 L66.0227343,50.3961997 L64.4947895,54.9624326 L68.5175238,52.1324658 L70.9947895,50.3961997 L75,47.5662329 Z" id="Shape" fill="#FFFFFF" fill-rule="nonzero"></path>
                    <path d="M88.5,52.1494528 L91.3243727,51.452333 L92.5052105,55 L88.5,52.1494528 Z M95,47.5662329 L90.0279448,47.5662329 L88.5,43 L86.9723922,47.5662329 L82,47.5662329 L86.0227343,50.3961997 L84.4947895,54.9624326 L88.5175238,52.1324658 L90.9951265,50.3961997 L95,47.5662329 Z" id="Shape" fill="#FFFFFF" fill-rule="nonzero"></path>
                </g>
            </g>
        </g>
    </g>
</svg>